<svg xmlns="http://www.w3.org/2000/svg" xmlns:xlink="http://www.w3.org/1999/xlink" viewBox="0 0 631.62 453.68"><defs><style>.cls-1{isolation:isolate;}.cls-2,.cls-24,.cls-30,.cls-36,.cls-4{fill:#fff;}.cls-3{fill:#ff9e55;}.cls-4,.cls-5{opacity:0.2;}.cls-4{mix-blend-mode:overlay;}.cls-14,.cls-5{fill:#1d1d1b;}.cls-6{fill:#ffc990;}.cls-7{fill:#ededed;}.cls-8{fill:#d88e1d;}.cls-13,.cls-57,.cls-8{fill-rule:evenodd;}.cls-9{fill:#ffffad;}.cls-10{fill:#c6c6c6;}.cls-11{fill:#706f6f;}.cls-12{fill:#e6332a;}.cls-13{fill:#faa322;}.cls-14,.cls-24,.cls-26,.cls-31{opacity:0.1;}.cls-15{fill:#343433;}.cls-16{fill:#4d4c4c;}.cls-17{fill:#1b1b1a;}.cls-18{fill:#0081a1;}.cls-19{fill:#424241;}.cls-20{fill:#5b5a5a;}.cls-21{fill:#292928;}.cls-22{fill:#f1bc87;}.cls-23{fill:#683c11;}.cls-25{fill:#006680;}.cls-26,.cls-27,.cls-33{fill:#050504;}.cls-27{opacity:0.05;}.cls-28,.cls-36{opacity:0.75;}.cls-28{mix-blend-mode:screen;fill:url(#linear-gradient);}.cls-29{fill:#b2b2b2;}.cls-30{opacity:0.5;}.cls-31{fill:#10100f;}.cls-32{fill:#aeaeae;}.cls-33{opacity:0.15;}.cls-34{fill:#d0d0d0;}.cls-35{fill:#575757;}.cls-37{fill:#f2f2f2;}.cls-38{fill:#2a2929;}.cls-39{fill:#5b5b5a;}.cls-40{fill:#e21301;}.cls-41{fill:#404040;}.cls-42{fill:#7a7a7a;}.cls-43{fill:#c2c2c2;}.cls-44{fill:#cbbba0;}.cls-45{fill:#4f3e35;}.cls-46{fill:#3c3c3b;}.cls-47{fill:#dadada;}.cls-48{fill:#575756;}.cls-49{fill:#e94e1b;}.cls-50{fill:#95c11f;}.cls-51{fill:#dbcaad;}.cls-52{fill:#634e42;}.cls-53{fill:#8f8f8f;}.cls-54{fill:#272726;}.cls-55{fill:#006882;}.cls-56{fill:#005b73;}.cls-57{fill:#efe69a;}.cls-58{fill:#131313;}</style><linearGradient id="linear-gradient" x1="110.64" y1="224.9" x2="45.58" y2="297.52" gradientUnits="userSpaceOnUse"><stop offset="0" stop-color="#fff"/><stop offset="0.04" stop-color="#e1e1e1"/><stop offset="0.12" stop-color="#adadad"/><stop offset="0.2" stop-color="#7f7f7f"/><stop offset="0.29" stop-color="#585858"/><stop offset="0.38" stop-color="#383838"/><stop offset="0.47" stop-color="#1f1f1f"/><stop offset="0.56" stop-color="#0e0e0e"/><stop offset="0.66" stop-color="#030303"/><stop offset="0.78"/></linearGradient></defs><title>Asset 1</title><g class="cls-1"><g id="Layer_2" data-name="Layer 2"><g id="Layer_1-2" data-name="Layer 1"><rect class="cls-2" width="631.62" height="453.68"/><rect class="cls-3" x="18.84" y="3.85" width="598.78" height="434.43"/><path class="cls-4" d="M567.8,71.83H529.35c-1.54,0-2.78-.9-2.78-2V62.29c0-1.11,1.24-2,2.78-2H567.8c1.53,0,2.77.9,2.77,2v7.52C570.57,70.93,569.33,71.83,567.8,71.83Z"/><path class="cls-4" d="M570,45.28H531.54c-1.54,0-2.78-.9-2.78-2V35.74c0-1.11,1.24-2,2.78-2H570c1.54,0,2.78.9,2.78,2v7.52C572.76,44.38,571.52,45.28,570,45.28Z"/><path class="cls-4" d="M617.62,34.09V44.92a3.66,3.66,0,0,1-1.6.36H577.58c-1.53,0-2.78-.9-2.78-2V35.74c0-1.11,1.25-2,2.78-2H616A3.66,3.66,0,0,1,617.62,34.09Z"/><path class="cls-4" d="M547.16,58.42H508.72c-1.54,0-2.78-.9-2.78-2V48.89c0-1.12,1.24-2,2.78-2h38.44c1.54,0,2.78.9,2.78,2v7.52C549.94,57.52,548.7,58.42,547.16,58.42Z"/><path class="cls-4" d="M593.21,58.42H554.76c-1.53,0-2.78-.9-2.78-2V48.89c0-1.12,1.25-2,2.78-2h38.45c1.53,0,2.78.9,2.78,2v7.52C596,57.52,594.74,58.42,593.21,58.42Z"/><path class="cls-4" d="M383.57,259.22H422c1.53,0,2.78.9,2.78,2v7.52c0,1.11-1.25,2-2.78,2H383.57c-1.53,0-2.78-.91-2.78-2v-7.52C380.79,260.12,382,259.22,383.57,259.22Z"/><path class="cls-4" d="M381.38,285.77h38.45c1.53,0,2.78.9,2.78,2v7.52c0,1.11-1.25,2-2.78,2H381.38c-1.53,0-2.78-.91-2.78-2v-7.52C378.6,286.67,379.85,285.77,381.38,285.77Z"/><path class="cls-4" d="M335.34,285.77h38.45c1.53,0,2.78.9,2.78,2v7.52c0,1.11-1.25,2-2.78,2H335.34c-1.53,0-2.78-.91-2.78-2v-7.52C332.56,286.67,333.81,285.77,335.34,285.77Z"/><path class="cls-4" d="M404.2,272.63h38.45c1.53,0,2.78.9,2.78,2v7.53c0,1.11-1.25,2-2.78,2H404.2c-1.53,0-2.78-.9-2.78-2v-7.53C401.42,273.53,402.67,272.63,404.2,272.63Z"/><path class="cls-4" d="M358.16,272.63h38.45c1.53,0,2.77.9,2.77,2v7.53c0,1.11-1.24,2-2.77,2H358.16c-1.54,0-2.78-.9-2.78-2v-7.53C355.38,273.53,356.62,272.63,358.16,272.63Z"/><path class="cls-4" d="M244.93,176.3h38.45c1.53,0,2.77.9,2.77,2v7.53c0,1.11-1.24,2-2.77,2H244.93c-1.54,0-2.78-.9-2.78-2v-7.53C242.15,177.2,243.39,176.3,244.93,176.3Z"/><path class="cls-4" d="M242.74,202.85h38.45c1.53,0,2.78.9,2.78,2v7.53c0,1.11-1.25,2-2.78,2H242.74c-1.53,0-2.78-.9-2.78-2v-7.53C240,203.75,241.21,202.85,242.74,202.85Z"/><path class="cls-4" d="M196.7,202.85h38.45c1.53,0,2.77.9,2.77,2v7.53c0,1.11-1.24,2-2.77,2H196.7c-1.54,0-2.78-.9-2.78-2v-7.53C193.92,203.75,195.16,202.85,196.7,202.85Z"/><path class="cls-4" d="M265.56,189.7H304c1.53,0,2.78.91,2.78,2v7.52c0,1.11-1.25,2-2.78,2H265.56c-1.53,0-2.78-.91-2.78-2v-7.52C262.78,190.61,264,189.7,265.56,189.7Z"/><path class="cls-4" d="M219.51,189.7H258c1.54,0,2.78.91,2.78,2v7.52c0,1.11-1.24,2-2.78,2H219.51c-1.53,0-2.77-.91-2.77-2v-7.52C216.74,190.61,218,189.7,219.51,189.7Z"/><path class="cls-4" d="M309.19,121.41h38.45c1.53,0,2.77.91,2.77,2V131c0,1.12-1.24,2-2.77,2H309.19c-1.54,0-2.78-.9-2.78-2v-7.52C306.41,122.32,307.65,121.41,309.19,121.41Z"/><path class="cls-4" d="M263.15,121.41H301.6c1.53,0,2.77.91,2.77,2V131c0,1.12-1.24,2-2.77,2H263.15c-1.54,0-2.78-.9-2.78-2v-7.52C260.37,122.32,261.61,121.41,263.15,121.41Z"/><path class="cls-4" d="M332,108.27h38.45c1.53,0,2.77.9,2.77,2v7.53c0,1.11-1.24,2-2.77,2H332c-1.54,0-2.78-.9-2.78-2v-7.53C329.23,109.17,330.47,108.27,332,108.27Z"/><path class="cls-4" d="M286,108.27h38.45c1.54,0,2.78.9,2.78,2v7.53c0,1.11-1.24,2-2.78,2H286c-1.53,0-2.77-.9-2.77-2v-7.53C283.19,109.17,284.43,108.27,286,108.27Z"/><path class="cls-4" d="M367.58,47.3H329.14c-1.54,0-2.78-.9-2.78-2V37.76c0-1.11,1.24-2,2.78-2h38.44c1.54,0,2.78.9,2.78,2v7.53C370.36,46.4,369.12,47.3,367.58,47.3Z"/><path class="cls-4" d="M413.63,47.3H375.18c-1.54,0-2.78-.9-2.78-2V37.76c0-1.11,1.24-2,2.78-2h38.45c1.53,0,2.77.9,2.77,2v7.53C416.4,46.4,415.16,47.3,413.63,47.3Z"/><path class="cls-4" d="M390.81,60.45H352.36c-1.53,0-2.78-.91-2.78-2V50.91c0-1.11,1.25-2,2.78-2h38.45c1.53,0,2.78.91,2.78,2v7.52C393.59,59.54,392.34,60.45,390.81,60.45Z"/><path class="cls-4" d="M103.73,171.69H65.28c-1.54,0-2.78-.9-2.78-2v-7.52c0-1.11,1.24-2,2.78-2h38.45c1.53,0,2.77.91,2.77,2v7.52C106.5,170.79,105.26,171.69,103.73,171.69Z"/><path class="cls-4" d="M105.91,145.14H67.46c-1.53,0-2.77-.91-2.77-2V135.6c0-1.11,1.24-2,2.77-2h38.45c1.54,0,2.78.91,2.78,2v7.52C108.69,144.23,107.45,145.14,105.91,145.14Z"/><path class="cls-4" d="M152,145.14H113.51c-1.54,0-2.78-.91-2.78-2V135.6c0-1.11,1.24-2,2.78-2H152c1.54,0,2.78.91,2.78,2v7.52C154.73,144.23,153.49,145.14,152,145.14Z"/><path class="cls-4" d="M83.09,158.28H44.65c-1.54,0-2.78-.9-2.78-2v-7.53c0-1.11,1.24-2,2.78-2H83.09c1.54,0,2.78.9,2.78,2v7.53C85.87,157.38,84.63,158.28,83.09,158.28Z"/><path class="cls-4" d="M129.14,158.28H90.69c-1.53,0-2.78-.9-2.78-2v-7.53c0-1.11,1.25-2,2.78-2h38.45c1.53,0,2.78.9,2.78,2v7.53C131.92,157.38,130.67,158.28,129.14,158.28Z"/><path class="cls-4" d="M617.62,176.76V188.3H585.78c-1.53,0-2.77-.9-2.77-2v-7.53c0-1.11,1.24-2,2.77-2Z"/><path class="cls-4" d="M617.62,150.2v11.55H588c-1.54,0-2.78-.9-2.78-2v-7.53c0-1.11,1.24-2,2.78-2Z"/><path class="cls-4" d="M603.6,174.9H565.15c-1.54,0-2.78-.9-2.78-2v-7.52c0-1.11,1.24-2,2.78-2H603.6c1.53,0,2.77.9,2.77,2v7.52C606.37,174,605.13,174.9,603.6,174.9Z"/><path class="cls-4" d="M617.62,163.35V174.9h-6.43c-1.53,0-2.78-.91-2.78-2v-7.52c0-1.11,1.25-2,2.78-2Z"/><rect class="cls-5" x="18.84" y="326.81" width="598.78" height="111.47"/><path class="cls-6" d="M146.85,232.64a9.39,9.39,0,0,1-3.36,6.38,9.24,9.24,0,0,1-2.23,1.41c-3.8,1.74-8.87,1-13-4.16L114.75,218l-.06-.09-.28-.37-.28-.39-1.43-1.93,3.06-4.24L121,203.7l0,0,5,4.62,12.79,11.73,3.33,3C145.82,226.17,147.1,229.59,146.85,232.64Z"/><polygon class="cls-6" points="154.13 232.28 143.49 239.02 141.26 240.43 139.45 234.5 135.79 222.48 138.88 220.09 143.31 216.67 152.22 229.53 154.13 232.28"/><path class="cls-7" d="M174.17,219.32c-.33.28-.68.54-1,.8l-3.43,2.19-5.92,3.79-1.51,1-.2.13-5.12,3.28h0l-1.42.92-1.37.87-1.91-2.75-8.91-12.86,14.77-10.29.7-.49.68-.48,3.45-2.4a14.72,14.72,0,0,1,3.49-1.77,11.62,11.62,0,0,1,3.79-.67c.43,0,.84,0,1.25.07a9.41,9.41,0,0,1,1.53.3C180,202.87,183.3,212.05,174.17,219.32Z"/><path class="cls-8" d="M122.41,209l-7.59,8.73-.13.15-.46.53-1.15-2.21-2-3.82c-1.26-1.83-2-.81-4.22-2.53l-1.49-1.71-3.27-3.74-.86-1a31.5,31.5,0,0,1,1.2-3.19s0,0,0-.05q.47-1.06,1-2.07v0c.37-.68.75-1.35,1.17-2a.42.42,0,0,1,.09-.14,41.67,41.67,0,0,1,2.59-3.66l0-.06q.81-1,1.71-2.1l.28.22,1.55,1.2,2,1.56.94.73,1.59-2.16h0l1.34,1.42c1.18,1.27,2.77,3,2.94,3.19a6.1,6.1,0,0,1,1.12,4.79l-.24,1,.44,1.69Z"/><path class="cls-9" d="M88.89,211.3l1.25-1.66,11.89,9-1.25,1.66C99.81,221.55,87.93,212.57,88.89,211.3Z"/><path class="cls-10" d="M89.69,209.3,102.48,219l0-.06a6.21,6.21,0,0,0-1.21-8.7L98.43,208a6.2,6.2,0,0,0-8.7,1.21Z"/><polygon class="cls-7" points="96.74 206.97 114.21 183.94 120.26 188.51 102.79 211.55 96.74 206.97"/><path class="cls-10" d="M115.24,182.57l-1,1.37,6.05,4.58,1-1.38A1.54,1.54,0,0,0,121,185l-3.59-2.71A1.55,1.55,0,0,0,115.24,182.57Z"/><rect class="cls-11" x="116.13" y="182.98" width="1.37" height="7.59" transform="translate(-102.63 167.4) rotate(-52.93)"/><rect class="cls-11" x="99.39" y="205.06" width="1.37" height="7.59" transform="translate(-126.89 162.81) rotate(-52.93)"/><rect class="cls-11" x="94.42" y="206.94" width="2.08" height="16.04" transform="translate(-133.6 161.56) rotate(-52.93)"/><path class="cls-10" d="M106.2,198.57a1.31,1.31,0,0,1,1.83-.25h0a1.31,1.31,0,0,1,.26,1.83l-3.07,4.06a1.31,1.31,0,0,1-1.83.26h0a1.31,1.31,0,0,1-.26-1.83Z"/><rect class="cls-11" x="103.42" y="201.01" width="4.62" height="0.72" transform="translate(-118.68 164.36) rotate(-52.93)"/><path class="cls-12" d="M103.54,202.61a1,1,0,1,1,.19,1.4A1,1,0,0,1,103.54,202.61Z"/><path class="cls-13" d="M126.42,208.08l-.33.28-11.16,9.47-.18.15-.52.44.18-.9,0-.12,1.32-6.44,1-4.87a6.83,6.83,0,0,1-2.85-9l-.08-.09-.41-.45a1.21,1.21,0,0,0-1-.39l-1.91.1-.29,0a2.85,2.85,0,0,1-3-2.73l0-.43v0a1.3,1.3,0,0,1,.17-.7.16.16,0,0,1,0-.07,1.34,1.34,0,0,1,.85-.61.78.78,0,0,1,.22,0l2.37-.14,1.94-.11,1.57-.09a1.45,1.45,0,0,1,1,.33h0l1.34,1.42c1.18,1.27,2.77,3,2.94,3.19a6.1,6.1,0,0,1,1.12,4.79l-.24,1Z"/><path class="cls-13" d="M109.15,194.14a2.11,2.11,0,0,0,3,0l.28-.27a2.11,2.11,0,0,0,0-3l-3-3a2,2,0,0,0-2.8,0l-.57.57a1.85,1.85,0,0,0,0,2.61Z"/><path class="cls-13" d="M106.64,198.18a2.15,2.15,0,0,0,1.51.65,2.12,2.12,0,0,0,1.52-.62l.27-.27a2.12,2.12,0,0,0,0-3l-3.75-3.9a2,2,0,0,0-2.82,0l-.57.56a1.85,1.85,0,0,0,0,2.6Z"/><path class="cls-13" d="M103.14,200.94a2.13,2.13,0,0,0,3,0l.28-.27a2.17,2.17,0,0,0,.63-1.5,2.12,2.12,0,0,0-.62-1.5l-3-3.05a2,2,0,0,0-2.8,0l-.57.56a1.87,1.87,0,0,0,0,2.62Z"/><path class="cls-13" d="M100.81,204a1.69,1.69,0,0,0,2.39-.08l.23-.23a1.69,1.69,0,0,0,.1-2.39l-2.32-2.33A1.57,1.57,0,0,0,99,199l-.47.46a1.49,1.49,0,0,0-.09,2.09Z"/><path class="cls-14" d="M162.84,222.66c-3.81,1.83-7.11,4.51-10.62,6.87-.75.52-1.52,1-2.3,1.49a29.86,29.86,0,0,1-3.07,1.62,19.29,19.29,0,0,1-7.4,1.86,12.49,12.49,0,0,1-4.19-.58c-3-1-5.47-3.09-7.85-5.17l-12.35-10.81c0,.06-.09.12-.14.17l0,0,13.39,18.12c4.12,5.21,9.19,5.9,13,4.16a9.24,9.24,0,0,0,2.23-1.41l10.64-6.74,1.37-.87,1.42-.92h0l5.12-3.28.2-.13,1.51-1A5.9,5.9,0,0,0,162.84,222.66Z"/><path class="cls-15" d="M125.32,356.1l0,3.07,39.14-.42-.08-7.12c0-.41,0-.82,0-1.23s0-1-.08-1.43v-.06c0-.24,0-.47-.05-.7s0-.47-.06-.7c-.09-1.07-.22-2.15-.39-3.21,0-.26-.08-.52-.13-.79l-.74-4.41,0-.14-.4-2.28-3.72-.31-8.51-.71-3.28-.28-.43,1.67-.3,1.21-.34,1.32-.31,1.22h0l0,.11a9.18,9.18,0,0,1-.88,2.11l0,0a6.18,6.18,0,0,1-.67.94,7.16,7.16,0,0,1-.85.89.16.16,0,0,1-.08.06,6.76,6.76,0,0,1-.72.58,7.14,7.14,0,0,1-1.08.61,6.35,6.35,0,0,1-1,.4h0a7.83,7.83,0,0,1-1.16.28,8.77,8.77,0,0,1-1.15.1l-3.69,0a9.18,9.18,0,0,0-2.69.44c-.22.07-.42.14-.63.23l-.6.27a9,9,0,0,0-2.73,2.09c-.16.18-.31.36-.45.55l-.09.12a3,3,0,0,0-.28.41,1.67,1.67,0,0,0-.18.28,1.74,1.74,0,0,0-.15.26,3,3,0,0,0-.21.4c-.1.19-.19.39-.28.6l-.15.43c-.07.19-.13.37-.18.55l0,.12c-.05.19-.1.38-.13.57a3.23,3.23,0,0,0-.06.33c0,.13,0,.26-.05.4a2.19,2.19,0,0,0,0,.36c0,.12,0,.24,0,.36Z"/><path class="cls-16" d="M125.32,356.1l0,2.94,23.32-.25-.7-7.71c-6.1.43-10.16.22-10.58-4.16l-3.11,0a9,9,0,0,0-9,9.15Z"/><path class="cls-17" d="M144.12,358.89l2.77,0,6.89-.05,10.71-.07-.08-7.12c0-.41,0-.82,0-1.23s0-1-.08-1.43v-.06c0-.24,0-.47-.05-.7s0-.47-.06-.7c-.09-1.07-.22-2.15-.39-3.21,0-.26-.08-.52-.13-.79l-.74-4.4,0-.15-.39-2.28-3.72-.31a10.19,10.19,0,0,0-10.69,7.54l-.12.44-.62,2.34-.12.47-.86,3.22-.21.81,0,.16-1.86,7-.13.5Z"/><path class="cls-16" d="M146.88,358.94l17.61-.19-.08-7.12c0-.41,0-.82,0-1.23s0-1-.08-1.43v-.06c0-.24,0-.47-.05-.7s0-.47-.06-.7c-.09-1.07-.22-2.15-.39-3.21,0-.26-.08-.52-.13-.79l-.74-4.41,0-.14h0l-2.33-.19a9.7,9.7,0,0,0-9.92,6.27c-.1.26-.18.54-.26.81l-.23.87-.12.46h0l-1.14,4.26-.27,1-.4,1.43h0l-1.18,4.4-.13.5,0,.06Z"/><path class="cls-17" d="M153.76,357.06l0,1.8,10.71-.11-.08-7.12c0-.41,0-.82,0-1.23s0-1-.08-1.43v-.06h-.53a12,12,0,0,0-2.64.31,10,10,0,0,0-6.13,3.91,6.1,6.1,0,0,0-.34.54A6.69,6.69,0,0,0,153.76,357.06Z"/><path class="cls-17" d="M125.32,356.1l0,2.94,7.35-.08v-.06a6.38,6.38,0,0,0-6.44-6.31H126A9,9,0,0,0,125.32,356.1Z"/><path class="cls-17" d="M146.46,338.32l1.64.23a.62.62,0,0,0,.72-.52h0a.64.64,0,0,0-.53-.73l-1.64-.23a.62.62,0,0,0-.72.52h0A.63.63,0,0,0,146.46,338.32Z"/><path class="cls-17" d="M145.76,340.84l1.64.24a.63.63,0,0,0,.72-.53h0a.62.62,0,0,0-.52-.72l-1.64-.24a.64.64,0,0,0-.73.53h0A.63.63,0,0,0,145.76,340.84Z"/><path class="cls-17" d="M144.72,343l1.59.48a.62.62,0,0,0,.79-.41h0a.63.63,0,0,0-.41-.79l-1.59-.49a.63.63,0,0,0-.79.41v0A.64.64,0,0,0,144.72,343Z"/><path class="cls-17" d="M143.17,344.89a.66.66,0,0,0,.24.23l1.47.76a.62.62,0,0,0,.85-.24v0a.63.63,0,0,0-.25-.85L144,344h0a.63.63,0,0,0-.86.25h0A.64.64,0,0,0,143.17,344.89Z"/><path class="cls-17" d="M141.29,346.14a.51.51,0,0,0,.1.21l1.07,1.27a.63.63,0,0,0,.89.09h0a.64.64,0,0,0,.1-.89l-1.07-1.27h0a.64.64,0,0,0-.88-.08h0A.6.6,0,0,0,141.29,346.14Z"/><path class="cls-17" d="M139.11,346.82a.43.43,0,0,0,0,.25l.51,1.57a.62.62,0,0,0,.79.42h0a.64.64,0,0,0,.42-.79l-.51-1.58a1.07,1.07,0,0,0-.07-.15,0,0,0,0,0,0,0l-.12-.12a.36.36,0,0,0-.12-.08h0a.61.61,0,0,0-.46,0h0A.61.61,0,0,0,139.11,346.82Z"/><path class="cls-17" d="M149.38,361.5l.6-.17,2.1-.73v.87l13.17-.14,0-3.22-40.63.44,0,3.22Z"/><path class="cls-18" d="M189.19,297.32c-.84.06-1.71.1-2.61.11l-1.31,0-17,.33-7.48.15L158,298l-12.64.25h-.09a13.38,13.38,0,0,1-8.21-2.76,13.59,13.59,0,0,1-3.49-3.94,13.39,13.39,0,0,1-1.83-6.74v-.27a12.36,12.36,0,0,1,.19-2.21,2.34,2.34,0,0,1,0-.26,13.46,13.46,0,0,1,10.51-10.78,14.67,14.67,0,0,1,2.59-.28h.11l6.22-.08,16.64-.34h.55l17.28-.36,5.24-.11h0l15.49-.53a7.72,7.72,0,0,1,4.77,5.07C214.19,282.38,209.63,296,189.19,297.32Z"/><path class="cls-18" d="M164.2,347.59l-.08,0a6.56,6.56,0,0,1-3.11.71,1,1,0,0,1-.17,0l-11-.41h-.1l-1.26,0-1.42-.06h0l-1.11,0a6.49,6.49,0,0,1-2.33-.52,6.3,6.3,0,0,1-1-.54,5.77,5.77,0,0,1-1-.75,2.54,2.54,0,0,1-.29-.28,6.64,6.64,0,0,1-1.78-3.64l-1.09-7.43-1.7-11.14-.25-1.71-.79-5.36-.34-2.35-.64-4.36-1-6.66-.07-.46-1.57-10.76-.35-2.41-.21-1.41c0-.26-.06-.52-.09-.79a13.44,13.44,0,0,1,11.48-14.5l.26,0a14,14,0,0,1,2.32-.14,13.43,13.43,0,0,1,9.76,4.56,13.22,13.22,0,0,1,2.84,5.19,11.48,11.48,0,0,1,.38,1.76l2.28,13.89.76,4.65,1.17,7.12.39,2.4.87,5.35.28,1.7L166,330.29l1.69,10.28A6.7,6.7,0,0,1,164.2,347.59Z"/><path class="cls-19" d="M277.35,358.47l-.12,0-.49.12-2.37.58-.37.08a1.8,1.8,0,0,1-.32.06,7.37,7.37,0,0,1-1.32.12H272a8.92,8.92,0,0,1-1.17-.11c-.22,0-.44-.08-.65-.13l-.43-.11a6.38,6.38,0,0,1-.87-.3l-.2-.08a.45.45,0,0,1-.12-.06,5.59,5.59,0,0,1-.65-.32,7.16,7.16,0,0,1-.66-.39l-.2-.14c-.19-.13-.38-.27-.56-.42l0,0a3.89,3.89,0,0,1-.48-.43,1.88,1.88,0,0,1-.25-.24,9,9,0,0,1-2.28-4.14l-.75-3-.13-.55a7,7,0,0,0-.36-1.09,6.26,6.26,0,0,0-.53-1.07h0a6.75,6.75,0,0,0-.62-.89,6.09,6.09,0,0,0-.84-.91l-.28-.24a3.54,3.54,0,0,0-.45-.34l-.08-.06a6.22,6.22,0,0,0-1.05-.63,6.75,6.75,0,0,0-1.08-.43l0,0A8.18,8.18,0,0,0,256,343a8.44,8.44,0,0,0-1-.09h-.13l-1.25,0h-1.37l-1.24,0h0l-1.71,0-.48-3.26-1.24-8.45L247,327.4l2.13-.9.14-.06,4.12-1.73.75-.3c1-.4,2-.77,3-1.11l.67-.22.67-.2.06,0,.15-.05,1.23-.35,1.19-.31,6.31-1.54.6-.15,2.55,10.4,1.64,6.71,2.22,9.06Z"/><path class="cls-20" d="M277.23,358.5l-.49.12-2.37.58-.37.08a1.8,1.8,0,0,1-.32.06,7.37,7.37,0,0,1-1.32.12,2.41,2.41,0,0,1-.38,0,8.92,8.92,0,0,1-1.17-.11c-.22,0-.44-.08-.65-.13l-.43-.11a6.38,6.38,0,0,1-.87-.3l-.32-.14a5.59,5.59,0,0,1-.65-.32,7.16,7.16,0,0,1-.66-.39l-.2-.14c-.19-.13-.38-.27-.56-.42l0,0a3.89,3.89,0,0,1-.48-.43,1.88,1.88,0,0,1-.25-.24,9,9,0,0,1-2.28-4.14l-.75-3c2.95-1,3.45-3.28,2.86-6.6-.16-.89-.4-1.86-.7-2.91-.15-.55-.33-1.13-.51-1.73l2.68-.89h0l4.18-1.39.47-.16.42,1.71.66,2.69,1.56,6.39,1.16,4.73Z"/><path class="cls-21" d="M272.81,340.26l-.65-2.69-1.61-6.7-2.5-10.41-6.92,1.69-1.19.31c-.46.12-.92.26-1.38.4l-.06,0-.67.2-.66.22c-1,.34-2,.71-3,1.11l-.75.31-4.11,1.72-.14.07-2.14.89.55,3.69a10.2,10.2,0,0,0,9.77,8.7h.45l2.42.08h.49l3.33.1.84,0H265l7.24.22h.56Z"/><path class="cls-20" d="M272.23,337.57l-4.18-17.11-6.92,1.69-1.19.31c-.46.12-.92.26-1.38.4l-.06,0-.67.2-.66.22c-1,.34-2,.71-3,1.11l-.75.31-4.12,1.72-.14.06h0l.34,2.3a9.7,9.7,0,0,0,8.36,8.24,8.12,8.12,0,0,0,.85.07l.9,0,.47,0h0l4.4.14,1.07,0,1.48.06h0l4.56.15h.64Z"/><path class="cls-21" d="M268.84,331.29l1.75-.43-2.54-10.4-6.92,1.69-1.19.31c-.46.12-.92.26-1.38.4l-.06,0,.13.51a12.66,12.66,0,0,0,.9,2.51,10,10,0,0,0,5.21,5.08c.19.08.39.14.6.21A6.7,6.7,0,0,0,268.84,331.29Z"/><path class="cls-21" d="M277.23,358.5l-.49.12-2.37.58-.37.08a1.8,1.8,0,0,1-.32.06,7.37,7.37,0,0,1-1.32.12,2.41,2.41,0,0,1-.38,0,8.92,8.92,0,0,1-1.17-.11l-.07-.27A6.36,6.36,0,0,1,275,351.5a2.77,2.77,0,0,1,.41-.12h.07Z"/><path class="cls-21" d="M252.25,342.66l-.14-1.65a.64.64,0,0,0-.68-.59h0a.64.64,0,0,0-.59.68l.15,1.65a.63.63,0,0,0,.67.59h0A.63.63,0,0,0,252.25,342.66Z"/><path class="cls-21" d="M254.87,342.77l-.15-1.65a.63.63,0,0,0-.67-.59h0a.64.64,0,0,0-.59.68l.14,1.65a.64.64,0,0,0,.68.59h0A.64.64,0,0,0,254.87,342.77Z"/><path class="cls-21" d="M257.24,343.28l.11-1.66a.63.63,0,0,0-.58-.68h0a.63.63,0,0,0-.68.58l-.11,1.66a.63.63,0,0,0,.58.68h0A.63.63,0,0,0,257.24,343.28Z"/><path class="cls-21" d="M259.39,344.37a.71.71,0,0,0,.18-.29l.41-1.6a.64.64,0,0,0-.44-.78h0a.62.62,0,0,0-.77.44l-.41,1.6h0a.63.63,0,0,0,.45.77h0A.62.62,0,0,0,259.39,344.37Z"/><path class="cls-21" d="M262.21,344.44l-1,1.33a.65.65,0,0,1-.18.15.6.6,0,0,1-.71,0h0a.63.63,0,0,1-.12-.86v0l1-1.33a.64.64,0,0,1,.89-.11h0A.62.62,0,0,1,262.21,344.44Z"/><path class="cls-21" d="M263.85,347l-1.42.86a.42.42,0,0,1-.24.07.61.61,0,0,1-.62-.3h0a.56.56,0,0,1-.07-.45v0a.35.35,0,0,1,.06-.14.42.42,0,0,1,.09-.14h0l.13-.1,1.42-.86a.64.64,0,0,1,.87.23h0A.62.62,0,0,1,263.85,347Z"/><path class="cls-21" d="M280.05,358.59l-3.13.76-.18-.73L275,351.5l-1.19-4.85-1.57-6.41-.66-2.69-.37-1.54L270,331l-2.54-10.4-.18-.73,3.13-.76,3.13,12.8-.86.2,1.2,1.88.3.55L277,346.23Z"/><path class="cls-18" d="M217.83,288.85l-.12,6h0l-.14,7.71,0,1.92-.33,3.23,0,.22-.19,1.75-.26,2.42-1.87,17.31L212.74,349l0,.08a13.44,13.44,0,0,1-1.18,4.09c-.16.35-.35.7-.54,1a12.9,12.9,0,0,1-.81,1.22,13.3,13.3,0,0,1-5.27,4.27,13.3,13.3,0,0,1-7.24,1.11l-.27,0a11.84,11.84,0,0,1-2.42-.54,13.41,13.41,0,0,1-6.32-4.27l0-.05c-.15-.19-.29-.38-.43-.58l-.35-.52a.94.94,0,0,1-.09-.12.83.83,0,0,1-.08-.12,6.16,6.16,0,0,1-.33-.55c-.12-.2-.23-.39-.33-.6a.75.75,0,0,1-.06-.13l-.06-.13a2.86,2.86,0,0,1-.22-.47.69.69,0,0,1-.05-.13,2.88,2.88,0,0,1-.13-.31,1,1,0,0,1,0-.1.75.75,0,0,1-.05-.16l-.09-.23c-.06-.15-.1-.3-.15-.46s-.16-.55-.22-.83a.14.14,0,0,1,0-.06c-.07-.31-.13-.62-.18-.94a6,6,0,0,1-.07-.61h0a.64.64,0,0,1,0-.2c0-.08,0-.15,0-.22a14.53,14.53,0,0,1,.06-2.71V344.3l0-4.83-.28-29.76-.05-5.88v-1.24l0-3.77V296l-.06-11.76s16.66-13.81,26.17-9.64a8.44,8.44,0,0,1,3.43,2.78C216.53,279.76,217.66,283.42,217.83,288.85Z"/><path class="cls-18" d="M260.68,341.51a6.82,6.82,0,0,1-.3,2.13,6.43,6.43,0,0,1-.46,1.12h0v0a6.63,6.63,0,0,1-4.41,3.4l-7.31,1.72-11,2.62-1.68.39-5.27,1.24-2.32.54-10.84,2.53L205,360.06l-1.28.3-1.39.31c-.26.07-.52.11-.78.17a13.47,13.47,0,0,1-9.66-2,13.12,13.12,0,0,1-3.2-2.93l0-.05c-.15-.19-.29-.38-.43-.58a13.41,13.41,0,0,1-2.08-4.68l-.07-.26a13.42,13.42,0,0,1,0-6.08,13.57,13.57,0,0,1,2.94-5.79,6.06,6.06,0,0,1,.47-.54,13.21,13.21,0,0,1,3.2-2.47,13.8,13.8,0,0,1,1.74-.8,15,15,0,0,1,1.72-.52l18.73-4.71,8.84-2.22,5.26-1.31,1.67-.43,10.94-2.72,10.11-2.54a6.64,6.64,0,0,1,6.94,2.45,1.34,1.34,0,0,1,.11.14c.1.13.19.27.28.41a6.42,6.42,0,0,1,1,3,1.1,1.1,0,0,1,0,.18l0,.32v0l.34,7.23.14,3.17h0l0,.34h0l.06,1.25.05,1.11v.35l.05,1.11a.43.43,0,0,1,0,.16Z"/><path class="cls-22" d="M167.94,202.63a15,15,0,0,1-8.33,3.2L151.44,183c1.47-.48,9.16-4.64,14.86-7.83l7.26,14.38,1,2a.71.71,0,0,1,.26.13C176.57,192.58,171.31,200.21,167.94,202.63Z"/><path class="cls-18" d="M217.71,294.87h0c0,.1-16.85,3.84-23.75,3.22a31.87,31.87,0,0,1-4.77-.78,24.77,24.77,0,0,1-3.93-1.28,17.17,17.17,0,0,1-9.81-9.39c-.37-.75-.74-1.5-1.09-2.26-1.09-2.27-2.12-4.59-3.09-6.94s-1.85-4.58-2.69-6.88c-1-2.62-1.88-5.25-2.73-7.85q-1.54-4.7-2.81-9.19C158.7,238.3,157.21,233,157,230.65h0a.86.86,0,0,1,0-.16c-.69-6.31.42-12.88,1.61-17.92.62-2.6,1.26-4.8,1.69-6.34l1.23-.61h0l7.25-3.62,2.69-1.34,9.87-4.91a46.53,46.53,0,0,1,7.36,6.05l.2.22c7.78,8.72,21.3,47,26.35,62.21C220.34,271.32,221.89,286.19,217.71,294.87Z"/><path class="cls-6" d="M169.91,181.26c.67,2.7-4.51,1.57-7.17,2.63a1.28,1.28,0,0,1-.24.11c2.82,7.16-1.63,14.52-5.79,16.84l-.41.21-3.61,1.41c-3.45,1.29-6.4-2-7.51-4.87,0,0-.09-.34-.24-.87-.24-.86-.63-2.23-1-3.53h0c-.32-1.11-.63-2.16-.83-2.79-.06-.19-.11-.34-.15-.44l-1.78.12a1.94,1.94,0,0,1-2.17-2l.37-4.58.08-1a18.67,18.67,0,0,1-1.53-1.73,24.79,24.79,0,0,1-.84-3.49,19.68,19.68,0,0,1-.13-6,15.31,15.31,0,0,1,9.9-12.29c3-1,6.77-2.6,10.66-2.24.28,0,.55.06.83.11,4.12.68,8.25,3.74,11.48,12.11C170.85,172.89,169.18,178.26,169.91,181.26Z"/><path class="cls-23" d="M170.92,185.32c-10.62,6.51-8.74-8.88-8.74-8.88s-2.72,1-3.24,2.45c-1.41.64-2.31.92-3.46,1.45-5.72-14.23-3.76-18-18.52-9.06,0-7.08,5.42-14.48,10.88-14.92,9-.73,17.61-.75,21.31,7.48C171.3,168.62,172.76,171.21,170.92,185.32Z"/><path class="cls-6" d="M164.51,176.88c.92,2.67-.27,6.53-2,7.13s-2.3-1.63-3.25-4.29c-.62-1.76-1.94-4.11-.22-5.33C160.54,173.32,163.16,173,164.51,176.88Z"/><path class="cls-2" d="M188.87,202a12.92,12.92,0,0,0-11.52-2.76,16.22,16.22,0,0,0-4.38,1.7c-3.57,2-6.29,5.35-8,10.1s-2.27,10.71-2.71,16l0,.34c-.06.74-.12,1.47-.18,2.18l-5.1,1.06h0l0-.15c-1.43-8.59.4-17.07,1.66-21.5.57-2,1-3.16,1-3.16h0c1.4-.28,4-2.1,6.77-4.59a43.38,43.38,0,0,0,8.18-9.69l0,0,.12.05c.49.2,2,.82,2.71,1.18a38,38,0,0,1,11.22,9Z"/><path class="cls-18" d="M136.82,174.8l13.55-2.36h0l13.33-2.32.43-.07.56-.1,6.4-1.11-2-6.44a13.24,13.24,0,0,0-12.74-8.14l-8.35.64c-7.36.56-12.07,7.38-11.65,14.72,0,.21,0,.43,0,.66l.17,1.71Z"/><path class="cls-24" d="M159.26,156.06c3.94.57,7.86,3.45,9.15,7l1.38,4.37-22.47,3.9C154,167.57,160.26,162.67,159.26,156.06Z"/><path class="cls-5" d="M137.47,170.84l0-.27,0-.68c-.31-5.43,2.38-10.52,6.67-12.66a10.77,10.77,0,0,1,4-1.09l5.92-.45a23,23,0,0,0-14.13,15.05C139.07,170.76,138.27,170.8,137.47,170.84Z"/><path class="cls-25" d="M123.09,177.25c2.12,2,4.74,2.25,8.11,1.62a61.08,61.08,0,0,0,7.37-2.08c3-1,11.38-4.19,11.8-4.35a41.49,41.49,0,0,0-13.83-.45s-2.93,1-6,2.2C126.9,175.51,123,177,123.09,177.25Z"/><path class="cls-26" d="M139.46,182.49l-.08,1c8.94-3.28,16.93-9,25.32-13.57l-.56.1-.34.16-.09-.09-13.33,2.32h0c-.42.16-8.84,3.37-11.8,4.35l-1.48.47a28.47,28.47,0,0,0,.84,3.5A20.4,20.4,0,0,0,139.46,182.49Z"/><path class="cls-27" d="M168.53,168l-4.39,2.09.56-.1C166,169.26,167.23,168.58,168.53,168Z"/><path class="cls-23" d="M156.71,200.84c-2.36,6.83-14.16,4.16-11.77-4.12.25-.85-.63-2.23-1-3.53h0c-.93.11-1.63-2.34-.83-2.79a2.5,2.5,0,0,1,1-.42,13.65,13.65,0,0,1,4-.5,6.79,6.79,0,0,1,3.8,1.27,10.21,10.21,0,0,1,2.86,4.26,28.52,28.52,0,0,1,1.83,5.21A3.19,3.19,0,0,1,156.71,200.84Z"/><path class="cls-6" d="M151.2,195.73a2.6,2.6,0,0,1-1.61,2.23c-.87.28-2.09.35-2.66-.36-.28-.36-.3-1.16-.75-1.23a4.33,4.33,0,0,0-1.24.35c-.24-.86-.63-2.23-1-3.53h0a7.55,7.55,0,0,1,.79-.19,11.9,11.9,0,0,1,2.9-.33,4.65,4.65,0,0,1,2.73.92A2.37,2.37,0,0,1,151.2,195.73Z"/><path class="cls-5" d="M280.05,358.59l-3.13.76-.18-.73-2.37.58-.37.08a1.8,1.8,0,0,1-.32.06,7.37,7.37,0,0,1-1.32.12H272a8.92,8.92,0,0,1-1.17-.11c-.22,0-.44-.08-.65-.13l-.43-.11a6.38,6.38,0,0,1-.87-.3l-.2-.08s0,0-.05,0a.09.09,0,0,1-.07,0,5.59,5.59,0,0,1-.65-.32,7.16,7.16,0,0,1-.66-.39l-.2-.14c-.19-.13-.38-.27-.56-.42l0,0a3.89,3.89,0,0,1-.48-.43,1.88,1.88,0,0,1-.25-.24,9,9,0,0,1-2.28-4.14l-.75-3-.13-.55a7,7,0,0,0-.36-1.09.61.61,0,0,1-.62-.3h0a.56.56,0,0,1-.07-.45v0a.35.35,0,0,1,.06-.14.42.42,0,0,1,.09-.14h0a6.75,6.75,0,0,0-.62-.89.6.6,0,0,1-.71,0h0a.63.63,0,0,1-.12-.86l-.28-.24v0a6.63,6.63,0,0,1-4.41,3.4l-7.31,1.72-11,2.62-1.68.39-5.27,1.24-2.32.54-10.84,2.53L205,360.06l-1.28.3-1.39.31c-.26.07-.52.11-.78.17a13.47,13.47,0,0,1-9.66-2,13.12,13.12,0,0,1-3.2-2.93l0-.05c-.15-.19-.29-.38-.43-.58a4.3,4.3,0,0,1-.35-.52,1.77,1.77,0,0,1-.17-.24,6.16,6.16,0,0,1-.33-.55c-.12-.2-.23-.39-.33-.6a.75.75,0,0,1-.06-.13,5.5,5.5,0,0,1-.28-.6c-.08-.17-.15-.35-.22-.54a.75.75,0,0,1-.05-.16,5.1,5.1,0,0,1-.24-.69c-.09-.29-.17-.59-.24-.89s-.13-.62-.18-.94a6,6,0,0,1-.07-.61,3.15,3.15,0,0,1-.05-.43,14.53,14.53,0,0,1,.06-2.71V344.3l0-4.83-.28-29.76-.05-5.88v-1.24l0-3.77a15.93,15.93,0,0,1,1.65,3.77,45.31,45.31,0,0,1,1.44,7.12c1.1,8.24,1.17,18.76,2,27.34A52.91,52.91,0,0,0,192,346.4a16.1,16.1,0,0,0,1.3,3.3,7.35,7.35,0,0,0,1.05,1.53,9.7,9.7,0,0,0,1.87,1.62,12.22,12.22,0,0,0,7.73,1.65,43.75,43.75,0,0,0,7.6-1.36c3.51-.88,7.18-2,10.8-2.62,8.18-1.49,22.71-5.21,31.35-7.38l1-.23.22-.06,1.14-.29,1.3-.31c.62-.15,1.16-.29,1.62-.39l.64-.15a9.55,9.55,0,0,1,1.1-.2h0c3.19-.47,4.36,1.65,5,2.71h0a2.27,2.27,0,0,0,.37.49,10.05,10.05,0,0,0,7.78,2.18l.5-.06.13,0a21.76,21.76,0,0,0,2.52-.59Z"/><polygon class="cls-28" points="75.6 335.38 20.51 254.11 88.44 210.96 101.23 220.62 75.6 335.38"/><path class="cls-29" d="M164.14,400.81c0,7.85-34.88,14.21-77.91,14.21-28.76,0-53.89-2.84-67.39-7.07V393.66c10-3.13,26.39-5.5,45.91-6.52,6.83-.36,14-.55,21.48-.55,20.09,0,38.41,1.39,52.23,3.67C154.23,392.86,164.14,396.62,164.14,400.81Z"/><path class="cls-30" d="M152.13,396c-19.39,12.12-67.32,12.56-120.37,10.91C44.29,409,61.82,410.64,84,410.64c46.93,0,73.21-7.16,74.74-10.9C158.37,398.66,156.08,397.35,152.13,396Z"/><ellipse class="cls-29" cx="107.04" cy="384.43" rx="44.81" ry="8.18"/><path class="cls-29" d="M119.68,374.24c0,3.63-16.13,6.58-36,6.58s-36-2.95-36-6.58,16.13-6.57,36-6.57S119.68,370.61,119.68,374.24Z"/><path class="cls-29" d="M68.94,362.64c0,1.72-7.67,3.12-17.12,3.12s-17.11-1.4-17.11-3.12,7.66-3.12,17.11-3.12S68.94,360.92,68.94,362.64Z"/><path class="cls-29" d="M34.37,379.37c0,.91-4,1.64-8.94,1.64a35.57,35.57,0,0,1-6.59-.53v-2.21a35.57,35.57,0,0,1,6.59-.53C30.37,377.74,34.37,378.47,34.37,379.37Z"/><path class="cls-31" d="M468.84,362.11v9.68h-450v-9.68h94.9c-2.74-.66-4.22-1.36-4.22-2.08,0-3.83,40.93-6.93,91.42-6.93s91.42,3.1,91.42,6.93c0,.72-1.48,1.42-4.21,2.08H468.84Z"/><path class="cls-31" d="M468.84,419.3V429H409.49a4.74,4.74,0,0,1-4.62-4.84,5,5,0,0,1,1.35-3.42,4.51,4.51,0,0,1,3.27-1.42Z"/><path class="cls-31" d="M468.84,404.41v9.68H357.52a4.73,4.73,0,0,1-4.63-4.84,5,5,0,0,1,1.35-3.42,4.52,4.52,0,0,1,3.28-1.42Z"/><polygon class="cls-5" points="161.53 302.59 162.7 309.71 134.71 309.71 133.74 303.05 133.67 302.59 161.53 302.59"/><polygon class="cls-5" points="217.57 302.59 217.53 304.51 217.2 307.74 217.16 307.96 216.97 309.71 185.36 309.71 185.31 303.83 185.3 302.59 217.57 302.59"/><path class="cls-27" d="M283.79,167.91l4.85-.08-.54.16C286.66,167.94,285.22,167.89,283.79,167.91Z"/><ellipse class="cls-31" cx="176.42" cy="435.28" rx="20.03" ry="3"/><path class="cls-32" d="M160.83,423.07H192c.32.32.49.5.81.81v10.27L192,435H160.83l-.81-.81V423.88Z"/><polygon class="cls-33" points="160.71 431.62 160.71 433.86 161.11 434.27 191.74 434.27 192.14 433.86 192.14 431.62 160.71 431.62"/><path class="cls-34" d="M182.37,412.94v10.13c-2.37,5.13-9.73,5.2-11.89,0V412.94l.81-.81h10.27Z"/><path class="cls-35" d="M183.9,414.56v4.73c-.22.21-.33.6-.54.81H169.49c-.21-.21-.33-.6-.54-.81v-4.73c.21-.21.33-.6.54-.81h13.87C183.57,414,183.68,414.35,183.9,414.56Z"/><path class="cls-34" d="M172.89,419.11a4.09,4.09,0,0,1-3.94,0v-4.38a4.17,4.17,0,0,1,3.94,0Z"/><path class="cls-36" d="M172.2,415.55v-.36a3.92,3.92,0,0,0-1.37-.27,3.08,3.08,0,0,0-1.19.24v1.76A3.19,3.19,0,0,1,172.2,415.55Z"/><path class="cls-34" d="M180,419.11a4.09,4.09,0,0,0,3.94,0v-4.38a4.17,4.17,0,0,0-3.94,0Z"/><path class="cls-36" d="M183.21,415.6v-.44a3.08,3.08,0,0,0-1.19-.24,3.92,3.92,0,0,0-1.37.27v1.62A2.91,2.91,0,0,1,183.21,415.6Z"/><path class="cls-37" d="M172.89,419.11c1.32.64,5.76.71,7.07,0v-4.38c-1.27-.7-5.71-.62-7.07,0Z"/><path class="cls-36" d="M179.27,415.76v-.56a10.65,10.65,0,0,0-2.69-.28,13.16,13.16,0,0,0-3,.3V418A7.66,7.66,0,0,1,179.27,415.76Z"/><path class="cls-35" d="M163.56,421.54h4.72c.21.21.6.33.81.54V436c-.21.21-.6.33-.81.54h-4.72c-.21-.21-.6-.33-.81-.54V422.08C163,421.87,163.35,421.75,163.56,421.54Z"/><path class="cls-34" d="M168,432.55a4.28,4.28,0,0,1,0,3.94h-4.22a4.28,4.28,0,0,1,0-3.94Z"/><path class="cls-34" d="M168,425.48a4.28,4.28,0,0,0,0-3.94h-4.22a4.28,4.28,0,0,0,0,3.94Z"/><path class="cls-2" d="M167.76,422.84a1.94,1.94,0,0,0-.18-.61h-3.33a2.45,2.45,0,0,0-.3,1.28A6.33,6.33,0,0,1,167.76,422.84Z"/><path class="cls-37" d="M168,432.55c.61-1.32.67-5.76,0-7.07h-4.22c-.68,1.27-.6,5.71,0,7.07Z"/><path class="cls-36" d="M167.72,427.12a6.56,6.56,0,0,0-.17-.95h-3.27a9,9,0,0,0-.33,3A4.46,4.46,0,0,1,167.72,427.12Z"/><path class="cls-35" d="M184.56,421.54h4.73c.21.21.6.33.81.54V436c-.21.21-.6.33-.81.54h-4.73c-.21-.21-.59-.33-.81-.54V422.08C184,421.87,184.35,421.75,184.56,421.54Z"/><path class="cls-34" d="M189,432.55a4.41,4.41,0,0,1,0,3.94h-4.07a4.44,4.44,0,0,1,0-3.94Z"/><path class="cls-34" d="M189,425.48a4.41,4.41,0,0,0,0-3.94h-4.07a4.44,4.44,0,0,0,0,3.94Z"/><path class="cls-37" d="M189,432.55c.59-1.32.65-5.76,0-7.07h-4.07c-.65,1.27-.58,5.71,0,7.07Z"/><path class="cls-36" d="M188.81,427.12a6.56,6.56,0,0,0-.17-.95h-3.27a9,9,0,0,0-.33,3A4.46,4.46,0,0,1,188.81,427.12Z"/><path class="cls-36" d="M167.76,422.84a1.94,1.94,0,0,0-.18-.61h-3.33a2.45,2.45,0,0,0-.3,1.28A6.33,6.33,0,0,1,167.76,422.84Z"/><path class="cls-36" d="M188.83,422.84a1.92,1.92,0,0,0-.17-.61h-3.33a2.45,2.45,0,0,0-.3,1.28A6.31,6.31,0,0,1,188.83,422.84Z"/><ellipse class="cls-31" cx="222.01" cy="397.26" rx="41.4" ry="4.3"/><path class="cls-38" d="M189.48,385.75h0a5,5,0,0,0-1.79.25c-2.27.76-4.16,2.88-3.17,6.37l1.23,5.37a2,2,0,0,0,1.81,1.52l.7,0,.41-7.92,6-.39,6.62.35.21-4.11-11.18-1.37A5.7,5.7,0,0,0,189.48,385.75Z"/><path class="cls-39" d="M200.32,390.27l-5.75-.3-6.87.6-.4,7.61a.94.94,0,0,1-.58-.67l-1.24-5.39v0a5.65,5.65,0,0,1-.22-1.77A3.77,3.77,0,0,1,188,387a3.85,3.85,0,0,1,1.43-.21h0a3.4,3.4,0,0,1,.62.08h0l10.3,1.25Z"/><path class="cls-38" d="M188.27,398.67a.32.32,0,0,0-.32.3.3.3,0,0,0,.29.32.3.3,0,0,0,.32-.29A.31.31,0,0,0,188.27,398.67Z"/><path class="cls-38" d="M188.3,398.06a.3.3,0,0,0-.32.29.3.3,0,0,0,.29.32.31.31,0,1,0,0-.61Z"/><path class="cls-38" d="M188.34,397.44a.31.31,0,1,0,.29.33A.31.31,0,0,0,188.34,397.44Z"/><path class="cls-38" d="M188.37,396.83a.31.31,0,0,0-.33.29.32.32,0,0,0,.3.32.3.3,0,0,0,.32-.29A.3.3,0,0,0,188.37,396.83Z"/><path class="cls-38" d="M188.4,396.21a.3.3,0,0,0-.32.29.31.31,0,0,0,.29.33.32.32,0,0,0,.32-.3A.3.3,0,0,0,188.4,396.21Z"/><path class="cls-38" d="M188.43,395.59a.3.3,0,0,0-.32.29.31.31,0,0,0,.29.33.3.3,0,0,0,.32-.29A.31.31,0,0,0,188.43,395.59Z"/><path class="cls-38" d="M188.46,395a.31.31,0,1,0,0,.61.31.31,0,1,0,0-.61Z"/><path class="cls-38" d="M188.5,394.36a.31.31,0,1,0,0,.62.32.32,0,0,0,.33-.3A.3.3,0,0,0,188.5,394.36Z"/><path class="cls-38" d="M188.53,393.74a.31.31,0,1,0,0,.62.3.3,0,0,0,.32-.29A.31.31,0,0,0,188.53,393.74Z"/><path class="cls-38" d="M188.56,393.13a.31.31,0,1,0,.29.32A.3.3,0,0,0,188.56,393.13Z"/><path class="cls-38" d="M188.59,392.51a.3.3,0,0,0-.32.29.31.31,0,0,0,.29.33.3.3,0,0,0,.32-.3A.3.3,0,0,0,188.59,392.51Z"/><path class="cls-38" d="M188.62,391.89a.32.32,0,0,0-.32.3.3.3,0,0,0,.29.32.31.31,0,0,0,.33-.29A.32.32,0,0,0,188.62,391.89Z"/><path class="cls-38" d="M201.1,394.72l3.28,1.89a3.71,3.71,0,0,0,1.9.49l19.88-.37.22-4.27-20.63-1.07-4.52-1.22Z"/><path class="cls-40" d="M256.45,393.05a1.11,1.11,0,0,0,1.16-1.06v0a1.11,1.11,0,0,0-1-1.16l-31.14-2.63-.2,3.53Z"/><path class="cls-41" d="M201,387.45l-3.33,4-.37,7.16,2.09-.56a5.15,5.15,0,0,0,2.66-1.7l4.5-5.43,18.74.81.2-3.53-21.82-1.84A3.14,3.14,0,0,0,201,387.45Z"/><path class="cls-38" d="M197.26,398.59l.37-7.16-2.57-.13-.41,7.92.8,0A2.39,2.39,0,0,0,197.26,398.59Z"/><path class="cls-38" d="M194.68,398.61a.3.3,0,0,0-.32.29.3.3,0,0,0,.29.32.31.31,0,0,0,.33-.29A.32.32,0,0,0,194.68,398.61Z"/><path class="cls-38" d="M194.72,398a.31.31,0,1,0,.29.33A.31.31,0,0,0,194.72,398Z"/><path class="cls-38" d="M194.75,397.37a.33.33,0,0,0-.33.3.31.31,0,0,0,.3.32.3.3,0,0,0,.32-.29A.31.31,0,0,0,194.75,397.37Z"/><path class="cls-38" d="M194.78,396.76a.31.31,0,1,0,0,.61.31.31,0,0,0,0-.61Z"/><path class="cls-38" d="M194.81,396.14a.3.3,0,0,0-.32.29.31.31,0,0,0,.29.33.3.3,0,0,0,.32-.29A.31.31,0,0,0,194.81,396.14Z"/><path class="cls-38" d="M194.84,395.53a.31.31,0,1,0,0,.61.31.31,0,1,0,0-.61Z"/><path class="cls-38" d="M194.88,394.91a.31.31,0,0,0,0,.62.33.33,0,0,0,.33-.3A.3.3,0,0,0,194.88,394.91Z"/><path class="cls-38" d="M194.91,394.29a.31.31,0,1,0,0,.62.3.3,0,0,0,.32-.29A.31.31,0,0,0,194.91,394.29Z"/><path class="cls-38" d="M194.94,393.68a.3.3,0,0,0-.32.29.31.31,0,1,0,.32-.29Z"/><path class="cls-38" d="M195,393.06a.3.3,0,0,0-.32.29.31.31,0,0,0,.29.33.31.31,0,0,0,0-.62Z"/><path class="cls-38" d="M195,392.44a.31.31,0,0,0-.32.3.3.3,0,0,0,.29.32.31.31,0,0,0,.33-.29A.33.33,0,0,0,195,392.44Z"/><path class="cls-38" d="M195,391.83a.31.31,0,0,0-.33.29.3.3,0,0,0,.29.32.31.31,0,0,0,.33-.29A.3.3,0,0,0,195,391.83Z"/><path class="cls-42" d="M198.54,396.16a.55.55,0,0,1,.52.58.55.55,0,1,1-1.09-.06A.55.55,0,0,1,198.54,396.16Z"/><path class="cls-42" d="M198.74,392.36a.54.54,0,0,1,.52.57.55.55,0,1,1-1.1-.05A.55.55,0,0,1,198.74,392.36Z"/><path class="cls-42" d="M201.79,390.45a1.2,1.2,0,0,1,1.12,1.26,1.19,1.19,0,0,1-2.38-.13A1.21,1.21,0,0,1,201.79,390.45Z"/><path class="cls-38" d="M256.09,394.71a1.37,1.37,0,0,1,1.3,1.44h0a1.37,1.37,0,0,1-1.44,1.3L227.58,396a1.37,1.37,0,0,1-1.3-1.44h0a1.37,1.37,0,0,1,1.44-1.3Z"/><path class="cls-41" d="M228.75,393.16a.28.28,0,0,1,.25.25l.15,2.55a.2.2,0,0,1-.22.22h0a.25.25,0,0,1-.25-.25l-.16-2.55a.21.21,0,0,1,.23-.22Z"/><path class="cls-41" d="M229.5,393.2a.26.26,0,0,1,.25.25l.15,2.55a.2.2,0,0,1-.22.22h0a.27.27,0,0,1-.25-.25l-.15-2.55a.2.2,0,0,1,.22-.22Z"/><path class="cls-41" d="M230.26,393.24a.27.27,0,0,1,.25.25l.15,2.55a.2.2,0,0,1-.22.22h0a.27.27,0,0,1-.25-.25l-.15-2.55a.2.2,0,0,1,.22-.22Z"/><path class="cls-41" d="M231,393.28a.26.26,0,0,1,.25.25l.15,2.55a.2.2,0,0,1-.22.22h0a.27.27,0,0,1-.25-.25l-.15-2.55a.2.2,0,0,1,.22-.22Z"/><path class="cls-41" d="M231.77,393.32a.25.25,0,0,1,.25.24l.15,2.56a.2.2,0,0,1-.22.22h0a.28.28,0,0,1-.25-.25l-.15-2.55a.2.2,0,0,1,.22-.22Z"/><path class="cls-41" d="M232.53,393.36a.26.26,0,0,1,.25.24l.15,2.56a.2.2,0,0,1-.22.22h0a.28.28,0,0,1-.25-.25l-.15-2.55a.2.2,0,0,1,.22-.22Z"/><path class="cls-41" d="M233.29,393.39a.28.28,0,0,1,.25.25l.15,2.55a.2.2,0,0,1-.22.23h0a.27.27,0,0,1-.25-.25l-.15-2.55a.21.21,0,0,1,.22-.23Z"/><path class="cls-41" d="M234,393.43a.27.27,0,0,1,.25.25l.15,2.55a.21.21,0,0,1-.22.23h0a.28.28,0,0,1-.25-.25l-.15-2.55a.21.21,0,0,1,.22-.23Z"/><path class="cls-41" d="M234.8,393.47a.28.28,0,0,1,.25.25l.15,2.55a.21.21,0,0,1-.22.23h0a.28.28,0,0,1-.25-.25l-.15-2.55a.21.21,0,0,1,.22-.23Z"/><path class="cls-41" d="M235.56,393.51a.28.28,0,0,1,.25.25l.15,2.55a.21.21,0,0,1-.22.23h0a.27.27,0,0,1-.25-.25l-.15-2.55a.21.21,0,0,1,.22-.23Z"/><path class="cls-41" d="M236.31,393.55a.27.27,0,0,1,.25.25l.15,2.55a.21.21,0,0,1-.22.23h0a.28.28,0,0,1-.25-.25l-.15-2.55a.21.21,0,0,1,.22-.23Z"/><path class="cls-41" d="M237.07,393.59a.28.28,0,0,1,.25.25l.15,2.55a.21.21,0,0,1-.22.23h0a.28.28,0,0,1-.25-.25l-.15-2.55a.2.2,0,0,1,.22-.23Z"/><path class="cls-41" d="M237.83,393.63a.28.28,0,0,1,.25.25l.15,2.55a.21.21,0,0,1-.22.23h0a.27.27,0,0,1-.25-.25l-.15-2.55a.2.2,0,0,1,.22-.23Z"/><path class="cls-41" d="M238.58,393.67a.27.27,0,0,1,.25.25l.15,2.55a.2.2,0,0,1-.22.22h0a.26.26,0,0,1-.25-.24l-.15-2.56a.2.2,0,0,1,.22-.22Z"/><path class="cls-41" d="M239.34,393.71a.28.28,0,0,1,.25.25l.15,2.55a.2.2,0,0,1-.22.22h0a.26.26,0,0,1-.25-.25l-.15-2.55a.2.2,0,0,1,.22-.22Z"/><path class="cls-41" d="M240.1,393.75a.28.28,0,0,1,.25.25l.15,2.55a.2.2,0,0,1-.22.22h0a.25.25,0,0,1-.25-.25l-.15-2.55a.2.2,0,0,1,.22-.22Z"/><path class="cls-41" d="M240.85,393.79a.25.25,0,0,1,.25.25l.16,2.55a.21.21,0,0,1-.23.22h0a.27.27,0,0,1-.25-.25l-.15-2.55a.2.2,0,0,1,.22-.22Z"/><path class="cls-41" d="M241.61,393.83a.27.27,0,0,1,.25.25l.15,2.55a.2.2,0,0,1-.22.22h0a.27.27,0,0,1-.25-.25l-.15-2.55a.2.2,0,0,1,.22-.22Z"/><path class="cls-41" d="M242.37,393.87a.26.26,0,0,1,.25.25l.15,2.55a.2.2,0,0,1-.22.22h0a.28.28,0,0,1-.25-.25l-.15-2.55a.2.2,0,0,1,.22-.22Z"/><rect class="cls-43" x="224.94" y="393.51" width="4.97" height="2.33" rx="0.26" transform="translate(-178.51 601.33) rotate(-87.03)"/><path class="cls-42" d="M228.12,396.72a.15.15,0,0,1,.15.15h0a.16.16,0,0,1-.16.14l-1.6-.09a.15.15,0,0,1-.15-.15h0a.16.16,0,0,1,.16-.14Z"/><path class="cls-42" d="M228.15,396.29a.14.14,0,0,1,.14.15h0a.15.15,0,0,1-.16.14l-1.6-.09a.14.14,0,0,1-.14-.15h0a.15.15,0,0,1,.15-.14Z"/><path class="cls-42" d="M228.17,395.86a.14.14,0,0,1,.14.15h0a.15.15,0,0,1-.16.14l-1.6-.09a.14.14,0,0,1-.14-.15h0a.15.15,0,0,1,.16-.14Z"/><path class="cls-42" d="M228.19,395.43a.15.15,0,0,1,.15.15h0a.16.16,0,0,1-.16.14l-1.61-.09a.15.15,0,0,1-.14-.15h0a.15.15,0,0,1,.16-.14Z"/><path class="cls-42" d="M228.21,395a.15.15,0,0,1,.15.15h0a.16.16,0,0,1-.16.14l-1.6-.09a.15.15,0,0,1-.15-.15h0a.16.16,0,0,1,.16-.14Z"/><path class="cls-42" d="M228.24,394.57a.15.15,0,0,1,.14.15h0a.15.15,0,0,1-.16.14l-1.6-.09a.15.15,0,0,1-.15-.15h0a.16.16,0,0,1,.16-.14Z"/><path class="cls-42" d="M228.26,394.14a.14.14,0,0,1,.14.15h0a.15.15,0,0,1-.16.14l-1.6-.09a.14.14,0,0,1-.14-.15h0a.15.15,0,0,1,.16-.14Z"/><path class="cls-42" d="M228.28,393.71a.14.14,0,0,1,.14.15h0a.15.15,0,0,1-.15.14l-1.61-.09a.15.15,0,0,1-.14-.15h0a.15.15,0,0,1,.16-.14Z"/><path class="cls-42" d="M228.3,393.28a.15.15,0,0,1,.15.15h0a.16.16,0,0,1-.16.14l-1.6-.09a.15.15,0,0,1-.15-.15h0a.16.16,0,0,1,.16-.14Z"/><path class="cls-42" d="M228.33,392.85a.15.15,0,0,1,.14.15h0a.15.15,0,0,1-.16.14l-1.6-.08a.16.16,0,0,1-.15-.16h0a.15.15,0,0,1,.16-.13Z"/><path class="cls-42" d="M228.35,392.42a.14.14,0,0,1,.14.15h0a.15.15,0,0,1-.16.14l-1.6-.08a.15.15,0,0,1-.14-.16h0a.14.14,0,0,1,.16-.13Z"/><path class="cls-31" d="M393.21,387.56c0,1.54-8.19,2.8-18.29,2.8s-18.3-1.26-18.3-2.8,8.19-2.79,18.3-2.79S393.21,386,393.21,387.56Z"/><path class="cls-44" d="M372.71,380.44a1.1,1.1,0,0,1-.16.58,1.13,1.13,0,0,1-1.54.37l-11.21-6.9a1.12,1.12,0,0,1,1.17-1.9l11.21,6.9A1.11,1.11,0,0,1,372.71,380.44Z"/><path class="cls-44" d="M390.76,373.54a1.11,1.11,0,0,1-.53.95L379,381.39a1.12,1.12,0,0,1-1.17-1.9l11.21-6.9a1.11,1.11,0,0,1,1.53.37A1,1,0,0,1,390.76,373.54Z"/><rect class="cls-18" x="369.51" y="377.58" width="10.81" height="9.98"/><rect class="cls-44" x="367.3" y="385.33" width="15.23" height="2.23"/><path class="cls-44" d="M376,372.15v8.29a1.12,1.12,0,0,1-2.23,0v-8.29a1.12,1.12,0,0,1,2.23,0Z"/><path class="cls-18" d="M391.8,369.92a2.93,2.93,0,0,1,3.05,2.79h0a2.92,2.92,0,0,1-3.05,2.78H358a2.92,2.92,0,0,1-3-2.78h0a2.93,2.93,0,0,1,3-2.79Z"/><path class="cls-45" d="M618.84,96.62v20.23h-333a23.72,23.72,0,0,0-23.72,23.72V264.65a40.76,40.76,0,0,1-40.75,40.75H18.84V285.18H218.19a23.72,23.72,0,0,0,23.72-23.72V137.37a40.76,40.76,0,0,1,40.75-40.75Z"/><path class="cls-46" d="M64.07,263.94a1.33,1.33,0,0,1-.2.72,1.38,1.38,0,0,1-1.88.45l-13.76-8.46a1.37,1.37,0,0,1,1.43-2.34l13.76,8.47A1.36,1.36,0,0,1,64.07,263.94Z"/><path class="cls-46" d="M86.23,255.48a1.37,1.37,0,0,1-.65,1.17l-13.77,8.46a1.37,1.37,0,1,1-1.43-2.33l13.76-8.47a1.39,1.39,0,0,1,1.89.45A1.45,1.45,0,0,1,86.23,255.48Z"/><rect class="cls-40" x="60.14" y="260.44" width="13.28" height="12.25"/><path class="cls-44" d="M48.71,283.29H47.32A2.28,2.28,0,0,0,45,285.57V304a2.28,2.28,0,0,0,2.28,2.28H86.24A2.28,2.28,0,0,0,88.52,304V285.57a2.28,2.28,0,0,0-2.28-2.28H84.85a5,5,0,0,1-4.71-3.37l-1.83-5.38a2.71,2.71,0,0,0-2.57-1.85H57.82a2.73,2.73,0,0,0-2.58,1.85l-1.83,5.38A5,5,0,0,1,48.71,283.29Z"/><path class="cls-36" d="M77.51,274.83c-1.78,6.69,1,12.68,9.23,10.07C85.07,283.53,78.23,286.76,77.51,274.83Z"/><circle class="cls-46" cx="66.78" cy="294.8" r="15.43" transform="translate(-188.9 133.56) rotate(-45)"/><path class="cls-44" d="M66.78,283A11.78,11.78,0,1,1,55,294.8,11.79,11.79,0,0,1,66.78,283Z"/><path class="cls-36" d="M76.89,295.4a10.24,10.24,0,0,0-14.35-10.27C69.26,286,73.81,289.7,76.89,295.4Z"/><rect class="cls-46" x="57.43" y="269.95" width="18.69" height="2.74"/><path class="cls-46" d="M68.15,253.77v10.17a1.37,1.37,0,0,1-2.74,0V253.77a1.37,1.37,0,0,1,2.74,0Z"/><path class="cls-40" d="M87.5,251a3.6,3.6,0,0,1,3.75,3.42h0a3.59,3.59,0,0,1-3.75,3.42H46.05a3.6,3.6,0,0,1-3.75-3.42h0A3.6,3.6,0,0,1,46.05,251Z"/><path class="cls-5" d="M619.84,109.85v7h-334a23.72,23.72,0,0,0-23.72,23.72V264.65a40.76,40.76,0,0,1-40.75,40.75H88.05a2.27,2.27,0,0,1-1.81.91H77a15.35,15.35,0,0,1-20.49,0H47.32a2.28,2.28,0,0,1-1.82-.91H18.84v-7H221.38a33.79,33.79,0,0,0,33.76-33.75V140.57a30.75,30.75,0,0,1,30.72-30.72Z"/><rect class="cls-47" x="299.3" y="76.4" width="3.54" height="17.62"/><rect class="cls-48" x="297.02" y="76.4" width="8.09" height="4.95"/><circle class="cls-47" cx="301.08" cy="64" r="12.36" transform="translate(54.31 247.97) rotate(-48.71)"/><path class="cls-46" d="M301.08,78.31A14.32,14.32,0,1,1,315.39,64,14.33,14.33,0,0,1,301.08,78.31Zm0-26.07A11.76,11.76,0,1,0,312.83,64,11.77,11.77,0,0,0,301.08,52.24Z"/><path class="cls-49" d="M301,56h.09a8.05,8.05,0,0,1,7.72,5.83l-2.95.84a5.44,5.44,0,0,0-.47-1.12,5,5,0,0,0-4.3-2.48H301Z"/><path class="cls-7" d="M308.79,61.75A8,8,0,1,1,301.08,56V59a5,5,0,1,0,4.76,3.58Z"/><path class="cls-50" d="M293.42,61.56a8.26,8.26,0,0,1,.7-1.58,8,8,0,0,1,7-4V59a5,5,0,0,0-4.3,2.48,4.71,4.71,0,0,0-.43,1Z"/><circle class="cls-46" cx="291.27" cy="63.97" r="0.8"/><path class="cls-46" d="M310.89,63.17a.8.8,0,1,1-.8.8A.8.8,0,0,1,310.89,63.17Z"/><path class="cls-46" d="M301.88,54.16a.8.8,0,1,1-.8-.8A.8.8,0,0,1,301.88,54.16Z"/><path class="cls-46" d="M301.88,73.78a.8.8,0,1,1-.8-.8A.8.8,0,0,1,301.88,73.78Z"/><path class="cls-46" d="M293.58,70.34a.8.8,0,1,1,0,1.13A.79.79,0,0,1,293.58,70.34Z"/><path class="cls-46" d="M307.45,56.47a.8.8,0,1,1,0,1.13A.8.8,0,0,1,307.45,56.47Z"/><path class="cls-46" d="M294.71,56.47a.8.8,0,0,1-1.13,1.13.79.79,0,0,1,0-1.13A.8.8,0,0,1,294.71,56.47Z"/><path class="cls-46" d="M308.58,70.34a.8.8,0,1,1-1.13,0A.8.8,0,0,1,308.58,70.34Z"/><path class="cls-46" d="M303.37,65.2a2.59,2.59,0,1,1-1.09-3.49A2.59,2.59,0,0,1,303.37,65.2Z"/><polygon class="cls-46" points="300.39 63.37 305.66 55.29 301.98 64.2 300.39 63.37"/><rect class="cls-48" x="297.02" y="93.4" width="8.09" height="3.22"/><path class="cls-5" d="M187.38,220.62v47.72l-1.52,1.87-11.5,14.18-2,2.45a12.81,12.81,0,0,1-.76,4.32,26,26,0,0,1-3.36,6.63,26.38,26.38,0,0,1-6.44,6.51l-.41.29c-.84.57-1.71,2.69-2.73,2.76a3.56,3.56,0,0,1-2.21-.91l-.38.46.3-.54a2.28,2.28,0,0,1-.71-1c-.61-2,2.89-4.65,2.6-6.7A1.44,1.44,0,0,0,158,298c-.73-1-2.62-.58-2.9-3.36-.15-1.53,2.06-3.77,2.75-3.95s1.14-.31,1.66-.49c4.71-1.65,6.23-4.45,8.94-5.86l2.83-6.88q-1.67-3.51-3.24-6.87h.55c-1-2.62-1.88-5.25-2.73-7.85q-1.54-4.7-2.81-9.19C158.7,238.3,157.21,233,157,230.65h0l0-.15c-1.43-8.59.4-17.07,1.66-21.5-.06,1.23-.06,2.42,0,3.57.16,6.87,1.62,12.05,3.51,14.64l.17.21c2.42,3.09,5.49,2,7.46-5.1.28-1,.54-2.11.77-3.35l3.71.36Z"/><path class="cls-8" d="M161.38,296.12l3.4-1.09a12.46,12.46,0,0,0,3.81-1.7,4.24,4.24,0,0,0,1.86-3.57,2.6,2.6,0,0,0-2.82-2.43c-1.08.21-1.8,1.18-2.56,2a9.4,9.4,0,0,1-4.17,2.47,13.49,13.49,0,0,0-2.82.84,2.37,2.37,0,0,0-1.41,2.35,2.22,2.22,0,0,0,2,1.61A6.48,6.48,0,0,0,161.38,296.12Z"/><path class="cls-6" d="M182.42,257.08c5.73-15.66,25.89-5.59,17.1,8.62L185,287.52l-13.64-3.88Z"/><polygon class="cls-6" points="196.16 234.24 201.71 257.44 182.72 258.02 177.01 240.13 196.16 234.24"/><path class="cls-2" d="M170.57,218.33c-4.25-14.32,14.28-23,19.74-5.87l5.85,21.77L177,240.13Z"/><polygon class="cls-13" points="166.74 293.37 173.28 277.89 187.38 285.3 176.01 298.85 166.74 293.37"/><path class="cls-13" d="M180.59,291.75c1.34,1.07,1,3.49-.23,5.76l-4.2,7.49a.38.38,0,0,1-.37.18c-5.08-.82-9.23-3-13.87-5.77a.4.4,0,0,1-.15-.19l-.67-1.9a.37.37,0,0,1,0-.29c.61-1.12,4.73-8.6,5-8.89a5.93,5.93,0,0,1,4.42-1.8h0S180.46,291.65,180.59,291.75Z"/><path class="cls-8" d="M165.26,298.9a2.42,2.42,0,0,0-.89-3.31h0a2,2,0,0,0-2.82.76L156.39,305a2.3,2.3,0,0,0,.84,3.13l.06,0a2.16,2.16,0,0,0,3-.79Z"/><path class="cls-8" d="M169.63,300.35a2.09,2.09,0,0,0,.22-1.58,2,2,0,0,0-1-1.27l0,0a2.43,2.43,0,0,0-3.29.86L159.32,309a1.93,1.93,0,0,0,.69,2.66l.37.22a2.17,2.17,0,0,0,2.93-.77Z"/><path class="cls-8" d="M173.47,302.43a2.43,2.43,0,0,0-.9-3.31h0a2.05,2.05,0,0,0-1.57-.21,2,2,0,0,0-1.25,1l-5.87,10.38a2.28,2.28,0,0,0,.84,3.12l.37.21a1.77,1.77,0,0,0,1.37.18,1.8,1.8,0,0,0,1.09-.84Z"/><path class="cls-8" d="M176.7,304.07a1.65,1.65,0,0,0-.69-2.23l-.27-.16a1.65,1.65,0,0,0-2.27.53l-3.87,7c-.41.71-.32,2.25.45,2.69l.56.32c.71.41,1.79-.4,2.17-1.06Z"/><path class="cls-13" d="M178.13,301.48l-2,3.52a1.87,1.87,0,0,1-2.62.49l0,0a1.88,1.88,0,0,1-.67-2.59l-.36.58a2.13,2.13,0,0,1-2.94.7l0,0a2.14,2.14,0,0,1-.76-2.92l-.33.54a2.15,2.15,0,0,1-2.95.7l0,0a2.15,2.15,0,0,1-.76-2.93,2.14,2.14,0,0,1-2.94.7l0,0a2.15,2.15,0,0,1-.76-2.93l2.65-4.37Z"/><path class="cls-14" d="M186.54,257.9c-.89-9.33-10.37-30-16.52-45a14,14,0,0,0,.55,5.48l6.44,21.8,5.41,16.94h0l-8.74,21-.4-.21-1.56,3.7c4-5.37,7.46-12.3,11.33-17.74C185.3,260.06,186.56,259.07,186.54,257.9Z"/><path class="cls-51" d="M468.84,295.2v19.85H397.42a46.28,46.28,0,0,1-46.27-46.28V3.85H371V269.27a25.93,25.93,0,0,0,25.93,25.93Z"/><rect class="cls-44" x="350.39" y="160.41" width="21.35" height="37.67"/><rect class="cls-46" x="349.22" y="159.87" width="23.7" height="3.96"/><path class="cls-14" d="M468.84,308.05v7H397.42a46.28,46.28,0,0,1-46.27-46.28V199h-1.93v-4h1.17v-8.71a12.66,12.66,0,0,1,0-13.78v-8.68h-1.17v-4h1.93V3.85h7V268.77a39.32,39.32,0,0,0,39.27,39.28Z"/><path class="cls-52" d="M373.78,179.4a12.65,12.65,0,0,1-2,6.91,11,11,0,0,1-.75,1,12.72,12.72,0,0,1-19.84,0,11.35,11.35,0,0,1-.76-1.06,12.66,12.66,0,0,1,0-13.78,11.35,11.35,0,0,1,.76-1.06,12.72,12.72,0,0,1,19.84,0,11,11,0,0,1,.75,1A12.65,12.65,0,0,1,373.78,179.4Z"/><path class="cls-44" d="M371,179.4a9.92,9.92,0,1,1-9.92-9.92A9.92,9.92,0,0,1,371,179.4Z"/><rect class="cls-46" x="349.22" y="195" width="23.7" height="3.96"/><polygon class="cls-53" points="359.5 182.19 358.02 179.17 359.9 176.38 363.26 176.61 364.73 179.63 362.86 182.42 359.5 182.19"/><circle class="cls-54" cx="361.35" cy="179.4" r="1.54"/><rect class="cls-47" x="446.89" y="274.57" width="3.54" height="17.62"/><rect class="cls-48" x="444.61" y="274.57" width="8.09" height="4.95"/><circle class="cls-47" cx="448.67" cy="262.17" r="12.36" transform="translate(-53.97 394.04) rotate(-45)"/><path class="cls-46" d="M448.67,276.48A14.32,14.32,0,1,1,463,262.17,14.33,14.33,0,0,1,448.67,276.48Zm0-26.07a11.76,11.76,0,1,0,11.75,11.76A11.77,11.77,0,0,0,448.67,250.41Z"/><path class="cls-49" d="M448.58,254.13h.09a8.05,8.05,0,0,1,7.72,5.83l-2.95.84a5.44,5.44,0,0,0-.47-1.12,5,5,0,0,0-4.3-2.48h-.06Z"/><path class="cls-7" d="M456.38,259.92a8,8,0,1,1-7.71-5.79v3.07a5,5,0,1,0,4.76,3.58Z"/><path class="cls-50" d="M441,259.73a7.93,7.93,0,0,1,.7-1.58,8,8,0,0,1,7-4v3.07a5,5,0,0,0-4.3,2.48,5.35,5.35,0,0,0-.44,1Z"/><path class="cls-46" d="M438.86,261.34a.8.8,0,1,1-.8.8A.8.8,0,0,1,438.86,261.34Z"/><path class="cls-46" d="M458.47,261.34a.8.8,0,1,1-.8.8A.8.8,0,0,1,458.47,261.34Z"/><path class="cls-46" d="M449.47,252.33a.8.8,0,1,1-.8-.8A.8.8,0,0,1,449.47,252.33Z"/><path class="cls-46" d="M449.47,272a.8.8,0,1,1-.8-.8A.8.8,0,0,1,449.47,272Z"/><path class="cls-46" d="M441.16,268.51a.81.81,0,0,1,1.14,0,.8.8,0,0,1,0,1.13.81.81,0,0,1-1.14,0A.8.8,0,0,1,441.16,268.51Z"/><path class="cls-46" d="M455,254.64a.8.8,0,1,1,0,1.13A.79.79,0,0,1,455,254.64Z"/><path class="cls-46" d="M442.3,254.64a.8.8,0,0,1,0,1.13.81.81,0,0,1-1.14,0,.8.8,0,0,1,0-1.13A.81.81,0,0,1,442.3,254.64Z"/><path class="cls-46" d="M456.17,268.51a.8.8,0,0,1-1.13,1.13.79.79,0,0,1,0-1.13A.8.8,0,0,1,456.17,268.51Z"/><path class="cls-46" d="M451,263.37a2.58,2.58,0,1,1-1.08-3.49A2.58,2.58,0,0,1,451,263.37Z"/><polygon class="cls-46" points="447.98 261.54 453.25 253.46 449.57 262.37 447.98 261.54"/><rect class="cls-48" x="444.61" y="291.57" width="8.09" height="3.22"/><path class="cls-52" d="M618.84,347.1v19.84H446.14a46.07,46.07,0,0,1-20.6-4.83h0a46.75,46.75,0,0,1-15.1-12c-.47-.57-.92-1.15-1.37-1.75s-.87-1.2-1.29-1.81a43.65,43.65,0,0,1-2.32-3.82q-.74-1.35-1.38-2.76a46.07,46.07,0,0,1-2.21-5.81c-.3-1-.57-2-.81-3-.19-.84-.37-1.69-.51-2.55a45.78,45.78,0,0,1-.68-7.9V3.85H419.7V321.16a25.94,25.94,0,0,0,25.94,25.94Z"/><rect class="cls-44" x="399.11" y="212.3" width="21.35" height="37.67"/><path class="cls-52" d="M422.49,231.29a12.71,12.71,0,1,1-12.71-12.71A12.71,12.71,0,0,1,422.49,231.29Z"/><path class="cls-44" d="M419.7,231.29a9.92,9.92,0,1,1-9.92-9.92A9.92,9.92,0,0,1,419.7,231.29Z"/><rect class="cls-46" x="397.93" y="211.76" width="23.7" height="3.96"/><rect class="cls-46" x="397.93" y="246.89" width="23.7" height="3.96"/><polygon class="cls-53" points="408.21 234.08 406.73 231.06 408.61 228.27 411.97 228.5 413.45 231.52 411.57 234.31 408.21 234.08"/><circle class="cls-54" cx="410.06" cy="231.29" r="1.54"/><path class="cls-5" d="M619.84,359.94v7H446.14a46.07,46.07,0,0,1-20.6-4.83h0a46.75,46.75,0,0,1-15.1-12c-.47-.57-.92-1.15-1.37-1.75s-.87-1.2-1.29-1.81c-.83-1.23-1.6-2.51-2.32-3.82q-.74-1.35-1.38-2.76a46.07,46.07,0,0,1-2.21-5.81c-.3-1-.57-2-.81-3q-.29-1.26-.51-2.55a46.79,46.79,0,0,1-.67-7.9V250.85h-1.93v-4h1.17v-8.71L399,238h0a11.46,11.46,0,0,1-.75-1.38,8.58,8.58,0,0,1-.35-.83c0-.12-.1-.25-.14-.38a.76.76,0,0,0,0-.11c0-.12-.08-.24-.11-.36a8.93,8.93,0,0,1-.23-.89,7.6,7.6,0,0,1-.16-.83,4.43,4.43,0,0,1-.06-.51,1.11,1.11,0,0,1,0-.19,5.48,5.48,0,0,1-.05-.57c0-.22,0-.44,0-.67s0-.45,0-.67a5.48,5.48,0,0,1,.05-.57,1.11,1.11,0,0,1,0-.19,4.43,4.43,0,0,1,.06-.51,7.6,7.6,0,0,1,.16-.83,8.93,8.93,0,0,1,.23-.89c0-.12.07-.24.11-.36a.76.76,0,0,0,0-.11c0-.13.09-.26.14-.38s.12-.32.19-.48.1-.23.16-.35a12.27,12.27,0,0,1,.86-1.55v-8.68h-1.17v-4h1.93V3.85h7l0,73.89V320.66a39.32,39.32,0,0,0,39.27,39.28Z"/><rect class="cls-46" x="408.28" y="215.45" width="3" height="15.84"/><rect class="cls-46" x="395.95" y="234.65" width="15.54" height="3" transform="translate(-58.98 304.46) rotate(-38.72)"/><rect class="cls-46" x="414.57" y="228.09" width="3" height="15.54" transform="translate(-19.33 433.78) rotate(-53.99)"/><path class="cls-40" d="M420.45,217.38q-.36-.28-.75-.54a16.21,16.21,0,0,0-1.83-1.11,17.58,17.58,0,0,0-11-1.74,17.59,17.59,0,0,0-5.18,1.74,16.21,16.21,0,0,0-1.83,1.11q-.39.25-.75.54a17.52,17.52,0,0,0,0,27.82q.36.28.75.54a16.12,16.12,0,0,0,1.91,1.15,17.51,17.51,0,0,0,16,0,16.12,16.12,0,0,0,1.91-1.15q.39-.26.75-.54a17.52,17.52,0,0,0,0-27.82Zm-.75,23.11a13.49,13.49,0,0,1-9.92,4.34,13.31,13.31,0,0,1-2.91-.32,13.45,13.45,0,0,1-6.64-3.63l-.37-.39a8.94,8.94,0,0,1-.75-.88,11.1,11.1,0,0,1-.76-1.08,13.49,13.49,0,0,1,.76-15.56,10.27,10.27,0,0,1,.75-.88,13.47,13.47,0,0,1,7-4,10.91,10.91,0,0,1,1.41-.23,12.54,12.54,0,0,1,3,0,13.47,13.47,0,0,1,8.42,4.25,10.27,10.27,0,0,1,.75.88,13.46,13.46,0,0,1,2.87,8.32,13.32,13.32,0,0,1-1.78,6.69,11.87,11.87,0,0,1-1.09,1.63,10.13,10.13,0,0,1-.67.8Z"/><path class="cls-40" d="M414.69,231.29a4.91,4.91,0,1,1-4.91-4.91A4.91,4.91,0,0,1,414.69,231.29Z"/><path class="cls-31" d="M389.87,420.69c0,3.32-29.4,6-65.66,6s-65.65-2.7-65.65-6,29.39-6,65.65-6S389.87,417.37,389.87,420.69Z"/><path class="cls-31" d="M338.49,406.86a6.62,6.62,0,0,0,1,.38,29.53,29.53,0,0,1-6.07,3.91c-.52.25-1.05.49-1.58.72-.3.12-.6.25-.91.36a30.89,30.89,0,0,1-3,1c-1,.29-2,.53-3.06.73a45.19,45.19,0,0,1-9.43.82v-2.22c0-.41,0-.82,0-1.23s0-1,.06-1.43v-.06c0-.23,0-.46,0-.7s0-.47.05-.7c.09-1.07.21-2.15.36-3.21a1.55,1.55,0,0,1,.23.06,25.77,25.77,0,0,0,12.93.53,26.61,26.61,0,0,0,5.94-2,8,8,0,0,0,.67.94h0a.63.63,0,0,1,.86.25h0a.62.62,0,0,1,0,.62l.07.07a6.84,6.84,0,0,0,.74.56.64.64,0,0,1,.87-.08h0A.6.6,0,0,1,338.49,406.86Z"/><path class="cls-15" d="M352.64,415v3.07H313.51V411c0-.41,0-.82,0-1.23s0-1,.06-1.43v-.06c0-.23,0-.46.05-.7a5.49,5.49,0,0,1,.05-.7c.08-1.07.2-2.15.36-3.21,0-.26.07-.53.11-.79l.7-4.42,0-.15.37-2.28,3.72-.35,8.5-.8,3.28-.31.44,1.66.32,1.2.35,1.33.33,1.21h0l0,.11a9.63,9.63,0,0,0,.32.95,6.24,6.24,0,0,0,.59,1.15,0,0,0,0,0,0,0,7.78,7.78,0,0,0,1.54,1.81l.08.07a7.85,7.85,0,0,0,.73.56,6.79,6.79,0,0,0,1.09.61,6.15,6.15,0,0,0,1,.38h0a6.62,6.62,0,0,0,1.17.27,7.2,7.2,0,0,0,1.14.08h3.69a9.24,9.24,0,0,1,2.7.41c.22.07.42.14.63.23a6.39,6.39,0,0,1,.6.26,9.15,9.15,0,0,1,2.75,2.06,4.69,4.69,0,0,1,.46.54l.09.12a3,3,0,0,1,.29.41,1.59,1.59,0,0,1,.18.27,1.82,1.82,0,0,1,.15.27,2.46,2.46,0,0,1,.22.39c.1.2.19.39.28.6a4.29,4.29,0,0,1,.16.43,5.05,5.05,0,0,1,.18.55.42.42,0,0,1,0,.12c.05.19.1.38.13.56a2.1,2.1,0,0,1,.06.33,2.76,2.76,0,0,1,.06.4c0,.12,0,.24,0,.36s0,.24,0,.37S352.64,414.9,352.64,415Z"/><path class="cls-16" d="M352.64,415V418H329.32l.62-7.72c6.11.37,10.16.11,10.53-4.27h3.12a9,9,0,0,1,9.05,9Z"/><path class="cls-17" d="M333.87,418H331.1l-6.89,0-10.7,0V411c0-.41,0-.82,0-1.23s0-1,.06-1.43v-.06c0-.23,0-.46.05-.7a5.49,5.49,0,0,1,.05-.7c.08-1.07.2-2.15.36-3.21,0-.26.07-.53.11-.79l.71-4.41,0-.16.36-2.28,3.72-.35a10.19,10.19,0,0,1,10.77,7.43l.12.43.65,2.34.13.47.89,3.21.22.8,0,.16,1.93,7,.14.49Z"/><path class="cls-16" d="M331.12,418.1H313.51V411c0-.41,0-.82,0-1.23s0-1,.06-1.43v-.06c0-.23,0-.46.05-.7a5.49,5.49,0,0,1,.05-.7c.08-1.07.2-2.15.36-3.21,0-.26.07-.53.11-.79l.7-4.42,0-.15h0l2.33-.21a9.71,9.71,0,0,1,10,6.16c.11.27.19.54.27.81l.24.87.13.46h0l1.18,4.24.28,1,.41,1.43h0l1.24,4.4.13.49,0,.06Z"/><path class="cls-17" d="M324.21,416.3v1.8h-10.7V411c0-.41,0-.82,0-1.23s0-1,.06-1.43v-.06h.53a12,12,0,0,1,2.65.28,10,10,0,0,1,6.17,3.84,5,5,0,0,1,.35.54A6.66,6.66,0,0,1,324.21,416.3Z"/><path class="cls-17" d="M352.64,415V418h-7.35v-.06a6.37,6.37,0,0,1,6.37-6.37h.28A9,9,0,0,1,352.64,415Z"/><path class="cls-17" d="M331.31,397.48l-1.64.25a.63.63,0,0,1-.73-.51v0a.63.63,0,0,1,.52-.73l1.64-.25a.63.63,0,0,1,.73.52h0A.63.63,0,0,1,331.31,397.48Z"/><path class="cls-17" d="M332,400l-1.64.25a.63.63,0,0,1-.73-.52h0a.63.63,0,0,1,.52-.73l1.64-.25a.63.63,0,0,1,.73.51v0A.63.63,0,0,1,332,400Z"/><path class="cls-17" d="M333.1,402.18l-1.58.5a.63.63,0,0,1-.8-.4h0a.63.63,0,0,1,.4-.8l1.58-.5a.63.63,0,0,1,.8.4h0A.63.63,0,0,1,333.1,402.18Z"/><path class="cls-17" d="M334.67,404a.69.69,0,0,1-.24.24L333,405a.62.62,0,0,1-.85-.24v0a.62.62,0,0,1,.25-.85l1.45-.78h0a.62.62,0,0,1,.85.25h0A.62.62,0,0,1,334.67,404Z"/><path class="cls-17" d="M336.57,405.25a.47.47,0,0,1-.1.2l-1.06,1.29a.63.63,0,0,1-.88.1h0a.64.64,0,0,1-.11-.89l1.06-1.28v0a.64.64,0,0,1,.87-.08h0A.61.61,0,0,1,336.57,405.25Z"/><path class="cls-17" d="M338.76,405.9a.71.71,0,0,1,0,.25l-.5,1.58a.61.61,0,0,1-.78.42h0a.63.63,0,0,1-.43-.78l.49-1.58c0-.06.05-.11.07-.16h0a.43.43,0,0,1,.11-.12.38.38,0,0,1,.13-.09h0a.61.61,0,0,1,.46,0h0A.62.62,0,0,1,338.76,405.9Z"/><path class="cls-17" d="M328.64,420.69l-.6-.16-2.11-.72v.88H312.76v-3.22h40.63v3.22Z"/><path class="cls-55" d="M336.46,343.56a13.48,13.48,0,0,1-9.92,11.34,12.08,12.08,0,0,1-2.44.42l-.27,0a13.48,13.48,0,0,1-14.47-12.43v-.08l-2.46-41.17c-2-29.65,22.7-31.07,26.18-22.16l.7,15.48h0l2.34,39.65.41,6.21A14.26,14.26,0,0,1,336.46,343.56Z"/><path class="cls-55" d="M337,399a6.7,6.7,0,0,1-5.42,6.65l-1.09.22-1.43.28-1.23.24h0l-10.9,2.13a1,1,0,0,1-.17,0,6.51,6.51,0,0,1-3.18-.22,6.68,6.68,0,0,1-4.65-6.41l.06-10.43,0-11.27,0-1.72,0-5.42.18-28.43A13.48,13.48,0,0,1,322.6,331h.26a13.46,13.46,0,0,1,13.6,12.54c0,.27,0,.53,0,.8l0,1.43.15,13.77.12,11.13,0,2.38.05,5.42,0,1.72.06,11.27Z"/><path class="cls-56" d="M336.66,359.56h-6.11a4,4,0,0,1-4-4V338.67a4,4,0,0,1,4-4h5.56l.41,6.21a14.26,14.26,0,0,1-.06,2.7c0,.27,0,.53,0,.8l0,1.43Z"/><path class="cls-19" d="M335.41,418.55v3.07H296.28V414.5c0-.41,0-.82,0-1.23s0-1,.06-1.43v-.06c0-.23,0-.47,0-.7s0-.47.05-.71c.08-1.06.2-2.14.36-3.2,0-.26.07-.53.12-.79l.69-4.42,0-.15.37-2.28,3.72-.35,8.5-.8,3.28-.31.45,1.66.31,1.2.35,1.33.33,1.21h0l0,.11a8.22,8.22,0,0,0,.33,1,6.53,6.53,0,0,0,.58,1.15l0,0a6.18,6.18,0,0,0,.67.94,8.83,8.83,0,0,0,.86.87l.08.07a6.84,6.84,0,0,0,.74.56,7.14,7.14,0,0,0,1.08.61,6.26,6.26,0,0,0,1,.38h0a6.32,6.32,0,0,0,1.16.27,7.2,7.2,0,0,0,1.14.08h3.69a9.24,9.24,0,0,1,2.7.41c.22.07.42.14.63.23a6.39,6.39,0,0,1,.6.26,8.91,8.91,0,0,1,2.76,2.06,5.85,5.85,0,0,1,.45.54.38.38,0,0,1,.09.12,2.34,2.34,0,0,1,.29.41,1.59,1.59,0,0,1,.18.27c.06.09.11.18.16.27a3.58,3.58,0,0,1,.21.39,6.54,6.54,0,0,1,.28.6c.06.13.11.28.16.42s.13.37.18.56a.42.42,0,0,1,0,.12c.05.19.1.38.13.56a1.91,1.91,0,0,1,.06.33,2.57,2.57,0,0,1,.06.4c0,.12,0,.24,0,.36s0,.24,0,.37S335.41,418.42,335.41,418.55Z"/><path class="cls-20" d="M335.41,418.55v2.94H312.09l.62-7.72c6.11.37,10.16.11,10.53-4.27h3.12a9,9,0,0,1,9.05,9.05Z"/><path class="cls-21" d="M316.64,421.54h-2.77l-6.89,0-10.7,0V414.5c0-.41,0-.82,0-1.23s0-1,.06-1.43v-.06c0-.23,0-.47,0-.7s0-.47.05-.71c.08-1.06.2-2.14.36-3.2,0-.26.07-.53.12-.79l.7-4.41,0-.16.36-2.28,3.72-.35a10.19,10.19,0,0,1,10.77,7.43l.12.43.65,2.33.13.47.89,3.22.22.8.05.16,1.93,7,.13.49Z"/><path class="cls-20" d="M313.89,421.62H296.28V414.5c0-.41,0-.82,0-1.23s0-1,.06-1.43v-.06c0-.23,0-.47,0-.7s0-.47.05-.71c.08-1.06.2-2.14.36-3.2,0-.26.07-.53.12-.79l.69-4.42,0-.15h0l2.33-.21a9.72,9.72,0,0,1,10,6.16c.1.26.18.54.26.81l.24.86.13.47h0l1.19,4.24.28,1,.41,1.43h0l1.23,4.4.13.49,0,.06Z"/><path class="cls-21" d="M307,419.82v1.8h-10.7V414.5c0-.41,0-.82,0-1.23s0-1,.06-1.43v-.06h.53a12,12,0,0,1,2.65.28,10,10,0,0,1,6.17,3.84,5,5,0,0,1,.35.54A6.66,6.66,0,0,1,307,419.82Z"/><path class="cls-21" d="M335.41,418.55v2.94h-7.35v-.06a6.38,6.38,0,0,1,6.38-6.37h.27A9,9,0,0,1,335.41,418.55Z"/><path class="cls-21" d="M314.08,401l-1.64.25a.62.62,0,0,1-.72-.52h0a.65.65,0,0,1,.52-.73l1.64-.25a.63.63,0,0,1,.73.52h0A.63.63,0,0,1,314.08,401Z"/><path class="cls-21" d="M314.81,403.51l-1.63.26a.62.62,0,0,1-.73-.52h0a.65.65,0,0,1,.52-.73l1.64-.25a.63.63,0,0,1,.73.51v0A.62.62,0,0,1,314.81,403.51Z"/><path class="cls-21" d="M315.87,405.7l-1.58.5a.63.63,0,0,1-.8-.4h0a.63.63,0,0,1,.4-.8l1.58-.5a.63.63,0,0,1,.8.4h0A.63.63,0,0,1,315.87,405.7Z"/><path class="cls-21" d="M317.44,407.53a.61.61,0,0,1-.24.24l-1.46.78a.62.62,0,0,1-.85-.24v0a.62.62,0,0,1,.25-.85l1.45-.78h0a.62.62,0,0,1,.85.25h0A.62.62,0,0,1,317.44,407.53Z"/><path class="cls-21" d="M319.34,408.77a.47.47,0,0,1-.1.2l-1.05,1.29a.65.65,0,0,1-.89.1h0a.64.64,0,0,1-.1-.89l1.05-1.28,0,0a.64.64,0,0,1,.87-.08h0A.62.62,0,0,1,319.34,408.77Z"/><path class="cls-21" d="M321.53,409.42a.72.72,0,0,1,0,.25l-.5,1.58a.61.61,0,0,1-.78.42h0a.63.63,0,0,1-.43-.78l.5-1.58a.46.46,0,0,1,.07-.16h0a.34.34,0,0,1,.12-.12.27.27,0,0,1,.12-.09h0a.61.61,0,0,1,.46,0h0A.62.62,0,0,1,321.53,409.42Z"/><path class="cls-21" d="M311.42,424.21l-.61-.16-2.1-.72v.88H295.53V421h40.63v3.22Z"/><path class="cls-31" d="M319.6,410.76a29.41,29.41,0,0,1-4.54,3.11l-.48.26-1.05.54-.93.43-.49.21-.16.07c-.31.13-.61.26-.92.37-1,.39-2,.74-3,1-.52.15-1.05.29-1.57.41s-1,.22-1.49.32a44.12,44.12,0,0,1-8.66.82h-.76v-2.22c0-.41,0-.82,0-1.23s0-1,.06-1.44v-.13c0-.21,0-.41.05-.63a5.62,5.62,0,0,1,.05-.7c0-.13,0-.26,0-.39.07-.93.18-1.88.32-2.81l.23.06.31.09a25.19,25.19,0,0,0,8.93.95,25.58,25.58,0,0,0,3.69-.51c.39-.08.78-.18,1.17-.28s1-.28,1.48-.44l1.1-.38c.74-.28,1.47-.59,2.18-.94l.05.07a6,6,0,0,0,.63.87h0a.6.6,0,0,1,.52,0,.42.42,0,0,1,.17.1.47.47,0,0,1,.16.18h0a.64.64,0,0,1,0,.63l.08.07a4.08,4.08,0,0,0,.39.31l.34.25a.64.64,0,0,1,.88-.08l.14.16a1.4,1.4,0,0,1,.1.33.64.64,0,0,1,0,.2A6.26,6.26,0,0,0,319.6,410.76Z"/><path class="cls-18" d="M322.08,295.6l-.4,7-2,35.59-.35,6.2a14.35,14.35,0,0,1-.06,2.71,13.48,13.48,0,0,1-9.92,11.34,12.08,12.08,0,0,1-2.44.42l-.27,0a13.46,13.46,0,0,1-11.07-4.46,13.5,13.5,0,0,1-3.4-8v-.08l-2.21-37-.25-4.18,0-.23-.18-3.24-.19-3.11c.43-5.42,1.73-9,3.57-11.28C301.46,276.76,322.08,295.6,322.08,295.6Z"/><path class="cls-18" d="M319.78,402.51a6.67,6.67,0,0,1-2.26,5.09,6.57,6.57,0,0,1-1,.73,6.64,6.64,0,0,1-2.16.83l-1.09.21-1.43.29-1.23.24h0l-3.46.68L299.7,412a1,1,0,0,1-.17,0,6.51,6.51,0,0,1-3.18-.23,4.67,4.67,0,0,1-.62-.24,6.63,6.63,0,0,1-4-6.16l.06-10.43,0-11.27,0-1.72,0-5.42.18-28.43a13.43,13.43,0,0,1,2.1-7.37c.13-.2.26-.4.41-.59a13.47,13.47,0,0,1,10.84-5.66h.26a13.46,13.46,0,0,1,13.6,12.54c0,.27,0,.53,0,.8l0,1.42.15,13.78.12,11.13,0,2.38.05,5.42,0,1.72.06,11.27Z"/><path class="cls-25" d="M319.43,363.08h-6.11a4,4,0,0,1-4-4V342.19a4,4,0,0,1,4-4h6.32l-.35,6.2a13.56,13.56,0,0,1-.06,2.71c0,.27,0,.53,0,.8l0,1.43Z"/><path class="cls-22" d="M321.9,224.74c-15.83,5.2-6.46,25.69,8,17.39l18.73-16.82-3.09-12.44Z"/><polygon class="cls-57" points="354.39 209.16 339.22 214.34 343.39 229.72 357.42 220.09 354.39 209.16"/><path class="cls-8" d="M341.27,215.44l2.12,14.28,5.28-3.62c2-1,1.52-1.18,4.2-1.28l6.17-1.37c1.63-4.94,3.61-9.73,3.2-15.18l-5.8.19,0-2.57h0c-.24.05-5.51,1.06-5.92,1.18a5.8,5.8,0,0,0-3.55,3.09l-.36.88Z"/><path class="cls-38" d="M352.56,176.16h0a4.92,4.92,0,0,1,.45-1.74c1-2.18,3.32-3.82,6.68-2.45l5.2,1.82a2,2,0,0,1,1.31,2l0,.7-7.92-.46-1.05,5.91-.39,6.62-4.1-.24L352.57,177A5.85,5.85,0,0,1,352.56,176.16Z"/><path class="cls-39" d="M355.86,187.45l.33-5.76,1.36-6.76,7.61.45a.93.93,0,0,0-.6-.65l-5.22-1.83h0a5.38,5.38,0,0,0-1.73-.42,4.05,4.05,0,0,0-4,3.76v.05a4.46,4.46,0,0,0,0,.63v0l.11,10.37Z"/><path class="cls-38" d="M365.54,176.4a.31.31,0,0,1,.33-.29.3.3,0,0,1,.29.32.31.31,0,0,1-.33.29A.3.3,0,0,1,365.54,176.4Z"/><path class="cls-38" d="M364.92,176.36a.31.31,0,1,1,.62,0,.31.31,0,0,1-.33.29A.31.31,0,0,1,364.92,176.36Z"/><path class="cls-38" d="M364.31,176.32a.31.31,0,1,1,.61,0,.3.3,0,0,1-.32.29A.31.31,0,0,1,364.31,176.32Z"/><path class="cls-38" d="M363.69,176.29A.31.31,0,0,1,364,176a.3.3,0,0,1,.29.32.31.31,0,0,1-.33.29A.3.3,0,0,1,363.69,176.29Z"/><path class="cls-38" d="M363.08,176.25a.3.3,0,0,1,.32-.29.31.31,0,0,1,.29.33.3.3,0,0,1-.32.29A.31.31,0,0,1,363.08,176.25Z"/><path class="cls-38" d="M362.46,176.21a.31.31,0,1,1,.29.33A.31.31,0,0,1,362.46,176.21Z"/><path class="cls-38" d="M361.84,176.18a.31.31,0,0,1,.33-.29.3.3,0,0,1,.29.32.31.31,0,0,1-.33.29A.3.3,0,0,1,361.84,176.18Z"/><path class="cls-38" d="M361.23,176.14a.3.3,0,0,1,.32-.29.31.31,0,0,1,.29.33.3.3,0,0,1-.32.29A.31.31,0,0,1,361.23,176.14Z"/><path class="cls-38" d="M360.61,176.11a.31.31,0,0,1,.33-.29.3.3,0,0,1,.29.32.31.31,0,0,1-.33.29A.3.3,0,0,1,360.61,176.11Z"/><path class="cls-38" d="M360,176.07a.3.3,0,0,1,.32-.29.31.31,0,0,1,.29.33.3.3,0,0,1-.32.29A.31.31,0,0,1,360,176.07Z"/><path class="cls-38" d="M359.38,176a.31.31,0,1,1,.29.33A.31.31,0,0,1,359.38,176Z"/><path class="cls-38" d="M358.76,176a.31.31,0,0,1,.33-.29.3.3,0,0,1,.29.32.31.31,0,0,1-.33.29A.3.3,0,0,1,358.76,176Z"/><path class="cls-38" d="M360.19,188.71l1.52,3.47a3.69,3.69,0,0,1,.28,1.94l-2.57,19.71-4.26-.25L356.37,193l-.71-4.62Z"/><path class="cls-40" d="M352.42,243.53a1.12,1.12,0,0,1-1.18,1h0a1.12,1.12,0,0,1-1.05-1.14l.83-31.25,3.53.2Z"/><path class="cls-41" d="M353,187.77l4.33-2.88,7.15.42-.78,2a5.16,5.16,0,0,1-2,2.46l-5.9,3.87-1.27,18.72-3.53-.2.58-21.88A3.14,3.14,0,0,1,353,187.77Z"/><path class="cls-38" d="M364.46,185.31l-7.15-.42.15-2.56,7.92.47,0,.8A2.36,2.36,0,0,1,364.46,185.31Z"/><path class="cls-38" d="M364.77,182.76a.3.3,0,0,1,.32-.29.31.31,0,0,1,.29.33.3.3,0,0,1-.32.29A.31.31,0,0,1,364.77,182.76Z"/><path class="cls-38" d="M364.15,182.72a.31.31,0,1,1,.29.33A.31.31,0,0,1,364.15,182.72Z"/><path class="cls-38" d="M363.53,182.69a.31.31,0,0,1,.33-.29.3.3,0,0,1,.29.32.31.31,0,0,1-.33.29A.3.3,0,0,1,363.53,182.69Z"/><path class="cls-38" d="M362.92,182.65a.3.3,0,0,1,.32-.29.31.31,0,0,1,.29.33.3.3,0,0,1-.32.29A.31.31,0,0,1,362.92,182.65Z"/><path class="cls-38" d="M362.3,182.62a.31.31,0,0,1,.33-.29.3.3,0,0,1,.29.32.31.31,0,0,1-.33.29A.3.3,0,0,1,362.3,182.62Z"/><path class="cls-38" d="M361.69,182.58a.3.3,0,0,1,.32-.29.31.31,0,0,1,.29.33.3.3,0,0,1-.32.29A.31.31,0,0,1,361.69,182.58Z"/><path class="cls-38" d="M361.07,182.54a.31.31,0,1,1,.29.33A.31.31,0,0,1,361.07,182.54Z"/><path class="cls-38" d="M360.45,182.51a.31.31,0,0,1,.33-.29.3.3,0,0,1,.29.32.31.31,0,0,1-.33.29A.3.3,0,0,1,360.45,182.51Z"/><path class="cls-38" d="M359.84,182.47a.3.3,0,0,1,.32-.29.31.31,0,0,1,.29.33.3.3,0,0,1-.32.29A.31.31,0,0,1,359.84,182.47Z"/><path class="cls-38" d="M359.22,182.43a.31.31,0,1,1,.29.33A.31.31,0,0,1,359.22,182.43Z"/><path class="cls-38" d="M358.6,182.4a.31.31,0,0,1,.33-.29.3.3,0,0,1,.29.32.31.31,0,0,1-.33.29A.3.3,0,0,1,358.6,182.4Z"/><path class="cls-38" d="M358,182.36a.3.3,0,0,1,.32-.29.31.31,0,0,1,.29.33.3.3,0,0,1-.32.29A.31.31,0,0,1,358,182.36Z"/><path class="cls-42" d="M361.91,186.33a.55.55,0,0,0,.52.58.55.55,0,1,0,.06-1.1A.55.55,0,0,0,361.91,186.33Z"/><path class="cls-42" d="M358.11,186.1a.55.55,0,1,0,.58-.51A.54.54,0,0,0,358.11,186.1Z"/><path class="cls-42" d="M355.88,188.92a1.19,1.19,0,1,0,1.26-1.12A1.19,1.19,0,0,0,355.88,188.92Z"/><path class="cls-38" d="M354.11,243.36a1.37,1.37,0,0,0,1.29,1.45h0a1.36,1.36,0,0,0,1.45-1.29l1.67-28.36a1.38,1.38,0,0,0-1.29-1.45h0a1.38,1.38,0,0,0-1.45,1.29Z"/><path class="cls-41" d="M355.59,216a.27.27,0,0,0,.22.28l2.52.43a.19.19,0,0,0,.24-.19h0a.26.26,0,0,0-.22-.28l-2.51-.43a.2.2,0,0,0-.25.19Z"/><path class="cls-41" d="M355.54,216.77a.29.29,0,0,0,.22.28l2.52.43a.21.21,0,0,0,.25-.2h0a.26.26,0,0,0-.22-.27l-2.52-.44a.21.21,0,0,0-.25.2Z"/><path class="cls-41" d="M355.5,217.53a.26.26,0,0,0,.22.27l2.52.43a.19.19,0,0,0,.24-.19h0a.27.27,0,0,0-.22-.28l-2.51-.43a.21.21,0,0,0-.25.2Z"/><path class="cls-41" d="M355.45,218.28a.28.28,0,0,0,.22.28l2.52.43a.21.21,0,0,0,.25-.2h0a.26.26,0,0,0-.22-.27l-2.52-.43a.21.21,0,0,0-.25.19Z"/><path class="cls-41" d="M355.41,219a.26.26,0,0,0,.22.27l2.52.44a.21.21,0,0,0,.25-.2h0a.27.27,0,0,0-.22-.27l-2.52-.44a.21.21,0,0,0-.25.2Z"/><path class="cls-41" d="M355.36,219.8a.28.28,0,0,0,.22.27l2.52.43a.2.2,0,0,0,.25-.19h0a.27.27,0,0,0-.22-.28l-2.52-.43a.21.21,0,0,0-.25.2Z"/><path class="cls-41" d="M355.32,220.55a.27.27,0,0,0,.22.28l2.52.43a.21.21,0,0,0,.25-.2h0a.27.27,0,0,0-.22-.27l-2.52-.43a.2.2,0,0,0-.25.19Z"/><path class="cls-41" d="M355.28,221.31a.26.26,0,0,0,.22.27L358,222a.21.21,0,0,0,.25-.2h0a.28.28,0,0,0-.22-.28l-2.52-.43a.2.2,0,0,0-.24.2Z"/><path class="cls-41" d="M355.23,222.07a.26.26,0,0,0,.22.27l2.52.43a.21.21,0,0,0,.25-.19h0a.27.27,0,0,0-.22-.28l-2.52-.43a.21.21,0,0,0-.25.2Z"/><path class="cls-41" d="M355.19,222.82a.27.27,0,0,0,.22.28l2.52.43a.21.21,0,0,0,.24-.2h0a.26.26,0,0,0-.22-.27l-2.52-.43a.19.19,0,0,0-.24.19Z"/><path class="cls-41" d="M355.14,223.58a.26.26,0,0,0,.22.27l2.52.44a.21.21,0,0,0,.25-.2h0a.28.28,0,0,0-.22-.28l-2.52-.43a.21.21,0,0,0-.25.2Z"/><path class="cls-41" d="M355.1,224.33a.27.27,0,0,0,.22.28l2.52.43a.19.19,0,0,0,.24-.19h0a.27.27,0,0,0-.22-.28l-2.51-.43a.21.21,0,0,0-.25.19Z"/><path class="cls-41" d="M355.05,225.09a.29.29,0,0,0,.22.28l2.52.43a.21.21,0,0,0,.25-.2h0a.26.26,0,0,0-.22-.27l-2.52-.43a.2.2,0,0,0-.25.19Z"/><path class="cls-41" d="M355,225.85a.26.26,0,0,0,.22.27l2.52.43a.2.2,0,0,0,.25-.19h0a.3.3,0,0,0-.22-.28l-2.52-.43a.21.21,0,0,0-.25.2Z"/><path class="cls-41" d="M355,226.6a.28.28,0,0,0,.22.28l2.52.43a.21.21,0,0,0,.25-.19h0a.27.27,0,0,0-.22-.28l-2.52-.43a.21.21,0,0,0-.25.19Z"/><path class="cls-41" d="M354.92,227.36a.28.28,0,0,0,.22.28l2.52.43a.21.21,0,0,0,.25-.2h0a.27.27,0,0,0-.22-.27l-2.52-.43a.2.2,0,0,0-.25.19Z"/><path class="cls-41" d="M354.87,228.12a.28.28,0,0,0,.22.27l2.52.43a.2.2,0,0,0,.25-.19h0a.28.28,0,0,0-.22-.28l-2.52-.43a.21.21,0,0,0-.25.2Z"/><path class="cls-41" d="M354.83,228.87a.27.27,0,0,0,.22.28l2.52.43a.21.21,0,0,0,.25-.19h0a.28.28,0,0,0-.22-.28l-2.52-.43a.21.21,0,0,0-.25.19Z"/><path class="cls-41" d="M354.79,229.63a.28.28,0,0,0,.22.28l2.51.43a.21.21,0,0,0,.25-.2h0a.26.26,0,0,0-.22-.27l-2.52-.44a.2.2,0,0,0-.24.2Z"/><rect class="cls-43" x="356.07" y="212.38" width="2.33" height="4.97" rx="0.26" transform="translate(121.74 558.85) rotate(-86.63)"/><path class="cls-42" d="M359.19,215.79a.16.16,0,0,0,.14.16h0a.15.15,0,0,0,.15-.14l.1-1.61a.16.16,0,0,0-.14-.16h0a.15.15,0,0,0-.15.15Z"/><path class="cls-42" d="M358.76,215.76a.15.15,0,0,0,.14.16h0a.14.14,0,0,0,.15-.14l.1-1.6A.15.15,0,0,0,359,214h0a.14.14,0,0,0-.15.14Z"/><path class="cls-42" d="M358.33,215.74a.16.16,0,0,0,.14.16h0a.15.15,0,0,0,.15-.15l.1-1.6a.16.16,0,0,0-.14-.16h0a.15.15,0,0,0-.15.15Z"/><path class="cls-42" d="M357.9,215.71a.15.15,0,0,0,.14.16h0a.14.14,0,0,0,.15-.14l.1-1.6a.15.15,0,0,0-.14-.16h0a.14.14,0,0,0-.15.14Z"/><path class="cls-42" d="M357.47,215.69a.16.16,0,0,0,.14.16h0a.15.15,0,0,0,.15-.15l.1-1.6a.16.16,0,0,0-.14-.16h0a.15.15,0,0,0-.15.15Z"/><path class="cls-42" d="M357,215.66a.15.15,0,0,0,.14.16h0a.14.14,0,0,0,.15-.14l.1-1.6a.15.15,0,0,0-.14-.16h0a.14.14,0,0,0-.15.14Z"/><path class="cls-42" d="M356.61,215.64a.16.16,0,0,0,.14.16h0a.15.15,0,0,0,.15-.15l.1-1.6a.16.16,0,0,0-.14-.16h0a.15.15,0,0,0-.15.14Z"/><path class="cls-42" d="M356.18,215.61a.15.15,0,0,0,.14.16h0a.14.14,0,0,0,.15-.14l.1-1.6a.15.15,0,0,0-.14-.16h0a.14.14,0,0,0-.15.14Z"/><path class="cls-42" d="M355.76,215.59a.15.15,0,0,0,.13.16h0a.15.15,0,0,0,.15-.15l.1-1.6a.16.16,0,0,0-.14-.16h0a.15.15,0,0,0-.15.14Z"/><path class="cls-42" d="M355.33,215.56a.14.14,0,0,0,.13.16h0a.15.15,0,0,0,.16-.14l.09-1.6a.15.15,0,0,0-.14-.16h0a.14.14,0,0,0-.15.14Z"/><path class="cls-42" d="M354.9,215.54a.15.15,0,0,0,.13.16h0a.16.16,0,0,0,.16-.15l.09-1.6a.16.16,0,0,0-.14-.16h0a.15.15,0,0,0-.15.14Z"/><path class="cls-22" d="M299.76,198.69a15,15,0,0,0,8.88-.85l-2.85-24.07c-1.53.23-10.27-.07-16.79-.39l-.09,16.11,0,2.24a1.06,1.06,0,0,0-.19.23C287.56,193.54,295.66,198,299.76,198.69Z"/><path class="cls-18" d="M321.68,302.58c-5.9,3.63-13.88,6.17-23.49,6.91a77.29,77.29,0,0,1-8.13.19l-.15-.31a41.12,41.12,0,0,1-3.81-25.94c-2.24-15.84-4.63-32.69-4.72-34.36l-.15-2.21c-1.11-15-3.57-28.17-.49-39.42a45.65,45.65,0,0,1,4-9h23.54c3.17,3.51,10.52,11.31,13.83,20.4a241.55,241.55,0,0,1,7.42,30c.57,3,1.1,6.22,1.58,9.48a178.75,178.75,0,0,1,2.07,25.7C333.73,291,329.55,297.75,321.68,302.58Z"/><path class="cls-6" d="M318.12,175.53l-1.64.68c.12,1.2,1.41,7.83,1.41,7.83.28,3-.88,7.32-4.55,7.7l-3.87.35c-4.73.07-12.44-4.58-13.14-12.5-2.86,0-7.23,3.65-7.86.85-.68-3-4.57-7.08-5.41-11.05-1.7-17.94,9.49-18.34,16.12-19.17,7-.57,14.09,2.82,16.89,12a26.45,26.45,0,0,1,.81,3.5,19.71,19.71,0,0,1-.6,2.23l.53.9,2.37,3.93A1.94,1.94,0,0,1,318.12,175.53Z"/><path class="cls-58" d="M289.38,184.52c12.41,1.1,3.87-11.85,3.87-11.85s3.27,4,4.4,5.09c2-.27,2-.27,3.72-.63-1.23-15.28-5-21.73,12.16-20.32-3.18-6.32-11.31-10.54-16.39-8.5-8.37,3.36-16.1,7.18-15.75,16.19C281.6,169.74,281.44,172.71,289.38,184.52Z"/><path class="cls-6" d="M291.35,174.11c.37,2.8,3.15,5.72,5,5.48s1.34-2.48,1-5.28c-.22-1.86-.1-4.55-2.18-4.87C293.32,169.15,290.82,170,291.35,174.11Z"/><path class="cls-2" d="M322.09,218.88l-5,1.32c-3.08-5.06-6.61-11.2-10.88-15.3-5-4.82-10.58-6.4-16.34-5.05a12.9,12.9,0,0,0-9.08,7.6,38.28,38.28,0,0,1,6.12-13.32c.57-.76,1.95-2.33,2-2.4,5.83,3.94,16.86,6.94,19.76,6.11A62.17,62.17,0,0,1,322.09,218.88Z"/><path class="cls-18" d="M315.22,159.9,302,163.83h0l-13,3.87-.42.13-.54.16-6.22,1.86-1.05-6.67a13.2,13.2,0,0,1,7.77-13l7.76-3.16c6.83-2.77,14.09,1.23,17,8,.09.2.17.41.25.62l.62,1.6Z"/><path class="cls-5" d="M287.71,153.13c-3.08,2.13-5.18,6.21-4.78,9.72l.67,4.27L304.18,161C297,160.63,289.64,159.12,287.71,153.13Z"/><path class="cls-24" d="M311.72,156.68l-.09-.23-.23-.57c-1.95-4.53-6.18-7.58-10.54-7.58a9.72,9.72,0,0,0-3.7.73l-5,2a20.83,20.83,0,0,1,17.56,6.52C310.39,157.27,311.06,157,311.72,156.68Z"/><path class="cls-25" d="M328.6,156c-1,2.72-3.23,4.13-6.54,5.06a62.24,62.24,0,0,1-7.52,1.43c-3.09.44-12.06,1.32-12.5,1.36a41.53,41.53,0,0,1,12.18-6.57s3.08-.37,6.39-.72C324.42,156.12,328.55,155.74,328.6,156Z"/><path class="cls-26" d="M316.28,168l.53.9c-9.46,1-19.15-.49-28.71-.87l.54-.16H289l0-.13,13-3.87h0c.44,0,9.41-.92,12.5-1.36l1.53-.24a26.45,26.45,0,0,1,.81,3.5A19.71,19.71,0,0,1,316.28,168Z"/><path class="cls-13" d="M343.39,229.72l3.9-13.37a6.54,6.54,0,0,0,7.27-5.4l.69-.15a1.18,1.18,0,0,1,1,.24l1.64,1.32a2.74,2.74,0,0,0,3.87-.43l.26-.33a1.3,1.3,0,0,0-.2-1.82L360,208.34l-2.62-2.13a1.41,1.41,0,0,0-1-.32h0c-.24.05-5.51,1.06-5.92,1.18a5.8,5.8,0,0,0-3.55,3.09l-.36.88-7.36,3.3Z"/><path class="cls-13" d="M358.39,211.19a2,2,0,0,1-2.14-1.93l0-.37a2,2,0,0,1,1.93-2.14l4.1-.21a1.89,1.89,0,0,1,2,1.8l0,.76a1.78,1.78,0,0,1-1.67,1.87Z"/><path class="cls-13" d="M357.56,215.66a2,2,0,0,1-1.49-.5,2,2,0,0,1-.68-1.42l0-.37a2,2,0,0,1,1.89-2.13l5.18-.35a1.85,1.85,0,0,1,1.38.47,1.88,1.88,0,0,1,.64,1.32l0,.77a1.78,1.78,0,0,1-1.65,1.86Z"/><path class="cls-13" d="M358.26,219.88a2,2,0,0,1-2.14-1.93v-.37a2,2,0,0,1,1.92-2.13l4.11-.22a1.91,1.91,0,0,1,2,1.8l0,.77a1.77,1.77,0,0,1-.45,1.27,1.82,1.82,0,0,1-1.23.59Z"/><path class="cls-13" d="M358,223.53a1.63,1.63,0,0,1-1.65-1.6v-.3a1.62,1.62,0,0,1,1.47-1.76l3.15-.17a1.52,1.52,0,0,1,1.54,1.49l0,.64a1.41,1.41,0,0,1-1.28,1.53Z"/><path class="cls-5" d="M331.08,258.38,320.65,262a17.31,17.31,0,0,1-21.42-9.32l-13.58-30.47,18.63-2.57,25.22,29.3C330.07,252,330.6,255.12,331.08,258.38Z"/><path class="cls-6" d="M343,241.75l-.46.27-2.33,1.34-19.88,11.5c-7.13,3.82-12.86.94-15.08-3.59a9.35,9.35,0,0,1-.41-7.41c1-2.79,3.56-5.29,7.94-6.6l5.62-1.94,18-6.19,3.6-1.24Z"/><polygon class="cls-6" points="320.35 238.36 309.9 250.01 306.78 253.49 305.27 251.27 298.22 240.89 300.94 239.2 315.25 230.34 318.42 235.32 320.35 238.36"/><path class="cls-2" d="M315.25,230.34l-14.31,8.86-2.72,1.69-12.57-18.72c-.14-.23-.28-.47-.4-.7-8.3-14.9,9.93-22.74,17.81-10.32Z"/><polygon class="cls-13" points="355.67 236.23 355.04 236.52 353.66 237.16 346.14 240.63 344.13 241.56 344.12 241.56 340.23 243.36 339.61 243.65 339.48 243.08 336.39 229.13 336.16 228.09 344.25 226.7 353.05 225.19 353.16 225.17 355.01 233.32 355.67 236.23"/><path class="cls-13" d="M344.11,238.63c.32,1.68,2.61,2.53,5.21,2.47l8.58-.26a.34.34,0,0,0,.33-.25c1.62-4.87,1.64-9.55,1.31-15a.37.37,0,0,0-.1-.22l-1.38-1.47a.32.32,0,0,0-.26-.12c-1.28,0-9.81.22-10.2.33a5.94,5.94,0,0,0-3.65,3.09s0,0,0,0S344.08,238.47,344.11,238.63Z"/><path class="cls-8" d="M357.54,228.36A2.43,2.43,0,0,1,355,226v0a2.07,2.07,0,0,1,2-2.15l3.82-.16a2.28,2.28,0,0,1,2.38,2.19V226a2.15,2.15,0,0,1-2.06,2.24Z"/><path class="cls-8" d="M356.8,232.9a2.09,2.09,0,0,1-2.18-2v0a2.42,2.42,0,0,1,2.29-2.52l4.91-.28a2,2,0,0,1,1.41.5,2,2,0,0,1,.63,1.35l0,.43a2.16,2.16,0,0,1-2,2.24Z"/><path class="cls-8" d="M356.87,237.26a2.41,2.41,0,0,1-2.52-2.32v0a2.07,2.07,0,0,1,.54-1.48,2.12,2.12,0,0,1,1.44-.67l3.82-.15a2.29,2.29,0,0,1,2.38,2.19l0,.43a1.86,1.86,0,0,1-.48,1.29,1.79,1.79,0,0,1-1.25.58Z"/><path class="cls-8" d="M356.82,240.89a1.65,1.65,0,0,1-1.65-1.64v-.32a1.65,1.65,0,0,1,1.51-1.77l3.21-.13a1.55,1.55,0,0,1,1.55,1.53l0,.65a1.44,1.44,0,0,1-1.32,1.55Z"/><path class="cls-13" d="M353.87,241l4-.12a1.88,1.88,0,0,0,1.65-2.09v0a1.9,1.9,0,0,0-2-1.8l.68,0a2.15,2.15,0,0,0,2-2.29v0a2.14,2.14,0,0,0-2.24-2l.64,0a2.14,2.14,0,0,0,2-2.29v0a2.13,2.13,0,0,0-2.24-2,2.15,2.15,0,0,0,2-2.29v0a2.14,2.14,0,0,0-2.25-2l-5.1.32Z"/><path class="cls-5" d="M310.41,411.32a68.16,68.16,0,0,1-7.84,1.86,27,27,0,0,1-4,.34,19,19,0,0,1-2.26-.12c-.23,0-.47,0-.7-.09,0-.21,0-.41.05-.63a5.62,5.62,0,0,1,.05-.7c0-.13,0-.26,0-.39a6.63,6.63,0,0,1-4-6.16l.06-10.43,0-11.27,0-1.72,0-5.42.18-28.43a13.3,13.3,0,0,1,.1-1.8l-2.21-37a41.12,41.12,0,0,1-3.81-25.94c-2.24-15.84-4.63-32.69-4.72-34.36l-.15-2.21c3,13.7,8,51.75,23.17,55.71a18,18,0,0,0-6.21,6.92,25.68,25.68,0,0,0-2.07,5.3c-1.31,4.86-1.39,10-1.45,15q-.07,5.2-.14,10.41-.09,6.36-.17,12.7-.19,13.16-.36,26.31c-.09,6.64-.15,13.46,2.18,19.68a20.48,20.48,0,0,0,1.44,3.08s0,0,0,0a19.34,19.34,0,0,0,7.89,7.89,14.65,14.65,0,0,0,1.62.7A13.28,13.28,0,0,0,310.41,411.32Z"/><path class="cls-14" d="M344.12,241.56l-3.89,1.8-19.88,11.5c-7.13,3.82-12.86.94-15.08-3.59l-7-10.38-12.57-18.72c-.14-.23-.28-.47-.4-.7,5.78,5.73,10.44,11.46,15.69,17.73,1.21,1.46,2.45,2.94,3.74,4.45l.18.21c1.7,2,3,4.54,5,6.15a7.73,7.73,0,0,0,1.9,1.14,11.43,11.43,0,0,0,7.29.11c7.24-1.95,13.49-5.61,20.39-8.18,1-.39,2-.74,3.08-1.06C343.07,241.86,343.59,241.7,344.12,241.56Z"/></g></g></g></svg>