<?xml version="1.0" encoding="utf-8"?>
<!-- Generator: Adobe Illustrator 23.0.1, SVG Export Plug-In . SVG Version: 6.00 Build 0)  -->
<svg version="1.1" id="Layer_1" xmlns="http://www.w3.org/2000/svg" xmlns:xlink="http://www.w3.org/1999/xlink" x="0px" y="0px"
	 viewBox="0 0 100 100" style="enable-background:new 0 0 100 100;" xml:space="preserve">
<style type="text/css">
	.st0{fill-rule:evenodd;clip-rule:evenodd;fill:#8C9DF4;}
	.st1{fill-rule:evenodd;clip-rule:evenodd;fill:#7286CE;}
	.st2{fill:#FF9E55;}
</style>
<g>
	<path class="st0" d="M64.6,11.2c-3.3,0-10.4,0-13.7,0V9.9h-5.1V8.7h4.5C50.5,9,50.7,9.1,51,9.1h2.5c0.6,0,1-0.5,1-1V7.4
		c0-0.6-0.5-1-1-1H51c-0.3,0-0.6,0.1-0.8,0.3h-4.5c-0.2-1.9-3-1.9-3.3,0h-4.6c-0.2-0.2-0.5-0.3-0.8-0.3h-2.5c-0.6,0-1,0.5-1,1V8
		c0,0.6,0.5,1,1,1h2.5c0.3,0,0.6-0.1,0.8-0.3h4.6v1.2h-5.1v1.3h-6.5v9.2h6.5v1.4h13.5v-1.4h3.9V22h-1.1v2.5h12.1V22h-1.1V11.2z"/>
	<rect x="20" y="41.9" transform="matrix(0.7071 -0.7071 0.7071 0.7071 -23.8895 30.0542)" class="st0" width="8.6" height="3.8"/>
	<path class="st0" d="M12.5,26.2l8.2-8.2C11,11.3-0.7,24.5,6.8,32.4l5.1,5.1l6-6L12.5,26.2z"/>
	<path class="st0" d="M26.8,26.7c-1.9-1.9-3.7-1.9-5-1c-2,1.5-2,5.1-3.4,6.5l-5.9,5.9l6.8,6.8l6.6-6.6l4,4L23.4,49l1.2,1.2
		c3.4-3.8,7.6-5.1,10.5-2.7c8.1,8.1,33.1,33.2,41.3,41.4c4.1,4.1,10.3-2.1,6.2-6.2C69.6,69.6,39.8,39.7,26.8,26.7z M79.9,86.2
		c-0.5,0.5-1.3,0.5-1.8,0L72.9,81c-0.5-0.5-0.5-1.3,0-1.8c0.5-0.5,1.3-0.5,1.8,0l5.2,5.2C80.4,84.8,80.4,85.7,79.9,86.2z"/>
	<path class="st0" d="M27.5,48.8L25.4,51l7,7l2.2-2.2c1.9-1.9,1.9-5.1,0-7C32.6,46.9,29.5,46.9,27.5,48.8z"/>
	<polygon class="st1" points="48.4,48.3 42.2,54.5 43.8,56.2 50,50 	"/>
	<polygon class="st1" points="50,62.4 51.6,64 57.8,57.8 56.2,56.2 	"/>
	<path class="st2" d="M50,72.1l-6.6,6.6c-1.8,1.8-2.7,4-2.7,6.6c0,2.6,1,4.8,2.8,6.6c1.8,1.8,4,2.7,6.6,2.8c2.6,0,4.8-0.9,6.6-2.7
		c3.7-3.7,3.5-9.6-0.1-13.2L50,72.1z M55.1,91.4c1.7-3.4,1.8-7.8,0.5-11.4C58.9,83.2,58.6,88.5,55.1,91.4z"/>
	<rect x="73.7" y="39.6" transform="matrix(0.7071 -0.7071 0.7071 0.7071 -8.856 66.35)" class="st0" width="3.8" height="8.6"/>
	<path class="st0" d="M65.5,48.8c-1.9,1.9-1.9,5.1,0,7l2.2,2.2l7-7l-2.2-2.2C70.5,46.9,67.4,46.9,65.5,48.8z"/>
	<path class="st0" d="M79.3,18l8.2,8.2l-5.4,5.4l6,6l5.1-5.1C100.7,24.5,89,11.3,79.3,18z"/>
	<path class="st0" d="M78.2,25.8c-1.3-0.9-3.1-0.9-5,1c-13,13-42.8,42.9-55.8,55.9c-4.1,4.1,2.1,10.3,6.2,6.2
		c8.1-8.1,33.1-33.2,41.3-41.4c3-2.4,7.1-1.1,10.5,2.7l1.2-1.2L70,42.3l4-4l6.6,6.6l6.8-6.8l-5.9-5.9C80.2,30.9,80.2,27.2,78.2,25.8
		z M27.1,81l-5.2,5.2c-0.5,0.5-1.3,0.5-1.8,0c-0.5-0.5-0.5-1.3,0-1.8l5.2-5.2c0.5-0.5,1.3-0.5,1.8,0C27.6,79.6,27.6,80.5,27.1,81z"
		/>
</g>
</svg>
