<?xml version="1.0" encoding="utf-8"?>
<!-- Generator: Adobe Illustrator 23.0.1, SVG Export Plug-In . SVG Version: 6.00 Build 0)  -->
<svg version="1.1" id="_x3C_Layer_x3E_" xmlns="http://www.w3.org/2000/svg" xmlns:xlink="http://www.w3.org/1999/xlink" x="0px"
	 y="0px" viewBox="0 0 2760 1465.7" style="enable-background:new 0 0 2760 1465.7;" xml:space="preserve">
<style type="text/css">
	.st0{opacity:0.5;}
	.st1{fill:#D2E0FF;}
	.st2{fill:#FF9E55;}
	.st3{fill:#8C9DF4;}
	.st4{fill:#F99746;}
	.st5{fill:#2B478B;}
	.st6{fill:#AEC3FF;}
	.st7{fill:#FFB27D;}
	.st8{fill:#233862;}
	.st9{fill:#2A4E96;}
	.st10{fill:#163560;}
	.st11{fill:#ED823A;}
	.st12{fill:#FCA56B;}
	.st13{fill:#2C3A64;}
	.st14{fill:#35488B;}
	.st15{fill:#ED975D;}
	.st16{fill:#ED7D2B;}
	.st17{fill:#E28037;}
	.st18{fill:#1D2C51;}
	.st19{fill:#E58638;}
</style>
<g>
	<g class="st0">
		<path class="st1" d="M2633,1406.7l-181.9-0.1l-46.8,0l-75.8,0l-46.8,0l-1324.1-0.8l-97.4-0.1l-380.8-0.2l-78.1-0.1l-246.7-0.2
			c0,0-114.7-282.4,51.2-620.7c36.1-73.5,51.8-141,57-204.3c2.3-27.8,2.5-54.7,1.6-81.1c-4-112.2,26.7-202.9,88.9-272.7
			c7.6-8.6,15.8-16.8,24.4-24.8c40-37,90.3-67.1,150.3-90.6c229.9-89.9,358,117.8,977.2,36.2c505.3-66.5,496.4-145.9,863.7-87.6
			c119.4,18.9,198.8,71.9,235.4,141.9c4.2,8,7.9,16.3,10.9,24.8c5.5,15.3,9.2,31.2,11.1,47.6c3.7,33.1,4.9,67,4.4,101.2
			c-1.7,110.4-21.8,224.1-38.3,325.1c-2.7,16.4-5.3,32.4-7.6,48.1c-5.5,36.4-10,70.5-12.3,101.7c-1.3,17.2-1.8,33.4-1.5,48.6
			c0.5,25.7,3.5,48.3,9.9,67.1C2643,1146.9,2672.6,1304.1,2633,1406.7z"/>
	</g>
	<g>
		<g>
			<path class="st2" d="M1742.3,1009.8H1674v-12.1h68.4c25.7,0,46.6-21.7,46.6-48.4V840.4h11.6v108.9
				C1800.6,982.7,1774.5,1009.8,1742.3,1009.8z"/>
		</g>
	</g>
	<g>
		<path class="st3" d="M1779.5,1043.8h-115.6v-12.1h115.6c23.9,0,43.4-20.2,43.4-45.1v-159h11.6v159
			C1834.5,1018.1,1809.8,1043.8,1779.5,1043.8z"/>
	</g>
	<g>
		<rect x="1651.6" y="324.6" class="st3" width="33.9" height="1082.1"/>
	</g>
	<g>
		<path class="st3" d="M2630.6,375.2H1122.2c-90.8,0-164.6,76.7-164.6,170.9v860.6h-97.4V546.1c0-150,117.5-272.1,262-272.1h1504
			C2629.9,307.1,2631.2,341,2630.6,375.2z"/>
	</g>
	<g>
		<path class="st3" d="M2570.9,898.6h-38.2c-45,0-81.6,38-81.6,84.7v423.4h-46.8V983.3c0-73.5,57.6-133.3,128.3-133.3h39.7
			C2571.1,867.2,2570.6,883.4,2570.9,898.6z"/>
	</g>
	<g>
		<path class="st3" d="M2592.3,700.3c-2.7,16.4-5.3,32.4-7.6,48.1h-174.6c-39.5,0-81.6,8.9-81.6,115.6v542.7h-46.8V864
			c0-110.2,42-163.7,128.3-163.7H2592.3z"/>
	</g>
	<g>
		<g>
			<path class="st4" d="M479.4,717.1v689.6h-78.1V717.1c0-75.5-59.2-136.9-131.9-136.9h-6.6c2.3-27.8,2.5-54.7,1.6-81.1h5
				C385.2,499.1,479.4,596.9,479.4,717.1z"/>
		</g>
	</g>
	<g>
		<rect x="1248.3" y="711.9" class="st1" width="288" height="690.2"/>
	</g>
	<g>
		<path class="st1" d="M1091.2,1401.4h-61.9V1081c0-81.8,64.1-148.4,142.9-148.4h173.5v64.3h-173.5c-44.7,0-81,37.7-81,84.1V1401.4z
			"/>
	</g>
	<g>
		<g>
			<g>
				<g>
					<path class="st5" d="M496.4,1096c-0.6-1.2-1.3-2.3-2-3.5c-3.1-4.9-6.6-9.4-10.6-13.3c-9.4-9.4-21.1-15.9-34.2-18.8
						c-5-1.1-10.1-1.7-15.1-1.7c-1.9,0-3.9,0.1-5.8,0.2c-11.5,1-22.7,4.9-32.6,11.6c-3.8,2.6-7.4,5.5-10.6,8.7
						c-10.2,10.1-17.3,23.2-20.3,37.8c-4,19.3-0.5,39,9.8,55.6c3.1,4.9,6.6,9.4,10.6,13.3c9.4,9.4,21.1,15.9,34.2,18.8
						c5,1.1,10.1,1.7,15.1,1.7c13.5,0,26.8-4,38.4-11.8c3.8-2.6,7.4-5.5,10.6-8.7c10.2-10.1,17.3-23.2,20.3-37.8
						C507.9,1130.1,505.1,1111.8,496.4,1096z M491,1145.2c-1.4,6.7-3.9,13.1-7.2,18.8c-2.3,3.9-5,7.4-8.1,10.7
						c-2.9,3.1-6.2,5.9-9.8,8.3c-0.2,0.1-0.4,0.3-0.7,0.4c-12.8,8.4-28,11.1-42.8,7.8c-5.8-1.3-11.3-3.5-16.3-6.4
						c-3.9-2.3-7.5-5-10.8-8.2c-3.5-3.4-6.6-7.2-9.2-11.4c-0.2-0.4-0.5-0.8-0.7-1.2c-7.8-13.2-10.4-28.7-7.2-43.9
						c0.6-3,1.5-6,2.5-8.9c1.3-3.5,2.9-6.8,4.7-9.9c0.5-0.8,1-1.6,1.5-2.4c0.1-0.1,0.1-0.2,0.2-0.3c4.3-6.4,9.7-11.9,16.2-16.2
						c7.2-4.8,15.1-7.9,23.3-9c1.1-0.1,2.1-0.3,3.2-0.4c1.5-0.1,3.1-0.2,4.7-0.2c1.8,0,3.7,0.1,5.5,0.3c2.2,0.2,4.5,0.6,6.7,1.1
						c4.9,1.1,9.5,2.8,13.9,5.1c0,0,0.1,0,0.1,0c7.1,3.7,13.3,8.9,18.4,15.3c1.1,1.3,2.1,2.7,3,4.1c0.4,0.5,0.7,1,1,1.5
						c0.2,0.4,0.5,0.8,0.7,1.2c1,1.6,1.8,3.2,2.6,4.9C492.2,1118.2,493.8,1131.8,491,1145.2z"/>
				</g>
			</g>
			<g>
				<g>
					<polygon class="st5" points="435,1140.6 374.5,1107.6 380.7,1095.3 434.3,1124.5 485.1,1090.4 492.4,1102.1 					"/>
				</g>
			</g>
			<g>
				<g>
					<polygon class="st5" points="403.3,1188.8 392.5,1180.6 427.9,1130.3 426.5,1065.8 439.9,1065.5 441.4,1134.7 					"/>
				</g>
			</g>
			<g>
				<g>
					<polygon class="st5" points="469.7,1189.1 429.4,1136.9 439.9,1128.2 480.2,1180.3 					"/>
				</g>
			</g>
		</g>
		<g>
			<path class="st5" d="M421.8,1132.5c0-7.4,5.8-13.4,12.9-13.4c7.1,0,12.9,6,12.9,13.4c0,7.4-5.8,13.4-12.9,13.4
				C427.5,1145.9,421.8,1139.9,421.8,1132.5z"/>
		</g>
	</g>
	<g>
		<g>
			<g>
				<g>
					<path class="st5" d="M2348.5,1119.4c-0.5-1-1.1-1.9-1.7-2.8c-2.5-4-5.4-7.7-8.6-10.9c-7.7-7.7-17.3-13-28-15.4
						c-4.1-0.9-8.2-1.4-12.3-1.4c-1.6,0-3.2,0.1-4.8,0.2c-9.4,0.8-18.5,4-26.7,9.5c-3.1,2.1-6,4.5-8.7,7.1
						c-8.4,8.3-14.2,18.9-16.6,30.9c-3.3,15.8-0.4,31.9,8,45.5c2.5,4,5.4,7.7,8.6,10.9c7.7,7.7,17.3,13,28,15.4
						c4.1,0.9,8.3,1.4,12.4,1.4c11.1,0,21.9-3.3,31.4-9.7c3.1-2.1,6-4.5,8.7-7.1c8.4-8.3,14.2-19,16.6-30.9
						C2357.9,1147.4,2355.7,1132.4,2348.5,1119.4z M2344.1,1159.6c-1.1,5.5-3.2,10.7-5.9,15.4c-1.9,3.2-4.1,6.1-6.6,8.7
						c-2.4,2.5-5.1,4.8-8,6.8c-0.2,0.1-0.4,0.2-0.5,0.3c-10.5,6.8-22.9,9.1-35,6.4c-4.7-1.1-9.2-2.8-13.3-5.3
						c-3.2-1.9-6.2-4.1-8.9-6.7c-2.8-2.7-5.4-5.9-7.5-9.4c-0.2-0.3-0.4-0.6-0.6-1c-6.4-10.8-8.5-23.5-5.9-35.9
						c0.5-2.5,1.2-4.9,2.1-7.3c1-2.8,2.3-5.6,3.8-8.1c0.4-0.7,0.8-1.3,1.2-2c0-0.1,0.1-0.2,0.1-0.2c3.5-5.2,7.9-9.7,13.2-13.3
						c5.9-3.9,12.3-6.4,19-7.4c0.9-0.1,1.8-0.2,2.6-0.3c1.3-0.1,2.5-0.2,3.8-0.2c1.5,0,3,0.1,4.5,0.2c1.8,0.2,3.7,0.5,5.5,0.9
						c4,0.9,7.8,2.3,11.4,4.1c0,0,0,0,0.1,0c5.8,3,10.9,7.3,15,12.5c0.9,1.1,1.7,2.2,2.4,3.4c0.3,0.4,0.5,0.8,0.8,1.2
						c0.2,0.3,0.4,0.6,0.6,1c0.8,1.3,1.5,2.6,2.1,4C2345.1,1137.6,2346.4,1148.7,2344.1,1159.6z"/>
				</g>
			</g>
			<g>
				<g>
					<polygon class="st5" points="2298.3,1155.9 2248.8,1129 2253.9,1118.9 2297.7,1142.7 2339.3,1114.9 2345.2,1124.4 					"/>
				</g>
			</g>
			<g>
				<g>
					<polygon class="st5" points="2272.4,1195.3 2263.5,1188.6 2292.5,1147.5 2291.3,1094.8 2302.3,1094.5 2303.5,1151.1 					"/>
				</g>
			</g>
			<g>
				<g>
					<polygon class="st5" points="2326.7,1195.5 2293.7,1152.9 2302.3,1145.8 2335.3,1188.4 					"/>
				</g>
			</g>
		</g>
		<g>
			<path class="st5" d="M2287.5,1149.3c0-6,4.7-10.9,10.5-10.9c5.8,0,10.5,4.9,10.5,10.9c0,6-4.7,10.9-10.5,10.9
				C2292.2,1160.3,2287.5,1155.4,2287.5,1149.3z"/>
		</g>
	</g>
	<g>
		<rect x="1019.7" y="1310.8" class="st6" width="81.1" height="95.9"/>
	</g>
	<g>
		<rect x="1537.7" y="268.1" class="st5" width="34.3" height="116.3"/>
	</g>
	<g>
		<rect x="1942.8" y="268.1" class="st5" width="34.3" height="116.3"/>
	</g>
	<g>
		<rect x="1470.8" y="268.1" class="st5" width="34.3" height="116.3"/>
	</g>
	<g>
		
			<rect x="892.3" y="848.3" transform="matrix(-1.836970e-16 1 -1 -1.836970e-16 1814.4131 -5.7483)" class="st5" width="35.6" height="112"/>
	</g>
	<g>
		
			<rect x="892.3" y="470.1" transform="matrix(-1.836970e-16 1 -1 -1.836970e-16 1436.1981 -383.9633)" class="st5" width="35.6" height="112"/>
	</g>
	<g>
		<rect x="2272" y="1291.4" class="st5" width="65.2" height="110.9"/>
	</g>
	<g>
		<rect x="2395" y="1291.4" class="st5" width="65.2" height="110.9"/>
	</g>
	<g>
		<g>
			<path class="st7" d="M862.4,706c0,0,8.5-15,15.2-20.5c6.7-5.6,24.5-7.1,25.2-5.7c2.1,4.4-7.1,10.7-9,14.8
				c-1.9,4-1.1,9.9-10.1,14.6c-9.3,4.9-14.8,8.1-14.8,8.1L862.4,706z"/>
		</g>
		<g>
			<path class="st8" d="M869.6,704c-4.4-7.1-5.7-7.4-5.7-7.4s-65.1,42.6-72,45.1c-6.9,2.5-74.6-11.4-74.6-11.4l-23.5,41.9
				c0,0,89.5,14.8,106.8,8.1c28.6-11,72.4-65.1,72.4-65.1S873,709.5,869.6,704z"/>
		</g>
		<g>
			<path class="st7" d="M888.4,697.9c0,0,12.8-8.2,13.4-4.7c0.3,1.7-5.4,6.5-7.7,8.6c-2.3,2-8.1,6-8.1,6L888.4,697.9z"/>
		</g>
		<g>
			<g>
				<g>
					<g>
						<path class="st5" d="M978.2,640.8c-12.3-17.7-29.7-29.5-48.6-34.7c-17.4-4.8-36.2-4-53.5,2.8c-7,2.8-13.8,6.5-20.2,11.3
							c-39.2,29.3-48.1,86.3-19.9,127.1c12.3,17.7,29.7,29.5,48.6,34.7c8.8,2.4,18,3.4,27.1,2.9c8.9-0.5,17.8-2.4,26.4-5.7
							c4.8-1.9,9.5-4.2,14-7c1-0.6,2-1.2,2.9-1.9c1.1-0.8,2.2-1.6,3.3-2.4c2.2-1.7,4.3-3.4,6.4-5.2c5.3-4.8,10-10.2,13.9-15.9
							C999.6,715.8,1000.6,673.1,978.2,640.8z M977.3,705.8c-1.9,11.9-6.3,22.8-13.1,32.2c-1.2,1.7-2.6,3.4-4,5.1
							c-1.7,1.9-3.4,3.7-5.3,5.5c-0.2,0.2-0.4,0.4-0.6,0.5c-1.8,1.7-3.7,3.3-5.7,4.8c-0.3,0.2-0.5,0.4-0.8,0.6
							c-0.3,0.2-0.5,0.4-0.8,0.6c-0.6,0.4-1.2,0.8-1.7,1.2c0,0,0,0,0,0c-2.3,1.5-4.6,2.9-7,4.1c-0.4,0.2-0.7,0.4-1.1,0.5
							c-1,0.5-2,0.9-3,1.4c-16.3,7-34.3,7.3-50.5,1.4c-2.9-1-5.7-2.3-8.4-3.7c-4.9-2.5-9.5-5.7-13.8-9.4c-4.4-3.8-8.5-8.3-12.1-13.5
							c-13.8-19.8-16.7-44.4-9.9-66.1c1.7-5.4,4-10.7,6.9-15.6c4.8-8.2,11.2-15.5,19.1-21.4c3.6-2.7,7.5-5.1,11.5-7
							c5.3-2.6,10.9-4.5,16.7-5.6c3.2-0.6,6.4-1,9.7-1.2c2.3-0.1,4.5-0.1,6.8,0c2.8,0.1,5.6,0.4,8.4,0.9c4.1,0.7,8.1,1.7,12,3.1
							c11.2,4,21.1,10.8,29.1,19.9c1.9,2.1,3.6,4.3,5.2,6.7c1.6,2.3,3.1,4.8,4.5,7.3C977,672.6,979.9,689.2,977.3,705.8z"/>
					</g>
				</g>
				<g>
					<g>
						<polygon class="st5" points="908,703.9 831.5,667.3 838.4,651.7 906.1,684.1 966.6,638.8 976.3,652.8 						"/>
					</g>
				</g>
				<g>
					<g>
						<polygon class="st5" points="871.9,765.3 858.1,755.9 898.6,691.7 892.9,612.4 909.4,611.2 915.5,696.3 						"/>
					</g>
				</g>
				<g>
					<g>
						<polygon class="st5" points="953.7,761.3 900.9,699.7 913.2,688.3 966,749.9 						"/>
					</g>
				</g>
			</g>
			<g>
				<path class="st5" d="M891.2,694.9c-0.4-9.1,6.3-16.8,15-17.3c8.8-0.5,16.2,6.5,16.7,15.6c0.4,9.1-6.3,16.8-15,17.3
					C899.1,710.9,891.7,704,891.2,694.9z"/>
			</g>
		</g>
		<g>
			<g>
				<g>
					<path class="st2" d="M893.9,792.2l-96.9,118.4c-3.5,4.3-9.8,4.8-13.9,1.2l0,0c-2.8-2.4-3.1-6.7-0.8-9.6L882,780.5
						c2-2.5,5.6-2.8,8-0.7l3.3,2.9C895.9,785.1,896.2,789.3,893.9,792.2z"/>
				</g>
				<g>
					<path class="st2" d="M914.2,748l-10.7-14c-4.6-6-13.2-6.4-17.8-0.8l-43,52.5c-2.3,2.8-1.9,6.9,0.7,9.3l0,0l0,0l15.6,13.8
						l23.2-28.4l-9.4-8.3l13.9-17c5-6.1,14.4-5.4,19.1,1.4l5.5,7.9l2.8-3.5C917.1,757.2,917.1,751.8,914.2,748z"/>
				</g>
			</g>
			<g>
				<g>
					<path class="st9" d="M857.5,795.9c-1-0.8-1.1-2.3-0.3-3.3c0.8-1,2.2-1.1,3.2-0.3c1,0.8,1.1,2.3,0.3,3.3
						C859.9,796.6,858.5,796.7,857.5,795.9z"/>
				</g>
				<g>
					<path class="st9" d="M866.9,784.4c-1-0.8-1.1-2.3-0.3-3.3c0.8-1,2.2-1.1,3.2-0.3c1,0.8,1.1,2.3,0.3,3.3
						C869.3,785.2,867.8,785.3,866.9,784.4z"/>
				</g>
			</g>
		</g>
		<g>
			<path class="st10" d="M690.3,1367.1c0,0,1.6,26.3,6.3,32.5h72.4c-0.5-2.6-2.5-9.1-11.6-10.7c-11.4-2.1-30.6-10.4-37.5-26.1
				C712.6,1346.2,690.3,1367.1,690.3,1367.1z"/>
		</g>
		<g>
			<path class="st10" d="M561.8,1363.4c0,0-5.3,36.5,0.9,37.1c0.8,0.1,27.8-0.3,38.2-0.4c13-0.1,34.8-0.6,34.8-0.6
				c2.7,0.1,4-4.2,2.6-6.6c-1.5-2.6-4.4-5.5-9.8-6.6c-11.4-2.3-30.4-11-37.1-26.8C584.5,1342.9,561.8,1363.4,561.8,1363.4z"/>
		</g>
		<g>
			<path class="st11" d="M724.3,1017c0,0-18.2,66.1-70.4,181c-52.2,114.8-56.2,167.2-56.2,167.2l-35.9-1.8c0,0,3.4-136.7,28-194.7
				c24.6-58,29.7-216.5,29.7-216.5L724.3,1017z"/>
		</g>
		<g>
			<path class="st2" d="M753.5,960.1c0,0,1.4,102.4-15.6,228.1c-17.1,125.7-11.3,179.1-11.3,179.1l-40.9,1.4
				c0,0-24.4-125.8-17.4-188.7c7-62.9-33.4-216-33.4-216L753.5,960.1z"/>
		</g>
		<g>
			<path class="st7" d="M672.9,720.4l19.3,14.8l27.9-6.1c-0.4-2.6-2.2-13.6-3.9-23.5c-0.1-0.6-0.2-1.2-0.3-1.7
				c-1.4-8.4-2.7-15.7-2.7-15.7l-26-13.5l-9.7-5c0,0.2,0.8,9.4,0.9,10.7C680.1,704.3,672.9,720.4,672.9,720.4z"/>
		</g>
		<g>
			<path class="st10" d="M718.1,713c-0.6-0.3-37.9-11.7-41.9-10.3c-4,1.4-6.4,9.5-6.4,9.5l57.6,17
				C727.3,729.2,725.9,716.4,718.1,713z"/>
		</g>
		<g>
			<path class="st9" d="M617.7,972.7c6.3,29.9,138.1-64,136.3-82.3c-0.2-2-0.4-4-0.6-6c-2.4-25.4-4.8-50.3-4.9-66.6
				c-0.1-14.1-2-28.5-4.5-41.6c-2.3-12.1-5.1-23-7.5-31.6c-1.7-6-4.9-11.3-9.2-15.5c-3-3-6.6-5.3-10.5-7c-1.1-0.5-2.2-0.9-3.3-1.2
				c-15.9-4.8-37.8-10.7-43.8-8.9c-16.1,4.9-28.1,34.4-36.6,72C617.2,854.5,613.6,953.2,617.7,972.7z"/>
		</g>
		<g>
			<path class="st12" d="M680.3,680.9c5.7,11.4,27,21.2,35.9,24.8c-0.1-0.6-0.2-1.2-0.3-1.7c-1.4-8.4-2.7-15.7-2.7-15.7l-26-13.5
				C681.4,674.7,677.9,676.2,680.3,680.9z"/>
		</g>
		<g>
			<path class="st7" d="M725.8,686.7c0,0-46.9,15.2-55.6-15.3c-8.7-30.5-20.6-49.1,9-60.1c29.6-11,38.8-1.2,44,8.3
				C728.6,629.1,737.8,682,725.8,686.7z"/>
		</g>
		<g>
			<path class="st10" d="M721.4,616.7c0,0-3,35.5-10.1,34c-7.1-1.5-13.5-2.7-12.4,8c1,10.7,10.8,23.1-10.9,24.9
				c-21.8,1.9-53.1-56.4-47.1-67.5C658.1,584.3,746.4,577.8,721.4,616.7z"/>
		</g>
		<g>
			<path class="st8" d="M750,960.1c-13,4.9,0.2-13.5,0-17.3c-1-16.8,5.3-38.1,3.4-58.4L673.7,835C673.7,835,654.8,959.3,750,960.1z"
				/>
		</g>
		<g>
			<path class="st2" d="M617.7,972.7c34,65.5,39.4,90.5,39.4,90.5c29.6-3.5,80.3-64,96.4-80.1c0,0,2.2-74.4,0.4-92.7l-24.6-0.7
				c0,0-44.5,11.7-56-4.2c-11.5-15.9-6.5-93.8-6.5-93.8l-33.8-7.6C617.2,854.5,608.6,955.1,617.7,972.7z"/>
		</g>
		<g>
			<path class="st7" d="M811.8,847.5c0,0,9.7-2,12.2-4.1c3.7-3.2,6.7-8.5,8.5-9.1c3.1-1,10.6-10.8,11.2-11.5
				c0.2-0.3,2.3,0.8,1.8,2.4c-0.5,1.6-1.6,5.2-2,6.4c-1.8,5.6-1.7,7.3,4.7,5.1c0.8-0.3,15.7-5.2,17.2-1.7c1.5,3.5-4.6,20.4-12.4,24
				c-7.8,3.6-26.9,0.4-28.3,0.8C813.1,863.3,811.8,847.5,811.8,847.5z"/>
		</g>
		<g>
			<path class="st9" d="M819.7,844.2c0,0-79,14-86,10.4c-11.2-5.7,4.3-88.9,4.3-88.9s0.7-18.9-20.6-23.3
				c-18.4-3.9-36.2,10.5-36.2,10.5s-16.2,15-14.1,31.7c4.6,37,11.7,112.2,35.5,123.7c30.7,14.9,119.6-41.2,119.6-41.2
				s3-3.8,2.5-10.8C824.4,850.1,819.7,844.2,819.7,844.2z"/>
		</g>
		<g>
			<path class="st2" d="M660.3,790.3l6.5,1.5c0,0,13.8-62.2,60.4-62.5c-3-3-6.6-5.3-10.5-7C699.7,727,670.1,742.1,660.3,790.3z"/>
		</g>
	</g>
	<g>
		<rect x="395.4" y="1343.9" class="st5" width="92" height="55.6"/>
	</g>
	<g>
		<rect x="852.2" y="1343.9" class="st5" width="109.3" height="55.6"/>
	</g>
	<g>
		<rect x="1738.7" y="576.2" class="st1" width="159.2" height="334.5"/>
	</g>
	<g>
		<rect x="1764" y="603.4" class="st6" width="109.1" height="58.8"/>
	</g>
	<g>
		<g>
			<g>
				<path class="st13" d="M1840.7,1340.3c0,0-12.3,11.8-9.9,20.3c2.4,8.4,13.5,14,15,24.3c1.5,10.3,7.5,15.9,12.9,15.9
					c5.4,0,25.8,0,25.8,0s4-7.2-5.6-9.4c-9.6-2.2-13.2-14.3-12.6-25.5c0.6-11.2-0.9-26.2-0.9-26.2l-20.4-5L1840.7,1340.3z"/>
			</g>
			<g>
				<path class="st13" d="M1991.7,1370.6c0,0-2.9,27,2.5,29.8h69.7c0,0,0.1-8.6-11-10.4c-11.1-1.9-30.6-8.7-33.9-24
					C2015.7,1350.7,1991.7,1370.6,1991.7,1370.6z"/>
			</g>
			<g>
				<path class="st14" d="M2050,987.6c0,0-3.6,47.2-7.9,104c-5.8,77.1-12.8,171.9-13.5,189.8c-1.2,31.2-6,81-6,81
					s-11.4,11.8-34.2,6.9c0,0-20.3-71.2-26.1-146.5c-0.1-1.2-0.2-2.5-0.3-3.7c-5.4-76.7-13.8-238.1-13.8-238.1L2050,987.6z"/>
			</g>
			<g>
				<path class="st13" d="M2050,987.6c0,0-3.6,47.2-7.9,104l-79.9,131.2c-0.1-1.2-0.2-2.5-0.3-3.7c-5.4-76.7-13.8-238.1-13.8-238.1
					L2050,987.6z"/>
			</g>
			<g>
				<path class="st14" d="M2033.4,993.2c0,0-3.4,8.8-9.1,23.3c-13.4,33.9-39.5,98.9-65.3,156.6c-12,26.7-23.9,51.9-34.5,71.6
					c-43.2,80.4-56.7,102.8-56.7,102.8s-0.6-0.3-1.7-0.7c-4.5-2-16.9-7.7-22.6-12.9c-1.4-1.3-2.4-2.5-2.8-3.7
					c0,0,16.5-155.2,45.5-193.1c16.4-21.4,35.6-85.5,36.5-108c0.4-9.9,1.6-24,2.8-36.8c1.1-11.5,2.2-21.9,2.7-26.9
					c0.2-2,0.3-3.2,0.3-3.2l75.9,22.3L2033.4,993.2z"/>
			</g>
		</g>
		<g>
			<path class="st13" d="M2017.9,1015.2c-34-1.8-49.1-5.8-68.6-10.7c-11.7-3-19.4-9.2-24-12.1c1.1-11.5,2.2-21.9,2.7-26.9l30.5,16.2
				L2017.9,1015.2z"/>
		</g>
		<g>
			<path class="st15" d="M2212.3,901.6c0,0,17.6,0,20.3,1c2.7,1,17.5,18.4,16.8,22.4c-0.6,4-10.9,8.8-18.5,7.2
				c-7.5-1.6-19.9-16.2-21.1-16.6C2199.5,911.6,2212.3,901.6,2212.3,901.6z"/>
		</g>
		<g>
			<path class="st16" d="M2218.5,918.8c4.1-7.7,2.2-19.1,2.2-19.1s-53.4-44.9-59-50.3c-5.7-5.4-62.8-101.9-62.8-101.9l-79.2,5.4
				c0,0,97.7,116.5,112.4,130c24.2,22.2,86,45.1,86,45.1S2215.2,924.8,2218.5,918.8z"/>
		</g>
		<g>
			<path class="st7" d="M2062.3,723.9c0,0,26.8,49,53,55.4c0,0-0.8-12-5-22.6c-1.3-3.4-0.7-7.2,1.5-10.1c1.1-1.4,2-2.6,3-3.9
				c6.6-8.8,9.7-14.2,9.7-14.2l-8.9-24.8l-6-16.9c-2.9,5.5-6.1,10.1-9.4,14.1C2083,721.6,2062.3,723.9,2062.3,723.9z"/>
		</g>
		<g>
			<path class="st15" d="M2100.1,701.1c0,0-3.2,24.6,14.6,41.7c6.6-8.8,9.7-14.2,9.7-14.2l-8.9-24.8
				C2106.1,700.8,2100.1,701.1,2100.1,701.1z"/>
		</g>
		<g>
			<path class="st7" d="M2131.6,732.3c0,0-40.1-16.2-30-42c10.1-25.8,11.8-45.2,37.8-35.9c26,9.3,27.1,21.2,25.7,30.6
				C2163.7,694.4,2142.3,735.8,2131.6,732.3z"/>
		</g>
		<g>
			<path class="st4" d="M2108.7,841.3c-4.3,13.1-10.1,26.4-16.7,39.1c-1.3,2.5-2.6,5-3.8,7.4c-0.8,1.6-1.6,3.2-2.4,4.8
				c-14.6,30.6-21.4,57.1-24.3,78c-0.6,4-1,7.8-1.3,11.4c-1.3,15.3-139-34.5-134.6-55.9c2.9-14.1,6.9-28.9,10.7-41.5
				c5.5-18.5,10.3-32.3,10.3-32.3c25.8-63.7,62.3-97.9,90.8-116c5.2-3.3,10-6,14.6-8.3c17.3-8.8,29.1-11,29.1-11s5.9,30.6,31.1,42.7
				c0,0.1,3.9,16.6,4,16.7C2120.4,792.2,2117,816.2,2108.7,841.3z"/>
		</g>
		<g>
			<path class="st5" d="M2095.9,642.5c-0.3-0.6-1.1-1.2-3.1-1.8c0,0,1.9-0.7,4-0.2c1.1-2.9,3.9-7.7,9-7.7c0,0-2.9,0.8-4,3.9
				c7-4.6,20.1-6,52.6,5.3c42.9,14.8,21.4,40.7,15,42.7c-6.5,2.1-18.5-11.2-29.2-13c-10.8-1.8-16.6,13.7-20.7,15
				c-4.1,1.3-1.8-2.3-6.1-5.8c-4.3-3.5-6.8,4.8-6.7,10.7c0.1,5.9-8.3,11.4-8.3,11.4s0,0-4.9-9.4c-4.9-9.4-3.6-43.3,1.1-49.4
				C2095,643.5,2095.4,643,2095.9,642.5z"/>
		</g>
		<g>
			<path class="st16" d="M2023.8,818.1c0,0,4.6,36.2,20.2,63.7c15.6,27.4,22.5-15.3,22.5-15.3L2023.8,818.1z"/>
		</g>
		<g>
			<path class="st14" d="M2085.7,892.7c-14.6,30.6-21.4,57.1-24.3,78c-0.6,4-1,7.8-1.3,11.4c-1.3,15.3-0.6,26.5,0,33
				c1.4,16.7-119.4-15.5-135.6-39.7c-8.9-13.3,2.3-58.9,11.7-90.7c1.6,0.4,76.5,18.9,128.3-29.2L2085.7,892.7z"/>
		</g>
		<g>
			<g>
				<path class="st13" d="M2094.9,806.5l-7.5-15.5c0-0.3,0.8-27.3-14.8-43.1c-8.4-8.6-20.3-12.4-35.3-11.5c5.2-3.3,10-6,14.6-8.3
					c10.7,1.7,19.7,6.2,26.8,13.5C2097.1,760.2,2095,805.3,2094.9,806.5z"/>
			</g>
		</g>
		<g>
			<g>
				
					<rect x="2252.6" y="880" transform="matrix(6.123234e-17 -1 1 6.123234e-17 1382.3335 3209.2327)" class="st8" width="86.3" height="66.8"/>
			</g>
			<g>
				
					<rect x="2248.3" y="907.2" transform="matrix(6.123234e-17 -1 1 6.123234e-17 1344.9462 3171.8464)" class="st8" width="20.2" height="12.6"/>
			</g>
			<g>
				
					<rect x="2245.6" y="909.6" transform="matrix(6.123234e-17 -1 1 6.123234e-17 1334.8422 3161.7415)" class="st8" width="5.4" height="7.7"/>
			</g>
			<g>
				
					<rect x="2211.4" y="911.1" transform="matrix(6.123234e-17 -1 1 6.123234e-17 1328.707 3155.6062)" class="st8" width="61.5" height="4.6"/>
			</g>
		</g>
		<g>
			<path class="st7" d="M2198,913c0,0,23.5-4.4,27.4-3.9c3.9,0.5,17.3,7.1,17.4,8.3c0.1,1.2-0.6,2.1-2.9,2.1
				c-2.4,0-10.1-1.4-9.7-0.4c0.4,1,22.7,6.7,22.7,11.4c0,4.7-12.6,12.8-23.1,12.9c-10.4,0.1-30.2-13.5-32-13.7
				C2183.1,927.5,2198,913,2198,913z"/>
		</g>
		<g>
			<path class="st4" d="M2202.4,922.9c0.5-4.8-4.4-9.9-4.4-9.9s-69.8-19.9-75.5-26c-5.8-6-32.5-102.4-32.5-102.4s-9.2-39-30.8-43.3
				c-18.7-3.7-31.7,5.9-40.1,17.2c-10.1,13.4-11.1,32-2.7,46.6c18.8,32.9,56.7,98.2,67.8,109.4c24.7,24.8,113.7,19.7,113.7,19.7
				S2201.5,932.6,2202.4,922.9z"/>
		</g>
	</g>
	<g>
		<rect x="1318.6" y="690.3" class="st5" width="15.3" height="21.6"/>
	</g>
	<g>
		<g>
			<path class="st7" d="M1155.7,1154.2c8.3-2.9,31.2-21.7,32.6-22.3c11.4-5.3-13.9-7.9-13.9-7.9s-18.4-1.9-26.6,4.2c0,0-5,12.3-4,16
				C1144.9,1148.1,1151.6,1155.6,1155.7,1154.2z"/>
		</g>
		<g>
			<path class="st17" d="M1173,1133.9c-3.7-8.7-1.4-15.5-1.4-15.5s71.4-20.3,78.5-24.9c22.4-14.6,53.7-109,53.7-109
				s14.6-37.7,36.8-38.8c19.3-0.9,30.9,10.6,37.8,23.2c8.2,15,6.7,33.7-3.8,47.1c-23.4,30.1-81,105.3-93.5,114.9
				c-19.4,14.8-100.2,12.3-100.2,12.3S1175.9,1140.8,1173,1133.9z"/>
		</g>
		<g>
			<path class="st5" d="M1219.1,1224c11.4,16.6,39.3,24.8,91.8,27.3c4.2,0.2,8.5,0.4,12.7,0.5c4.4,0.1,8.8,0.2,13.2,0.3
				c14.3,0.2,28.5,0,42-0.4c13.1-0.5,25.6-1.2,36.9-2.2c22.2-1.9,39.8-4.7,49-7.9c2.7-1,4.7-1.9,5.8-3c0.9-0.9,1.7-1.9,2.3-3
				c3.3-6.4,1.6-16.8-2.4-28.4c-5.8-16.8-16.5-35.8-23.8-47.7c-1.4-2.4-2.7-4.5-3.8-6.2c-2.2-3.5-3.6-5.5-3.6-5.5
				s-24.5,2.4-58.1,6.9c-6.9,0.9-14.1,1.9-21.6,3c-72.2,10.6-144.2,29.7-144.1,55C1215.4,1216.5,1216.1,1219.6,1219.1,1224z"/>
		</g>
		<g>
			<path class="st13" d="M1307.6,1251c4.4,0.1,24.7,1.1,29.1,1.1c14.3,0.2,28.5,0,42-0.4l12.7-53.3
				C1371.8,1226.9,1314,1249.1,1307.6,1251z"/>
		</g>
		<g>
			<path class="st18" d="M1350.2,1401.5h-70c1.1-2.8,3.8-6.4,10.3-7.6c11-2,30.2-8.2,27.7-24.7c-2.5-16.8,24.4-18.9,24.4-18.9
				S1353.7,1395.1,1350.2,1401.5z"/>
		</g>
		<g>
			<path class="st5" d="M1217.1,1220.6c0,0,86.9,141.9,94.1,158.7c0,0,29.5,2.9,36.7-19.1c0,0-51.6-149.7-74.3-162.1
				C1250.8,1185.8,1217.1,1220.6,1217.1,1220.6z"/>
		</g>
		<g>
			<g>
				<path class="st7" d="M1352.9,937.7c0,0-23.1,46.8-49.1,53.4c0,0,0.5-9.2,3.4-18.5c1.9-6,0.8-12.5-3-17.5
					c-0.1-0.1-0.1-0.2-0.2-0.3c-6.6-8.7-9.8-14-9.8-14l8.6-24.7l0.6-12.6c2.9,5.4,6.1,10.3,9.5,14.2
					C1330.2,938,1352.9,937.7,1352.9,937.7z"/>
			</g>
			<g>
				<path class="st15" d="M1314.1,917.4c0,0,7.5,20.3-10.1,37.5c-6.6-8.7-9.8-14-9.8-14l8.6-24.7
					C1312.3,913.1,1314.1,917.4,1314.1,917.4z"/>
			</g>
			<g>
				<path class="st7" d="M1292.5,954.2c0,0,33.9-27,17.3-48.7c-16.5-21.6-23.3-39.7-45.6-23.3c-22.3,16.4-20.2,28-16.3,36.7
					C1251.7,927.4,1283.3,960.7,1292.5,954.2z"/>
			</g>
			<g>
				<path class="st5" d="M1302.5,858.2c0.1-0.6,0.7-1.5,2.5-2.6c0,0-2-0.1-3.9,1c-1.8-2.4-5.7-6.2-10.6-4.8c0,0,3-0.1,4.9,2.5
					c-7.9-2.4-20.7,0.1-48.7,20.2c-36.9,26.5-9.6,45-2.8,45.1c6.7,0.1,14.6-16,24.4-20.9c9.8-4.8,19.5,8.3,23.7,8.4
					c4.3,0,1.1-2.7,4.2-7.3c3.1-4.6,7.7,2.6,9.2,8.2c1.5,5.6,11,8.5,11,8.5s0,0,2.2-10.3c2.2-10.3-8.2-42.3-14.3-46.8
					C1303.6,859,1303,858.6,1302.5,858.2z"/>
			</g>
		</g>
		<g>
			<path class="st18" d="M1578.4,1359.3c0,0,8.7,13.8,10.8,18.2c2,4.5-2,13.9-7.9,15.4c-5.3,1.3-6.1,11-6.1,11h25.6
				c2.7,0,5.2-1.5,6.2-3.9c3.6-8.2,4.4-19,5.2-22.6c1.5-7.5,4.5-13.9,3.2-21.5c-1.3-7.7-13.9-12.1-36.9-12
				C1553.2,1343.8,1578.4,1359.3,1578.4,1359.3z"/>
		</g>
		<g>
			<path class="st4" d="M1503.3,1188c-15.9,24.1-162.4,3.7-152.3-9.3c2.6-3.3,1-6.5,1.5-11.2c2.5-22.4-14.6-57.2-21.7-70.6
				c-1.7-3.1-2.8-5.1-3-5.5c-6.8-12.5-12.5-25.7-16.9-38.7c-8.5-24.9-12.1-48.7-8-64.4c0-0.1,0-0.2,0.1-0.2
				c25-12.3,33.3-54.7,33.3-54.7s86.8,10.8,135.7,128.9c0,0,2.8,7.6,6.5,19l0,0c1.1,3.5,2.4,7.4,3.6,11.5
				c6.6,21.4,12.7,49.1,17.8,69.7c0.2,0.7,0.4,1.4,0.6,2.2C1502.7,1173.7,1506,1184,1503.3,1188z"/>
		</g>
		<g>
			<path class="st5" d="M1581.1,1368.6c-3.7,0-14.8,1.7-30,4.2c-54.9,9.2-121.8,28-163.2,28c-9.1,0-15.9-6.7-18.6-15.4v0
				c-17-53.8,22.3-213,22.3-213s14.1,1.9,42.6,4.1c29.5,2.3,60.8,7.1,65.9,17.4c0.6,1.2,0.8,3.2,0.7,5.7c-0.2,4.4-1.4,10.7-3.5,18.2
				c-0.4,1.3-0.7,2.6-1.1,4c-7.8,26.5-24.7,66.7-43.9,102.5c51.7,3.1,122.1,15,122.1,15C1585.9,1352.8,1581.1,1368.6,1581.1,1368.6z
				"/>
		</g>
		<g>
			<path class="st13" d="M1500.8,1197.3c-0.2,4.9-1.4,11.8-3.5,20.1c-0.4,1.4-0.7,2.9-1.1,4.4c-29.3-2-99-41.2-97.9-41.6
				c13.3-3.8,25.3-6.4,35.9-8c29.5,2.7,60.8,8.5,65.9,20.9C1500.5,1194.1,1500.8,1195.5,1500.8,1197.3z"/>
		</g>
		<g>
			<path class="st19" d="M1377.9,1012.8c0,0,18.7,133.5-25.3,154.7c2.5-22.4-14.6-57.2-21.7-70.6
				C1337.5,1060.6,1354.1,1022.5,1377.9,1012.8z"/>
		</g>
		<g>
			<path class="st5" d="M1351.1,937.1c0,0-34.3,13.5-32.9,46.4c1.1,23.9,33.9,73.1,33.9,73.1l4-5.7c0,0-31.8-62.2-30.1-73.9
				c2.1-15,19.2-39.9,39.3-34.4L1351.1,937.1z"/>
		</g>
		<g>
			<path class="st5" d="M1503.3,1188c-15.9,24.1-180.1,8.5-170.1-4.5c2.6-3.3,6.7-13.3,7.2-18c0.3-2.2,12.4-2.6,12.3-5
				c-1-22.1-15.5-51.5-21.9-63.6c-1.7-3.1-2.8-5.1-3-5.5l6.1-8.7l22.3-31.8c0,0,9.2,7.9,25.6,15.9c21.5,10.5,55.2,21.2,96.6,14.5
				l0,0c1.1,3.5,2.4,7.4,3.6,11.5c6.6,21.4,12.7,49.1,17.8,69.7c0.2,0.7,0.4,1.4,0.6,2.2C1502.7,1173.7,1506,1184,1503.3,1188z"/>
		</g>
		<g>
			<path class="st13" d="M1381.8,1066.9c0.6,39.6-4,79.7-29.1,91.8c-5.7-25.3-14.7-48.5-21.8-61.9c0.9-4.7,1.9-9.4,3.1-14.1
				l22.3-31.8C1356.2,1051,1365.4,1058.9,1381.8,1066.9z"/>
		</g>
		<g>
			<g>
				<g>
					<polygon class="st5" points="1074.9,1099.8 1215.8,1190.8 1224.5,1176.3 1083.6,1085.3 					"/>
				</g>
				<g>
					<g>
						<path class="st5" d="M1051.9,1079.9l3.7,2.4l2.9-9.2c2.5-7.9,11.3-11.6,17.8-7.3l48.8,31.5l7.7-12.8l-61.7-39.9
							c-6-3.9-14.1-0.8-16.7,6.4l-6.1,16.7C1046.5,1072.3,1048,1077.4,1051.9,1079.9z"/>
					</g>
				</g>
				<g>
					<polygon class="st5" points="1088,1088.4 1118.5,1108.1 1129.4,1090 1098.9,1070.3 					"/>
				</g>
			</g>
			<g>
				<g>
					<path class="st13" d="M1116.2,1095.4c0.7-1.1,0.3-2.6-0.7-3.2c-1.1-0.7-2.5-0.3-3.1,0.8c-0.7,1.1-0.3,2.6,0.7,3.2
						C1114.1,1096.8,1115.5,1096.5,1116.2,1095.4z"/>
				</g>
				<g>
					<path class="st13" d="M1103.9,1087.4c0.7-1.1,0.3-2.6-0.7-3.2c-1.1-0.7-2.5-0.3-3.1,0.8c-0.7,1.1-0.3,2.6,0.7,3.2
						C1101.8,1088.9,1103.2,1088.5,1103.9,1087.4z"/>
				</g>
			</g>
		</g>
		<g>
			<path class="st7" d="M1175.6,1172.2c8.7,0,36.3-10.2,37.7-10.3c12.5-1.2-10.8-12.1-10.8-12.1s-17.7-6.1-21-5.8
				c-1.1,0.1-3.5,0.5-5.4,1l6.9,4.5c0,0-19.6,4.4-19.8,8.4C1163,1161.8,1171.3,1172.2,1175.6,1172.2z"/>
		</g>
		<g>
			<path class="st4" d="M1203.4,1155.8c-4.3-8.4-2.6-15.4-2.6-15.4s69.7-26.1,76.3-31.2c21.3-16.4,45.3-113.1,45.3-113.1
				s11.7-38.7,33.8-41.6c19.2-2.5,31.6,8.1,39.5,20.1c9.3,14.3,9.2,33.1-0.2,47.3c-21.1,32-72.8,111.5-84.6,122.1
				c-18.2,16.3-98.9,20.4-98.9,20.4S1206.8,1162.4,1203.4,1155.8z"/>
		</g>
		<g>
			<path class="st7" d="M1155.7,1154.2c0,0,6-1.4,7.5-4c2-3.6,2.8-9.4-2.4-10.2c-5.2-0.7-17.6,2-16.9,4.3
				C1145.7,1150.8,1152.4,1154,1155.7,1154.2z"/>
		</g>
	</g>
	<g>
		<g>
			<path class="st4" d="M1282.1,648.5c0-26,20.3-47.1,45.3-47.1s45.3,21.1,45.3,47.1c0,26-20.3,47.1-45.3,47.1
				S1282.1,674.5,1282.1,648.5z"/>
		</g>
		<g>
			<path class="st1" d="M1295.4,648.5c0-18.4,14.3-33.3,32-33.3s32,14.9,32,33.3c0,18.4-14.3,33.3-32,33.3
				S1295.4,666.9,1295.4,648.5z"/>
		</g>
		<g>
			<path class="st5" d="M1318.6,648.5c0-5.1,4-9.2,8.9-9.2s8.9,4.1,8.9,9.2c0,5.1-4,9.2-8.9,9.2S1318.6,653.6,1318.6,648.5z"/>
		</g>
		<g>
			<path class="st5" d="M1327.5,649.2c-0.1,0-0.3,0-0.4-0.1c-0.3-0.2-0.4-0.7-0.2-1.1l13.7-20.5c0.2-0.3,0.7-0.4,1-0.2
				c0.3,0.2,0.4,0.7,0.2,1.1l-13.7,20.5C1327.9,649.1,1327.7,649.2,1327.5,649.2z"/>
		</g>
	</g>
	<g>
		<rect x="1436.7" y="696.5" class="st5" width="10.9" height="15.4"/>
	</g>
	<g>
		<g>
			<path class="st3" d="M1410.8,666.7c0-18.5,14.5-33.6,32.3-33.6c17.9,0,32.3,15,32.3,33.6c0,18.5-14.5,33.6-32.3,33.6
				C1425.2,700.2,1410.8,685.2,1410.8,666.7z"/>
		</g>
		<g>
			<path class="st1" d="M1420.2,666.7c0-13.1,10.2-23.7,22.9-23.7c12.6,0,22.9,10.6,22.9,23.7c0,13.1-10.2,23.7-22.9,23.7
				C1430.5,690.4,1420.2,679.8,1420.2,666.7z"/>
		</g>
		<g>
			<path class="st5" d="M1436.7,666.7c0-3.6,2.8-6.6,6.3-6.6c3.5,0,6.3,3,6.3,6.6c0,3.6-2.8,6.6-6.3,6.6
				C1439.6,673.3,1436.7,670.3,1436.7,666.7z"/>
		</g>
		<g>
			<path class="st5" d="M1443.1,667.2c-0.1,0-0.2,0-0.3-0.1c-0.2-0.2-0.3-0.5-0.1-0.7l9.8-14.6c0.2-0.2,0.5-0.3,0.7-0.1
				c0.2,0.2,0.3,0.5,0.1,0.8l-9.8,14.6C1443.4,667.1,1443.3,667.2,1443.1,667.2z"/>
		</g>
	</g>
	<g>
		<path class="st8" d="M2759.3,1410.7H3.5c-2,0-3.5-1.6-3.5-3.5v-4.1c0-2,1.6-3.6,3.6-3.6h2755.7c2,0,3.6,1.6,3.6,3.6v4.1
			C2762.8,1409.1,2761.2,1410.7,2759.3,1410.7z"/>
	</g>
	<g>
		<g>
			<g>
				<g>
					<path class="st4" d="M1143.3,1049.3c-0.8-1.4-1.6-2.8-2.4-4.1c-3.6-5.9-7.9-11.2-12.6-15.9c-11.2-11.2-25.2-19-40.8-22.5
						c-6-1.3-12-2-18-2c-2.3,0-4.6,0.1-6.9,0.3c-13.7,1.2-27,5.8-38.9,13.8c-4.6,3.1-8.8,6.5-12.6,10.3
						c-12.2,12.1-20.6,27.6-24.2,45.1c-4.8,23-0.6,46.5,11.7,66.3c3.6,5.8,7.9,11.2,12.6,15.9c11.2,11.2,25.2,19,40.8,22.5
						c6,1.3,12,2,18,2c16.1,0,31.9-4.8,45.8-14.1c4.6-3.1,8.8-6.5,12.6-10.3c12.2-12.1,20.6-27.6,24.2-45.1
						C1157,1090.1,1153.7,1068.2,1143.3,1049.3z M1136.9,1108c-1.7,8-4.6,15.6-8.6,22.4c-2.7,4.6-5.9,8.9-9.6,12.7
						c-3.5,3.7-7.4,7-11.7,9.9c-0.3,0.2-0.5,0.3-0.8,0.5c-15.3,10-33.3,13.3-51,9.3c-6.9-1.5-13.4-4.1-19.4-7.7
						c-4.7-2.7-9-6-12.9-9.8c-4.1-4-7.8-8.6-11-13.6c-0.3-0.5-0.6-0.9-0.8-1.4c-9.3-15.7-12.4-34.3-8.6-52.4c0.7-3.6,1.7-7.2,3-10.6
						c1.5-4.2,3.4-8.1,5.6-11.8c0.6-1,1.2-1.9,1.8-2.9c0.1-0.1,0.1-0.2,0.2-0.3c5.1-7.6,11.6-14.2,19.3-19.4
						c8.5-5.7,18-9.4,27.8-10.8c1.3-0.2,2.6-0.3,3.9-0.4c1.8-0.1,3.7-0.2,5.6-0.2c2.2,0,4.4,0.1,6.6,0.3c2.7,0.3,5.4,0.7,8,1.3
						c5.8,1.3,11.4,3.3,16.6,6c0,0,0.1,0,0.1,0c8.4,4.4,15.9,10.6,21.9,18.3c1.3,1.6,2.5,3.2,3.6,4.9c0.4,0.6,0.8,1.2,1.2,1.8
						c0.3,0.5,0.6,0.9,0.8,1.4c1.1,1.9,2.2,3.9,3.1,5.8C1138.3,1075.8,1140.2,1092,1136.9,1108z"/>
				</g>
			</g>
			<g>
				<g>
					<polygon class="st4" points="1070.1,1102.5 998,1063.2 1005.4,1048.6 1069.3,1083.3 1129.8,1042.7 1138.5,1056.7 					"/>
				</g>
			</g>
			<g>
				<g>
					<polygon class="st4" points="1032.3,1160 1019.4,1150.2 1061.6,1090.3 1059.9,1013.4 1075.9,1013 1077.7,1095.6 					"/>
				</g>
			</g>
			<g>
				<g>
					<polygon class="st4" points="1111.5,1160.3 1063.4,1098.1 1075.9,1087.7 1124,1149.9 					"/>
				</g>
			</g>
		</g>
		<g>
			<path class="st9" d="M1054.3,1092.9c0-8.8,6.9-15.9,15.4-15.9c8.5,0,15.4,7.1,15.4,15.9c0,8.8-6.9,15.9-15.4,15.9
				C1061.2,1108.9,1054.3,1101.7,1054.3,1092.9z"/>
		</g>
	</g>
	<g>
		<path class="st1" d="M2615.2,226.4H353.3c7.6-8.6,15.8-16.8,24.4-24.8h2226.6C2608.5,209.7,2612.1,218,2615.2,226.4z"/>
	</g>
	<g>
		<rect x="491.6" y="194.1" class="st6" width="27.6" height="43.8"/>
	</g>
	<g>
		<rect x="391.3" y="296.3" class="st1" width="100.3" height="40.3"/>
	</g>
	<g class="st0">
		<rect x="441.4" y="348.6" class="st1" width="100.3" height="40.3"/>
	</g>
	<g class="st0">
		<rect x="505.4" y="296.3" class="st1" width="100.3" height="40.3"/>
	</g>
	<g class="st0">
		<rect x="625.9" y="478.5" class="st1" width="100.3" height="40.3"/>
	</g>
	<g class="st0">
		<rect x="689.9" y="426.1" class="st1" width="100.3" height="40.3"/>
	</g>
	<g class="st0">
		<rect x="2354.9" y="605.9" class="st1" width="100.3" height="40.3"/>
	</g>
	<g class="st0">
		<rect x="2418.9" y="553.6" class="st1" width="100.3" height="40.3"/>
	</g>
	<g class="st0">
		<rect x="2469" y="501.3" class="st1" width="100.3" height="40.3"/>
	</g>
	<g class="st0">
		<rect x="2304.7" y="553.6" class="st1" width="100.3" height="40.3"/>
	</g>
	<g class="st0">
		<rect x="1097.9" y="559.6" class="st1" width="100.3" height="40.3"/>
	</g>
	<g class="st0">
		<rect x="1047.7" y="507.3" class="st1" width="100.3" height="40.3"/>
	</g>
	<g class="st0">
		<rect x="1360.6" y="441.6" class="st1" width="100.3" height="40.3"/>
	</g>
	<g class="st0">
		<rect x="1847.7" y="441.6" class="st1" width="100.3" height="40.3"/>
	</g>
	<g class="st0">
		<rect x="1921.3" y="493.9" class="st1" width="100.3" height="40.3"/>
	</g>
	<g>
		<g>
			<path class="st16" d="M2104.2,1400.8h119.5c5.1,0,9.2-4.1,9.2-9.2v-2.2c0-5.1-4.1-9.2-9.2-9.2h-119.5c-5.1,0-9.2,4.1-9.2,9.2v2.2
				C2095,1396.7,2099.1,1400.8,2104.2,1400.8z"/>
		</g>
		<g>
			<path class="st16" d="M2327.5,1400.8H2194c-6.8,0-12.4-5.6-12.4-12.4v-107.2c0-6.8,5.6-12.4,12.4-12.4h133.5
				c6.8,0,12.4,5.6,12.4,12.4v107.2C2339.9,1395.2,2334.3,1400.8,2327.5,1400.8z"/>
		</g>
		<g>
			<path class="st4" d="M2216.2,1269.3c0,0,32.8-21.7,64.2-21.9c20.4-0.2,43.7,21,45.1,21.2c3.6,0.6-11.8,0.8-11.8,0.8
				s-23.1-14.1-33.4-14.5c-12.5-0.4-44.3,15.6-44.3,15.6L2216.2,1269.3z"/>
		</g>
		<g>
			<path class="st4" d="M2342.9,1400.8h-133.5c-6.8,0-12.4-5.6-12.4-12.4v-107.2c0-6.8,5.6-12.4,12.4-12.4h133.5
				c6.8,0,12.4,5.6,12.4,12.4v107.2C2355.3,1395.2,2349.7,1400.8,2342.9,1400.8z"/>
		</g>
	</g>
</g>
</svg>
