<?xml version="1.0" encoding="utf-8"?>
<!-- Generator: Adobe Illustrator 23.0.1, SVG Export Plug-In . SVG Version: 6.00 Build 0)  -->
<svg version="1.1" id="Layer_1" xmlns="http://www.w3.org/2000/svg" xmlns:xlink="http://www.w3.org/1999/xlink" x="0px" y="0px"
	 viewBox="0 0 100 25.2" style="enable-background:new 0 0 100 25.2;" xml:space="preserve">
<style type="text/css">
	.st0{fill-rule:evenodd;clip-rule:evenodd;fill:#8C9DF4;}
	.st1{fill-rule:evenodd;clip-rule:evenodd;fill:#7286CE;}
	.st2{fill:#FF9E55;}
	.st3{fill:#8C9DF4;}
	.st4{font-family:'PoorRichard-Regular';}
	.st5{font-size:17.3318px;}
</style>
<g>
	<path class="st0" d="M17.1,4.2c-0.6,0-1.7,0-2.3,0V3.9H14V3.7h0.8c0,0,0.1,0.1,0.1,0.1h0.4c0.1,0,0.2-0.1,0.2-0.2V3.5
		c0-0.1-0.1-0.2-0.2-0.2h-0.4c0,0-0.1,0-0.1,0.1H14c0-0.3-0.5-0.3-0.5,0h-0.8c0,0-0.1-0.1-0.1-0.1h-0.4c-0.1,0-0.2,0.1-0.2,0.2v0.1
		c0,0.1,0.1,0.2,0.2,0.2h0.4c0,0,0.1,0,0.1-0.1h0.8v0.2h-0.8v0.2h-1.1v1.5h1.1v0.2h2.2V5.7h0.6v0.2h-0.2v0.4h2V5.9h-0.2V4.2z"/>
	<rect x="9.7" y="9.3" transform="matrix(0.7071 -0.7071 0.7071 0.7071 -3.7129 10.2021)" class="st0" width="1.4" height="0.6"/>
	<path class="st0" d="M8.5,6.6l1.4-1.4C8.2,4.2,6.3,6.4,7.5,7.7l0.9,0.9l1-1L8.5,6.6z"/>
	<path class="st0" d="M10.9,6.7c-0.3-0.3-0.6-0.3-0.8-0.2C9.7,6.8,9.7,7.4,9.5,7.7l-1,1l1.1,1.1l1.1-1.1l0.7,0.7l-1.1,1.1l0.2,0.2
		c0.6-0.6,1.3-0.9,1.8-0.5c1.4,1.4,5.5,5.5,6.9,6.9c0.7,0.7,1.7-0.3,1-1C18,13.9,13,8.9,10.9,6.7z M19.7,16.6
		c-0.1,0.1-0.2,0.1-0.3,0l-0.9-0.9c-0.1-0.1-0.1-0.2,0-0.3c0.1-0.1,0.2-0.1,0.3,0l0.9,0.9C19.8,16.4,19.8,16.5,19.7,16.6z"/>
	<path class="st0" d="M11,10.4l-0.4,0.4l1.2,1.2l0.4-0.4c0.3-0.3,0.3-0.8,0-1.2C11.8,10.1,11.3,10.1,11,10.4z"/>
	<polygon class="st1" points="14.5,10.3 13.4,11.4 13.7,11.6 14.7,10.6 	"/>
	<polygon class="st1" points="14.7,12.7 15,12.9 16,11.9 15.8,11.6 	"/>
	<path class="st2" d="M14.7,14.3l-1.1,1.1c-0.3,0.3-0.5,0.7-0.4,1.1c0,0.4,0.2,0.8,0.5,1.1c0.3,0.3,0.7,0.5,1.1,0.5
		c0.4,0,0.8-0.1,1.1-0.4c0.6-0.6,0.6-1.6,0-2.2L14.7,14.3z M15.6,17.5c0.3-0.6,0.3-1.3,0.1-1.9C16.2,16.1,16.2,17,15.6,17.5z"/>
	<rect x="18.7" y="8.9" transform="matrix(0.7071 -0.7071 0.7071 0.7071 -1.2132 16.2374)" class="st0" width="0.6" height="1.4"/>
	<path class="st0" d="M17.3,10.4c-0.3,0.3-0.3,0.8,0,1.2l0.4,0.4l1.2-1.2l-0.4-0.4C18.1,10.1,17.6,10.1,17.3,10.4z"/>
	<path class="st0" d="M19.6,5.3L21,6.6l-0.9,0.9l1,1l0.9-0.9C23.2,6.4,21.2,4.2,19.6,5.3z"/>
	<path class="st0" d="M19.4,6.6c-0.2-0.2-0.5-0.2-0.8,0.2c-2.2,2.2-7.1,7.1-9.3,9.3c-0.7,0.7,0.4,1.7,1,1c1.4-1.4,5.5-5.5,6.9-6.9
		c0.5-0.4,1.2-0.2,1.8,0.5l0.2-0.2l-1.1-1.1l0.7-0.7l1.1,1.1L21,8.6l-1-1C19.7,7.4,19.7,6.8,19.4,6.6z M10.9,15.8l-0.9,0.9
		c-0.1,0.1-0.2,0.1-0.3,0c-0.1-0.1-0.1-0.2,0-0.3l0.9-0.9c0.1-0.1,0.2-0.1,0.3,0C11,15.5,11,15.7,10.9,15.8z"/>
</g>
<text transform="matrix(1 0 0 1 19.4736 18.0343)"><tspan x="0" y="0" class="st3 st4 st5">plumb</tspan><tspan x="42.1" y="0" class="st2 st4 st5">Stars</tspan></text>
</svg>
