<svg xmlns="http://www.w3.org/2000/svg" viewBox="0 0 97.41 97.41"><defs><style>.cls-1{isolation:isolate;}.cls-2{fill:#ff9e55;}.cls-3{fill:#f2f2f2;}.cls-4{fill:#f86a6f;}.cls-5{fill:#3dafc8;}.cls-6{fill:#1a93b5;opacity:0.56;}.cls-16,.cls-18,.cls-19,.cls-20,.cls-6,.cls-8{mix-blend-mode:multiply;}.cls-7{fill:#e9c3a5;}.cls-8{fill:#b3cbce;opacity:0.73;}.cls-9{fill:#fff;}.cls-10{fill:#dbbd92;}.cls-11{fill:#efd2a2;}.cls-12{fill:#413328;}.cls-13{fill:#876756;opacity:0.51;}.cls-14{fill:#ddb88f;}.cls-15{fill:#f39573;}.cls-16{fill:#e2daca;}.cls-17{fill:#ededed;}.cls-18{fill:#cec8b9;}.cls-19{fill:#dbd2bf;}.cls-20{fill:#c6c2c7;}</style></defs><title>Asset 3</title><g class="cls-1"><g id="Layer_2" data-name="Layer 2"><g id="Layer_1-2" data-name="Layer 1"><circle class="cls-2" cx="48.71" cy="48.71" r="48.71" transform="translate(-9.99 84.75) rotate(-76.55)"/><path class="cls-3" d="M34.12,34V54.15H44.88V34a5.38,5.38,0,0,0-10.76,0Z"/><path class="cls-3" d="M59.19,28.61V54.15h5.38V34A5.37,5.37,0,0,0,59.19,28.61Z"/><rect class="cls-4" x="54.98" y="54.15" width="9.08" height="2.06"/><rect class="cls-4" x="34.64" y="54.15" width="4.86" height="2.06"/><path class="cls-3" d="M42.28,28.6a7.62,7.62,0,0,0,14.08,0H55c-.17.21-.35.41-.54.61a7.32,7.32,0,0,1-10.89-.61Z"/><path class="cls-5" d="M39.5,27.58V84.05h7.85l2-20.16,2,20.16h7.85V27.58H56.38a7.62,7.62,0,0,1-14.07,0Z"/><path class="cls-6" d="M49.35,32.28V63.89l2,20.16H59.2V27.58H56.39A7.82,7.82,0,0,1,49.35,32.28Z"/><path class="cls-7" d="M59.19,56.21v4.45a4.46,4.46,0,0,0,4.46-4.45Z"/><path class="cls-7" d="M39.5,56.21v4.45a4.45,4.45,0,0,1-4.45-4.45Z"/><path class="cls-5" d="M43,47.32a.46.46,0,0,0,.44.48H55.25a.46.46,0,0,0,.44-.48V38.91a.46.46,0,0,0-.44-.47H43.39a.46.46,0,0,0-.44.47Z"/><rect class="cls-8" x="37.6" y="37.98" width="1.9" height="16.17"/><path class="cls-4" d="M51.15,85h8.28a4.14,4.14,0,0,0-8.28,0Z"/><rect class="cls-9" x="51.15" y="84.97" width="8.28" height="1.93"/><path class="cls-4" d="M39.16,85h8.28a4.14,4.14,0,0,0-8.28,0Z"/><rect class="cls-9" x="39.16" y="84.97" width="8.28" height="1.93"/><rect class="cls-10" x="44.78" y="26.91" width="9.08" height="1.69"/><path class="cls-10" d="M43.61,28.6a7.32,7.32,0,0,0,10.89.61c.19-.2.37-.4.54-.61Z"/><path class="cls-11" d="M43.63,16.27V24A5.69,5.69,0,1,0,55,24V16.27Z"/><path class="cls-12" d="M45.79,21a.63.63,0,1,0,.63-.62A.63.63,0,0,0,45.79,21Z"/><path class="cls-12" d="M51.48,21a.63.63,0,1,0,.63-.62A.63.63,0,0,0,51.48,21Z"/><path class="cls-13" d="M43.63,17.63v3a.77.77,0,0,0,.51-.22.73.73,0,0,0,.22-.53V17.63Z"/><path class="cls-13" d="M54.28,16.43V20a.75.75,0,0,0,.73.6V16.43Z"/><path class="cls-14" d="M42.41,21.05a1.57,1.57,0,0,0,1.22,1.53V19.51A1.58,1.58,0,0,0,42.41,21.05Z"/><path class="cls-14" d="M56.22,21.05A1.57,1.57,0,0,1,55,22.58V19.51A1.57,1.57,0,0,1,56.22,21.05Z"/><path class="cls-15" d="M46.9,25a2.42,2.42,0,0,0,4.84,0Z"/><path class="cls-3" d="M49.32,26.91a1.92,1.92,0,0,0,1.86-1.43H47.45A1.94,1.94,0,0,0,49.32,26.91Z"/><path class="cls-4" d="M43.2,18.3v1.18H55.5V18.3a6.15,6.15,0,1,0-12.3,0Z"/><path class="cls-3" d="M44.81,18v.87h9.08V18a4.54,4.54,0,0,0-9.08,0Z"/><path class="cls-16" d="M49.35,12.15v7.33H55.5V18.31a6.15,6.15,0,0,0-6.15-6.16Z"/><rect class="cls-4" x="40.74" y="18.87" width="13.15" height="0.62"/><path class="cls-16" d="M42.41,21.05a.06.06,0,0,0,0,0c.39,0,.8,0,1.21,0a14.66,14.66,0,0,1,11.14,4.61A5.54,5.54,0,0,0,55,24V22.58a1.58,1.58,0,0,0,0-3.07v0H43.63v0A1.58,1.58,0,0,0,42.41,21.05Z"/><rect class="cls-4" x="32.35" y="61.31" width="10.95" height="1.92"/><rect class="cls-17" x="32.96" y="63.23" width="9.75" height="5.29"/><path class="cls-3" d="M36.79,58.81v2.5h2.07v-2.5a1,1,0,0,0-1.77-.73A1,1,0,0,0,36.79,58.81Z"/><path class="cls-4" d="M37.29,58.81a.54.54,0,1,0,.54-.53A.54.54,0,0,0,37.29,58.81Z"/><rect class="cls-18" x="32.96" y="63.23" width="9.75" height="1.46"/><polygon class="cls-6" points="39.5 68.55 39.5 75.09 47.45 83.04 49.03 67.08 43.3 61.34 43.3 63.26 42.71 63.26 42.71 68.55 39.5 68.55"/><path class="cls-19" d="M96.71,57A48.71,48.71,0,0,1,49.65,97.4L39.16,86.91h8.28V85a4.55,4.55,0,0,0-.1-.92h0l.1-1,1.58-16,.31-3.18,2,19.91A4.09,4.09,0,0,0,51.14,85v1.94h8.28V85a4.15,4.15,0,0,0-.22-1.32v-23a4.44,4.44,0,0,0,4.44-4.45h.42V54.15h.51V34a5.37,5.37,0,0,0-5.37-5.37v-1H56.38a8.27,8.27,0,0,1-.55,1h-2V27.46a5.58,5.58,0,0,0,.92-1.8,4.7,4.7,0,0,0,.17-.83,2,2,0,0,0,.05-.35v-.11A2,2,0,0,0,55,24V22.58a1.54,1.54,0,0,0,.68-.36,1.09,1.09,0,0,0,.18-.19,1.54,1.54,0,0,0,.35-1,1.57,1.57,0,0,0-.35-1,1.09,1.09,0,0,0-.18-.19,1.54,1.54,0,0,0-.68-.36v0h.49V18.31A6.18,6.18,0,0,0,53.7,14Z"/><polygon class="cls-20" points="39.5 68.52 39.5 75.06 32.95 68.52 39.5 68.52"/></g></g></g></svg>