<svg xmlns="http://www.w3.org/2000/svg" viewBox="0 0 97.41 97.41"><defs><style>.cls-1{isolation:isolate;}.cls-2{fill:#8c9df4;}.cls-3{fill:#efcd9c;}.cls-4,.cls-8{fill:#e3d8cb;}.cls-10,.cls-12,.cls-4,.cls-6,.cls-7{mix-blend-mode:multiply;}.cls-5{fill:#3dafc8;}.cls-6{fill:#94c1ca;}.cls-9{fill:#9cbdbf;}.cls-10{fill:#b3c9c8;}.cls-11{fill:#f4d6a4;}.cls-12{fill:#d2d6d7;}</style></defs><title>Asset 2</title><g class="cls-1"><g id="Layer_2" data-name="Layer 2"><g id="Layer_1-2" data-name="Layer 1"><path class="cls-2" d="M97.41,48.71A48.71,48.71,0,1,1,48.71,0,48.7,48.7,0,0,1,97.41,48.71Z"/><path class="cls-3" d="M57.69,58.76a27.83,27.83,0,0,0-2.87,2.76,20.46,20.46,0,0,1-4.39,2.72l0,0-.63.27h0l-2,.89a6.26,6.26,0,0,1-8.23-3.27L37,56.55a6.26,6.26,0,0,1,3.27-8.23l6.54-2.82a6.26,6.26,0,0,1,8.23,3.28l2.42,5.6A6.21,6.21,0,0,1,57.69,58.76Z"/><path class="cls-3" d="M53.55,47h0l-8.11,3a8.24,8.24,0,0,1-1-1c-.32-.32-.66-.55-1-.85a2.61,2.61,0,0,1-.24-.23h0a2.27,2.27,0,0,0-.92-.79,11.22,11.22,0,0,1-1.51-.59l.26.12a7,7,0,0,1-1.7-1.07,16.24,16.24,0,0,1-1.73-1.7A7.16,7.16,0,0,1,35.9,41v0a1.16,1.16,0,0,1,.26-1,1.54,1.54,0,0,1,.82-.56,3.42,3.42,0,0,1,2.5.87,10.38,10.38,0,0,0,2.66,1.44,14.89,14.89,0,0,1,3.62,1.19c1.18.64,4.73,2.14,5.9,2.7C52,45.77,53.28,46.8,53.55,47Z"/><rect class="cls-3" x="50.26" y="45.2" width="17.14" height="14.77"/><path class="cls-4" d="M67.39,57.23V60H56.3a7,7,0,0,0,1.26-2.74Z"/><rect class="cls-5" x="60.84" y="43.29" width="18.78" height="18.78"/><rect class="cls-6" x="60.84" y="52.68" width="18.78" height="9.39"/><path class="cls-4" d="M45.83,50.29a4.09,4.09,0,0,0-.27,1.53,2.45,2.45,0,0,0-1.73-.16h0a2.43,2.43,0,0,0-2.34-3.86l1.16-.5h0a3.7,3.7,0,0,1,3,2.57A4,4,0,0,1,45.83,50.29Z"/><g class="cls-7"><path class="cls-8" d="M53.65,62.41l-.2.14-.25.17-.33.2-2.34-3-.27-.34-1.14-1.41a2.4,2.4,0,0,0-2-2.51l-.45-.57a2.53,2.53,0,0,0,.29-1.09,10,10,0,0,0,3.33,1.29,4.26,4.26,0,0,0,1.07,0,6.58,6.58,0,0,0,.45,4.32,2,2,0,0,0,.14.3A13.47,13.47,0,0,0,53.65,62.41Z"/></g><path class="cls-9" d="M19.58,41.31a8.8,8.8,0,0,0,8.82,1.78L51.46,72.61a3.56,3.56,0,0,0,5,.61,3.56,3.56,0,0,0,1.33-2.36,3.27,3.27,0,0,0-.47-2.25l-23.45-30a9.79,9.79,0,0,0-2.47-10.33,8.82,8.82,0,0,0-8.6-1.85L28,31.11a1.73,1.73,0,0,1,.13,2.47l-3.57,4a1.76,1.76,0,0,1-2.47.13L16.87,33A8.78,8.78,0,0,0,19.58,41.31Z"/><path class="cls-10" d="M52.93,71.19a1.51,1.51,0,0,0,2.11.26h0a1.51,1.51,0,0,0,.26-2.12L36,44.57a1.5,1.5,0,0,0-2.11-.26h0a1.5,1.5,0,0,0-.26,2.11Z"/><path class="cls-11" d="M50.34,60.28a2.44,2.44,0,0,1-1,3.3l-7.32,4a2.42,2.42,0,0,1-3.3-1h0a2.44,2.44,0,0,1,1-3.3l7.32-4a2.44,2.44,0,0,1,3.3,1Z"/><path class="cls-11" d="M48.93,57.15a2.43,2.43,0,0,1-1.27,3.19l-9.3,4a2.43,2.43,0,0,1-3.19-1.28h0a2.43,2.43,0,0,1,1.27-3.19l9.3-4a2.43,2.43,0,0,1,3.19,1.28Z"/><path class="cls-11" d="M46.73,53a2.44,2.44,0,0,1-1.27,3.2L35.34,60.6a2.43,2.43,0,0,1-3.19-1.28h0a2.43,2.43,0,0,1,1.27-3.19l10.12-4.36A2.43,2.43,0,0,1,46.73,53Z"/><path class="cls-11" d="M44.12,49.24a2.43,2.43,0,0,1-1.27,3.19l-9.3,4a2.43,2.43,0,0,1-3.19-1.27h0A2.44,2.44,0,0,1,31.63,52l9.29-4a2.42,2.42,0,0,1,3.2,1.27Z"/><path class="cls-12" d="M96.14,59.81A48.79,48.79,0,0,1,66.28,94.13L39.7,67.56a2.43,2.43,0,0,0,2.34,0l3-1.64a5.46,5.46,0,0,0,1.14-.07l5.28,6.75a3.55,3.55,0,0,0,5,.61,3.55,3.55,0,0,0,1.34-2.36,3.37,3.37,0,0,0-.47-2.26l-4.43-5.68c.13-.07.2-.13.32-.2l.46-.31a8.87,8.87,0,0,0,1.17-.89c.56-.52,1-1.07,1.5-1.55h4.52v2.11H79.62V43.29Z"/></g></g></g></svg>