<?xml version="1.0" encoding="utf-8"?>
<!-- Generator: Adobe Illustrator 23.0.1, SVG Export Plug-In . SVG Version: 6.00 Build 0)  -->
<svg version="1.1" id="Layer_1" xmlns="http://www.w3.org/2000/svg" xmlns:xlink="http://www.w3.org/1999/xlink" x="0px" y="0px"
	 viewBox="0 0 600 430" style="enable-background:new 0 0 600 430;" xml:space="preserve">
<style type="text/css">
	.st0{fill:#FF9E55;}
	.st1{opacity:0.2;fill:#FFFFFF;}
	.st2{opacity:0.2;fill:#1D1D1B;}
	.st3{fill:#FFC990;}
	.st4{fill:#EDEDED;}
	.st5{fill-rule:evenodd;clip-rule:evenodd;fill:#D88E1D;}
	.st6{fill:#FFFFAD;}
	.st7{fill:#C6C6C6;}
	.st8{fill:#706F6F;}
	.st9{fill:#E6332A;}
	.st10{fill-rule:evenodd;clip-rule:evenodd;fill:#FAA322;}
	.st11{opacity:0.1;fill:#1D1D1B;}
	.st12{fill:#343433;}
	.st13{fill:#4D4C4C;}
	.st14{fill:#1B1B1A;}
	.st15{fill:#0081A1;}
	.st16{fill:#424241;}
	.st17{fill:#5B5A5A;}
	.st18{fill:#292928;}
	.st19{fill:#F1BC87;}
	.st20{fill:#683C11;}
	.st21{fill:#FFFFFF;}
	.st22{opacity:0.1;fill:#FFFFFF;}
	.st23{fill:#006680;}
	.st24{opacity:0.1;fill:#050504;}
	.st25{opacity:5.000000e-02;fill:#050504;}
	.st26{opacity:0.75;fill:url(#SVGID_1_);}
	.st27{fill:#B2B2B2;}
	.st28{opacity:0.5;fill:#FFFFFF;}
	.st29{opacity:0.1;fill:#10100F;}
	.st30{fill:#AEAEAE;}
	.st31{opacity:0.15;fill:#050504;}
	.st32{fill:#D0D0D0;}
	.st33{fill:#575757;}
	.st34{opacity:0.75;fill:#FFFFFF;}
	.st35{fill:#F2F2F2;}
	.st36{fill:#2A2929;}
	.st37{fill:#5B5B5A;}
	.st38{fill:#E21301;}
	.st39{fill:#404040;}
	.st40{fill:#7A7A7A;}
	.st41{fill:#C2C2C2;}
	.st42{fill:#CBBBA0;}
	.st43{fill:#4F3E35;}
	.st44{fill:#3C3C3B;}
	.st45{fill:#DADADA;}
	.st46{fill:#575756;}
	.st47{fill:#E94E1B;}
	.st48{fill:#95C11F;}
	.st49{fill:#DBCAAD;}
	.st50{fill:#634E42;}
	.st51{fill:#8F8F8F;}
	.st52{fill:#272726;}
	.st53{fill:#006882;}
	.st54{fill:#005B73;}
	.st55{fill-rule:evenodd;clip-rule:evenodd;fill:#EFE69A;}
	.st56{fill:#131313;}
</style>
<g>
	<rect x="1.2" y="-3" class="st0" width="598.8" height="434.4"/>
	<g>
		<g>
			<path class="st1" d="M550.2,65h-38.4c-1.5,0-2.8-0.9-2.8-2v-7.5c0-1.1,1.2-2,2.8-2h38.4c1.5,0,2.8,0.9,2.8,2V63
				C553,64.1,551.7,65,550.2,65z"/>
			<path class="st1" d="M552.4,38.4h-38.4c-1.5,0-2.8-0.9-2.8-2v-7.5c0-1.1,1.2-2,2.8-2h38.4c1.5,0,2.8,0.9,2.8,2v7.5
				C555.1,37.5,553.9,38.4,552.4,38.4z"/>
			<path class="st1" d="M600,27.2v10.8c-0.5,0.2-1,0.4-1.6,0.4H560c-1.5,0-2.8-0.9-2.8-2v-7.5c0-1.1,1.3-2,2.8-2h38.4
				C599,26.9,599.5,27,600,27.2z"/>
			<path class="st1" d="M529.5,51.6h-38.4c-1.5,0-2.8-0.9-2.8-2V42c0-1.1,1.2-2,2.8-2h38.4c1.5,0,2.8,0.9,2.8,2v7.5
				C532.3,50.7,531.1,51.6,529.5,51.6z"/>
			<path class="st1" d="M575.6,51.6h-38.4c-1.5,0-2.8-0.9-2.8-2V42c0-1.1,1.2-2,2.8-2h38.4c1.5,0,2.8,0.9,2.8,2v7.5
				C578.4,50.7,577.1,51.6,575.6,51.6z"/>
		</g>
		<g>
			<path class="st1" d="M366,252.4h38.4c1.5,0,2.8,0.9,2.8,2v7.5c0,1.1-1.2,2-2.8,2H366c-1.5,0-2.8-0.9-2.8-2v-7.5
				C363.2,253.3,364.4,252.4,366,252.4z"/>
			<path class="st1" d="M363.8,278.9h38.4c1.5,0,2.8,0.9,2.8,2v7.5c0,1.1-1.2,2-2.8,2h-38.4c-1.5,0-2.8-0.9-2.8-2v-7.5
				C361,279.8,362.2,278.9,363.8,278.9z"/>
			<path class="st1" d="M317.7,278.9h38.4c1.5,0,2.8,0.9,2.8,2v7.5c0,1.1-1.2,2-2.8,2h-38.4c-1.5,0-2.8-0.9-2.8-2v-7.5
				C314.9,279.8,316.2,278.9,317.7,278.9z"/>
			<path class="st1" d="M386.6,265.8H425c1.5,0,2.8,0.9,2.8,2v7.5c0,1.1-1.2,2-2.8,2h-38.4c-1.5,0-2.8-0.9-2.8-2v-7.5
				C383.8,266.7,385,265.8,386.6,265.8z"/>
			<path class="st1" d="M340.5,265.8H379c1.5,0,2.8,0.9,2.8,2v7.5c0,1.1-1.2,2-2.8,2h-38.4c-1.5,0-2.8-0.9-2.8-2v-7.5
				C337.8,266.7,339,265.8,340.5,265.8z"/>
		</g>
		<g>
			<path class="st1" d="M227.3,169.4h38.4c1.5,0,2.8,0.9,2.8,2v7.5c0,1.1-1.2,2-2.8,2h-38.4c-1.5,0-2.8-0.9-2.8-2v-7.5
				C224.5,170.3,225.8,169.4,227.3,169.4z"/>
			<path class="st1" d="M225.1,196h38.4c1.5,0,2.8,0.9,2.8,2v7.5c0,1.1-1.2,2-2.8,2h-38.4c-1.5,0-2.8-0.9-2.8-2V198
				C222.3,196.9,223.6,196,225.1,196z"/>
			<path class="st1" d="M179.1,196h38.4c1.5,0,2.8,0.9,2.8,2v7.5c0,1.1-1.2,2-2.8,2h-38.4c-1.5,0-2.8-0.9-2.8-2V198
				C176.3,196.9,177.5,196,179.1,196z"/>
			<path class="st1" d="M247.9,182.9h38.4c1.5,0,2.8,0.9,2.8,2v7.5c0,1.1-1.2,2-2.8,2h-38.4c-1.5,0-2.8-0.9-2.8-2v-7.5
				C245.2,183.8,246.4,182.9,247.9,182.9z"/>
			<path class="st1" d="M201.9,182.9h38.4c1.5,0,2.8,0.9,2.8,2v7.5c0,1.1-1.2,2-2.8,2h-38.4c-1.5,0-2.8-0.9-2.8-2v-7.5
				C199.1,183.8,200.4,182.9,201.9,182.9z"/>
		</g>
		<g>
			<path class="st1" d="M291.6,114.6H330c1.5,0,2.8,0.9,2.8,2v7.5c0,1.1-1.2,2-2.8,2h-38.4c-1.5,0-2.8-0.9-2.8-2v-7.5
				C288.8,115.5,290,114.6,291.6,114.6z"/>
			<path class="st1" d="M245.5,114.6H284c1.5,0,2.8,0.9,2.8,2v7.5c0,1.1-1.2,2-2.8,2h-38.4c-1.5,0-2.8-0.9-2.8-2v-7.5
				C242.8,115.5,244,114.6,245.5,114.6z"/>
			<path class="st1" d="M314.4,101.4h38.4c1.5,0,2.8,0.9,2.8,2v7.5c0,1.1-1.2,2-2.8,2h-38.4c-1.5,0-2.8-0.9-2.8-2v-7.5
				C311.6,102.3,312.9,101.4,314.4,101.4z"/>
			<path class="st1" d="M268.3,101.4h38.4c1.5,0,2.8,0.9,2.8,2v7.5c0,1.1-1.2,2-2.8,2h-38.4c-1.5,0-2.8-0.9-2.8-2v-7.5
				C265.6,102.3,266.8,101.4,268.3,101.4z"/>
		</g>
		<g>
			<path class="st1" d="M350,40.4h-38.4c-1.5,0-2.8-0.9-2.8-2v-7.5c0-1.1,1.2-2,2.8-2H350c1.5,0,2.8,0.9,2.8,2v7.5
				C352.7,39.5,351.5,40.4,350,40.4z"/>
			<path class="st1" d="M396,40.4h-38.4c-1.5,0-2.8-0.9-2.8-2v-7.5c0-1.1,1.2-2,2.8-2H396c1.5,0,2.8,0.9,2.8,2v7.5
				C398.8,39.5,397.5,40.4,396,40.4z"/>
			<path class="st1" d="M373.2,53.6h-38.4c-1.5,0-2.8-0.9-2.8-2v-7.5c0-1.1,1.2-2,2.8-2h38.4c1.5,0,2.8,0.9,2.8,2v7.5
				C376,52.7,374.7,53.6,373.2,53.6z"/>
		</g>
		<g>
			<path class="st1" d="M86.1,164.8H47.7c-1.5,0-2.8-0.9-2.8-2v-7.5c0-1.1,1.2-2,2.8-2h38.4c1.5,0,2.8,0.9,2.8,2v7.5
				C88.9,163.9,87.6,164.8,86.1,164.8z"/>
			<path class="st1" d="M88.3,138.3H49.8c-1.5,0-2.8-0.9-2.8-2v-7.5c0-1.1,1.2-2,2.8-2h38.4c1.5,0,2.8,0.9,2.8,2v7.5
				C91.1,137.4,89.8,138.3,88.3,138.3z"/>
			<path class="st1" d="M134.3,138.3H95.9c-1.5,0-2.8-0.9-2.8-2v-7.5c0-1.1,1.2-2,2.8-2h38.4c1.5,0,2.8,0.9,2.8,2v7.5
				C137.1,137.4,135.9,138.3,134.3,138.3z"/>
			<path class="st1" d="M65.5,151.4H27c-1.5,0-2.8-0.9-2.8-2v-7.5c0-1.1,1.2-2,2.8-2h38.4c1.5,0,2.8,0.9,2.8,2v7.5
				C68.3,150.5,67,151.4,65.5,151.4z"/>
			<path class="st1" d="M111.5,151.4H73.1c-1.5,0-2.8-0.9-2.8-2v-7.5c0-1.1,1.2-2,2.8-2h38.4c1.5,0,2.8,0.9,2.8,2v7.5
				C114.3,150.5,113.1,151.4,111.5,151.4z"/>
		</g>
		<g>
			<path class="st1" d="M600,169.9v11.5h-31.8c-1.5,0-2.8-0.9-2.8-2v-7.5c0-1.1,1.2-2,2.8-2H600z"/>
			<path class="st1" d="M600,143.3v11.6h-29.6c-1.5,0-2.8-0.9-2.8-2v-7.5c0-1.1,1.2-2,2.8-2H600z"/>
			<path class="st1" d="M586,168h-38.4c-1.5,0-2.8-0.9-2.8-2v-7.5c0-1.1,1.2-2,2.8-2H586c1.5,0,2.8,0.9,2.8,2v7.5
				C588.8,167.1,587.5,168,586,168z"/>
			<path class="st1" d="M600,156.5V168h-6.4c-1.5,0-2.8-0.9-2.8-2v-7.5c0-1.1,1.3-2,2.8-2H600z"/>
		</g>
	</g>
	<rect x="1.2" y="320" class="st2" width="598.8" height="111.5"/>
</g>
<g>
	<g>
		<g>
			<path class="st3" d="M129.2,225.8c-0.2,2.5-1.5,4.8-3.4,6.4c-0.7,0.6-1.4,1.1-2.2,1.4c-3.8,1.7-8.9,1.1-13-4.2l-13.5-18.3
				l-0.1-0.1l-0.3-0.4l-0.3-0.4l-1.4-1.9l3.1-4.2l5.2-7.3l0,0l5.1,4.6l12.8,11.7l3.3,3.1C128.2,219.3,129.5,222.7,129.2,225.8z"/>
			<polygon class="st3" points="136.5,225.4 125.9,232.2 123.6,233.6 121.8,227.6 118.2,215.6 121.3,213.2 125.7,209.8 134.6,222.7 
							"/>
			<path class="st4" d="M156.6,212.5c-0.3,0.3-0.7,0.5-1.1,0.8l-3.4,2.2l-5.9,3.8l-1.5,1l-0.2,0.1l-5.1,3.3l0,0l-1.4,0.9l-1.4,0.9
				l-1.9-2.8l-8.9-12.9l14.8-10.3l0.7-0.5l0.7-0.5l3.4-2.4c1.2-0.8,2.3-1.4,3.5-1.8c1.3-0.4,2.6-0.7,3.8-0.7c0.4,0,0.8,0,1.3,0.1
				c0.5,0.1,1,0.2,1.5,0.3C162.3,196,165.7,205.2,156.6,212.5z"/>
			<path class="st5" d="M104.8,202.2l-7.6,8.7l-0.1,0.2l-0.5,0.5l-1.2-2.2l-2-3.8c-1.3-1.8-2-0.8-4.2-2.5l-1.5-1.7l-3.3-3.7l-0.9-1
				c0.4-1.1,0.8-2.2,1.2-3.2c0,0,0,0,0-0.1c0.3-0.7,0.6-1.4,1-2.1l0,0c0.4-0.7,0.8-1.3,1.2-2c0-0.1,0-0.1,0.1-0.1
				c0.8-1.2,1.6-2.4,2.6-3.7c0,0,0,0,0-0.1c0.5-0.7,1.1-1.4,1.7-2.1l0.3,0.2l1.6,1.2l2,1.6l0.9,0.7l1.6-2.2h0
				c0.1,0.1,0.6,0.7,1.3,1.4c1.2,1.3,2.8,3,2.9,3.2c1,1.3,1.4,3.1,1.1,4.8l-0.2,1l0.4,1.7L104.8,202.2z"/>
			<g>
				<path class="st6" d="M71.3,204.4l1.3-1.7l11.9,9l-1.3,1.7C82.2,214.7,70.3,205.7,71.3,204.4z"/>
				<path class="st7" d="M72.1,202.4l12.8,9.7l0-0.1c2.1-2.7,1.5-6.6-1.2-8.7l-2.9-2.2C78.1,199.1,74.2,199.7,72.1,202.4L72.1,202.4
					z"/>
				<polygon class="st4" points="79.1,200.1 96.6,177.1 102.6,181.7 85.2,204.7 				"/>
				<path class="st7" d="M97.6,175.7l-1,1.4l6.1,4.6l1-1.4c0.5-0.7,0.4-1.7-0.3-2.2l-3.6-2.7C99.1,174.9,98.1,175,97.6,175.7z"/>
				
					<rect x="98.5" y="176.1" transform="matrix(0.6028 -0.7979 0.7979 0.6028 -104.1578 150.6251)" class="st8" width="1.4" height="7.6"/>
				
					<rect x="81.8" y="198.2" transform="matrix(0.6028 -0.7979 0.7979 0.6028 -128.4218 146.0336)" class="st8" width="1.4" height="7.6"/>
				
					<rect x="76.8" y="200.1" transform="matrix(0.6028 -0.7979 0.7979 0.6028 -135.1313 144.7765)" class="st8" width="2.1" height="16"/>
				<path class="st7" d="M88.6,191.7c0.4-0.6,1.3-0.7,1.8-0.3l0,0c0.6,0.4,0.7,1.3,0.3,1.8l-3.1,4.1c-0.4,0.6-1.3,0.7-1.8,0.3l0,0
					c-0.6-0.4-0.7-1.3-0.3-1.8L88.6,191.7z"/>
				
					<rect x="85.8" y="194.2" transform="matrix(0.6027 -0.798 0.798 0.6027 -120.2114 147.5837)" class="st8" width="4.6" height="0.7"/>
				<path class="st9" d="M85.9,195.8c0.3-0.4,1-0.5,1.4-0.2c0.4,0.3,0.5,1,0.2,1.4c-0.3,0.4-1,0.5-1.4,0.2
					C85.7,196.8,85.6,196.2,85.9,195.8z"/>
			</g>
			<path class="st10" d="M108.8,201.2l-0.3,0.3L97.3,211l-0.2,0.2l-0.5,0.4l0.2-0.9l0-0.1l1.3-6.4l1-4.9c-5.7-3.5-2.8-9-2.8-9
				l-0.1-0.1l-0.4-0.5c-0.3-0.3-0.6-0.4-1-0.4l-1.9,0.1l-0.3,0c-0.8,0-1.5-0.2-2.1-0.7c-0.6-0.5-0.9-1.2-0.9-2l0-0.4v0
				c0-0.3,0-0.5,0.2-0.7c0,0,0-0.1,0-0.1c0.2-0.3,0.5-0.5,0.8-0.6c0.1,0,0.1,0,0.2,0l2.4-0.1l1.9-0.1l1.6-0.1c0.4,0,0.8,0.1,1,0.3h0
				c0.1,0.1,0.6,0.7,1.3,1.4c1.2,1.3,2.8,3,2.9,3.2c1,1.3,1.4,3.1,1.1,4.8l-0.2,1L108.8,201.2z"/>
			<path class="st10" d="M91.5,187.3c0.8,0.8,2.2,0.8,3,0l0.3-0.3c0.4-0.4,0.6-0.9,0.6-1.5c0-0.6-0.2-1.1-0.6-1.5l-3-3
				c-0.8-0.8-2-0.8-2.8,0l-0.6,0.6c-0.7,0.7-0.7,1.9,0,2.6L91.5,187.3z"/>
			<path class="st10" d="M89,191.3c0.4,0.4,0.9,0.6,1.5,0.7c0.6,0,1.1-0.2,1.5-0.6l0.3-0.3c0.8-0.8,0.8-2.1,0-3l-3.8-3.9
				c-0.4-0.4-0.9-0.6-1.4-0.6c-0.5,0-1,0.2-1.4,0.6l-0.6,0.6c-0.7,0.7-0.7,1.9,0,2.6L89,191.3z"/>
			<path class="st10" d="M85.5,194.1c0.8,0.8,2.2,0.8,3,0l0.3-0.3c0.4-0.4,0.6-0.9,0.6-1.5c0-0.6-0.2-1.1-0.6-1.5l-3-3
				c-0.8-0.8-2-0.8-2.8,0l-0.6,0.6c-0.3,0.3-0.5,0.8-0.5,1.3c0,0.5,0.2,1,0.5,1.3L85.5,194.1z"/>
			<path class="st10" d="M83.2,197.1c0.6,0.6,1.7,0.6,2.4-0.1l0.2-0.2c0.7-0.7,0.7-1.8,0.1-2.4l-2.3-2.3c-0.6-0.6-1.6-0.6-2.2,0.1
				l-0.5,0.5c-0.6,0.6-0.6,1.5-0.1,2.1L83.2,197.1z"/>
		</g>
		<path class="st11" d="M145.2,215.8c-3.8,1.8-7.1,4.5-10.6,6.9c-0.8,0.5-1.5,1-2.3,1.5c-1,0.6-2,1.1-3.1,1.6
			c-2.4,1.1-4.9,1.8-7.4,1.9c-1.4,0-2.8-0.1-4.2-0.6c-3-1-5.5-3.1-7.8-5.2c-4.1-3.6-8.2-7.2-12.4-10.8c0,0.1-0.1,0.1-0.1,0.2
			c0,0,0,0,0,0l13.4,18.1c4.1,5.2,9.2,5.9,13,4.2c0.8-0.4,1.6-0.8,2.2-1.4l10.6-6.7l1.4-0.9l1.4-0.9l0,0l5.1-3.3l0.2-0.1l1.5-1
			C146.2,218,145.9,216.8,145.2,215.8z"/>
		<g>
			<g>
				<path class="st12" d="M107.7,349.2l0,3.1l39.1-0.4l-0.1-7.1c0-0.4,0-0.8,0-1.2c0-0.5,0-1-0.1-1.4l0-0.1c0-0.2,0-0.5-0.1-0.7
					c0-0.2,0-0.5-0.1-0.7c-0.1-1.1-0.2-2.1-0.4-3.2c0-0.3-0.1-0.5-0.1-0.8l-0.7-4.4l0-0.1l-0.4-2.3l-3.7-0.3l-8.5-0.7l-3.3-0.3
					l-0.4,1.7l-0.3,1.2l-0.3,1.3l-0.3,1.2l0,0l0,0.1c-0.1,0.3-0.2,0.6-0.3,1c-0.1,0.4-0.3,0.8-0.6,1.2c0,0,0,0,0,0
					c-0.2,0.3-0.4,0.7-0.7,0.9c-0.3,0.3-0.5,0.6-0.9,0.9c0,0-0.1,0.1-0.1,0.1c-0.2,0.2-0.5,0.4-0.7,0.6c-0.3,0.2-0.7,0.4-1.1,0.6
					c-0.3,0.2-0.7,0.3-1,0.4c0,0,0,0,0,0c-0.4,0.1-0.8,0.2-1.2,0.3c-0.4,0.1-0.8,0.1-1.1,0.1l-3.7,0c-0.9,0-1.8,0.2-2.7,0.4
					c-0.2,0.1-0.4,0.1-0.6,0.2c-0.2,0.1-0.4,0.2-0.6,0.3c-1,0.5-2,1.2-2.7,2.1c-0.2,0.2-0.3,0.4-0.4,0.5c0,0-0.1,0.1-0.1,0.1
					c-0.1,0.1-0.2,0.3-0.3,0.4c-0.1,0.1-0.1,0.2-0.2,0.3c-0.1,0.1-0.1,0.2-0.2,0.3c-0.1,0.1-0.2,0.3-0.2,0.4
					c-0.1,0.2-0.2,0.4-0.3,0.6c-0.1,0.1-0.1,0.3-0.2,0.4c-0.1,0.2-0.1,0.4-0.2,0.6c0,0,0,0.1,0,0.1c0,0.2-0.1,0.4-0.1,0.6
					c0,0.1,0,0.2-0.1,0.3c0,0.1,0,0.3-0.1,0.4c0,0.1,0,0.2,0,0.4c0,0.1,0,0.2,0,0.4C107.7,349,107.7,349.1,107.7,349.2z"/>
				<path class="st13" d="M107.7,349.2l0,2.9l23.3-0.3l-0.7-7.7c-6.1,0.4-10.2,0.2-10.6-4.2l-3.1,0c-3.8,0-7,2.4-8.3,5.6
					C107.9,346.8,107.7,348,107.7,349.2z"/>
				<path class="st14" d="M126.5,352l2.8,0l6.9,0l10.7-0.1l-0.1-7.1c0-0.4,0-0.8,0-1.2c0-0.5,0-1-0.1-1.4l0-0.1c0-0.2,0-0.5-0.1-0.7
					c0-0.2,0-0.5-0.1-0.7c-0.1-1.1-0.2-2.1-0.4-3.2c0-0.3-0.1-0.5-0.1-0.8l-0.7-4.4l0-0.2l-0.4-2.3l-3.7-0.3
					c-4.9-0.4-9.4,2.8-10.7,7.5l-0.1,0.4l-0.6,2.3l-0.1,0.5l-0.9,3.2l-0.2,0.8l0,0.2l-1.9,7L126.5,352L126.5,352z"/>
				<path class="st13" d="M129.3,352.1l17.6-0.2l-0.1-7.1c0-0.4,0-0.8,0-1.2c0-0.5,0-1-0.1-1.4l0-0.1c0-0.2,0-0.5-0.1-0.7
					c0-0.2,0-0.5-0.1-0.7c-0.1-1.1-0.2-2.1-0.4-3.2c0-0.3-0.1-0.5-0.1-0.8l-0.7-4.4l0-0.1h0l-2.3-0.2c-4.4-0.4-8.4,2.2-9.9,6.3
					c-0.1,0.3-0.2,0.5-0.3,0.8l-0.2,0.9l-0.1,0.5l0,0l-1.1,4.3l-0.3,1l-0.4,1.4l0,0l-1.2,4.4l-0.1,0.5L129.3,352.1L129.3,352.1z"/>
				<path class="st14" d="M136.1,350.2l0,1.8l10.7-0.1l-0.1-7.1c0-0.4,0-0.8,0-1.2c0-0.5,0-1-0.1-1.4l0-0.1l-0.5,0
					c-0.9,0-1.8,0.1-2.6,0.3c-2.7,0.6-4.8,2-6.1,3.9c-0.1,0.2-0.2,0.4-0.3,0.5C136.5,347.9,136.1,349,136.1,350.2z"/>
				<path class="st14" d="M107.7,349.2l0,2.9l7.3-0.1l0-0.1c0-3.5-2.9-6.3-6.4-6.3l-0.3,0C107.9,346.8,107.7,348,107.7,349.2z"/>
				<path class="st14" d="M128.8,331.5l1.6,0.2c0.3,0.1,0.7-0.2,0.7-0.5l0,0c0.1-0.3-0.2-0.7-0.5-0.7l-1.6-0.2
					c-0.3-0.1-0.7,0.2-0.7,0.5l0,0C128.3,331.1,128.5,331.4,128.8,331.5z"/>
				<path class="st14" d="M128.1,334l1.6,0.2c0.3,0.1,0.7-0.2,0.7-0.5l0,0c0.1-0.3-0.2-0.7-0.5-0.7l-1.6-0.2
					c-0.3-0.1-0.7,0.2-0.7,0.5l0,0C127.6,333.6,127.8,333.9,128.1,334z"/>
				<path class="st14" d="M127.1,336.2l1.6,0.5c0.3,0.1,0.7-0.1,0.8-0.4l0,0c0.1-0.3-0.1-0.7-0.4-0.8l-1.6-0.5
					c-0.3-0.1-0.7,0.1-0.8,0.4l0,0C126.6,335.7,126.8,336.1,127.1,336.2z"/>
				<path class="st14" d="M125.6,338c0.1,0.1,0.1,0.2,0.2,0.2l1.5,0.8c0.3,0.2,0.7,0.1,0.9-0.2l0,0c0.2-0.3,0.1-0.7-0.3-0.9
					l-1.5-0.8l0,0c-0.3-0.2-0.7-0.1-0.9,0.3l0,0C125.4,337.6,125.4,337.8,125.6,338z"/>
				<path class="st14" d="M123.7,339.3c0,0.1,0.1,0.1,0.1,0.2l1.1,1.3c0.2,0.3,0.6,0.3,0.9,0.1l0,0c0.3-0.2,0.3-0.6,0.1-0.9
					l-1.1-1.3c0,0,0,0,0,0c-0.2-0.3-0.6-0.3-0.9-0.1l0,0C123.7,338.8,123.6,339.1,123.7,339.3z"/>
				<path class="st14" d="M121.5,340c0,0.1,0,0.2,0,0.2l0.5,1.6c0.1,0.3,0.5,0.5,0.8,0.4l0,0c0.3-0.1,0.5-0.5,0.4-0.8l-0.5-1.6
					c0-0.1,0-0.1-0.1-0.2c0,0,0,0,0,0c0,0-0.1-0.1-0.1-0.1c0,0-0.1-0.1-0.1-0.1l0,0c-0.1-0.1-0.3-0.1-0.5,0l0,0
					C121.7,339.5,121.5,339.7,121.5,340z"/>
				<path class="st14" d="M131.8,354.7c0.2-0.1,0.4-0.1,0.6-0.2l2.1-0.7l0,0.9l13.2-0.1l0-3.2l-40.6,0.4l0,3.2L131.8,354.7z"/>
			</g>
			<path class="st15" d="M171.6,290.5c-0.8,0.1-1.7,0.1-2.6,0.1l-1.3,0l-17,0.3l-7.5,0.1l-2.8,0.1l-12.6,0.3h-0.1
				c-3.1,0-5.9-1-8.2-2.8c-1.4-1.1-2.6-2.4-3.5-3.9c-1.2-2-1.8-4.3-1.8-6.7v-0.3c0-0.8,0.1-1.5,0.2-2.2c0-0.1,0-0.2,0-0.3
				c1-5.4,5.2-9.7,10.5-10.8c0.8-0.2,1.7-0.3,2.6-0.3h0.1l6.2-0.1l16.6-0.3l0.6,0l17.3-0.4l5.2-0.1h0l15.5-0.5
				c2.2,0.7,3.9,2.5,4.8,5.1C196.6,275.5,192,289.1,171.6,290.5z"/>
			<path class="st15" d="M146.6,340.7C146.6,340.7,146.5,340.8,146.6,340.7c-1,0.5-2.1,0.8-3.2,0.8c-0.1,0-0.1,0-0.2,0l-11-0.4h-0.1
				l-1.3,0l-1.4-0.1h0l-1.1,0c-0.8,0-1.6-0.2-2.3-0.5c-0.4-0.2-0.7-0.3-1-0.5c-0.3-0.2-0.7-0.5-1-0.8c-0.1-0.1-0.2-0.2-0.3-0.3
				c-0.9-1-1.6-2.2-1.8-3.6l-1.1-7.4l-1.7-11.1l-0.3-1.7l-0.8-5.4l-0.3-2.4l-0.6-4.4l-1-6.7l-0.1-0.5l-1.6-10.8l-0.4-2.4l-0.2-1.4
				c0-0.3-0.1-0.5-0.1-0.8c-0.2-1.7,0-3.4,0.5-4.9c0.5-1.7,1.3-3.2,2.3-4.6c2.1-2.6,5.1-4.5,8.7-5l0.3,0c0.8-0.1,1.6-0.2,2.3-0.1
				c3.8,0.1,7.3,1.8,9.8,4.6c1.3,1.5,2.3,3.2,2.8,5.2c0.2,0.6,0.3,1.2,0.4,1.8l2.3,13.9l0.8,4.6l1.2,7.1l0.4,2.4l0.9,5.4l0.3,1.7
				l1.8,11.1l1.7,10.3C150.6,336.7,149,339.5,146.6,340.7z"/>
		</g>
		<g>
			<g>
				<path class="st16" d="M259.7,351.6l-0.1,0l-0.5,0.1l-2.4,0.6c-0.1,0-0.3,0.1-0.4,0.1c-0.1,0-0.2,0.1-0.3,0.1
					c-0.4,0.1-0.9,0.1-1.3,0.1h-0.4c-0.4,0-0.8-0.1-1.2-0.1c-0.2,0-0.4-0.1-0.7-0.1c-0.1,0-0.3-0.1-0.4-0.1
					c-0.3-0.1-0.6-0.2-0.9-0.3c-0.1,0-0.1,0-0.2-0.1c0,0-0.1,0-0.1-0.1c-0.2-0.1-0.4-0.2-0.6-0.3c-0.2-0.1-0.4-0.3-0.7-0.4
					c-0.1,0-0.1-0.1-0.2-0.1c-0.2-0.1-0.4-0.3-0.6-0.4l0,0c-0.2-0.1-0.3-0.3-0.5-0.4c-0.1-0.1-0.2-0.1-0.3-0.2
					c-1.1-1.1-1.9-2.5-2.3-4.1l-0.8-3l-0.1-0.5c-0.1-0.4-0.2-0.7-0.4-1.1c-0.1-0.4-0.3-0.7-0.5-1.1v0c-0.2-0.3-0.4-0.6-0.6-0.9
					c-0.3-0.3-0.5-0.6-0.8-0.9c-0.1-0.1-0.2-0.2-0.3-0.2c-0.2-0.1-0.3-0.2-0.4-0.3c0,0,0,0-0.1-0.1c-0.3-0.3-0.7-0.4-1.1-0.6
					c-0.3-0.2-0.7-0.3-1.1-0.4c0,0,0,0,0,0c-0.4-0.1-0.8-0.2-1.3-0.3c-0.3,0-0.7-0.1-1-0.1h-0.1l-1.3,0h0l-0.5,0l-0.9,0l-1.2,0h0
					l-1.7,0l-0.5-3.3l-1.2-8.5l-0.6-3.7l2.1-0.9l0.1-0.1l4.1-1.7c0.3-0.1,0.5-0.2,0.8-0.3c1-0.4,2-0.8,3-1.1
					c0.2-0.1,0.5-0.1,0.7-0.2c0.2-0.1,0.4-0.1,0.7-0.2l0.1,0c0.1,0,0.1,0,0.1-0.1c0.4-0.1,0.8-0.2,1.2-0.3c0.4-0.1,0.8-0.2,1.2-0.3
					l6.3-1.5l0.6-0.1L253,324l1.6,6.7l2.2,9.1L259.7,351.6z"/>
				<path class="st17" d="M259.6,351.6l-0.5,0.1l-2.4,0.6c-0.1,0-0.3,0.1-0.4,0.1c-0.1,0-0.2,0.1-0.3,0.1c-0.4,0.1-0.9,0.1-1.3,0.1
					c-0.1,0-0.3,0-0.4,0c-0.4,0-0.8-0.1-1.2-0.1c-0.2,0-0.4-0.1-0.7-0.1c-0.1,0-0.3-0.1-0.4-0.1c-0.3-0.1-0.6-0.2-0.9-0.3
					c-0.1,0-0.2-0.1-0.3-0.1c-0.2-0.1-0.4-0.2-0.6-0.3c-0.2-0.1-0.4-0.3-0.7-0.4c-0.1,0-0.1-0.1-0.2-0.1c-0.2-0.1-0.4-0.3-0.6-0.4
					l0,0c-0.2-0.1-0.3-0.3-0.5-0.4c-0.1-0.1-0.2-0.1-0.3-0.2c-1.1-1.1-1.9-2.5-2.3-4.1l-0.8-3c2.9-1,3.4-3.3,2.9-6.6
					c-0.2-0.9-0.4-1.9-0.7-2.9c-0.1-0.6-0.3-1.1-0.5-1.7l2.7-0.9h0l4.2-1.4l0.5-0.2l0.4,1.7l0.7,2.7l1.6,6.4l1.2,4.7L259.6,351.6z"
					/>
				<path class="st18" d="M255.2,333.4l-0.6-2.7l-1.6-6.7l-2.5-10.4l-6.9,1.7c-0.4,0.1-0.8,0.2-1.2,0.3c-0.5,0.1-0.9,0.3-1.4,0.4
					l-0.1,0c-0.2,0.1-0.4,0.1-0.7,0.2c-0.2,0.1-0.4,0.1-0.7,0.2c-1,0.3-2,0.7-3,1.1c-0.2,0.1-0.5,0.2-0.7,0.3l-4.1,1.7l-0.1,0.1
					l-2.1,0.9l0.5,3.7c0.7,4.9,4.8,8.6,9.8,8.7l0.5,0l2.4,0.1l0.5,0l3.3,0.1l0.8,0l0.2,0l7.2,0.2L255.2,333.4L255.2,333.4z"/>
				<path class="st17" d="M254.6,330.7l-4.2-17.1l-6.9,1.7c-0.4,0.1-0.8,0.2-1.2,0.3c-0.5,0.1-0.9,0.3-1.4,0.4l-0.1,0
					c-0.2,0.1-0.4,0.1-0.7,0.2c-0.2,0.1-0.4,0.1-0.7,0.2c-1,0.3-2,0.7-3,1.1c-0.2,0.1-0.5,0.2-0.7,0.3l-4.1,1.7l-0.1,0.1l0,0
					l0.3,2.3c0.6,4.4,4.1,7.7,8.4,8.2c0.3,0,0.6,0.1,0.9,0.1l0.9,0l0.5,0l0,0l4.4,0.1l1.1,0l1.5,0.1l0,0l4.6,0.2l0.5,0L254.6,330.7
					L254.6,330.7z"/>
				<path class="st18" d="M251.2,324.4l1.8-0.4l-2.5-10.4l-6.9,1.7c-0.4,0.1-0.8,0.2-1.2,0.3c-0.5,0.1-0.9,0.3-1.4,0.4l-0.1,0
					l0.1,0.5c0.2,0.9,0.5,1.7,0.9,2.5c1.2,2.4,3.1,4.3,5.2,5.1c0.2,0.1,0.4,0.1,0.6,0.2C248.9,324.7,250.1,324.7,251.2,324.4z"/>
				<path class="st18" d="M259.6,351.6l-0.5,0.1l-2.4,0.6c-0.1,0-0.3,0.1-0.4,0.1c-0.1,0-0.2,0.1-0.3,0.1c-0.4,0.1-0.9,0.1-1.3,0.1
					c-0.1,0-0.3,0-0.4,0c-0.4,0-0.8-0.1-1.2-0.1l-0.1-0.3c-0.8-3.3,1.1-6.6,4.3-7.6c0.1,0,0.3-0.1,0.4-0.1l0.1,0L259.6,351.6z"/>
				<path class="st18" d="M234.6,335.8l-0.1-1.7c0-0.3-0.3-0.6-0.7-0.6l0,0c-0.3,0-0.6,0.3-0.6,0.7l0.1,1.7c0,0.3,0.3,0.6,0.7,0.6
					l0,0C234.4,336.5,234.7,336.2,234.6,335.8z"/>
				<path class="st18" d="M237.2,335.9l-0.1-1.7c0-0.3-0.3-0.6-0.7-0.6l0,0c-0.3,0-0.6,0.3-0.6,0.7l0.1,1.7c0,0.3,0.3,0.6,0.7,0.6
					l0,0C237,336.6,237.3,336.3,237.2,335.9z"/>
				<path class="st18" d="M239.6,336.4l0.1-1.7c0-0.3-0.2-0.7-0.6-0.7l0,0c-0.3,0-0.7,0.2-0.7,0.6l-0.1,1.7c0,0.3,0.2,0.7,0.6,0.7
					l0,0C239.3,337,239.6,336.8,239.6,336.4z"/>
				<path class="st18" d="M241.8,337.5c0.1-0.1,0.1-0.2,0.2-0.3l0.4-1.6c0.1-0.3-0.1-0.7-0.4-0.8l0,0c-0.3-0.1-0.7,0.1-0.8,0.4
					l-0.4,1.6l0,0c-0.1,0.3,0.1,0.7,0.4,0.8l0,0C241.4,337.7,241.6,337.7,241.8,337.5z"/>
				<path class="st18" d="M244.6,337.6l-1,1.3c-0.1,0.1-0.1,0.1-0.2,0.1c-0.2,0.1-0.5,0.1-0.7,0l0,0c-0.3-0.2-0.3-0.6-0.1-0.9
					c0,0,0,0,0,0l1-1.3c0.2-0.3,0.6-0.3,0.9-0.1l0,0C244.8,336.9,244.8,337.3,244.6,337.6z"/>
				<path class="st18" d="M246.2,340.1l-1.4,0.9c-0.1,0-0.2,0.1-0.2,0.1c-0.2,0-0.5-0.1-0.6-0.3v0c-0.1-0.1-0.1-0.3-0.1-0.5v0
					c0-0.1,0-0.1,0.1-0.1c0,0,0.1-0.1,0.1-0.1c0,0,0,0,0,0c0,0,0.1-0.1,0.1-0.1l1.4-0.9c0.3-0.2,0.7-0.1,0.9,0.2v0
					C246.6,339.5,246.5,339.9,246.2,340.1z"/>
				<path class="st18" d="M262.4,351.7l-3.1,0.8l-0.2-0.7l-1.7-7.1l-1.2-4.8l-1.6-6.4l-0.7-2.7l-0.4-1.5l-1.2-5l-2.5-10.4l-0.2-0.7
					l3.1-0.8l3.1,12.8l-0.9,0.2l1.2,1.9c0.1,0.2,0.2,0.4,0.3,0.6l2.9,11.7L262.4,351.7z"/>
			</g>
			<path class="st15" d="M200.2,282l-0.1,6v0l-0.1,7.7l0,1.9l-0.3,3.2l0,0.2l-0.2,1.8l-0.3,2.4l-1.9,17.3l-2.1,19.5l0,0.1
				c-0.2,1.5-0.6,2.8-1.2,4.1c-0.2,0.4-0.3,0.7-0.5,1c-0.3,0.4-0.5,0.8-0.8,1.2c-0.4,0.5-0.8,1-1.2,1.5c-1.2,1.2-2.5,2.1-4,2.8
				c-2.2,1-4.7,1.4-7.2,1.1l-0.3,0c-0.8-0.1-1.6-0.3-2.4-0.5c-2.5-0.8-4.7-2.3-6.3-4.3c0,0,0,0,0-0.1c-0.1-0.2-0.3-0.4-0.4-0.6
				c-0.1-0.2-0.2-0.4-0.4-0.5c0,0-0.1-0.1-0.1-0.1c0,0-0.1-0.1-0.1-0.1c-0.1-0.2-0.2-0.4-0.3-0.5c-0.1-0.2-0.2-0.4-0.3-0.6
				c0,0,0-0.1-0.1-0.1c0,0,0-0.1-0.1-0.1c-0.1-0.1-0.2-0.3-0.2-0.5c0,0,0-0.1-0.1-0.1c0-0.1-0.1-0.2-0.1-0.3c0,0,0-0.1,0-0.1
				c0-0.1,0-0.1-0.1-0.2c0-0.1-0.1-0.1-0.1-0.2c-0.1-0.1-0.1-0.3-0.1-0.5c-0.1-0.3-0.2-0.5-0.2-0.8c0,0,0,0,0-0.1
				c-0.1-0.3-0.1-0.6-0.2-0.9c0-0.2-0.1-0.4-0.1-0.6v0c0-0.1,0-0.1,0-0.2c0-0.1,0-0.1,0-0.2c-0.1-0.9,0-1.8,0.1-2.7l0-1.4l0-4.8
				l-0.3-29.8l-0.1-5.9l0-1.2l0-3.8l0-1.4l0-1.4l-0.1-11.8c0,0,16.7-13.8,26.2-9.6c1.3,0.6,2.5,1.5,3.4,2.8
				C198.9,272.9,200,276.6,200.2,282z"/>
			<path class="st15" d="M243.1,334.7c0,0.7-0.1,1.5-0.3,2.1c-0.1,0.4-0.3,0.8-0.5,1.1v0c0,0,0,0,0,0c-0.9,1.7-2.4,3-4.4,3.4
				l-7.3,1.7l-11,2.6l-1.7,0.4l-5.3,1.2l-2.3,0.5l-10.8,2.5l-12.1,2.8l-1.3,0.3l-1.4,0.3c-0.3,0.1-0.5,0.1-0.8,0.2
				c-3.5,0.6-6.9-0.2-9.7-2c-1.2-0.8-2.3-1.8-3.2-2.9c0,0,0,0,0-0.1c-0.1-0.2-0.3-0.4-0.4-0.6c-1-1.4-1.7-3-2.1-4.7l-0.1-0.3
				c-0.5-2.1-0.5-4.1,0-6.1c0.5-2.2,1.5-4.1,2.9-5.8c0.1-0.2,0.3-0.4,0.5-0.5c0.9-1,2-1.8,3.2-2.5c0.6-0.3,1.1-0.6,1.7-0.8
				c0.6-0.2,1.1-0.4,1.7-0.5l18.7-4.7l8.8-2.2l5.3-1.3l1.7-0.4l10.9-2.7l10.1-2.5c2.7-0.7,5.4,0.4,6.9,2.5c0,0,0.1,0.1,0.1,0.1
				c0.1,0.1,0.2,0.3,0.3,0.4c0.6,0.9,0.9,1.9,1,3c0,0.1,0,0.1,0,0.2l0,0.3v0l0.3,7.2l0.1,3.2v0l0,0.3v0l0.1,1.3l0.1,1.1l0,0.4
				l0.1,1.1C243.1,334.6,243.1,334.6,243.1,334.7C243.1,334.7,243.1,334.7,243.1,334.7z"/>
		</g>
		<path class="st19" d="M150.3,195.8c-4.5,3.3-8.3,3.2-8.3,3.2l-8.2-22.8c1.5-0.5,9.2-4.6,14.9-7.8l7.3,14.4l1,2
			c0.1,0,0.2,0.1,0.3,0.1C159,185.7,153.7,193.4,150.3,195.8z"/>
		<path class="st15" d="M200.1,288L200.1,288c0,0.1-16.8,3.9-23.8,3.2c-1.7-0.1-3.3-0.4-4.8-0.8c-1.4-0.3-2.7-0.8-3.9-1.3
			c-4.7-2-8.1-5.2-9.8-9.4c-0.4-0.8-0.7-1.5-1.1-2.3c-1.1-2.3-2.1-4.6-3.1-6.9c-0.9-2.3-1.8-4.6-2.7-6.9c-1-2.6-1.9-5.3-2.7-7.8
			c-1-3.1-2-6.2-2.8-9.2c-4.3-15.2-5.8-20.5-6.1-22.9v0c0-0.1,0-0.1,0-0.2c-0.7-6.3,0.4-12.9,1.6-17.9c0.6-2.6,1.3-4.8,1.7-6.3
			l1.2-0.6l0,0l7.3-3.6l2.7-1.3l9.9-4.9c2.4,1.7,5.1,3.6,7.4,6.1c0.1,0.1,0.1,0.1,0.2,0.2c7.8,8.7,21.3,47,26.4,62.2
			C202.7,264.5,204.3,279.3,200.1,288z"/>
		<g>
			<path class="st3" d="M152.3,174.4c0.7,2.7-4.5,1.6-7.2,2.6c-0.1,0.1-0.2,0.1-0.2,0.1c2.8,7.2-1.6,14.5-5.8,16.8
				c-0.1,0.1-0.3,0.1-0.4,0.2l-3.6,1.4c-3.5,1.3-6.4-2-7.5-4.9c0,0-0.1-0.3-0.2-0.9c-0.2-0.9-0.6-2.2-1-3.5v0
				c-0.3-1.1-0.6-2.2-0.8-2.8c-0.1-0.2-0.1-0.3-0.1-0.4l-1.8,0.1c-1.2,0.1-2.2-0.8-2.2-2l0.4-4.6l0.1-1c0,0-0.8-0.8-1.5-1.7
				c-0.4-1.2-0.7-2.4-0.8-3.5c-0.4-2.2-0.4-4.2-0.1-6c0.8-6.1,4.9-10.3,9.9-12.3c3-1,6.8-2.6,10.7-2.2c0.3,0,0.6,0.1,0.8,0.1
				c4.1,0.7,8.3,3.7,11.5,12.1C153.2,166,151.6,171.4,152.3,174.4z"/>
			<path class="st20" d="M153.3,178.5c-10.6,6.5-8.7-8.9-8.7-8.9s-2.7,1-3.2,2.5c-1.4,0.6-2.3,0.9-3.5,1.4
				c-5.7-14.2-3.8-18-18.5-9.1c0-7.1,5.4-14.5,10.9-14.9c9-0.7,17.6-0.7,21.3,7.5C153.7,161.8,155.1,164.4,153.3,178.5z"/>
			<path class="st3" d="M146.9,170c0.9,2.7-0.3,6.5-2,7.1c-1.7,0.6-2.3-1.6-3.2-4.3c-0.6-1.8-1.9-4.1-0.2-5.3
				C142.9,166.5,145.5,166.1,146.9,170z"/>
		</g>
		<path class="st21" d="M171.3,195.1c-3.9-3.1-7.8-3.6-11.5-2.8c-1.6,0.4-3,0.9-4.4,1.7c-3.6,2-6.3,5.4-8,10.1
			c-1.7,4.8-2.3,10.7-2.7,16c0,0.1,0,0.2,0,0.3c-0.1,0.7-0.1,1.5-0.2,2.2c-1.7,0.3-3.4,0.7-5.1,1.1v0c0-0.1,0-0.1,0-0.2
			c-1.4-8.6,0.4-17.1,1.7-21.5c0.6-2,1-3.2,1-3.2c0,0,0,0,0,0c1.4-0.3,4-2.1,6.8-4.6c3.1-2.8,6.4-6.5,8.2-9.7c0,0,0,0,0,0
			s0.1,0,0.1,0.1c0.5,0.2,2,0.8,2.7,1.2c4,2,7.7,5,11.2,9C171.1,195,171.2,195.1,171.3,195.1z"/>
		<path class="st15" d="M119.2,167.9l13.6-2.4c0,0,0,0,0,0l13.3-2.3l0.4-0.1l0.6-0.1l6.4-1.1l-2-6.4c-1.8-4.9-7.5-8.5-12.7-8.1
			l-8.3,0.6c-7.4,0.6-12.1,7.4-11.7,14.7c0,0.2,0,0.4,0,0.7l0.2,1.7L119.2,167.9z"/>
		<path class="st22" d="M141.6,149.2c3.9,0.6,7.9,3.4,9.1,7l1.4,4.4l-22.5,3.9C136.4,160.7,142.6,155.8,141.6,149.2z"/>
		<path class="st2" d="M119.9,164l0-0.3l0-0.7c-0.3-5.4,2.4-10.5,6.7-12.7c1.2-0.6,2.6-1,4-1.1l5.9-0.4c-7.2,2.6-12,8.3-14.1,15.1
			C121.5,163.9,120.7,163.9,119.9,164z"/>
		<path class="st23" d="M105.5,170.4c2.1,2,4.7,2.3,8.1,1.6c2.1-0.4,4.6-1.2,7.4-2.1c3-1,11.4-4.2,11.8-4.3
			c-4.5-0.8-8.8-1.2-13.8-0.5c0,0-2.9,1-6,2.2C109.3,168.7,105.4,170.2,105.5,170.4z"/>
		<path class="st24" d="M121.8,175.6l-0.1,1c8.9-3.3,16.9-9,25.3-13.6l-0.6,0.1l-0.3,0.2c0,0-0.1-0.1-0.1-0.1l-13.3,2.3c0,0,0,0,0,0
			c-0.4,0.2-8.8,3.4-11.8,4.3c-0.5,0.2-1,0.3-1.5,0.5c0.2,1.1,0.5,2.3,0.8,3.5C121.1,174.9,121.8,175.6,121.8,175.6z"/>
		<path class="st25" d="M150.9,161.1l-4.4,2.1l0.6-0.1C148.3,162.4,149.6,161.7,150.9,161.1z"/>
		<path class="st20" d="M139.1,194c-2.4,6.8-14.2,4.2-11.8-4.1c0.2-0.9-0.6-2.2-1-3.5v0c-0.9,0.1-1.6-2.3-0.8-2.8
			c0.3-0.2,0.6-0.3,1-0.4c1.3-0.3,2.7-0.6,4-0.5c1.4,0.1,2.7,0.4,3.8,1.3c1.4,1,2.2,2.7,2.9,4.3c0.7,1.7,1.4,3.4,1.8,5.2
			C139,193.6,139.1,193.8,139.1,194z"/>
		<path class="st3" d="M133.6,188.9c0,0.9-0.7,2-1.6,2.2c-0.9,0.3-2.1,0.3-2.7-0.4c-0.3-0.4-0.3-1.2-0.8-1.2c-0.2,0-0.9,0.2-1.2,0.4
			c-0.2-0.9-0.6-2.2-1-3.5v0c0.3-0.1,0.5-0.1,0.8-0.2c1-0.2,1.9-0.4,2.9-0.3c1,0,2,0.3,2.7,0.9C133.4,187.3,133.6,188,133.6,188.9z"
			/>
		<path class="st2" d="M262.4,351.7l-3.1,0.8l-0.2-0.7l-2.4,0.6c-0.1,0-0.3,0.1-0.4,0.1c-0.1,0-0.2,0.1-0.3,0.1
			c-0.4,0.1-0.9,0.1-1.3,0.1h-0.4c-0.4,0-0.8-0.1-1.2-0.1c-0.2,0-0.4-0.1-0.7-0.1c-0.1,0-0.3-0.1-0.4-0.1c-0.3-0.1-0.6-0.2-0.9-0.3
			c-0.1,0-0.1,0-0.2-0.1c0,0,0,0,0,0c0,0-0.1,0-0.1,0c-0.2-0.1-0.4-0.2-0.6-0.3c-0.2-0.1-0.4-0.3-0.7-0.4c-0.1,0-0.1-0.1-0.2-0.1
			c-0.2-0.1-0.4-0.3-0.6-0.4l0,0c-0.2-0.1-0.3-0.3-0.5-0.4c-0.1-0.1-0.2-0.1-0.3-0.2c-1.1-1.1-1.9-2.5-2.3-4.1l-0.8-3l-0.1-0.5
			c-0.1-0.4-0.2-0.7-0.4-1.1c-0.2,0-0.5-0.1-0.6-0.3v0c-0.1-0.1-0.1-0.3-0.1-0.5v0c0-0.1,0-0.1,0.1-0.1c0,0,0.1-0.1,0.1-0.1
			c0,0,0,0,0,0v0c-0.2-0.3-0.4-0.6-0.6-0.9c-0.2,0.1-0.5,0.1-0.7,0l0,0c-0.3-0.2-0.3-0.6-0.1-0.9c-0.1-0.1-0.2-0.2-0.3-0.2
			c0,0,0,0,0,0c-0.9,1.7-2.4,3-4.4,3.4l-7.3,1.7l-11,2.6l-1.7,0.4l-5.3,1.2l-2.3,0.5l-10.8,2.5l-12.1,2.8l-1.3,0.3l-1.4,0.3
			c-0.3,0.1-0.5,0.1-0.8,0.2c-3.5,0.6-6.9-0.2-9.7-2c-1.2-0.8-2.3-1.8-3.2-2.9c0,0,0,0,0-0.1c-0.1-0.2-0.3-0.4-0.4-0.6
			c-0.1-0.2-0.3-0.3-0.4-0.5c-0.1-0.1-0.1-0.2-0.2-0.2c-0.1-0.2-0.2-0.4-0.3-0.5c-0.1-0.2-0.2-0.4-0.3-0.6c0,0,0-0.1-0.1-0.1
			c-0.1-0.2-0.2-0.4-0.3-0.6c-0.1-0.2-0.1-0.4-0.2-0.5c0-0.1,0-0.1-0.1-0.2c-0.1-0.2-0.2-0.5-0.2-0.7c-0.1-0.3-0.2-0.6-0.2-0.9
			c-0.1-0.3-0.1-0.6-0.2-0.9c0-0.2-0.1-0.4-0.1-0.6c0-0.1,0-0.3-0.1-0.4c-0.1-0.9,0-1.8,0.1-2.7l0-1.4l0-4.8l-0.3-29.8l-0.1-5.9
			l0-1.2l0-3.8c0.6,1,1.2,2.3,1.6,3.8c0.6,2,1.1,4.5,1.4,7.1c1.1,8.2,1.2,18.8,2,27.3c0.4,3.5,0.8,6.8,1.6,9.4
			c0.4,1.3,0.8,2.4,1.3,3.3c0.3,0.6,0.7,1.1,1.1,1.5c0.6,0.6,1.2,1.2,1.9,1.6c2.2,1.5,4.8,1.8,7.7,1.6c2.4-0.1,4.9-0.7,7.6-1.4
			c3.5-0.9,7.2-2,10.8-2.6c8.2-1.5,22.7-5.2,31.4-7.4c0.3-0.1,0.6-0.2,1-0.2c0.1,0,0.2,0,0.2-0.1c0.4-0.1,0.8-0.2,1.1-0.3
			c0.5-0.1,0.9-0.2,1.3-0.3c0.6-0.1,1.2-0.3,1.6-0.4c0.2-0.1,0.4-0.1,0.6-0.1c0.6-0.1,1-0.2,1.1-0.2c0,0,0,0,0,0
			c3.2-0.5,4.4,1.6,5,2.7c0,0,0,0,0,0c0.1,0.2,0.3,0.4,0.4,0.5c2.6,2.2,5.6,2.4,7.8,2.2c0.2,0,0.3,0,0.5-0.1c0,0,0.1,0,0.1,0
			c1.3-0.2,2.2-0.5,2.5-0.6L262.4,351.7z"/>
	</g>
	<linearGradient id="SVGID_1_" gradientUnits="userSpaceOnUse" x1="93.0185" y1="218.046" x2="27.9588" y2="290.6624">
		<stop  offset="0" style="stop-color:#FFFFFF"/>
		<stop  offset="4.089499e-02" style="stop-color:#E1E1E1"/>
		<stop  offset="0.1211" style="stop-color:#ADADAD"/>
		<stop  offset="0.2048" style="stop-color:#7F7F7F"/>
		<stop  offset="0.2902" style="stop-color:#585858"/>
		<stop  offset="0.3778" style="stop-color:#383838"/>
		<stop  offset="0.4683" style="stop-color:#1F1F1F"/>
		<stop  offset="0.5629" style="stop-color:#0E0E0E"/>
		<stop  offset="0.6643" style="stop-color:#030303"/>
		<stop  offset="0.7845" style="stop-color:#000000"/>
	</linearGradient>
	<polygon class="st26" points="58,328.5 2.9,247.3 70.8,204.1 83.6,213.8 	"/>
</g>
<g>
	<path class="st27" d="M146.5,394c0,7.9-34.9,14.2-77.9,14.2c-28.8,0-53.9-2.8-67.4-7.1v-14.3c10-3.1,26.4-5.5,45.9-6.5
		c6.8-0.4,14-0.6,21.5-0.6c20.1,0,38.4,1.4,52.2,3.7C136.6,386,146.5,389.8,146.5,394z"/>
	<path class="st28" d="M134.5,389.2c-19.4,12.1-67.3,12.6-120.4,10.9c12.5,2.1,30.1,3.7,52.3,3.7c46.9,0,73.2-7.2,74.7-10.9
		C140.8,391.8,138.5,390.5,134.5,389.2z"/>
	<ellipse class="st27" cx="89.4" cy="377.6" rx="44.8" ry="8.2"/>
	<path class="st27" d="M102.1,367.4c0,3.6-16.1,6.6-36,6.6c-19.9,0-36-2.9-36-6.6c0-3.6,16.1-6.6,36-6.6
		C85.9,360.8,102.1,363.8,102.1,367.4z"/>
	<path class="st27" d="M51.3,355.8c0,1.7-7.7,3.1-17.1,3.1s-17.1-1.4-17.1-3.1c0-1.7,7.7-3.1,17.1-3.1S51.3,354.1,51.3,355.8z"/>
	<path class="st27" d="M16.8,372.5c0,0.9-4,1.6-8.9,1.6c-2.6,0-5-0.2-6.6-0.5v-2.2c1.6-0.3,4-0.5,6.6-0.5
		C12.8,370.9,16.8,371.6,16.8,372.5z"/>
</g>
<g>
	<path class="st29" d="M451.2,355.3v9.7H1.2v-9.7h94.9c-2.7-0.7-4.2-1.4-4.2-2.1c0-3.8,40.9-6.9,91.4-6.9s91.4,3.1,91.4,6.9
		c0,0.7-1.5,1.4-4.2,2.1h137.4c0,0,0,0,0,0H451.2z"/>
	<path class="st29" d="M451.2,412.4v9.7h-59.3c-2.6,0-4.6-2.2-4.6-4.8c0-1.3,0.5-2.6,1.3-3.4c0.8-0.9,2-1.4,3.3-1.4H451.2z"/>
	<path class="st29" d="M451.2,397.6v9.7H339.9c-2.6,0-4.6-2.2-4.6-4.8c0-1.3,0.5-2.5,1.4-3.4c0.8-0.9,2-1.4,3.3-1.4H451.2z"/>
</g>
<polygon class="st2" points="143.9,295.7 145.1,302.9 117.1,302.9 116.1,296.2 116.1,295.7 "/>
<polygon class="st2" points="200,295.7 199.9,297.7 199.6,300.9 199.5,301.1 199.4,302.9 167.7,302.9 167.7,297 167.7,295.7 "/>
<path class="st25" d="M266.2,161.1l4.9-0.1l-0.5,0.2C269,161.1,267.6,161,266.2,161.1z"/>
<g>
	<g>
		<ellipse class="st29" cx="158.8" cy="428.4" rx="20" ry="3"/>
		<g>
			<g>
				<path class="st30" d="M143.2,416.2h31.2c0.3,0.3,0.5,0.5,0.8,0.8v10.3c-0.3,0.3-0.5,0.5-0.8,0.8h-31.2c-0.3-0.3-0.5-0.5-0.8-0.8
					V417C142.7,416.7,142.9,416.5,143.2,416.2z"/>
				<polygon class="st31" points="143.1,424.8 143.1,427 143.5,427.4 174.1,427.4 174.5,427 174.5,424.8 				"/>
				<path class="st32" d="M164.7,406.1v10.1c-2.4,5.1-9.7,5.2-11.9,0v-10.1c0.3-0.3,0.5-0.5,0.8-0.8h10.3
					C164.3,405.6,164.4,405.8,164.7,406.1z"/>
				<g>
					<path class="st33" d="M166.3,407.7v4.7c-0.2,0.2-0.3,0.6-0.5,0.8h-13.9c-0.2-0.2-0.3-0.6-0.5-0.8v-4.7c0.2-0.2,0.3-0.6,0.5-0.8
						h13.9C165.9,407.1,166.1,407.5,166.3,407.7z"/>
					<path class="st32" d="M155.3,412.3c-1.3,0.6-2.6,0.7-3.9,0v-4.4c1.3-0.7,2.6-0.6,3.9,0V412.3z"/>
					<path class="st34" d="M154.6,408.7v-0.4c-0.5-0.2-0.9-0.3-1.4-0.3c-0.4,0-0.8,0.1-1.2,0.2v1.8
						C152.7,409.3,153.4,408.7,154.6,408.7z"/>
					<path class="st32" d="M162.3,412.3c1.3,0.6,2.6,0.7,3.9,0v-4.4c-1.3-0.7-2.6-0.6-3.9,0V412.3z"/>
					<path class="st34" d="M165.6,408.8v-0.4c-0.4-0.2-0.8-0.2-1.2-0.2c-0.4,0-0.9,0.1-1.4,0.3v1.6
						C163.6,409.2,164.5,408.7,165.6,408.8z"/>
					<path class="st35" d="M155.3,412.3c1.3,0.6,5.8,0.7,7.1,0v-4.4c-1.3-0.7-5.7-0.6-7.1,0V412.3z"/>
					<path class="st34" d="M161.7,408.9v-0.6c-0.5-0.2-1.5-0.3-2.7-0.3c-1.2,0-2.3,0.1-3,0.3v2.8
						C157.5,409.7,159.4,408.9,161.7,408.9z"/>
				</g>
				<g>
					<g>
						<path class="st33" d="M145.9,414.7h4.7c0.2,0.2,0.6,0.3,0.8,0.5v13.9c-0.2,0.2-0.6,0.3-0.8,0.5h-4.7c-0.2-0.2-0.6-0.3-0.8-0.5
							v-13.9C145.3,415,145.7,414.9,145.9,414.7z"/>
						<path class="st32" d="M150.4,425.7c0.6,1.3,0.7,2.6,0,3.9h-4.2c-0.7-1.3-0.6-2.6,0-3.9H150.4z"/>
						<path class="st32" d="M150.4,418.6c0.6-1.3,0.7-2.6,0-3.9h-4.2c-0.7,1.3-0.6,2.6,0,3.9H150.4z"/>
						<path class="st21" d="M150.1,416c0-0.3-0.1-0.3-0.2-0.6h-3.3c-0.2,0.3-0.3,0.8-0.3,1.3C147.3,416.1,148.7,415.8,150.1,416z"/>
						<path class="st35" d="M150.4,425.7c0.6-1.3,0.7-5.8,0-7.1h-4.2c-0.7,1.3-0.6,5.7,0,7.1H150.4z"/>
						<path class="st34" d="M150.1,420.3c0-0.4-0.1-0.7-0.2-1h-3.3c-0.2,0.6-0.3,1.6-0.3,3C147.4,420.9,148.7,420.2,150.1,420.3z"/>
					</g>
					<g>
						<path class="st33" d="M166.9,414.7h4.7c0.2,0.2,0.6,0.3,0.8,0.5v13.9c-0.2,0.2-0.6,0.3-0.8,0.5h-4.7c-0.2-0.2-0.6-0.3-0.8-0.5
							v-13.9C166.3,415,166.7,414.9,166.9,414.7z"/>
						<path class="st32" d="M171.3,425.7c0.6,1.3,0.7,2.6,0,3.9h-4.1c-0.7-1.3-0.6-2.6,0-3.9H171.3z"/>
						<path class="st32" d="M171.3,418.6c0.6-1.3,0.7-2.6,0-3.9h-4.1c-0.7,1.3-0.6,2.6,0,3.9H171.3z"/>
						<path class="st35" d="M171.3,425.7c0.6-1.3,0.7-5.8,0-7.1h-4.1c-0.7,1.3-0.6,5.7,0,7.1H171.3z"/>
					</g>
				</g>
			</g>
			<path class="st34" d="M171.2,420.3c0-0.4-0.1-0.7-0.2-1h-3.3c-0.2,0.6-0.3,1.6-0.3,3C168.4,420.9,169.8,420.2,171.2,420.3z"/>
			<path class="st34" d="M150.1,416c0-0.3-0.1-0.3-0.2-0.6h-3.3c-0.2,0.3-0.3,0.8-0.3,1.3C147.3,416.1,148.7,415.8,150.1,416z"/>
			<path class="st34" d="M171.2,416c0-0.3-0.1-0.3-0.2-0.6h-3.3c-0.2,0.3-0.3,0.8-0.3,1.3C168.4,416.1,169.7,415.8,171.2,416z"/>
		</g>
	</g>
	<g>
		<ellipse class="st29" cx="204.4" cy="390.4" rx="41.4" ry="4.3"/>
		<g>
			<g>
				<path class="st36" d="M171.9,378.9L171.9,378.9L171.9,378.9c-0.6,0-1.2,0.1-1.8,0.3c-2.3,0.8-4.2,2.9-3.2,6.4l1.2,5.4
					c0.2,0.9,0.9,1.5,1.8,1.5l0.7,0l0.4-7.9l6-0.4l6.6,0.3l0.2-4.1l-11.2-1.4C172.4,378.9,172.1,378.9,171.9,378.9z"/>
				<path class="st37" d="M182.7,383.4l-5.8-0.3l-6.9,0.6l-0.4,7.6c-0.3-0.1-0.5-0.4-0.6-0.7l-1.2-5.4l0,0c-0.2-0.6-0.3-1.2-0.2-1.8
					c0.1-2.3,2-3.1,2.7-3.4c0.5-0.2,0.9-0.2,1.4-0.2l0.1,0c0.2,0,0.4,0,0.6,0.1l0,0l10.3,1.3L182.7,383.4z"/>
				<path class="st36" d="M170.7,391.8c-0.2,0-0.3,0.1-0.3,0.3c0,0.2,0.1,0.3,0.3,0.3s0.3-0.1,0.3-0.3
					C171,392,170.8,391.8,170.7,391.8z"/>
				<path class="st36" d="M170.7,391.2c-0.2,0-0.3,0.1-0.3,0.3c0,0.2,0.1,0.3,0.3,0.3c0.2,0,0.3-0.1,0.3-0.3
					C171,391.4,170.9,391.2,170.7,391.2z"/>
				<path class="st36" d="M170.7,390.6c-0.2,0-0.3,0.1-0.3,0.3c0,0.2,0.1,0.3,0.3,0.3c0.2,0,0.3-0.1,0.3-0.3
					S170.9,390.6,170.7,390.6z"/>
				<path class="st36" d="M170.8,390c-0.2,0-0.3,0.1-0.3,0.3c0,0.2,0.1,0.3,0.3,0.3c0.2,0,0.3-0.1,0.3-0.3
					C171.1,390.1,170.9,390,170.8,390z"/>
				<path class="st36" d="M170.8,389.4c-0.2,0-0.3,0.1-0.3,0.3c0,0.2,0.1,0.3,0.3,0.3c0.2,0,0.3-0.1,0.3-0.3
					C171.1,389.5,171,389.4,170.8,389.4z"/>
				<path class="st36" d="M170.8,388.7c-0.2,0-0.3,0.1-0.3,0.3c0,0.2,0.1,0.3,0.3,0.3c0.2,0,0.3-0.1,0.3-0.3
					C171.1,388.9,171,388.7,170.8,388.7z"/>
				<path class="st36" d="M170.8,388.1c-0.2,0-0.3,0.1-0.3,0.3c0,0.2,0.1,0.3,0.3,0.3c0.2,0,0.3-0.1,0.3-0.3
					C171.1,388.3,171,388.1,170.8,388.1z"/>
				<path class="st36" d="M170.9,387.5c-0.2,0-0.3,0.1-0.3,0.3c0,0.2,0.1,0.3,0.3,0.3c0.2,0,0.3-0.1,0.3-0.3
					C171.2,387.7,171,387.5,170.9,387.5z"/>
				<path class="st36" d="M170.9,386.9c-0.2,0-0.3,0.1-0.3,0.3c0,0.2,0.1,0.3,0.3,0.3c0.2,0,0.3-0.1,0.3-0.3
					C171.2,387,171.1,386.9,170.9,386.9z"/>
				<path class="st36" d="M170.9,386.3c-0.2,0-0.3,0.1-0.3,0.3c0,0.2,0.1,0.3,0.3,0.3c0.2,0,0.3-0.1,0.3-0.3
					C171.2,386.4,171.1,386.3,170.9,386.3z"/>
				<path class="st36" d="M171,385.7c-0.2,0-0.3,0.1-0.3,0.3c0,0.2,0.1,0.3,0.3,0.3c0.2,0,0.3-0.1,0.3-0.3
					C171.3,385.8,171.1,385.7,171,385.7z"/>
				<path class="st36" d="M171,385c-0.2,0-0.3,0.1-0.3,0.3c0,0.2,0.1,0.3,0.3,0.3c0.2,0,0.3-0.1,0.3-0.3
					C171.3,385.2,171.2,385.1,171,385z"/>
			</g>
			<path class="st36" d="M183.5,387.9l3.3,1.9c0.6,0.3,1.2,0.5,1.9,0.5l19.9-0.4l0.2-4.3l-20.6-1.1l-4.5-1.2L183.5,387.9z"/>
			<path class="st38" d="M238.8,386.2c0.6,0,1.1-0.4,1.2-1.1l0,0c0-0.6-0.4-1.1-1-1.2l-31.1-2.6l-0.2,3.5L238.8,386.2z"/>
			<path class="st39" d="M183.3,380.6l-3.3,4l-0.4,7.2l2.1-0.6c1-0.3,2-0.9,2.7-1.7l4.5-5.4l18.7,0.8l0.2-3.5l-21.8-1.8
				C185,379.4,184,379.8,183.3,380.6z"/>
			<g>
				<path class="st36" d="M179.6,391.7l0.4-7.2l-2.6-0.1l-0.4,7.9l0.8,0C178.5,392.4,179.2,392.2,179.6,391.7z"/>
				<path class="st36" d="M177.1,391.8c-0.2,0-0.3,0.1-0.3,0.3c0,0.2,0.1,0.3,0.3,0.3c0.2,0,0.3-0.1,0.3-0.3
					C177.4,391.9,177.2,391.8,177.1,391.8z"/>
				<path class="st36" d="M177.1,391.1c-0.2,0-0.3,0.1-0.3,0.3c0,0.2,0.1,0.3,0.3,0.3c0.2,0,0.3-0.1,0.3-0.3
					C177.4,391.3,177.3,391.1,177.1,391.1z"/>
				<path class="st36" d="M177.1,390.5c-0.2,0-0.3,0.1-0.3,0.3c0,0.2,0.1,0.3,0.3,0.3c0.2,0,0.3-0.1,0.3-0.3
					C177.4,390.7,177.3,390.5,177.1,390.5z"/>
				<path class="st36" d="M177.2,389.9c-0.2,0-0.3,0.1-0.3,0.3c0,0.2,0.1,0.3,0.3,0.3c0.2,0,0.3-0.1,0.3-0.3
					C177.5,390.1,177.3,389.9,177.2,389.9z"/>
				<path class="st36" d="M177.2,389.3c-0.2,0-0.3,0.1-0.3,0.3c0,0.2,0.1,0.3,0.3,0.3c0.2,0,0.3-0.1,0.3-0.3
					C177.5,389.4,177.4,389.3,177.2,389.3z"/>
				<path class="st36" d="M177.2,388.7c-0.2,0-0.3,0.1-0.3,0.3c0,0.2,0.1,0.3,0.3,0.3c0.2,0,0.3-0.1,0.3-0.3
					C177.5,388.8,177.4,388.7,177.2,388.7z"/>
				<path class="st36" d="M177.3,388.1c-0.2,0-0.3,0.1-0.3,0.3c0,0.2,0.1,0.3,0.3,0.3c0.2,0,0.3-0.1,0.3-0.3
					C177.6,388.2,177.4,388.1,177.3,388.1z"/>
				<path class="st36" d="M177.3,387.4c-0.2,0-0.3,0.1-0.3,0.3c0,0.2,0.1,0.3,0.3,0.3c0.2,0,0.3-0.1,0.3-0.3
					C177.6,387.6,177.5,387.4,177.3,387.4z"/>
				<path class="st36" d="M177.3,386.8c-0.2,0-0.3,0.1-0.3,0.3c0,0.2,0.1,0.3,0.3,0.3c0.2,0,0.3-0.1,0.3-0.3
					C177.6,387,177.5,386.8,177.3,386.8z"/>
				<path class="st36" d="M177.4,386.2c-0.2,0-0.3,0.1-0.3,0.3c0,0.2,0.1,0.3,0.3,0.3c0.2,0,0.3-0.1,0.3-0.3
					C177.7,386.4,177.5,386.2,177.4,386.2z"/>
				<path class="st36" d="M177.4,385.6c-0.2,0-0.3,0.1-0.3,0.3c0,0.2,0.1,0.3,0.3,0.3c0.2,0,0.3-0.1,0.3-0.3
					C177.7,385.7,177.6,385.6,177.4,385.6z"/>
				<path class="st36" d="M177.4,385c-0.2,0-0.3,0.1-0.3,0.3c0,0.2,0.1,0.3,0.3,0.3c0.2,0,0.3-0.1,0.3-0.3
					C177.7,385.1,177.6,385,177.4,385z"/>
			</g>
			<path class="st40" d="M180.9,389.3c0.3,0,0.5,0.3,0.5,0.6c0,0.3-0.3,0.5-0.6,0.5c-0.3,0-0.5-0.3-0.5-0.6
				C180.4,389.5,180.6,389.3,180.9,389.3z"/>
			<path class="st40" d="M181.1,385.5c0.3,0,0.5,0.3,0.5,0.6c0,0.3-0.3,0.5-0.6,0.5c-0.3,0-0.5-0.3-0.5-0.6
				C180.6,385.7,180.8,385.5,181.1,385.5z"/>
			<path class="st40" d="M184.2,383.6c0.7,0,1.2,0.6,1.1,1.3c0,0.7-0.6,1.2-1.3,1.1c-0.7,0-1.2-0.6-1.1-1.3
				C183,384.1,183.5,383.6,184.2,383.6z"/>
			<g>
				<path class="st36" d="M238.5,387.9c0.8,0,1.3,0.7,1.3,1.4l0,0c0,0.8-0.7,1.3-1.4,1.3l-28.4-1.5c-0.8,0-1.3-0.7-1.3-1.4l0,0
					c0-0.8,0.7-1.3,1.4-1.3L238.5,387.9z"/>
				<path class="st39" d="M211.1,386.3c0.1,0,0.2,0.1,0.2,0.2l0.2,2.6c0,0.1-0.1,0.2-0.2,0.2l0,0c-0.1,0-0.2-0.1-0.2-0.2l-0.2-2.6
					C210.9,386.4,211,386.3,211.1,386.3L211.1,386.3z"/>
				<path class="st39" d="M211.9,386.3c0.1,0,0.2,0.1,0.2,0.2l0.2,2.6c0,0.1-0.1,0.2-0.2,0.2l0,0c-0.1,0-0.2-0.1-0.2-0.2l-0.2-2.6
					C211.7,386.4,211.8,386.3,211.9,386.3L211.9,386.3z"/>
				<path class="st39" d="M212.6,386.4c0.1,0,0.2,0.1,0.2,0.2l0.2,2.6c0,0.1-0.1,0.2-0.2,0.2l0,0c-0.1,0-0.2-0.1-0.2-0.2l-0.2-2.6
					C212.4,386.5,212.5,386.4,212.6,386.4L212.6,386.4z"/>
				<path class="st39" d="M213.4,386.4c0.1,0,0.2,0.1,0.2,0.2l0.2,2.6c0,0.1-0.1,0.2-0.2,0.2l0,0c-0.1,0-0.2-0.1-0.2-0.2l-0.2-2.6
					C213.2,386.5,213.3,386.4,213.4,386.4L213.4,386.4z"/>
				<path class="st39" d="M214.2,386.5c0.1,0,0.2,0.1,0.2,0.2l0.2,2.6c0,0.1-0.1,0.2-0.2,0.2l0,0c-0.1,0-0.2-0.1-0.2-0.2l-0.2-2.6
					C213.9,386.6,214,386.5,214.2,386.5L214.2,386.5z"/>
				<path class="st39" d="M214.9,386.5c0.1,0,0.2,0.1,0.2,0.2l0.2,2.6c0,0.1-0.1,0.2-0.2,0.2l0,0c-0.1,0-0.2-0.1-0.2-0.2l-0.2-2.6
					C214.7,386.6,214.8,386.5,214.9,386.5L214.9,386.5z"/>
				<path class="st39" d="M215.7,386.5c0.1,0,0.2,0.1,0.2,0.2l0.2,2.6c0,0.1-0.1,0.2-0.2,0.2l0,0c-0.1,0-0.2-0.1-0.2-0.2l-0.2-2.6
					C215.4,386.6,215.5,386.5,215.7,386.5L215.7,386.5z"/>
				<path class="st39" d="M216.4,386.6c0.1,0,0.2,0.1,0.2,0.2l0.2,2.6c0,0.1-0.1,0.2-0.2,0.2l0,0c-0.1,0-0.2-0.1-0.2-0.2l-0.2-2.6
					C216.2,386.7,216.3,386.6,216.4,386.6L216.4,386.6z"/>
				<path class="st39" d="M217.2,386.6c0.1,0,0.2,0.1,0.2,0.2l0.2,2.6c0,0.1-0.1,0.2-0.2,0.2l0,0c-0.1,0-0.2-0.1-0.2-0.2l-0.2-2.6
					C217,386.7,217.1,386.6,217.2,386.6L217.2,386.6z"/>
				<path class="st39" d="M217.9,386.7c0.1,0,0.2,0.1,0.2,0.2l0.2,2.6c0,0.1-0.1,0.2-0.2,0.2l0,0c-0.1,0-0.2-0.1-0.2-0.2l-0.2-2.6
					C217.7,386.8,217.8,386.7,217.9,386.7L217.9,386.7z"/>
				<path class="st39" d="M218.7,386.7c0.1,0,0.2,0.1,0.2,0.2l0.2,2.6c0,0.1-0.1,0.2-0.2,0.2l0,0c-0.1,0-0.2-0.1-0.2-0.2l-0.2-2.6
					C218.5,386.8,218.6,386.7,218.7,386.7L218.7,386.7z"/>
				<path class="st39" d="M219.5,386.7c0.1,0,0.2,0.1,0.2,0.2l0.2,2.6c0,0.1-0.1,0.2-0.2,0.2l0,0c-0.1,0-0.2-0.1-0.2-0.2l-0.2-2.6
					C219.2,386.8,219.3,386.7,219.5,386.7L219.5,386.7z"/>
				<path class="st39" d="M220.2,386.8c0.1,0,0.2,0.1,0.2,0.2l0.2,2.6c0,0.1-0.1,0.2-0.2,0.2l0,0c-0.1,0-0.2-0.1-0.2-0.2L220,387
					C220,386.9,220.1,386.8,220.2,386.8L220.2,386.8z"/>
				<path class="st39" d="M221,386.8c0.1,0,0.2,0.1,0.2,0.2l0.2,2.6c0,0.1-0.1,0.2-0.2,0.2l0,0c-0.1,0-0.2-0.1-0.2-0.2l-0.2-2.6
					C220.7,386.9,220.8,386.8,221,386.8L221,386.8z"/>
				<path class="st39" d="M221.7,386.9c0.1,0,0.2,0.1,0.2,0.2l0.2,2.6c0,0.1-0.1,0.2-0.2,0.2l0,0c-0.1,0-0.2-0.1-0.2-0.2l-0.2-2.6
					C221.5,386.9,221.6,386.8,221.7,386.9L221.7,386.9z"/>
				<path class="st39" d="M222.5,386.9c0.1,0,0.2,0.1,0.2,0.2l0.2,2.6c0,0.1-0.1,0.2-0.2,0.2l0,0c-0.1,0-0.2-0.1-0.2-0.2l-0.2-2.6
					C222.3,387,222.4,386.9,222.5,386.9L222.5,386.9z"/>
				<path class="st39" d="M223.2,386.9c0.1,0,0.2,0.1,0.2,0.2l0.2,2.6c0,0.1-0.1,0.2-0.2,0.2l0,0c-0.1,0-0.2-0.1-0.2-0.2l-0.2-2.6
					C223,387,223.1,386.9,223.2,386.9L223.2,386.9z"/>
				<path class="st39" d="M224,387c0.1,0,0.2,0.1,0.2,0.2l0.2,2.6c0,0.1-0.1,0.2-0.2,0.2l0,0c-0.1,0-0.2-0.1-0.2-0.2l-0.2-2.6
					C223.8,387.1,223.9,387,224,387L224,387z"/>
				<path class="st39" d="M224.8,387c0.1,0,0.2,0.1,0.2,0.2l0.2,2.6c0,0.1-0.1,0.2-0.2,0.2l0,0c-0.1,0-0.2-0.1-0.2-0.2l-0.2-2.6
					C224.5,387.1,224.6,387,224.8,387L224.8,387z"/>
			</g>
			<g>
				<path class="st41" d="M211.1,385.7l-0.2,4.5c0,0.1-0.1,0.3-0.3,0.2l-1.8-0.1c-0.1,0-0.3-0.1-0.2-0.3l0.2-4.5
					c0-0.1,0.1-0.3,0.3-0.2l1.8,0.1C211,385.4,211.1,385.5,211.1,385.7z"/>
				<g>
					<path class="st40" d="M210.5,389.9c0.1,0,0.1,0.1,0.1,0.2l0,0c0,0.1-0.1,0.1-0.2,0.1l-1.6-0.1c-0.1,0-0.1-0.1-0.1-0.2l0,0
						c0-0.1,0.1-0.1,0.2-0.1L210.5,389.9z"/>
					<path class="st40" d="M210.5,389.4c0.1,0,0.1,0.1,0.1,0.2l0,0c0,0.1-0.1,0.1-0.2,0.1l-1.6-0.1c-0.1,0-0.1-0.1-0.1-0.2l0,0
						c0-0.1,0.1-0.1,0.2-0.1L210.5,389.4z"/>
					<path class="st40" d="M210.6,389c0.1,0,0.1,0.1,0.1,0.2l0,0c0,0.1-0.1,0.1-0.2,0.1l-1.6-0.1c-0.1,0-0.1-0.1-0.1-0.2l0,0
						c0-0.1,0.1-0.1,0.2-0.1L210.6,389z"/>
					<path class="st40" d="M210.6,388.6c0.1,0,0.1,0.1,0.1,0.2l0,0c0,0.1-0.1,0.1-0.2,0.1l-1.6-0.1c-0.1,0-0.1-0.1-0.1-0.2l0,0
						c0-0.1,0.1-0.1,0.2-0.1L210.6,388.6z"/>
					<path class="st40" d="M210.6,388.1c0.1,0,0.1,0.1,0.1,0.2l0,0c0,0.1-0.1,0.1-0.2,0.1l-1.6-0.1c-0.1,0-0.1-0.1-0.1-0.2l0,0
						c0-0.1,0.1-0.1,0.2-0.1L210.6,388.1z"/>
					<path class="st40" d="M210.6,387.7c0.1,0,0.1,0.1,0.1,0.2l0,0c0,0.1-0.1,0.1-0.2,0.1l-1.6-0.1c-0.1,0-0.1-0.1-0.1-0.2l0,0
						c0-0.1,0.1-0.1,0.2-0.1L210.6,387.7z"/>
					<path class="st40" d="M210.6,387.3c0.1,0,0.1,0.1,0.1,0.2l0,0c0,0.1-0.1,0.1-0.2,0.1l-1.6-0.1c-0.1,0-0.1-0.1-0.1-0.2l0,0
						c0-0.1,0.1-0.1,0.2-0.1L210.6,387.3z"/>
					<path class="st40" d="M210.7,386.9c0.1,0,0.1,0.1,0.1,0.2l0,0c0,0.1-0.1,0.1-0.2,0.1l-1.6-0.1c-0.1,0-0.1-0.1-0.1-0.2l0,0
						c0-0.1,0.1-0.1,0.2-0.1L210.7,386.9z"/>
					<path class="st40" d="M210.7,386.4c0.1,0,0.1,0.1,0.1,0.2l0,0c0,0.1-0.1,0.1-0.2,0.1l-1.6-0.1c-0.1,0-0.1-0.1-0.1-0.2l0,0
						c0-0.1,0.1-0.1,0.2-0.1L210.7,386.4z"/>
					<path class="st40" d="M210.7,386c0.1,0,0.1,0.1,0.1,0.2l0,0c0,0.1-0.1,0.1-0.2,0.1l-1.6-0.1c-0.1,0-0.1-0.1-0.1-0.2l0,0
						c0-0.1,0.1-0.1,0.2-0.1L210.7,386z"/>
					<path class="st40" d="M210.7,385.6c0.1,0,0.1,0.1,0.1,0.2l0,0c0,0.1-0.1,0.1-0.2,0.1l-1.6-0.1c-0.1,0-0.1-0.1-0.1-0.2l0,0
						c0-0.1,0.1-0.1,0.2-0.1L210.7,385.6z"/>
				</g>
			</g>
		</g>
	</g>
	<g>
		<path class="st29" d="M375.6,380.7c0,1.5-8.2,2.8-18.3,2.8c-10.1,0-18.3-1.3-18.3-2.8c0-1.5,8.2-2.8,18.3-2.8
			C367.4,377.9,375.6,379.2,375.6,380.7z"/>
		<g>
			<path class="st42" d="M355.1,373.6c0,0.2-0.1,0.4-0.2,0.6c-0.3,0.5-1,0.7-1.5,0.4l-11.2-6.9c-0.5-0.3-0.7-1-0.4-1.5
				c0.3-0.5,1-0.7,1.5-0.4l11.2,6.9C354.9,372.8,355.1,373.2,355.1,373.6z"/>
			<path class="st42" d="M373.1,366.7c0,0.4-0.2,0.7-0.5,1l-11.2,6.9c-0.5,0.3-1.2,0.2-1.5-0.4c-0.3-0.5-0.2-1.2,0.4-1.5l11.2-6.9
				c0.5-0.3,1.2-0.2,1.5,0.4C373.1,366.3,373.1,366.5,373.1,366.7z"/>
			<rect x="351.9" y="370.7" class="st15" width="10.8" height="10"/>
			<rect x="349.7" y="378.5" class="st42" width="15.2" height="2.2"/>
			<path class="st42" d="M358.4,365.3v8.3c0,0.6-0.5,1.1-1.1,1.1c-0.6,0-1.1-0.5-1.1-1.1v-8.3c0-0.6,0.5-1.1,1.1-1.1
				C357.9,364.2,358.4,364.7,358.4,365.3z"/>
			<path class="st15" d="M374.2,363.1c1.7,0,3.1,1.2,3.1,2.8l0,0c0,1.5-1.4,2.8-3.1,2.8h-33.8c-1.7,0-3.1-1.2-3.1-2.8l0,0
				c0-1.5,1.4-2.8,3.1-2.8H374.2z"/>
		</g>
	</g>
</g>
<path class="st43" d="M601.2,89.8V110h-333c-13.1,0-23.7,10.6-23.7,23.7v124.1c0,22.5-18.3,40.8-40.8,40.8H1.2v-20.2h199.4
	c13.1,0,23.7-10.6,23.7-23.7V130.5c0-22.5,18.3-40.8,40.8-40.8H601.2z"/>
<g>
	<path class="st44" d="M46.5,257.1c0,0.2-0.1,0.5-0.2,0.7c-0.4,0.6-1.2,0.8-1.9,0.4l-13.8-8.5c-0.6-0.4-0.8-1.2-0.4-1.9
		c0.4-0.6,1.2-0.8,1.9-0.4l13.8,8.5C46.2,256.2,46.5,256.6,46.5,257.1z"/>
	<path class="st44" d="M68.6,248.6c0,0.5-0.2,0.9-0.7,1.2l-13.8,8.5c-0.6,0.4-1.5,0.2-1.9-0.4c-0.4-0.6-0.2-1.5,0.4-1.9l13.8-8.5
		c0.6-0.4,1.5-0.2,1.9,0.4C68.5,248.1,68.6,248.4,68.6,248.6z"/>
	<rect x="42.5" y="253.6" class="st38" width="13.3" height="12.3"/>
	<path class="st42" d="M31.1,276.4h-1.4c-1.3,0-2.3,1-2.3,2.3v18.5c0,1.3,1,2.3,2.3,2.3h38.9c1.3,0,2.3-1,2.3-2.3v-18.5
		c0-1.3-1-2.3-2.3-2.3h-1.4c-2.1,0-4-1.4-4.7-3.4l-1.8-5.4c-0.4-1.1-1.4-1.8-2.6-1.8H40.2c-1.2,0-2.2,0.7-2.6,1.8l-1.8,5.4
		C35.1,275.1,33.2,276.4,31.1,276.4z"/>
	<path class="st34" d="M59.9,268c-1.8,6.7,1,12.7,9.2,10.1C67.4,276.7,60.6,279.9,59.9,268z"/>
	
		<ellipse transform="matrix(0.7071 -0.7071 0.7071 0.7071 -189.2115 119.0999)" class="st44" cx="49.2" cy="287.9" rx="15.4" ry="15.4"/>
	<path class="st42" d="M49.2,276.2c6.5,0,11.8,5.3,11.8,11.8c0,6.5-5.3,11.8-11.8,11.8c-6.5,0-11.8-5.3-11.8-11.8
		C37.4,281.4,42.7,276.2,49.2,276.2z"/>
	<path class="st34" d="M59.3,288.6c0.3-3.5-1.2-7.1-4.2-9.2c-3.1-2.2-6.9-2.4-10.1-1C51.6,279.1,56.2,282.8,59.3,288.6z"/>
	<rect x="39.8" y="263.1" class="st44" width="18.7" height="2.7"/>
	<path class="st44" d="M50.5,246.9v10.2c0,0.8-0.6,1.4-1.4,1.4s-1.4-0.6-1.4-1.4v-10.2c0-0.8,0.6-1.4,1.4-1.4S50.5,246.2,50.5,246.9
		z"/>
	<path class="st38" d="M69.9,244.2c2.1,0,3.7,1.5,3.7,3.4l0,0c0,1.9-1.7,3.4-3.7,3.4H28.4c-2.1,0-3.7-1.5-3.7-3.4l0,0
		c0-1.9,1.7-3.4,3.7-3.4H69.9z"/>
</g>
<path class="st2" d="M602.2,103v7h-334c-13.1,0-23.7,10.6-23.7,23.7v124.1c0,22.5-18.3,40.8-40.8,40.8H70.4
	c-0.4,0.5-1.1,0.9-1.8,0.9h-9.2c-2.7,2.4-6.3,3.9-10.2,3.9c-3.9,0-7.5-1.5-10.3-3.9h-9.2c-0.8,0-1.4-0.4-1.8-0.9H1.2v-7h202.5
	c18.6,0,33.8-15.1,33.8-33.8V133.7c0-16.9,13.8-30.7,30.7-30.7H602.2z"/>
<g>
	<rect x="281.7" y="69.5" class="st45" width="3.5" height="17.6"/>
	<rect x="279.4" y="69.5" class="st46" width="8.1" height="4.9"/>
	
		<ellipse transform="matrix(0.6599 -0.7513 0.7513 0.6599 53.466 232.4075)" class="st45" cx="283.5" cy="57.1" rx="12.4" ry="12.4"/>
	<path class="st44" d="M283.5,71.5c-7.9,0-14.3-6.4-14.3-14.3s6.4-14.3,14.3-14.3c7.9,0,14.3,6.4,14.3,14.3S291.4,71.5,283.5,71.5z
		 M283.5,45.4c-6.5,0-11.8,5.3-11.8,11.8c0,6.5,5.3,11.8,11.8,11.8s11.8-5.3,11.8-11.8C295.2,50.7,289.9,45.4,283.5,45.4z"/>
	<g>
		<path class="st47" d="M283.4,49.1C283.4,49.1,283.4,49.1,283.4,49.1c3,0,5.6,1.5,7,4c0.3,0.6,0.6,1.2,0.8,1.8l-3,0.8
			c-0.1-0.4-0.3-0.8-0.5-1.1c-0.9-1.5-2.5-2.5-4.3-2.5c0,0,0,0-0.1,0L283.4,49.1z"/>
		<path class="st4" d="M291.2,54.9c0.6,2.1,0.4,4.3-0.8,6.3c-1.4,2.5-4.1,4-7,4c-2.9,0-5.5-1.5-7-4c-1.4-2.5-1.4-5.5,0-8
			c1.4-2.5,4.1-4,7-4v3.1c-1.8,0-3.4,0.9-4.3,2.5c-0.9,1.5-0.9,3.4,0,5c0.9,1.5,2.5,2.5,4.3,2.5c1.8,0,3.4-0.9,4.3-2.5
			c0.7-1.2,0.8-2.6,0.5-3.9L291.2,54.9z"/>
		<path class="st48" d="M275.8,54.7c0.2-0.5,0.4-1.1,0.7-1.6c1.4-2.5,4.1-4,7-4v3.1c-1.8,0-3.4,0.9-4.3,2.5c-0.2,0.3-0.3,0.6-0.4,1
			L275.8,54.7z"/>
	</g>
	<g>
		<g>
			<circle class="st44" cx="273.7" cy="57.1" r="0.8"/>
			<path class="st44" d="M293.3,56.3c0.4,0,0.8,0.4,0.8,0.8c0,0.4-0.4,0.8-0.8,0.8c-0.4,0-0.8-0.4-0.8-0.8
				C292.5,56.7,292.8,56.3,293.3,56.3z"/>
		</g>
		<g>
			<path class="st44" d="M284.3,47.3c0,0.4-0.4,0.8-0.8,0.8c-0.4,0-0.8-0.4-0.8-0.8c0-0.4,0.4-0.8,0.8-0.8
				C283.9,46.5,284.3,46.9,284.3,47.3z"/>
			<path class="st44" d="M284.3,66.9c0,0.4-0.4,0.8-0.8,0.8c-0.4,0-0.8-0.4-0.8-0.8c0-0.4,0.4-0.8,0.8-0.8
				C283.9,66.1,284.3,66.5,284.3,66.9z"/>
		</g>
	</g>
	<g>
		<g>
			<path class="st44" d="M276,63.5c0.3-0.3,0.8-0.3,1.1,0c0.3,0.3,0.3,0.8,0,1.1c-0.3,0.3-0.8,0.3-1.1,0
				C275.6,64.3,275.6,63.8,276,63.5z"/>
			<path class="st44" d="M289.8,49.6c0.3-0.3,0.8-0.3,1.1,0c0.3,0.3,0.3,0.8,0,1.1c-0.3,0.3-0.8,0.3-1.1,0
				C289.5,50.4,289.5,49.9,289.8,49.6z"/>
		</g>
		<g>
			<path class="st44" d="M277.1,49.6c0.3,0.3,0.3,0.8,0,1.1c-0.3,0.3-0.8,0.3-1.1,0c-0.3-0.3-0.3-0.8,0-1.1
				C276.3,49.3,276.8,49.3,277.1,49.6z"/>
			<path class="st44" d="M291,63.5c0.3,0.3,0.3,0.8,0,1.1c-0.3,0.3-0.8,0.3-1.1,0c-0.3-0.3-0.3-0.8,0-1.1
				C290.1,63.2,290.6,63.2,291,63.5z"/>
		</g>
	</g>
	<g>
		<path class="st44" d="M285.7,58.3c-0.7,1.3-2.2,1.7-3.5,1.1c-1.3-0.7-1.7-2.2-1.1-3.5c0.7-1.3,2.2-1.7,3.5-1.1
			C285.9,55.5,286.4,57.1,285.7,58.3z"/>
		<polygon class="st44" points="282.8,56.5 288,48.4 284.4,57.3 		"/>
	</g>
	<rect x="279.4" y="86.5" class="st46" width="8.1" height="3.2"/>
</g>
<path class="st2" d="M169.8,213.8v47.7l-1.5,1.9l-11.5,14.2l-2,2.4c0,1.4-0.3,3-0.8,4.3c-0.8,2.4-1.9,4.6-3.4,6.6
	c-1.8,2.5-3.9,4.7-6.4,6.5c-0.1,0.1-0.3,0.2-0.4,0.3c-0.8,0.6-1.7,2.7-2.7,2.8c-0.6,0.1-1.6-0.4-2.2-0.9l-0.4,0.5l0.3-0.5
	c-0.3-0.3-0.6-0.6-0.7-1c-0.6-2,2.9-4.7,2.6-6.7c0-0.3-0.1-0.5-0.3-0.7c-0.7-1-2.6-0.6-2.9-3.4c-0.1-1.5,2.1-3.8,2.8-3.9
	c0.6-0.2,1.1-0.3,1.7-0.5c4.7-1.6,6.2-4.4,8.9-5.9l2.8-6.9c-1.1-2.3-2.2-4.6-3.2-6.9l0.6,0c-1-2.6-1.9-5.3-2.7-7.8
	c-1-3.1-2-6.2-2.8-9.2c-4.3-15.2-5.8-20.5-6.1-22.9v0c0-0.1,0-0.1,0-0.2c-1.4-8.6,0.4-17.1,1.7-21.5c-0.1,1.2-0.1,2.4,0,3.6
	c0.2,6.9,1.6,12.1,3.5,14.6c0.1,0.1,0.1,0.1,0.2,0.2c2.4,3.1,5.5,2,7.5-5.1c0.3-1,0.5-2.1,0.8-3.4l3.7,0.4L169.8,213.8z"/>
<g>
	<path class="st5" d="M143.8,289.3c1.1-0.4,2.3-0.7,3.4-1.1c1.3-0.4,2.7-0.9,3.8-1.7s2-2.2,1.9-3.6c-0.1-1.4-1.4-2.7-2.8-2.4
		c-1.1,0.2-1.8,1.2-2.6,2c-1.1,1.2-2.6,2-4.2,2.5c-0.9,0.3-1.9,0.4-2.8,0.8c-0.9,0.5-1.6,1.4-1.4,2.4c0.2,0.9,1.1,1.5,2,1.6
		C142,289.8,142.9,289.5,143.8,289.3z"/>
	<path class="st3" d="M164.8,250.2c5.7-15.7,25.9-5.6,17.1,8.6l-14.5,21.8l-13.6-3.9L164.8,250.2z"/>
	<polygon class="st3" points="178.5,227.4 184.1,250.6 165.1,251.2 159.4,233.3 	"/>
	<path class="st21" d="M152.9,211.5c-4.2-14.3,14.3-23,19.7-5.9l5.8,21.8l-19.1,5.9L152.9,211.5z"/>
	<polygon class="st10" points="149.1,286.5 155.7,271 169.8,278.4 158.4,292 	"/>
	<g>
		<path class="st10" d="M163,284.9c1.3,1.1,1,3.5-0.2,5.8l-4.2,7.5c-0.1,0.1-0.2,0.2-0.4,0.2c-5.1-0.8-9.2-3-13.9-5.8
			c-0.1,0-0.1-0.1-0.2-0.2l-0.7-1.9c0-0.1,0-0.2,0-0.3c0.6-1.1,4.7-8.6,5-8.9c1.1-1.2,2.7-1.8,4.4-1.8c0,0,0,0,0,0
			C153,279.5,162.8,284.8,163,284.9z"/>
		<path class="st5" d="M147.6,292c0.7-1.2,0.3-2.6-0.9-3.3l0,0c-0.5-0.3-1-0.3-1.6-0.2c-0.5,0.1-1,0.5-1.3,1l-5.1,8.7
			c-0.6,1.1-0.3,2.5,0.8,3.1l0.1,0c1,0.6,2.4,0.2,2.9-0.8L147.6,292z"/>
		<path class="st5" d="M152,293.5c0.3-0.5,0.4-1,0.2-1.6c-0.1-0.5-0.5-1-1-1.3l0,0c-1.1-0.7-2.6-0.3-3.3,0.9l-6.3,10.6
			c-0.3,0.4-0.3,1-0.2,1.5c0.1,0.5,0.5,0.9,0.9,1.2l0.4,0.2c1,0.6,2.3,0.2,2.9-0.8L152,293.5z"/>
		<path class="st5" d="M155.8,295.6c0.7-1.2,0.3-2.6-0.9-3.3l0,0c-0.5-0.3-1-0.3-1.6-0.2c-0.5,0.1-1,0.5-1.3,1l-5.9,10.4
			c-0.6,1.1-0.3,2.5,0.8,3.1l0.4,0.2c0.4,0.2,0.9,0.3,1.4,0.2c0.5-0.1,0.9-0.4,1.1-0.8L155.8,295.6z"/>
		<path class="st5" d="M159.1,297.2c0.4-0.8,0.1-1.8-0.7-2.2l-0.3-0.2c-0.8-0.5-1.8-0.2-2.3,0.5l-3.9,7c-0.4,0.7-0.3,2.3,0.4,2.7
			l0.6,0.3c0.7,0.4,1.8-0.4,2.2-1.1L159.1,297.2z"/>
		<path class="st10" d="M160.5,294.6l-2,3.5c-0.5,0.9-1.7,1-2.6,0.5l0,0c-0.9-0.5-1.2-1.7-0.7-2.6l-0.4,0.6c-0.6,1-1.9,1.3-2.9,0.7
			l0,0c-1-0.6-1.4-1.9-0.8-2.9l-0.3,0.5c-0.6,1-1.9,1.3-2.9,0.7l0,0c-1-0.6-1.4-1.9-0.8-2.9c-0.6,1-1.9,1.3-2.9,0.7l0,0
			c-1-0.6-1.4-1.9-0.8-2.9l2.6-4.4L160.5,294.6z"/>
	</g>
</g>
<path class="st11" d="M168.9,251.1c-0.9-9.3-10.4-30.1-16.5-45.1c-0.2,1.7,0,3.5,0.5,5.5l6.4,21.8l5.4,16.9c0,0,0,0,0,0l-8.7,21
	l-0.4-0.2l-1.6,3.7c4-5.4,7.5-12.3,11.3-17.7C167.7,253.2,168.9,252.2,168.9,251.1z"/>
<g>
	<g>
		<path class="st49" d="M451.2,288.3v19.9h-71.4c-25.5,0-46.3-20.7-46.3-46.3V-3h19.8v265.4c0,14.3,11.6,25.9,25.9,25.9H451.2z"/>
		<rect x="332.8" y="153.6" class="st42" width="21.4" height="37.7"/>
		<rect x="331.6" y="153" class="st44" width="23.7" height="4"/>
		<path class="st11" d="M451.2,301.2v7h-71.4c-25.5,0-46.3-20.7-46.3-46.3v-69.8h-1.9v-4h1.2v-8.7c-1.3-2-2-4.4-2-6.9s0.8-4.9,2-6.9
			V157h-1.2v-4h1.9V-3h7v264.9c0,21.7,17.6,39.3,39.3,39.3H451.2z"/>
		<path class="st50" d="M356.2,172.5c0,2.6-0.8,4.9-2,6.9c-0.2,0.4-0.5,0.7-0.8,1c-2.3,2.9-5.9,4.8-9.9,4.8c-1,0-2-0.1-2.9-0.3
			c-2.8-0.7-5.3-2.3-7-4.4c-0.3-0.3-0.5-0.7-0.8-1.1c-1.3-2-2-4.4-2-6.9s0.8-4.9,2-6.9c0.2-0.4,0.5-0.7,0.8-1.1
			c1.7-2.2,4.2-3.8,7-4.4c0.9-0.2,1.9-0.3,2.9-0.3c4,0,7.6,1.9,9.9,4.8c0.3,0.3,0.5,0.7,0.8,1C355.4,167.6,356.2,170,356.2,172.5z"
			/>
		<path class="st42" d="M353.4,172.5c0,5.5-4.4,9.9-9.9,9.9c-5.5,0-9.9-4.4-9.9-9.9c0-5.5,4.4-9.9,9.9-9.9
			C348.9,162.6,353.4,167.1,353.4,172.5z"/>
		<rect x="331.6" y="188.1" class="st44" width="23.7" height="4"/>
		<polygon class="st51" points="341.9,175.3 340.4,172.3 342.3,169.5 345.6,169.8 347.1,172.8 345.2,175.6 		"/>
		<circle class="st52" cx="343.7" cy="172.5" r="1.5"/>
	</g>
	<g>
		<rect x="429.3" y="267.7" class="st45" width="3.5" height="17.6"/>
		<rect x="427" y="267.7" class="st46" width="8.1" height="4.9"/>
		
			<ellipse transform="matrix(0.7071 -0.7071 0.7071 0.7071 -54.2828 379.5766)" class="st45" cx="431" cy="255.3" rx="12.4" ry="12.4"/>
		<path class="st44" d="M431,269.6c-7.9,0-14.3-6.4-14.3-14.3S423.2,241,431,241s14.3,6.4,14.3,14.3S438.9,269.6,431,269.6z
			 M431,243.6c-6.5,0-11.8,5.3-11.8,11.8s5.3,11.8,11.8,11.8c6.5,0,11.8-5.3,11.8-11.8S437.5,243.6,431,243.6z"/>
		<g>
			<path class="st47" d="M431,247.3C431,247.3,431,247.3,431,247.3c3,0,5.6,1.5,7,4c0.3,0.6,0.6,1.2,0.8,1.8l-3,0.8
				c-0.1-0.4-0.3-0.8-0.5-1.1c-0.9-1.5-2.5-2.5-4.3-2.5c0,0,0,0-0.1,0L431,247.3z"/>
			<path class="st4" d="M438.8,253.1c0.6,2.1,0.4,4.3-0.8,6.3c-1.4,2.5-4.1,4-7,4c-2.9,0-5.5-1.5-7-4c-1.4-2.5-1.4-5.5,0-8
				c1.4-2.5,4.1-4,7-4v3.1c-1.8,0-3.4,0.9-4.3,2.5c-0.9,1.5-0.9,3.4,0,5c0.9,1.5,2.5,2.5,4.3,2.5c1.8,0,3.4-0.9,4.3-2.5
				c0.7-1.2,0.8-2.6,0.5-3.9L438.8,253.1z"/>
			<path class="st48" d="M423.4,252.9c0.2-0.5,0.4-1.1,0.7-1.6c1.4-2.5,4.1-4,7-4v3.1c-1.8,0-3.4,0.9-4.3,2.5
				c-0.2,0.3-0.3,0.6-0.4,1L423.4,252.9z"/>
		</g>
		<g>
			<g>
				<path class="st44" d="M421.2,254.5c0.4,0,0.8,0.4,0.8,0.8c0,0.4-0.4,0.8-0.8,0.8c-0.4,0-0.8-0.4-0.8-0.8
					C420.4,254.8,420.8,254.5,421.2,254.5z"/>
				<path class="st44" d="M440.9,254.5c0.4,0,0.8,0.4,0.8,0.8c0,0.4-0.4,0.8-0.8,0.8c-0.4,0-0.8-0.4-0.8-0.8
					C440.1,254.8,440.4,254.5,440.9,254.5z"/>
			</g>
			<g>
				<path class="st44" d="M431.8,245.5c0,0.4-0.4,0.8-0.8,0.8s-0.8-0.4-0.8-0.8c0-0.4,0.4-0.8,0.8-0.8S431.8,245,431.8,245.5z"/>
				<path class="st44" d="M431.8,265.1c0,0.4-0.4,0.8-0.8,0.8s-0.8-0.4-0.8-0.8c0-0.4,0.4-0.8,0.8-0.8S431.8,264.7,431.8,265.1z"/>
			</g>
		</g>
		<g>
			<g>
				<path class="st44" d="M423.5,261.7c0.3-0.3,0.8-0.3,1.1,0c0.3,0.3,0.3,0.8,0,1.1c-0.3,0.3-0.8,0.3-1.1,0
					C423.2,262.5,423.2,262,423.5,261.7z"/>
				<path class="st44" d="M437.4,247.8c0.3-0.3,0.8-0.3,1.1,0c0.3,0.3,0.3,0.8,0,1.1c-0.3,0.3-0.8,0.3-1.1,0
					C437.1,248.6,437.1,248.1,437.4,247.8z"/>
			</g>
			<g>
				<path class="st44" d="M424.7,247.8c0.3,0.3,0.3,0.8,0,1.1c-0.3,0.3-0.8,0.3-1.1,0c-0.3-0.3-0.3-0.8,0-1.1
					C423.9,247.5,424.4,247.5,424.7,247.8z"/>
				<path class="st44" d="M438.5,261.7c0.3,0.3,0.3,0.8,0,1.1c-0.3,0.3-0.8,0.3-1.1,0c-0.3-0.3-0.3-0.8,0-1.1
					C437.7,261.3,438.2,261.3,438.5,261.7z"/>
			</g>
		</g>
		<g>
			<path class="st44" d="M433.3,256.5c-0.7,1.3-2.2,1.7-3.5,1.1c-1.3-0.7-1.7-2.2-1.1-3.5c0.7-1.3,2.2-1.7,3.5-1.1
				C433.5,253.7,434,255.3,433.3,256.5z"/>
			<polygon class="st44" points="430.4,254.7 435.6,246.6 432,255.5 			"/>
		</g>
		<rect x="427" y="284.7" class="st46" width="8.1" height="3.2"/>
	</g>
</g>
<g>
	<g>
		<path class="st50" d="M601.2,340.2v19.8H428.5c-7.4,0-14.4-1.7-20.6-4.8c0,0,0,0,0,0c-5.8-2.9-11-7-15.1-12
			c-0.5-0.6-0.9-1.1-1.4-1.8c-0.4-0.6-0.9-1.2-1.3-1.8c-0.8-1.2-1.6-2.5-2.3-3.8c-0.5-0.9-1-1.8-1.4-2.8c-0.9-1.9-1.6-3.8-2.2-5.8
			c-0.3-1-0.6-2-0.8-3c-0.2-0.8-0.4-1.7-0.5-2.6c-0.5-2.6-0.7-5.2-0.7-7.9V-3h19.8v317.3c0,14.3,11.6,25.9,25.9,25.9H601.2z"/>
		<rect x="381.5" y="205.4" class="st42" width="21.3" height="37.7"/>
		<path class="st50" d="M404.9,224.4c0,7-5.7,12.7-12.7,12.7c-7,0-12.7-5.7-12.7-12.7c0-7,5.7-12.7,12.7-12.7
			C399.2,211.7,404.9,217.4,404.9,224.4z"/>
		<path class="st42" d="M402.1,224.4c0,5.5-4.4,9.9-9.9,9.9c-5.5,0-9.9-4.4-9.9-9.9c0-5.5,4.4-9.9,9.9-9.9
			C397.6,214.5,402.1,219,402.1,224.4z"/>
		<rect x="380.3" y="204.9" class="st44" width="23.7" height="4"/>
		<rect x="380.3" y="240" class="st44" width="23.7" height="4"/>
		<polygon class="st51" points="390.6,227.2 389.1,224.2 391,221.4 394.4,221.6 395.8,224.7 393.9,227.5 		"/>
		<circle class="st52" cx="392.4" cy="224.4" r="1.5"/>
	</g>
	<path class="st2" d="M602.2,353.1v7H428.5c-7.4,0-14.4-1.7-20.6-4.8c0,0,0,0,0,0c-5.8-2.9-11-7-15.1-12c-0.5-0.6-0.9-1.1-1.4-1.8
		c-0.4-0.6-0.9-1.2-1.3-1.8c-0.8-1.2-1.6-2.5-2.3-3.8c-0.5-0.9-1-1.8-1.4-2.8c-0.9-1.9-1.6-3.8-2.2-5.8c-0.3-1-0.6-2-0.8-3
		c-0.2-0.8-0.4-1.7-0.5-2.6c-0.4-2.6-0.7-5.2-0.7-7.9V244h-1.9v-4h1.2v-8.7c0-0.1-0.1-0.1-0.1-0.2h0c-0.3-0.4-0.5-0.9-0.8-1.4
		c-0.1-0.3-0.3-0.6-0.3-0.8c-0.1-0.1-0.1-0.3-0.1-0.4c0,0,0-0.1,0-0.1c0-0.1-0.1-0.2-0.1-0.4c-0.1-0.3-0.2-0.6-0.2-0.9
		c-0.1-0.3-0.1-0.6-0.2-0.8c0-0.2,0-0.3-0.1-0.5c0-0.1,0-0.1,0-0.2c0-0.2,0-0.4-0.1-0.6c0-0.2,0-0.4,0-0.7s0-0.4,0-0.7
		c0-0.2,0-0.4,0.1-0.6c0-0.1,0-0.1,0-0.2c0-0.2,0-0.3,0.1-0.5c0-0.3,0.1-0.6,0.2-0.8c0.1-0.3,0.1-0.6,0.2-0.9c0-0.1,0.1-0.2,0.1-0.4
		c0,0,0-0.1,0-0.1c0-0.1,0.1-0.3,0.1-0.4c0.1-0.2,0.1-0.3,0.2-0.5c0.1-0.1,0.1-0.2,0.2-0.3c0.3-0.5,0.5-1.1,0.9-1.6v-8.7h-1.2v-4
		h1.9V-3h7l0,73.9v242.9c0,21.7,17.6,39.3,39.3,39.3H602.2z"/>
	<g>
		<rect x="390.7" y="208.6" class="st44" width="3" height="15.8"/>
		
			<rect x="378.3" y="227.8" transform="matrix(0.7802 -0.6256 0.6256 0.7802 -58.5644 291.9359)" class="st44" width="15.5" height="3"/>
		
			<rect x="396.9" y="221.2" transform="matrix(0.5879 -0.8089 0.8089 0.5879 -21.0461 416.6999)" class="st44" width="3" height="15.5"/>
		<path class="st38" d="M402.8,210.5c-0.2-0.2-0.5-0.4-0.8-0.5c-0.6-0.4-1.2-0.8-1.8-1.1c-2.4-1.3-5.2-2-8.1-2c-1,0-2,0.1-2.9,0.2
			c-1.8,0.3-3.6,0.9-5.2,1.7c-0.6,0.3-1.3,0.7-1.8,1.1c-0.3,0.2-0.5,0.3-0.8,0.5c-4.2,3.2-6.9,8.3-6.9,13.9s2.7,10.7,6.9,13.9
			c0.2,0.2,0.5,0.4,0.8,0.5c0.6,0.4,1.3,0.8,1.9,1.2c1.6,0.8,3.3,1.4,5.1,1.7c0.9,0.2,1.9,0.2,2.9,0.2c2.9,0,5.6-0.7,8-1.9
			c0.7-0.3,1.3-0.7,1.9-1.2c0.3-0.2,0.5-0.3,0.8-0.5c4.2-3.2,6.9-8.3,6.9-13.9S407,213.7,402.8,210.5z M402.1,233.6
			c-2.5,2.7-6,4.3-9.9,4.3c-1,0-2-0.1-2.9-0.3c-2.6-0.6-4.9-1.8-6.6-3.6c-0.1-0.1-0.3-0.3-0.4-0.4c-0.3-0.3-0.5-0.6-0.8-0.9
			c-0.3-0.4-0.5-0.7-0.8-1.1c-1.3-2.1-2.1-4.6-2.1-7.2c0-3.1,1.1-6,2.9-8.3c0.2-0.3,0.5-0.6,0.8-0.9c1.8-2,4.3-3.4,7-4
			c0.5-0.1,0.9-0.2,1.4-0.2c0.5-0.1,1-0.1,1.5-0.1c0.5,0,1,0,1.5,0.1c3.3,0.4,6.3,1.9,8.4,4.3c0.3,0.3,0.5,0.6,0.8,0.9
			c1.8,2.3,2.9,5.2,2.9,8.3c0,2.4-0.6,4.7-1.8,6.7c-0.3,0.6-0.7,1.1-1.1,1.6C402.6,233,402.4,233.3,402.1,233.6
			C402.1,233.6,402.1,233.6,402.1,233.6z"/>
		<path class="st38" d="M397.1,224.4c0,2.7-2.2,4.9-4.9,4.9c-2.7,0-4.9-2.2-4.9-4.9c0-2.7,2.2-4.9,4.9-4.9
			C394.9,219.5,397.1,221.7,397.1,224.4z"/>
	</g>
</g>
<g>
	<path class="st29" d="M372.3,413.8c0,3.3-29.4,6-65.7,6s-65.7-2.7-65.7-6c0-3.3,29.4-6,65.7-6S372.3,410.5,372.3,413.8z"/>
	<path class="st29" d="M320.9,400c0.3,0.2,0.7,0.3,1,0.4c-1.8,1.5-3.9,2.8-6.1,3.9c-0.5,0.3-1.1,0.5-1.6,0.7
		c-0.3,0.1-0.6,0.3-0.9,0.4c-1,0.4-2,0.7-3,1c-1,0.3-2,0.5-3.1,0.7c-3.1,0.6-6.3,0.9-9.4,0.8v-2.2c0-0.4,0-0.8,0-1.2
		c0-0.5,0-1,0.1-1.4V403c0-0.2,0-0.5,0-0.7c0-0.2,0-0.5,0.1-0.7c0.1-1.1,0.2-2.1,0.4-3.2c0.1,0,0.2,0,0.2,0.1
		c4.2,1.3,8.7,1.4,12.9,0.5c0.9-0.2,1.8-0.4,2.7-0.7c1.1-0.4,2.2-0.8,3.3-1.3c0.2,0.3,0.4,0.6,0.7,0.9l0,0c0.3-0.2,0.7-0.1,0.9,0.2
		l0,0c0.1,0.2,0.1,0.4,0,0.6c0,0,0.1,0.1,0.1,0.1c0.2,0.2,0.5,0.4,0.7,0.6c0.2-0.3,0.6-0.3,0.9-0.1l0,0
		C320.9,399.5,321,399.8,320.9,400z"/>
	<g>
		<g>
			<path class="st12" d="M335,408.2v3.1h-39.1v-7.1c0-0.4,0-0.8,0-1.2c0-0.5,0-1,0.1-1.4v-0.1c0-0.2,0-0.5,0-0.7
				c0-0.2,0-0.5,0.1-0.7c0.1-1.1,0.2-2.1,0.4-3.2c0-0.3,0.1-0.5,0.1-0.8l0.7-4.4l0-0.1l0.4-2.3l3.7-0.4l8.5-0.8l3.3-0.3l0.4,1.7
				l0.3,1.2l0.4,1.3l0.3,1.2v0l0,0.1c0.1,0.3,0.2,0.6,0.3,0.9c0.2,0.4,0.4,0.8,0.6,1.2c0,0,0,0,0,0c0.2,0.3,0.4,0.6,0.7,0.9
				c0.3,0.3,0.5,0.6,0.9,0.9c0,0,0.1,0.1,0.1,0.1c0.2,0.2,0.5,0.4,0.7,0.6c0.3,0.2,0.7,0.4,1.1,0.6c0.3,0.2,0.7,0.3,1,0.4
				c0,0,0,0,0,0c0.4,0.1,0.8,0.2,1.2,0.3c0.4,0.1,0.8,0.1,1.1,0.1h3.7c0.9,0,1.8,0.1,2.7,0.4c0.2,0.1,0.4,0.1,0.6,0.2
				c0.2,0.1,0.4,0.2,0.6,0.3c1,0.5,2,1.2,2.8,2.1c0.2,0.2,0.3,0.4,0.5,0.5c0,0,0.1,0.1,0.1,0.1c0.1,0.1,0.2,0.3,0.3,0.4
				c0.1,0.1,0.1,0.2,0.2,0.3c0.1,0.1,0.1,0.2,0.2,0.3c0.1,0.1,0.2,0.3,0.2,0.4c0.1,0.2,0.2,0.4,0.3,0.6c0.1,0.1,0.1,0.3,0.2,0.4
				c0.1,0.2,0.1,0.4,0.2,0.6c0,0,0,0.1,0,0.1c0.1,0.2,0.1,0.4,0.1,0.6c0,0.1,0,0.2,0.1,0.3c0,0.1,0,0.3,0.1,0.4c0,0.1,0,0.2,0,0.4
				c0,0.1,0,0.2,0,0.4C335,407.9,335,408.1,335,408.2z"/>
			<path class="st13" d="M335,408.2v2.9h-23.3l0.6-7.7c6.1,0.4,10.2,0.1,10.5-4.3h3.1c3.8,0,7,2.3,8.4,5.6
				C334.8,405.8,335,406.9,335,408.2z"/>
			<path class="st14" d="M316.3,411.2l-2.8,0l-6.9,0l-10.7,0v-7.1c0-0.4,0-0.8,0-1.2c0-0.5,0-1,0.1-1.4v-0.1c0-0.2,0-0.5,0-0.7
				c0-0.2,0-0.5,0.1-0.7c0.1-1.1,0.2-2.1,0.4-3.2c0-0.3,0.1-0.5,0.1-0.8l0.7-4.4l0-0.2l0.4-2.3l3.7-0.4c4.9-0.5,9.5,2.7,10.8,7.4
				l0.1,0.4l0.6,2.3l0.1,0.5l0.9,3.2l0.2,0.8l0,0.2l1.9,7L316.3,411.2L316.3,411.2z"/>
			<path class="st13" d="M313.5,411.2h-17.6v-7.1c0-0.4,0-0.8,0-1.2c0-0.5,0-1,0.1-1.4v-0.1c0-0.2,0-0.5,0-0.7c0-0.2,0-0.5,0.1-0.7
				c0.1-1.1,0.2-2.1,0.4-3.2c0-0.3,0.1-0.5,0.1-0.8l0.7-4.4l0-0.1h0l2.3-0.2c4.4-0.4,8.5,2.2,10,6.2c0.1,0.3,0.2,0.5,0.3,0.8
				l0.2,0.9l0.1,0.5h0l1.2,4.2l0.3,1l0.4,1.4v0l1.2,4.4l0.1,0.5L313.5,411.2L313.5,411.2z"/>
			<path class="st14" d="M306.6,409.4v1.8h-10.7v-7.1c0-0.4,0-0.8,0-1.2c0-0.5,0-1,0.1-1.4v-0.1h0.5c0.9,0,1.8,0.1,2.6,0.3
				c2.7,0.6,4.9,2,6.2,3.8c0.1,0.2,0.2,0.4,0.4,0.5C306.3,407.1,306.6,408.2,306.6,409.4z"/>
			<path class="st14" d="M335,408.2v2.9h-7.3v-0.1c0-3.5,2.9-6.4,6.4-6.4h0.3C334.8,405.8,335,406.9,335,408.2z"/>
			<path class="st14" d="M313.7,390.6l-1.6,0.3c-0.3,0.1-0.7-0.2-0.7-0.5l0,0c-0.1-0.3,0.2-0.7,0.5-0.7l1.6-0.3
				c0.3-0.1,0.7,0.2,0.7,0.5l0,0C314.3,390.2,314,390.6,313.7,390.6z"/>
			<path class="st14" d="M314.4,393.1l-1.6,0.3c-0.3,0.1-0.7-0.2-0.7-0.5l0,0c-0.1-0.3,0.2-0.7,0.5-0.7l1.6-0.3
				c0.3-0.1,0.7,0.2,0.7,0.5l0,0C315,392.8,314.8,393.1,314.4,393.1z"/>
			<path class="st14" d="M315.5,395.3l-1.6,0.5c-0.3,0.1-0.7-0.1-0.8-0.4l0,0c-0.1-0.3,0.1-0.7,0.4-0.8l1.6-0.5
				c0.3-0.1,0.7,0.1,0.8,0.4l0,0C316,394.9,315.8,395.2,315.5,395.3z"/>
			<path class="st14" d="M317.1,397.2c-0.1,0.1-0.1,0.2-0.2,0.2l-1.5,0.8c-0.3,0.2-0.7,0.1-0.9-0.2l0,0c-0.2-0.3-0.1-0.7,0.2-0.9
				l1.5-0.8l0,0c0.3-0.2,0.7-0.1,0.9,0.2l0,0C317.2,396.7,317.2,397,317.1,397.2z"/>
			<path class="st14" d="M319,398.4c0,0.1-0.1,0.1-0.1,0.2l-1.1,1.3c-0.2,0.3-0.6,0.3-0.9,0.1l0,0c-0.3-0.2-0.3-0.6-0.1-0.9l1.1-1.3
				c0,0,0,0,0,0c0.2-0.3,0.6-0.3,0.9-0.1l0,0C319,397.9,319,398.2,319,398.4z"/>
			<path class="st14" d="M321.1,399c0,0.1,0,0.2,0,0.2l-0.5,1.6c-0.1,0.3-0.5,0.5-0.8,0.4h0c-0.3-0.1-0.5-0.5-0.4-0.8l0.5-1.6
				c0-0.1,0-0.1,0.1-0.2c0,0,0,0,0,0c0,0,0.1-0.1,0.1-0.1c0,0,0.1-0.1,0.1-0.1l0,0c0.1-0.1,0.3-0.1,0.5,0h0
				C320.9,398.6,321.1,398.8,321.1,399z"/>
			<path class="st14" d="M311,413.8c-0.2-0.1-0.4-0.1-0.6-0.2l-2.1-0.7v0.9h-13.2v-3.2h40.6v3.2H311z"/>
		</g>
		<path class="st53" d="M318.8,336.7c-0.7,5.4-4.6,9.9-9.9,11.3c-0.8,0.2-1.6,0.4-2.4,0.4l-0.3,0c-4.3,0.3-8.4-1.4-11.1-4.5
			c-1.9-2.1-3.2-4.9-3.4-8l0-0.1l-2.5-41.2c-2-29.7,22.7-31.1,26.2-22.2l0.7,15.5v0l2.3,39.7l0.4,6.2
			C319,334.9,319,335.8,318.8,336.7z"/>
		<path class="st53" d="M319.4,392.1c0,2-0.8,3.8-2.3,5.1c-0.9,0.8-1.9,1.3-3.2,1.6l-1.1,0.2l-1.4,0.3l-1.2,0.2h0l-10.9,2.1
			c-0.1,0-0.1,0-0.2,0c-1.1,0.2-2.2,0.1-3.2-0.2c-2.7-0.9-4.7-3.4-4.7-6.4l0.1-10.4l0-11.3l0-1.7l0-5.4l0.2-28.4
			c0-0.6,0-1.2,0.1-1.8c0.2-2,0.9-3.9,2-5.6c2.4-3.7,6.5-6.2,11.2-6.2h0.3c3.6,0,6.9,1.3,9.4,3.6c2.4,2.3,4,5.4,4.2,8.9
			c0,0.3,0,0.5,0,0.8l0,1.4l0.2,13.8l0.1,11.1l0,2.4l0.1,5.4l0,1.7l0.1,11.3L319.4,392.1z"/>
		<path class="st54" d="M319,352.7h-6.1c-2.2,0-4-1.8-4-4v-16.9c0-2.2,1.8-4,4-4h5.6l0.4,6.2c0.1,0.9,0.1,1.8-0.1,2.7
			c0,0.3,0,0.5,0,0.8l0,1.4L319,352.7z"/>
	</g>
	<g>
		<g>
			<path class="st16" d="M317.8,411.7v3.1h-39.1v-7.1c0-0.4,0-0.8,0-1.2c0-0.5,0-1,0.1-1.4v-0.1c0-0.2,0-0.5,0-0.7
				c0-0.2,0-0.5,0.1-0.7c0.1-1.1,0.2-2.1,0.4-3.2c0-0.3,0.1-0.5,0.1-0.8l0.7-4.4l0-0.1l0.4-2.3l3.7-0.4l8.5-0.8l3.3-0.3l0.4,1.7
				l0.3,1.2l0.4,1.3l0.3,1.2v0l0,0.1c0.1,0.3,0.2,0.6,0.3,0.9c0.2,0.4,0.4,0.8,0.6,1.2c0,0,0,0,0,0c0.2,0.3,0.4,0.6,0.7,0.9
				c0.3,0.3,0.5,0.6,0.9,0.9c0,0,0.1,0.1,0.1,0.1c0.2,0.2,0.5,0.4,0.7,0.6c0.3,0.2,0.7,0.4,1.1,0.6c0.3,0.2,0.7,0.3,1,0.4
				c0,0,0,0,0,0c0.4,0.1,0.8,0.2,1.2,0.3c0.4,0.1,0.8,0.1,1.1,0.1h3.7c0.9,0,1.8,0.1,2.7,0.4c0.2,0.1,0.4,0.1,0.6,0.2
				c0.2,0.1,0.4,0.2,0.6,0.3c1,0.5,2,1.2,2.8,2.1c0.2,0.2,0.3,0.4,0.5,0.5c0,0,0.1,0.1,0.1,0.1c0.1,0.1,0.2,0.3,0.3,0.4
				c0.1,0.1,0.1,0.2,0.2,0.3c0.1,0.1,0.1,0.2,0.2,0.3c0.1,0.1,0.2,0.3,0.2,0.4c0.1,0.2,0.2,0.4,0.3,0.6c0.1,0.1,0.1,0.3,0.2,0.4
				c0.1,0.2,0.1,0.4,0.2,0.6c0,0,0,0.1,0,0.1c0.1,0.2,0.1,0.4,0.1,0.6c0,0.1,0,0.2,0.1,0.3c0,0.1,0,0.3,0.1,0.4c0,0.1,0,0.2,0,0.4
				c0,0.1,0,0.2,0,0.4C317.8,411.5,317.8,411.6,317.8,411.7z"/>
			<path class="st17" d="M317.8,411.7v2.9h-23.3l0.6-7.7c6.1,0.4,10.2,0.1,10.5-4.3h3.1c3.8,0,7,2.3,8.4,5.6
				C317.5,409.3,317.8,410.5,317.8,411.7z"/>
			<path class="st18" d="M299,414.7l-2.8,0l-6.9,0l-10.7,0v-7.1c0-0.4,0-0.8,0-1.2c0-0.5,0-1,0.1-1.4v-0.1c0-0.2,0-0.5,0-0.7
				c0-0.2,0-0.5,0.1-0.7c0.1-1.1,0.2-2.1,0.4-3.2c0-0.3,0.1-0.5,0.1-0.8l0.7-4.4l0-0.2l0.4-2.3l3.7-0.4c4.9-0.5,9.5,2.7,10.8,7.4
				l0.1,0.4l0.6,2.3l0.1,0.5l0.9,3.2l0.2,0.8l0,0.2l1.9,7L299,414.7L299,414.7z"/>
			<path class="st17" d="M296.3,414.8h-17.6v-7.1c0-0.4,0-0.8,0-1.2c0-0.5,0-1,0.1-1.4v-0.1c0-0.2,0-0.5,0-0.7c0-0.2,0-0.5,0.1-0.7
				c0.1-1.1,0.2-2.1,0.4-3.2c0-0.3,0.1-0.5,0.1-0.8l0.7-4.4l0-0.1h0l2.3-0.2c4.4-0.4,8.5,2.2,10,6.2c0.1,0.3,0.2,0.5,0.3,0.8
				l0.2,0.9l0.1,0.5h0l1.2,4.2l0.3,1l0.4,1.4v0l1.2,4.4l0.1,0.5L296.3,414.8L296.3,414.8z"/>
			<path class="st18" d="M289.4,413v1.8h-10.7v-7.1c0-0.4,0-0.8,0-1.2c0-0.5,0-1,0.1-1.4v-0.1h0.5c0.9,0,1.8,0.1,2.6,0.3
				c2.7,0.6,4.9,2,6.2,3.8c0.1,0.2,0.2,0.4,0.4,0.5C289,410.6,289.4,411.8,289.4,413z"/>
			<path class="st18" d="M317.8,411.7v2.9h-7.3v-0.1c0-3.5,2.9-6.4,6.4-6.4h0.3C317.5,409.3,317.8,410.5,317.8,411.7z"/>
			<path class="st18" d="M296.5,394.1l-1.6,0.3c-0.3,0.1-0.7-0.2-0.7-0.5l0,0c-0.1-0.3,0.2-0.7,0.5-0.7l1.6-0.3
				c0.3-0.1,0.7,0.2,0.7,0.5l0,0C297,393.8,296.8,394.1,296.5,394.1z"/>
			<path class="st18" d="M297.2,396.7l-1.6,0.3c-0.3,0.1-0.7-0.2-0.7-0.5l0,0c-0.1-0.3,0.2-0.7,0.5-0.7l1.6-0.3
				c0.3-0.1,0.7,0.2,0.7,0.5l0,0C297.8,396.3,297.5,396.6,297.2,396.7z"/>
			<path class="st18" d="M298.3,398.8l-1.6,0.5c-0.3,0.1-0.7-0.1-0.8-0.4l0,0c-0.1-0.3,0.1-0.7,0.4-0.8l1.6-0.5
				c0.3-0.1,0.7,0.1,0.8,0.4l0,0C298.8,398.4,298.6,398.7,298.3,398.8z"/>
			<path class="st18" d="M299.8,400.7c-0.1,0.1-0.1,0.2-0.2,0.2l-1.5,0.8c-0.3,0.2-0.7,0.1-0.9-0.2l0,0c-0.2-0.3-0.1-0.7,0.2-0.9
				l1.5-0.8l0,0c0.3-0.2,0.7-0.1,0.9,0.2l0,0C299.9,400.3,299.9,400.5,299.8,400.7z"/>
			<path class="st18" d="M301.7,401.9c0,0.1-0.1,0.1-0.1,0.2l-1.1,1.3c-0.2,0.3-0.6,0.3-0.9,0.1l0,0c-0.3-0.2-0.3-0.6-0.1-0.9
				l1.1-1.3c0,0,0,0,0,0c0.2-0.3,0.6-0.3,0.9-0.1l0,0C301.7,401.4,301.8,401.7,301.7,401.9z"/>
			<path class="st18" d="M303.9,402.6c0,0.1,0,0.2,0,0.2l-0.5,1.6c-0.1,0.3-0.5,0.5-0.8,0.4h0c-0.3-0.1-0.5-0.5-0.4-0.8l0.5-1.6
				c0-0.1,0-0.1,0.1-0.2c0,0,0,0,0,0c0,0,0.1-0.1,0.1-0.1c0,0,0.1-0.1,0.1-0.1l0,0c0.1-0.1,0.3-0.1,0.5,0h0
				C303.7,402.1,303.9,402.3,303.9,402.6z"/>
			<path class="st18" d="M293.8,417.4c-0.2-0.1-0.4-0.1-0.6-0.2l-2.1-0.7v0.9h-13.2v-3.2h40.6v3.2H293.8z"/>
		</g>
		<path class="st29" d="M302,403.9c-1.4,1.2-2.9,2.2-4.5,3.1c-0.2,0.1-0.3,0.2-0.5,0.3c-0.4,0.2-0.7,0.4-1.1,0.5
			c-0.3,0.1-0.6,0.3-0.9,0.4c-0.2,0.1-0.3,0.1-0.5,0.2c-0.1,0-0.1,0.1-0.2,0.1c-0.3,0.1-0.6,0.3-0.9,0.4c-1,0.4-2,0.7-3,1
			c-0.5,0.2-1,0.3-1.6,0.4c-0.5,0.1-1,0.2-1.5,0.3c-2.9,0.6-5.8,0.8-8.7,0.8h-0.8v-2.2c0-0.4,0-0.8,0-1.2c0-0.5,0-1,0.1-1.4v-0.1
			c0-0.2,0-0.4,0.1-0.6c0-0.2,0-0.5,0-0.7c0-0.1,0-0.3,0-0.4c0.1-0.9,0.2-1.9,0.3-2.8c0.1,0,0.1,0,0.2,0.1c0.1,0,0.2,0.1,0.3,0.1
			c2.9,0.9,5.9,1.2,8.9,0.9c1.2-0.1,2.5-0.3,3.7-0.5c0.4-0.1,0.8-0.2,1.2-0.3c0.5-0.1,1-0.3,1.5-0.4c0.4-0.1,0.7-0.3,1.1-0.4
			c0.7-0.3,1.5-0.6,2.2-0.9c0,0,0,0,0,0.1c0.2,0.3,0.4,0.6,0.6,0.9l0,0c0.2-0.1,0.4-0.1,0.5,0c0.1,0,0.1,0,0.2,0.1
			c0.1,0,0.1,0.1,0.2,0.2h0c0.1,0.2,0.1,0.4,0,0.6c0,0,0,0,0.1,0.1c0.1,0.1,0.3,0.2,0.4,0.3c0.1,0.1,0.2,0.2,0.3,0.3
			c0.2-0.3,0.6-0.3,0.9-0.1l0.1,0.2c0.1,0.3,0.1,0.3,0.1,0.3c0,0.1,0,0.1,0,0.2C301.3,403.7,301.6,403.8,302,403.9z"/>
		<path class="st15" d="M304.5,288.7l-0.4,7l-2,35.6l-0.4,6.2c0.1,0.9,0,1.8-0.1,2.7c-0.7,5.4-4.6,9.9-9.9,11.3
			c-0.8,0.2-1.6,0.4-2.4,0.4l-0.3,0c-4.3,0.3-8.4-1.4-11.1-4.5c-0.4-0.5-0.8-1-1.2-1.5c-1.3-1.9-2.1-4.1-2.2-6.5l0-0.1l-2.2-37
			l-0.3-4.2l0-0.2l-0.2-3.2l-0.2-3.1c0.4-5.4,1.7-9,3.6-11.3C283.8,269.9,304.5,288.7,304.5,288.7z"/>
		<path class="st15" d="M302.2,395.7c0,2-0.8,3.8-2.3,5.1c-0.3,0.3-0.6,0.5-1,0.7c-0.6,0.4-1.4,0.7-2.2,0.8l-1.1,0.2l-1.4,0.3
			L293,403h0l-3.5,0.7l-7.4,1.4c-0.1,0-0.1,0-0.2,0c-1.1,0.2-2.2,0.1-3.2-0.2c-0.2-0.1-0.4-0.1-0.6-0.2c-2.4-1-4-3.4-4-6.2l0.1-10.4
			l0-11.3l0-1.7l0-5.4l0.2-28.4c0-0.6,0-1.2,0.1-1.8c0.3-2,0.9-3.9,2-5.6c0.1-0.2,0.3-0.4,0.4-0.6c2.4-3.4,6.4-5.6,10.8-5.7h0.3
			c3.6,0,6.9,1.3,9.4,3.6c2.4,2.3,4,5.4,4.2,8.9c0,0.3,0,0.5,0,0.8l0,1.4l0.2,13.8l0.1,11.1l0,2.4l0,5.4l0,1.7l0.1,11.3L302.2,395.7
			z"/>
		<path class="st23" d="M301.8,356.2h-6.1c-2.2,0-4-1.8-4-4v-16.9c0-2.2,1.8-4,4-4h6.3l-0.4,6.2c0.1,0.9,0.1,1.8-0.1,2.7
			c0,0.3,0,0.5,0,0.8l0,1.4L301.8,356.2z"/>
	</g>
	<path class="st19" d="M304.3,217.9c-15.8,5.2-6.5,25.7,8,17.4l18.7-16.8L328,206L304.3,217.9z"/>
	<polygon class="st55" points="336.8,202.3 321.6,207.5 325.8,222.9 339.8,213.2 	"/>
	<path class="st5" d="M323.6,208.6l2.1,14.3l5.3-3.6c2-1,1.5-1.2,4.2-1.3l6.2-1.4c1.6-4.9,3.6-9.7,3.2-15.2l-5.8,0.2l0-2.6l0,0
		c-0.2,0.1-5.5,1.1-5.9,1.2c-1.6,0.5-2.8,1.6-3.6,3.1l-0.4,0.9L323.6,208.6z"/>
	<g>
		<g>
			<path class="st36" d="M334.9,169.3L334.9,169.3L334.9,169.3c0-0.6,0.2-1.2,0.5-1.8c1-2.2,3.3-3.8,6.7-2.4l5.2,1.8
				c0.8,0.3,1.4,1.1,1.3,2l0,0.7l-7.9-0.5l-1,5.9l-0.4,6.6l-4.1-0.2l-0.1-11.3C334.9,169.9,334.9,169.6,334.9,169.3z"/>
			<path class="st37" d="M338.2,180.6l0.3-5.8l1.4-6.8l7.6,0.4c-0.1-0.3-0.3-0.5-0.6-0.6l-5.2-1.8l0,0c-0.6-0.2-1.2-0.4-1.7-0.4
				c-2.3-0.1-3.3,1.6-3.7,2.4c-0.2,0.4-0.3,0.9-0.4,1.4l0,0.1c0,0.2,0,0.4,0,0.6l0,0l0.1,10.4L338.2,180.6z"/>
			<path class="st36" d="M347.9,169.5c0-0.2,0.2-0.3,0.3-0.3c0.2,0,0.3,0.2,0.3,0.3c0,0.2-0.2,0.3-0.3,0.3
				C348,169.9,347.9,169.7,347.9,169.5z"/>
			<path class="st36" d="M347.3,169.5c0-0.2,0.2-0.3,0.3-0.3c0.2,0,0.3,0.2,0.3,0.3c0,0.2-0.2,0.3-0.3,0.3
				C347.4,169.8,347.3,169.7,347.3,169.5z"/>
			<path class="st36" d="M346.7,169.5c0-0.2,0.2-0.3,0.3-0.3c0.2,0,0.3,0.2,0.3,0.3c0,0.2-0.2,0.3-0.3,0.3
				C346.8,169.8,346.7,169.6,346.7,169.5z"/>
			<path class="st36" d="M346.1,169.4c0-0.2,0.2-0.3,0.3-0.3c0.2,0,0.3,0.2,0.3,0.3c0,0.2-0.2,0.3-0.3,0.3
				C346.2,169.8,346.1,169.6,346.1,169.4z"/>
			<path class="st36" d="M345.5,169.4c0-0.2,0.2-0.3,0.3-0.3c0.2,0,0.3,0.2,0.3,0.3c0,0.2-0.2,0.3-0.3,0.3
				C345.6,169.7,345.4,169.6,345.5,169.4z"/>
			<path class="st36" d="M344.8,169.4c0-0.2,0.2-0.3,0.3-0.3c0.2,0,0.3,0.2,0.3,0.3c0,0.2-0.2,0.3-0.3,0.3
				C345,169.7,344.8,169.5,344.8,169.4z"/>
			<path class="st36" d="M344.2,169.3c0-0.2,0.2-0.3,0.3-0.3c0.2,0,0.3,0.2,0.3,0.3c0,0.2-0.2,0.3-0.3,0.3
				C344.3,169.6,344.2,169.5,344.2,169.3z"/>
			<path class="st36" d="M343.6,169.3c0-0.2,0.2-0.3,0.3-0.3c0.2,0,0.3,0.2,0.3,0.3c0,0.2-0.2,0.3-0.3,0.3
				C343.7,169.6,343.6,169.5,343.6,169.3z"/>
			<path class="st36" d="M343,169.3c0-0.2,0.2-0.3,0.3-0.3c0.2,0,0.3,0.2,0.3,0.3c0,0.2-0.2,0.3-0.3,0.3
				C343.1,169.6,343,169.4,343,169.3z"/>
			<path class="st36" d="M342.4,169.2c0-0.2,0.2-0.3,0.3-0.3c0.2,0,0.3,0.2,0.3,0.3c0,0.2-0.2,0.3-0.3,0.3
				C342.5,169.5,342.4,169.4,342.4,169.2z"/>
			<path class="st36" d="M341.8,169.2c0-0.2,0.2-0.3,0.3-0.3c0.2,0,0.3,0.2,0.3,0.3c0,0.2-0.2,0.3-0.3,0.3
				C341.9,169.5,341.8,169.4,341.8,169.2z"/>
			<path class="st36" d="M341.1,169.1c0-0.2,0.2-0.3,0.3-0.3c0.2,0,0.3,0.2,0.3,0.3c0,0.2-0.2,0.3-0.3,0.3
				C341.3,169.5,341.1,169.3,341.1,169.1z"/>
		</g>
		<path class="st36" d="M342.6,181.9l1.5,3.5c0.3,0.6,0.4,1.3,0.3,1.9l-2.6,19.7l-4.3-0.3l1.2-20.6l-0.7-4.6L342.6,181.9z"/>
		<path class="st38" d="M334.8,236.7c0,0.6-0.6,1.1-1.2,1l0,0c-0.6,0-1.1-0.5-1-1.1l0.8-31.2l3.5,0.2L334.8,236.7z"/>
		<path class="st39" d="M335.4,180.9l4.3-2.9l7.2,0.4l-0.8,2c-0.4,1-1.1,1.9-2,2.5l-5.9,3.9l-1.3,18.7l-3.5-0.2l0.6-21.9
			C334,182.4,334.5,181.5,335.4,180.9z"/>
		<g>
			<path class="st36" d="M346.8,178.5l-7.2-0.4l0.2-2.6l7.9,0.5l0,0.8C347.7,177.5,347.3,178.1,346.8,178.5z"/>
			<path class="st36" d="M347.1,175.9c0-0.2,0.2-0.3,0.3-0.3c0.2,0,0.3,0.2,0.3,0.3s-0.2,0.3-0.3,0.3
				C347.3,176.2,347.1,176.1,347.1,175.9z"/>
			<path class="st36" d="M346.5,175.9c0-0.2,0.2-0.3,0.3-0.3c0.2,0,0.3,0.2,0.3,0.3c0,0.2-0.2,0.3-0.3,0.3
				C346.7,176.2,346.5,176,346.5,175.9z"/>
			<path class="st36" d="M345.9,175.8c0-0.2,0.2-0.3,0.3-0.3c0.2,0,0.3,0.2,0.3,0.3c0,0.2-0.2,0.3-0.3,0.3
				C346,176.2,345.9,176,345.9,175.8z"/>
			<path class="st36" d="M345.3,175.8c0-0.2,0.2-0.3,0.3-0.3c0.2,0,0.3,0.2,0.3,0.3c0,0.2-0.2,0.3-0.3,0.3
				C345.4,176.1,345.3,176,345.3,175.8z"/>
			<path class="st36" d="M344.7,175.8c0-0.2,0.2-0.3,0.3-0.3c0.2,0,0.3,0.2,0.3,0.3c0,0.2-0.2,0.3-0.3,0.3
				C344.8,176.1,344.7,175.9,344.7,175.8z"/>
			<path class="st36" d="M344.1,175.7c0-0.2,0.2-0.3,0.3-0.3c0.2,0,0.3,0.2,0.3,0.3c0,0.2-0.2,0.3-0.3,0.3
				C344.2,176,344.1,175.9,344.1,175.7z"/>
			<path class="st36" d="M343.5,175.7c0-0.2,0.2-0.3,0.3-0.3c0.2,0,0.3,0.2,0.3,0.3c0,0.2-0.2,0.3-0.3,0.3
				C343.6,176,343.4,175.9,343.5,175.7z"/>
			<path class="st36" d="M342.8,175.7c0-0.2,0.2-0.3,0.3-0.3c0.2,0,0.3,0.2,0.3,0.3c0,0.2-0.2,0.3-0.3,0.3
				C343,176,342.8,175.8,342.8,175.7z"/>
			<path class="st36" d="M342.2,175.6c0-0.2,0.2-0.3,0.3-0.3c0.2,0,0.3,0.2,0.3,0.3c0,0.2-0.2,0.3-0.3,0.3
				C342.3,175.9,342.2,175.8,342.2,175.6z"/>
			<path class="st36" d="M341.6,175.6c0-0.2,0.2-0.3,0.3-0.3c0.2,0,0.3,0.2,0.3,0.3c0,0.2-0.2,0.3-0.3,0.3
				C341.7,175.9,341.6,175.8,341.6,175.6z"/>
			<path class="st36" d="M341,175.5c0-0.2,0.2-0.3,0.3-0.3c0.2,0,0.3,0.2,0.3,0.3c0,0.2-0.2,0.3-0.3,0.3
				C341.1,175.9,341,175.7,341,175.5z"/>
			<path class="st36" d="M340.4,175.5c0-0.2,0.2-0.3,0.3-0.3c0.2,0,0.3,0.2,0.3,0.3c0,0.2-0.2,0.3-0.3,0.3
				C340.5,175.8,340.4,175.7,340.4,175.5z"/>
		</g>
		<path class="st40" d="M344.3,179.5c0,0.3,0.2,0.6,0.5,0.6c0.3,0,0.6-0.2,0.6-0.5c0-0.3-0.2-0.6-0.5-0.6
			C344.6,178.9,344.3,179.2,344.3,179.5z"/>
		<path class="st40" d="M340.5,179.2c0,0.3,0.2,0.6,0.5,0.6c0.3,0,0.6-0.2,0.6-0.5c0-0.3-0.2-0.6-0.5-0.6
			C340.8,178.7,340.5,178.9,340.5,179.2z"/>
		<path class="st40" d="M338.3,182.1c0,0.7,0.5,1.2,1.1,1.3c0.7,0,1.2-0.5,1.3-1.1c0-0.7-0.5-1.2-1.1-1.3
			C338.9,180.9,338.3,181.4,338.3,182.1z"/>
		<g>
			<path class="st36" d="M336.5,236.5c0,0.8,0.5,1.4,1.3,1.5l0,0c0.8,0,1.4-0.5,1.5-1.3l1.7-28.4c0-0.8-0.5-1.4-1.3-1.5l0,0
				c-0.8,0-1.4,0.5-1.5,1.3L336.5,236.5z"/>
			<path class="st39" d="M338,209.2c0,0.1,0.1,0.3,0.2,0.3l2.5,0.4c0.1,0,0.2-0.1,0.2-0.2l0,0c0-0.1-0.1-0.3-0.2-0.3l-2.5-0.4
				C338.1,208.9,338,209,338,209.2L338,209.2z"/>
			<path class="st39" d="M337.9,209.9c0,0.1,0.1,0.3,0.2,0.3l2.5,0.4c0.1,0,0.2-0.1,0.2-0.2l0,0c0-0.1-0.1-0.3-0.2-0.3l-2.5-0.4
				C338,209.7,337.9,209.8,337.9,209.9L337.9,209.9z"/>
			<path class="st39" d="M337.9,210.7c0,0.1,0.1,0.3,0.2,0.3l2.5,0.4c0.1,0,0.2-0.1,0.2-0.2l0,0c0-0.1-0.1-0.3-0.2-0.3l-2.5-0.4
				C338,210.5,337.9,210.5,337.9,210.7L337.9,210.7z"/>
			<path class="st39" d="M337.8,211.4c0,0.1,0.1,0.3,0.2,0.3l2.5,0.4c0.1,0,0.2-0.1,0.2-0.2l0,0c0-0.1-0.1-0.3-0.2-0.3l-2.5-0.4
				C338,211.2,337.8,211.3,337.8,211.4L337.8,211.4z"/>
			<path class="st39" d="M337.8,212.2c0,0.1,0.1,0.3,0.2,0.3l2.5,0.4c0.1,0,0.2-0.1,0.2-0.2l0,0c0-0.1-0.1-0.3-0.2-0.3L338,212
				C337.9,212,337.8,212.1,337.8,212.2L337.8,212.2z"/>
			<path class="st39" d="M337.7,212.9c0,0.1,0.1,0.3,0.2,0.3l2.5,0.4c0.1,0,0.2-0.1,0.2-0.2l0,0c0-0.1-0.1-0.3-0.2-0.3l-2.5-0.4
				C337.9,212.7,337.8,212.8,337.7,212.9L337.7,212.9z"/>
			<path class="st39" d="M337.7,213.7c0,0.1,0.1,0.3,0.2,0.3l2.5,0.4c0.1,0,0.2-0.1,0.2-0.2l0,0c0-0.1-0.1-0.3-0.2-0.3l-2.5-0.4
				C337.8,213.5,337.7,213.6,337.7,213.7L337.7,213.7z"/>
			<path class="st39" d="M337.7,214.5c0,0.1,0.1,0.3,0.2,0.3l2.5,0.4c0.1,0,0.2-0.1,0.2-0.2l0,0c0-0.1-0.1-0.3-0.2-0.3l-2.5-0.4
				C337.8,214.2,337.7,214.3,337.7,214.5L337.7,214.5z"/>
			<path class="st39" d="M337.6,215.2c0,0.1,0.1,0.3,0.2,0.3l2.5,0.4c0.1,0,0.2-0.1,0.2-0.2l0,0c0-0.1-0.1-0.3-0.2-0.3l-2.5-0.4
				C337.7,215,337.6,215.1,337.6,215.2L337.6,215.2z"/>
			<path class="st39" d="M337.6,216c0,0.1,0.1,0.3,0.2,0.3l2.5,0.4c0.1,0,0.2-0.1,0.2-0.2l0,0c0-0.1-0.1-0.3-0.2-0.3l-2.5-0.4
				C337.7,215.8,337.6,215.8,337.6,216L337.6,216z"/>
			<path class="st39" d="M337.5,216.7c0,0.1,0.1,0.3,0.2,0.3l2.5,0.4c0.1,0,0.2-0.1,0.2-0.2l0,0c0-0.1-0.1-0.3-0.2-0.3l-2.5-0.4
				C337.6,216.5,337.5,216.6,337.5,216.7L337.5,216.7z"/>
			<path class="st39" d="M337.5,217.5c0,0.1,0.1,0.3,0.2,0.3l2.5,0.4c0.1,0,0.2-0.1,0.2-0.2l0,0c0-0.1-0.1-0.3-0.2-0.3l-2.5-0.4
				C337.6,217.3,337.5,217.4,337.5,217.5L337.5,217.5z"/>
			<path class="st39" d="M337.4,218.2c0,0.1,0.1,0.3,0.2,0.3l2.5,0.4c0.1,0,0.2-0.1,0.2-0.2l0,0c0-0.1-0.1-0.3-0.2-0.3l-2.5-0.4
				C337.6,218,337.4,218.1,337.4,218.2L337.4,218.2z"/>
			<path class="st39" d="M337.4,219c0,0.1,0.1,0.3,0.2,0.3l2.5,0.4c0.1,0,0.2-0.1,0.2-0.2l0,0c0-0.1-0.1-0.3-0.2-0.3l-2.5-0.4
				C337.5,218.8,337.4,218.9,337.4,219L337.4,219z"/>
			<path class="st39" d="M337.3,219.8c0,0.1,0.1,0.3,0.2,0.3l2.5,0.4c0.1,0,0.2-0.1,0.2-0.2l0,0c0-0.1-0.1-0.3-0.2-0.3l-2.5-0.4
				C337.5,219.5,337.4,219.6,337.3,219.8L337.3,219.8z"/>
			<path class="st39" d="M337.3,220.5c0,0.1,0.1,0.3,0.2,0.3l2.5,0.4c0.1,0,0.2-0.1,0.2-0.2l0,0c0-0.1-0.1-0.3-0.2-0.3l-2.5-0.4
				C337.4,220.3,337.3,220.4,337.3,220.5L337.3,220.5z"/>
			<path class="st39" d="M337.3,221.3c0,0.1,0.1,0.3,0.2,0.3l2.5,0.4c0.1,0,0.2-0.1,0.2-0.2l0,0c0-0.1-0.1-0.3-0.2-0.3l-2.5-0.4
				C337.4,221,337.3,221.1,337.3,221.3L337.3,221.3z"/>
			<path class="st39" d="M337.2,222c0,0.1,0.1,0.3,0.2,0.3l2.5,0.4c0.1,0,0.2-0.1,0.2-0.2l0,0c0-0.1-0.1-0.3-0.2-0.3l-2.5-0.4
				C337.3,221.8,337.2,221.9,337.2,222L337.2,222z"/>
			<path class="st39" d="M337.2,222.8c0,0.1,0.1,0.3,0.2,0.3l2.5,0.4c0.1,0,0.2-0.1,0.2-0.2l0,0c0-0.1-0.1-0.3-0.2-0.3l-2.5-0.4
				C337.3,222.6,337.2,222.6,337.2,222.8L337.2,222.8z"/>
		</g>
		<g>
			<path class="st41" d="M337.3,209l4.4,0.3c0.1,0,0.3-0.1,0.3-0.2l0.1-1.8c0-0.1-0.1-0.3-0.2-0.3l-4.4-0.3c-0.1,0-0.3,0.1-0.3,0.2
				l-0.1,1.8C337.1,208.9,337.2,209,337.3,209z"/>
			<g>
				<path class="st40" d="M341.6,208.9c0,0.1,0.1,0.2,0.1,0.2l0,0c0.1,0,0.1-0.1,0.2-0.1l0.1-1.6c0-0.1-0.1-0.2-0.1-0.2l0,0
					c-0.1,0-0.1,0.1-0.2,0.1L341.6,208.9z"/>
				<path class="st40" d="M341.1,208.9c0,0.1,0.1,0.2,0.1,0.2l0,0c0.1,0,0.1-0.1,0.2-0.1l0.1-1.6c0-0.1-0.1-0.2-0.1-0.2l0,0
					c-0.1,0-0.1,0.1-0.2,0.1L341.1,208.9z"/>
				<path class="st40" d="M340.7,208.9c0,0.1,0.1,0.2,0.1,0.2l0,0c0.1,0,0.1-0.1,0.2-0.1l0.1-1.6c0-0.1-0.1-0.2-0.1-0.2l0,0
					c-0.1,0-0.1,0.1-0.2,0.1L340.7,208.9z"/>
				<path class="st40" d="M340.3,208.9c0,0.1,0.1,0.2,0.1,0.2l0,0c0.1,0,0.1-0.1,0.2-0.1l0.1-1.6c0-0.1-0.1-0.2-0.1-0.2l0,0
					c-0.1,0-0.1,0.1-0.2,0.1L340.3,208.9z"/>
				<path class="st40" d="M339.9,208.8c0,0.1,0.1,0.2,0.1,0.2l0,0c0.1,0,0.1-0.1,0.2-0.1l0.1-1.6c0-0.1-0.1-0.2-0.1-0.2l0,0
					c-0.1,0-0.1,0.1-0.2,0.1L339.9,208.8z"/>
				<path class="st40" d="M339.4,208.8c0,0.1,0.1,0.2,0.1,0.2l0,0c0.1,0,0.1-0.1,0.2-0.1l0.1-1.6c0-0.1-0.1-0.2-0.1-0.2l0,0
					c-0.1,0-0.1,0.1-0.2,0.1L339.4,208.8z"/>
				<path class="st40" d="M339,208.8c0,0.1,0.1,0.2,0.1,0.2l0,0c0.1,0,0.1-0.1,0.2-0.1l0.1-1.6c0-0.1-0.1-0.2-0.1-0.2l0,0
					c-0.1,0-0.1,0.1-0.2,0.1L339,208.8z"/>
				<path class="st40" d="M338.6,208.8c0,0.1,0.1,0.2,0.1,0.2l0,0c0.1,0,0.1-0.1,0.2-0.1l0.1-1.6c0-0.1-0.1-0.2-0.1-0.2l0,0
					c-0.1,0-0.1,0.1-0.2,0.1L338.6,208.8z"/>
				<path class="st40" d="M338.1,208.7c0,0.1,0.1,0.2,0.1,0.2l0,0c0.1,0,0.1-0.1,0.2-0.1l0.1-1.6c0-0.1-0.1-0.2-0.1-0.2l0,0
					c-0.1,0-0.1,0.1-0.2,0.1L338.1,208.7z"/>
				<path class="st40" d="M337.7,208.7c0,0.1,0.1,0.2,0.1,0.2l0,0c0.1,0,0.1-0.1,0.2-0.1l0.1-1.6c0-0.1-0.1-0.2-0.1-0.2l0,0
					c-0.1,0-0.1,0.1-0.2,0.1L337.7,208.7z"/>
				<path class="st40" d="M337.3,208.7c0,0.1,0.1,0.2,0.1,0.2l0,0c0.1,0,0.1-0.1,0.2-0.1l0.1-1.6c0-0.1-0.1-0.2-0.1-0.2l0,0
					c-0.1,0-0.1,0.1-0.2,0.1L337.3,208.7z"/>
			</g>
		</g>
	</g>
	<path class="st19" d="M282.1,191.8c5.5,0.9,8.9-0.8,8.9-0.8l-2.9-24.1c-1.5,0.2-10.3-0.1-16.8-0.4l-0.1,16.1l0,2.2
		c-0.1,0.1-0.1,0.1-0.2,0.2C269.9,186.7,278,191.2,282.1,191.8z"/>
	<path class="st15" d="M304.1,295.7c-5.9,3.6-13.9,6.2-23.5,6.9c-2.6,0.2-5.3,0.3-8.1,0.2c0-0.1-0.1-0.2-0.1-0.3
		c-4.4-9-5.2-17.3-3.8-25.9c-2.2-15.8-4.6-32.7-4.7-34.4c0-0.7-0.1-1.5-0.1-2.2c-1.1-15-3.6-28.2-0.5-39.4c0.9-3.3,2.6-6.3,4-9h23.5
		c3.2,3.5,10.5,11.3,13.8,20.4c0.8,2.2,4.5,14.4,7.4,30c0.6,3.1,1.1,6.2,1.6,9.5c1.2,8.3,2.1,17.2,2.1,25.7
		C316.1,284.1,311.9,290.9,304.1,295.7z"/>
	<g>
		<path class="st3" d="M300.5,168.7l-1.6,0.7c0.1,1.2,1.4,7.8,1.4,7.8c0.3,3-0.9,7.3-4.5,7.7l-3.9,0.3c-4.7,0.1-12.4-4.6-13.1-12.5
			c-2.9,0-7.2,3.7-7.9,0.9c-0.7-3-4.6-7.1-5.4-11.1c-1.7-17.9,9.5-18.3,16.1-19.2c7-0.6,14.1,2.8,16.9,12c0.3,1.1,0.6,2.2,0.8,3.5
			c-0.3,1.2-0.6,2.2-0.6,2.2l0.5,0.9l2.4,3.9C302.1,167,301.6,168.3,300.5,168.7z"/>
		<path class="st56" d="M271.8,177.7c12.4,1.1,3.9-11.9,3.9-11.9s3.3,4,4.4,5.1c2-0.3,2-0.3,3.7-0.6c-1.2-15.3-5-21.7,12.2-20.3
			c-3.2-6.3-11.3-10.5-16.4-8.5c-8.4,3.4-16.1,7.2-15.7,16.2C264,162.9,263.8,165.9,271.8,177.7z"/>
		<path class="st3" d="M273.7,167.3c0.4,2.8,3.1,5.7,5,5.5c1.8-0.2,1.3-2.5,1-5.3c-0.2-1.9-0.1-4.5-2.2-4.9
			C275.7,162.3,273.2,163.1,273.7,167.3z"/>
	</g>
	<path class="st21" d="M304.5,212c-1.7,0.4-3.4,0.9-5,1.3c-3.1-5.1-6.6-11.2-10.9-15.3c-5-4.8-10.6-6.4-16.3-5
		c-3.7,0.9-6.9,3.1-9.1,7.6c1.4-5.2,3.4-9.7,6.1-13.3c0.6-0.8,2-2.3,2-2.4c5.8,3.9,16.9,6.9,19.8,6.1C291,191,299.9,199.6,304.5,212
		z"/>
	<path class="st15" d="M297.6,153l-13.2,3.9c0,0,0,0,0,0l-13,3.9L271,161l-0.5,0.2l-6.2,1.9l-1-6.7c-0.6-5.2,2.9-11,7.8-13l7.8-3.2
		c6.8-2.8,14.1,1.2,17,8c0.1,0.2,0.2,0.4,0.3,0.6l0.6,1.6L297.6,153z"/>
	<path class="st2" d="M270.1,146.3c-3.1,2.1-5.2,6.2-4.8,9.7l0.7,4.3l20.6-6.1C279.3,153.8,272,152.3,270.1,146.3z"/>
	<path class="st22" d="M294.1,149.8l-0.1-0.2l-0.2-0.6c-2-4.5-6.2-7.6-10.5-7.6c-1.3,0-2.5,0.2-3.7,0.7l-5,2
		c6.9-0.8,13.1,1.9,17.6,6.5C292.8,150.4,293.4,150.1,294.1,149.8z"/>
	<path class="st23" d="M311,149.1c-1,2.7-3.2,4.1-6.5,5.1c-2.1,0.6-4.6,1-7.5,1.4c-3.1,0.4-12.1,1.3-12.5,1.4
		c3.7-2.7,7.3-5,12.2-6.6c0,0,3.1-0.4,6.4-0.7C306.8,149.3,310.9,148.9,311,149.1z"/>
	<path class="st24" d="M298.7,161.1l0.5,0.9c-9.5,1-19.2-0.5-28.7-0.9l0.5-0.2h0.4c0,0,0-0.1,0-0.1l13-3.9c0,0,0,0,0,0
		c0.4,0,9.4-0.9,12.5-1.4c0.5-0.1,1-0.2,1.5-0.2c0.3,1.1,0.6,2.2,0.8,3.5C299,160.1,298.7,161.1,298.7,161.1z"/>
	<path class="st10" d="M325.8,222.9l3.9-13.4c6.4,0.5,7.3-5.4,7.3-5.4l0.7-0.1c0.3-0.1,0.7,0,1,0.2l1.6,1.3c0.6,0.5,1.3,0.7,2,0.6
		c0.7-0.1,1.4-0.4,1.8-1l0.3-0.3c0.4-0.6,0.4-1.4-0.2-1.8l-1.8-1.4l-2.6-2.1c-0.3-0.2-0.6-0.3-1-0.3l0,0c-0.2,0.1-5.5,1.1-5.9,1.2
		c-1.6,0.5-2.8,1.6-3.6,3.1l-0.4,0.9l-7.4,3.3L325.8,222.9z"/>
	<path class="st10" d="M340.8,204.3c-1.1,0.1-2.1-0.8-2.1-1.9l0-0.4c0-0.5,0.2-1.1,0.5-1.5c0.4-0.4,0.9-0.6,1.4-0.7l4.1-0.2
		c1-0.1,1.9,0.8,2,1.8l0,0.8c0.1,1-0.7,1.8-1.7,1.9L340.8,204.3z"/>
	<path class="st10" d="M339.9,208.8c-0.5,0-1.1-0.1-1.5-0.5c-0.4-0.4-0.7-0.9-0.7-1.4l0-0.4c-0.1-1.1,0.8-2.1,1.9-2.1l5.2-0.3
		c0.5,0,1,0.1,1.4,0.5c0.4,0.3,0.6,0.8,0.6,1.3l0,0.8c0.1,1-0.7,1.8-1.7,1.9L339.9,208.8z"/>
	<path class="st10" d="M340.6,213c-1.1,0.1-2.1-0.8-2.1-1.9l0-0.4c0-0.5,0.2-1.1,0.5-1.5c0.4-0.4,0.9-0.6,1.4-0.7l4.1-0.2
		c1-0.1,1.9,0.7,2,1.8l0,0.8c0,0.5-0.1,0.9-0.5,1.3c-0.3,0.3-0.8,0.6-1.2,0.6L340.6,213z"/>
	<path class="st10" d="M340.3,216.7c-0.9,0-1.6-0.7-1.6-1.6l0-0.3c0-0.9,0.6-1.7,1.5-1.8l3.2-0.2c0.8,0,1.5,0.6,1.5,1.5l0,0.6
		c0,0.8-0.5,1.5-1.3,1.5L340.3,216.7z"/>
	<path class="st2" d="M313.5,251.5l-10.4,3.6c-8.5,2.9-17.8-1.1-21.4-9.3L268,215.3l18.6-2.6l25.2,29.3
		C312.5,245.1,313,248.3,313.5,251.5z"/>
	<g>
		<path class="st3" d="M325.4,234.9l-0.5,0.3l-2.3,1.3L302.7,248c-7.1,3.8-12.9,0.9-15.1-3.6c-1.1-2.3-1.3-4.9-0.4-7.4
			c1-2.8,3.6-5.3,7.9-6.6l5.6-1.9l18-6.2l3.6-1.2L325.4,234.9z"/>
		<polygon class="st3" points="302.7,231.5 292.3,243.2 289.2,246.6 287.7,244.4 280.6,234 283.3,232.3 297.6,223.5 300.8,228.5 		
			"/>
		<path class="st21" d="M297.6,223.5l-14.3,8.9l-2.7,1.7L268,215.3c-0.1-0.2-0.3-0.5-0.4-0.7c-8.3-14.9,9.9-22.7,17.8-10.3
			L297.6,223.5z"/>
		<polygon class="st10" points="338.1,229.4 337.4,229.7 336,230.3 328.5,233.8 326.5,234.7 326.5,234.7 322.6,236.5 322,236.8 
			321.9,236.2 318.8,222.3 318.5,221.2 326.6,219.8 335.4,218.3 335.5,218.3 337.4,226.5 		"/>
		<g>
			<path class="st10" d="M326.5,231.8c0.3,1.7,2.6,2.5,5.2,2.5l8.6-0.3c0.2,0,0.3-0.1,0.3-0.2c1.6-4.9,1.6-9.5,1.3-15
				c0-0.1,0-0.2-0.1-0.2l-1.4-1.5c-0.1-0.1-0.2-0.1-0.3-0.1c-1.3,0-9.8,0.2-10.2,0.3c-1.6,0.4-2.9,1.6-3.6,3.1c0,0,0,0,0,0
				C326.3,220.4,326.5,231.6,326.5,231.8z"/>
			<path class="st5" d="M339.9,221.5c-1.3,0.1-2.5-1-2.5-2.3l0,0c0-0.5,0.2-1.1,0.5-1.5c0.4-0.4,0.9-0.6,1.4-0.7l3.8-0.2
				c1.3-0.1,2.3,0.9,2.4,2.2l0,0.1c0,1.2-0.9,2.2-2.1,2.2L339.9,221.5z"/>
			<path class="st5" d="M339.2,226c-0.6,0-1.1-0.2-1.5-0.5c-0.4-0.4-0.7-0.9-0.7-1.4l0,0c-0.1-1.3,1-2.4,2.3-2.5l4.9-0.3
				c0.5,0,1,0.2,1.4,0.5c0.4,0.3,0.6,0.8,0.6,1.4l0,0.4c0,1.2-0.9,2.2-2,2.2L339.2,226z"/>
			<path class="st5" d="M339.3,230.4c-1.3,0.1-2.5-1-2.5-2.3l0,0c0-0.5,0.2-1.1,0.5-1.5c0.4-0.4,0.9-0.6,1.4-0.7l3.8-0.2
				c1.3-0.1,2.3,0.9,2.4,2.2l0,0.4c0,0.5-0.2,0.9-0.5,1.3c-0.3,0.4-0.8,0.6-1.3,0.6L339.3,230.4z"/>
			<path class="st5" d="M339.2,234c-0.9,0-1.6-0.7-1.7-1.6l0-0.3c0-0.9,0.6-1.7,1.5-1.8l3.2-0.1c0.8,0,1.5,0.7,1.5,1.5l0,0.6
				c0,0.8-0.6,1.5-1.3,1.5L339.2,234z"/>
			<path class="st10" d="M336.2,234.1l4-0.1c1-0.1,1.7-1,1.6-2.1l0,0c-0.1-1.1-1-1.9-2-1.8l0.7,0c1.2-0.1,2.1-1.1,2-2.3l0,0
				c-0.1-1.2-1.1-2.1-2.2-2l0.6,0c1.2-0.1,2.1-1.1,2-2.3l0,0c-0.1-1.2-1.1-2.1-2.2-2c1.2-0.1,2.1-1.1,2-2.3l0,0
				c-0.1-1.2-1.1-2.1-2.2-2l-5.1,0.3L336.2,234.1z"/>
		</g>
	</g>
	<path class="st2" d="M292.8,404.5c-2.6,0.7-5.2,1.5-7.8,1.9c-1.3,0.2-2.7,0.3-4,0.3c-0.8,0-1.5,0-2.3-0.1c-0.2,0-0.5-0.1-0.7-0.1
		c0-0.2,0-0.4,0.1-0.6c0-0.2,0-0.5,0-0.7c0-0.1,0-0.3,0-0.4c-2.4-1-4-3.4-4-6.2l0.1-10.4l0-11.3l0-1.7l0-5.4l0.2-28.4
		c0-0.6,0-1.2,0.1-1.8l-2.2-37c-4.4-9-5.2-17.3-3.8-25.9c-2.2-15.8-4.6-32.7-4.7-34.4c0-0.7-0.1-1.5-0.1-2.2
		c3,13.7,8,51.8,23.2,55.7c-2.7,1.7-4.7,4.1-6.2,6.9c-0.9,1.7-1.6,3.5-2.1,5.3c-1.3,4.9-1.4,10-1.5,15c0,3.5-0.1,6.9-0.1,10.4
		c-0.1,4.2-0.1,8.5-0.2,12.7c-0.1,8.8-0.2,17.5-0.4,26.3c-0.1,6.6-0.1,13.5,2.2,19.7c0.4,1,0.9,2.1,1.4,3.1c0,0,0,0,0,0
		c1.9,3.3,4.6,6.2,7.9,7.9c0.5,0.3,1.1,0.5,1.6,0.7C290.6,404.1,291.7,404.4,292.8,404.5z"/>
	<path class="st11" d="M326.5,234.7l-3.9,1.8L302.7,248c-7.1,3.8-12.9,0.9-15.1-3.6l-7.1-10.4L268,215.3c-0.1-0.2-0.3-0.5-0.4-0.7
		c5.8,5.7,10.4,11.5,15.7,17.7c1.2,1.5,2.5,2.9,3.7,4.4l0.2,0.2c1.7,2,3,4.5,5,6.1c0.6,0.5,1.2,0.9,1.9,1.1c2.3,0.9,4.9,0.8,7.3,0.1
		c7.2-1.9,13.5-5.6,20.4-8.2c1-0.4,2-0.7,3.1-1.1C325.5,235,326,234.8,326.5,234.7z"/>
</g>
</svg>
