<?xml version="1.0"?>
<svg xmlns="http://www.w3.org/2000/svg" xmlns:xlink="http://www.w3.org/1999/xlink" viewBox="0 0 512 512" width="512" height="512"><linearGradient id="a" gradientUnits="userSpaceOnUse" x1="135.977" x2="135.977" y1="12" y2="490.602"><stop offset="0" stop-color="#00efd1"/><stop offset="1" stop-color="#00acea"/></linearGradient><linearGradient id="b" x1="321.23" x2="321.23" xlink:href="#a" y1="12" y2="490.602"/><linearGradient id="c" x1="274.265" x2="274.265" xlink:href="#a" y1="12" y2="490.602"/><path d="m135.978 199.034a56.966 56.966 0 1 0 56.964 56.966 57.03 57.03 0 0 0 -56.964-56.966zm0 93.932a36.966 36.966 0 1 1 36.964-36.966 37.008 37.008 0 0 1 -36.964 36.966z" fill="url(#a)"/><path d="m422.988 215h-203.516a10 10 0 1 0 0 20h203.516a10 10 0 1 0 0-20z" fill="url(#b)"/><path d="m219.472 297h109.586a10 10 0 0 0 0-20h-109.586a10 10 0 1 0 0 20z" fill="url(#c)"/><path d="m135.978 42.483a56.966 56.966 0 1 0 56.964 56.965 57.03 57.03 0 0 0 -56.964-56.965zm0 93.931a36.966 36.966 0 1 1 36.964-36.966 37.008 37.008 0 0 1 -36.964 36.966z" fill="url(#a)"/><path d="m422.988 58h-203.516a10 10 0 1 0 0 20h203.516a10 10 0 0 0 0-20z" fill="url(#b)"/><path d="m219.472 141h109.586a10 10 0 0 0 0-20h-109.586a10 10 0 1 0 0 20z" fill="url(#c)"/><path d="m135.978 355.586a56.966 56.966 0 1 0 56.964 56.966 57.03 57.03 0 0 0 -56.964-56.966zm0 93.931a36.966 36.966 0 1 1 36.964-36.965 37.007 37.007 0 0 1 -36.964 36.965z" fill="url(#a)"/><path d="m422.988 371h-203.516a10 10 0 1 0 0 20h203.516a10 10 0 1 0 0-20z" fill="url(#b)"/><path d="m329.058 434h-109.586a10 10 0 1 0 0 20h109.586a10 10 0 0 0 0-20z" fill="url(#c)"/></svg>
