<?xml version="1.0" encoding="utf-8"?>
<!-- Generator: Adobe Illustrator 22.0.0, SVG Export Plug-In . SVG Version: 6.00 Build 0)  -->
<svg version="1.1" id="Layer_1" xmlns="http://www.w3.org/2000/svg" xmlns:xlink="http://www.w3.org/1999/xlink" x="0px" y="0px"
	 viewBox="0 0 50 50" style="enable-background:new 0 0 50 50;" xml:space="preserve">
<style type="text/css">
	.st0{fill:#33140D;}
	.st1{clip-path:url(#SVGID_2_);fill:#33140D;}
	.st2{clip-path:url(#SVGID_4_);}
	.st3{fill:#F89747;}
	.st4{fill:#F5822A;}
	.st5{fill:#FDDEC0;}
	.st6{fill:#DF9987;}
	.st7{fill:#FFFFFF;}
	.st8{fill:#A3A3A2;}
	.st9{fill:#909BCE;}
	.st10{fill:#925850;}
	.st11{fill:#CFCFCE;}
	.st12{fill:#DCD6D2;}
	.st13{fill:#234785;}
</style>
<g>
	<path class="st0" d="M43.4,8.1c-0.1,0-10.4-5-18.5-5S6.5,8,6.4,8.1L6.3,8.2v25c0,3,2.4,9.1,18.5,16l0.1,0l0.1,0
		c16.1-6.9,18.5-13,18.5-16v-25L43.4,8.1z M43,33.2c0,2.9-2.4,8.7-18.1,15.5C9.2,41.9,6.8,36.1,6.8,33.2V8.5
		c1.3-0.6,10.6-4.9,18.1-4.9c7.5,0,16.8,4.3,18.1,4.9V33.2z"/>
	<path class="st0" d="M41.8,8.8c-0.1,0-2.5-1.2-5.6-2.2c-3-1-7.4-2.2-11.3-2.2s-8.3,1.2-11.3,2.2C10.4,7.7,8,8.8,8,8.8L7.4,9.1v23.6
		c0,3.5,3,9,17.1,15.2l0.4,0.2l0.4-0.2c14.1-6.2,17.1-11.7,17.1-15.2V9.1L41.8,8.8z M40.3,10.4v22.2c0,2.3-2,7.1-15.4,13.1
		C11.5,39.7,9.5,35,9.5,32.6V10.4c2.3-1,9.5-4,15.4-4C30.8,6.4,38,9.4,40.3,10.4z"/>
	<g>
		<defs>
			<path id="SVGID_1_" d="M24.9,5.4c-7.3,0-16.4,4.3-16.4,4.3s0,20.3,0,22.9c0,2.7,2.1,7.9,16.4,14.2c14.4-6.3,16.4-11.6,16.4-14.2
				c0-2.7,0-22.9,0-22.9S32.2,5.4,24.9,5.4z"/>
		</defs>
		<use xlink:href="#SVGID_1_"  style="overflow:visible;fill:#FFFFFF;"/>
		<clipPath id="SVGID_2_">
			<use xlink:href="#SVGID_1_"  style="overflow:visible;"/>
		</clipPath>
		<path class="st1" d="M50.3,27.3c0.1-0.5,0.1-1.1,0.1-1.6l-17.3,0.8c0,0,0-0.1,0-0.1l17.3-2.8c0-0.6-0.1-1.1-0.1-1.7l-17.2,4.4
			c0,0,0-0.1,0-0.1L50,19.5c-0.1-0.6-0.2-1.2-0.4-1.7L33.1,26c0,0,0,0,0-0.1l16.2-9.5c-0.2-0.6-0.4-1.2-0.6-1.7L33,25.9
			c0,0,0-0.1-0.1-0.1l14.6-13.3c-0.3-0.6-0.6-1.1-1-1.7L32.8,25.7c0,0-0.1,0-0.1-0.1L45.1,8.9c-0.4-0.5-0.9-1.1-1.3-1.6L32.7,25.6
			c0,0-0.1,0-0.1-0.1l9.2-20.3c-0.6-0.5-1.1-1-1.7-1.4l-7.5,21.7c0,0,0,0-0.1,0l6-22.8c-0.7-0.4-1.3-0.8-2-1.1l-4,23.9
			c0,0-0.1,0-0.1,0l1.1-25.2C32.6,0,31.8-0.2,31-0.4l1.2,25.9c0,0-0.1,0-0.1,0L27.7-1c-0.9-0.1-1.7-0.1-2.6-0.2l6.8,26.6
			c0,0-0.1,0-0.1,0L21.5-0.9c-0.9,0.1-1.8,0.3-2.7,0.5l12.9,26c0,0,0,0-0.1,0L16.8,0.2c-0.9,0.3-1.8,0.6-2.6,1l17.4,24.4
			c0,0-0.1,0-0.1,0.1L10.8,3.1C10,3.6,9.2,4.2,8.5,4.8l22.9,21c0,0,0,0.1-0.1,0.1L6,7.2C5.3,7.9,4.7,8.7,4.2,9.5l27.2,16.5
			c0,0,0,0.1-0.1,0.1L2.1,12.9c-0.4,0.9-0.8,1.8-1.2,2.7l30.3,10.6c0,0,0,0,0,0.1L0.1,18.1C-0.1,19-0.3,20-0.5,21l31.6,5.3
			c0,0,0,0.1,0,0.1L-0.7,25c0,1,0.1,2,0.2,2.9l31.6-1.4c0,0,0,0.1,0,0.1l-30.8,5c0.3,0.9,0.6,1.8,1,2.7l29.9-7.7c0,0,0,0.1,0,0.1
			l-28.2,11c0.5,0.8,1,1.6,1.6,2.3l26.6-13.2c0,0,0,0,0,0.1L6.1,41.7c0.6,0.7,1.3,1.3,2,1.9L31.4,27c0,0,0,0.1,0.1,0.1L10.9,45.9
			c0.7,0.5,1.5,0.9,2.3,1.3l18.3-20c0,0,0.1,0,0.1,0.1L16,48.4c0.8,0.3,1.6,0.5,2.4,0.8l13.3-21.9c0,0,0.1,0,0.1,0.1L21.6,49.8
			c0.8,0.1,1.6,0.2,2.4,0.2l7.9-22.6c0,0,0,0,0.1,0L26,50c0.8,0,1.5-0.1,2.2-0.2L32,27.4c0,0,0.1,0,0.1,0l-1,21.8
			c0.7-0.2,1.4-0.4,2-0.6l-1-21.2c0,0,0.1,0,0.1,0l3.3,20.2c0.6-0.3,1.2-0.6,1.8-0.9l-4.9-19.3c0,0,0.1,0,0.1,0l7,18
			c0.5-0.4,1-0.7,1.5-1.1l-8.4-16.9c0,0,0,0,0.1,0l9.4,16c0.4-0.4,0.9-0.8,1.3-1.2L32.7,27.3c0,0,0.1,0,0.1-0.1l12,13.2
			c0.4-0.4,0.7-0.9,1-1.4l-13-11.9c0,0,0-0.1,0.1-0.1l14,10.3c0.3-0.5,0.5-1,0.8-1.4L33,27c0,0,0-0.1,0.1-0.1l15.6,7
			c0.2-0.5,0.4-1,0.6-1.5l-16.1-5.6c0,0,0,0,0-0.1L49.6,31c0.1-0.5,0.3-1,0.4-1.6l-16.8-2.8c0,0,0-0.1,0-0.1L50.3,27.3z"/>
	</g>
	<g>
		<defs>
			<path id="SVGID_3_" d="M41.4,23.1c0-6.3,0-13.3,0-13.3s-3.9-1.9-8.6-3.1V4.7l-2.8-2l-5.8-2.3l-5.9,3.2v1.1l0.1,1.5
				c-5.3,1.3-9.9,3.5-9.9,3.5s0,20.3,0,22.9s2.1,7.9,16.4,14.2c11.1-4.9,14.9-9.1,16-12l2-0.9l0.9-2.2L41.4,23.1z"/>
		</defs>
		<clipPath id="SVGID_4_">
			<use xlink:href="#SVGID_3_"  style="overflow:visible;"/>
		</clipPath>
		<g class="st2">
			<g>
				<path class="st3" d="M32.2,22l1-3.7c0-0.1-0.1-0.2-0.7-0.3c-0.5-0.1-0.7,0.1-0.7,0.1l-0.6,2.5C31.6,21,31.9,21.4,32.2,22z"/>
				<path class="st3" d="M27.1,30.5c-0.7,0-5.9,0.4-7.4,0.4c-0.5,0-0.8,0.1-1,0.3c-0.2,0.2-0.1,0.6-0.1,0.9c0,0.1,0,0.1,0,0.2
					c0,0.1,0,0.2,0.1,0.4l8.7-0.6c-0.1-0.2-0.2-0.4-0.2-0.8C27.2,31,27.2,30.7,27.1,30.5z"/>
				<path class="st3" d="M36.3,43c-0.3,0-0.6,0-0.9,0.1c-0.6,0.2-0.8,0.5-0.8,1c0,0.4,0.2,2.2,0.2,2.2l0,0.1l-0.1,0
					c-0.9,0-1.8-1.6-2-2.7c-0.1-0.3-0.1-0.5-0.1-0.8c-2.1,0.3-6.1,0.4-9.6,0.4c-2.4,0-4.6-0.1-5.7-0.2c-0.1,0.1-0.4,0.5-0.4,3.5
					l8,0.1l11.4-0.1c0.2-1.4,0.1-2.4,0-3.3C36.3,43.3,36.3,43.2,36.3,43z"/>
				<path class="st3" d="M27.6,32.1l-8.8,0.6c0.2,1.4,0.7,5.1,0.7,6c0,0.5,0.1,1.4,0.8,2c0.8,0.7,2.1,0.9,4,0.7
					c4.3-0.4,6.3-1.1,6.2-2.1c0-0.5-0.1-1.2-0.1-1.2c-0.2-0.3-0.2-0.5-0.2-0.6c-0.1,0-0.2-0.1-0.4-0.2c-0.2-0.2-0.5-0.5-0.7-1.1
					C29,35.7,29,35.3,29,35.1c-0.1,0-0.2,0-0.3-0.1c-0.3-0.2-0.5-0.5-0.7-1.1c-0.2-0.9-0.1-1.3,0-1.4C27.9,32.5,27.7,32.4,27.6,32.1
					z"/>
				<path class="st3" d="M17.3,43.2l0.3,0c3.1,0.3,11.7,0.2,15-0.3c0-0.5,0.2-0.8,0.4-1.3c0-0.1,0.1-0.2,0.1-0.3
					c0.4-0.8,0.3-1.5-0.1-2.6c-0.3,0.1-0.6,0.1-0.9,0.1c-0.5,0-0.9-0.1-1.2-0.4c-0.1-0.1-0.2-0.2-0.3-0.3c0,0.2,0.1,0.7,0.1,1
					c0.1,1.2-1.9,1.9-6.3,2.3c-0.4,0-0.8,0.1-1.1,0.1c-1.3,0-2.3-0.3-3-0.8c-0.8-0.7-0.8-1.6-0.8-2.1c-0.1-1.1-0.7-6-0.8-6.5
					c0,0,0-0.1,0-0.2c-0.1-0.3-0.1-0.7,0.1-1c0.2-0.2,0.5-0.3,1.1-0.3c1.4,0,6.7-0.3,7.4-0.4C27,29.8,27,29.3,27.3,29c0,0,0,0,0,0
					c0,0,0.1-0.1,0.2-0.1c0.5-0.4,1.3-0.8,1.7-0.9l-0.1-0.2c0-0.1-0.1-0.2-0.1-0.3c-0.1,0-2.3,0.2-5,0.3c-0.7,0-1.3,0-1.9,0
					c-1.6,0-2.8,0-3,0c0,0.5-0.1,1-0.1,1.4c0,0.3-0.2,0.5-0.5,0.5c0,0,0,0,0,0l-0.6,0c-0.3,0-0.5-0.2-0.5-0.5l0-0.6
					c-0.2,0.4-0.8,1.3-1.1,1.9c-0.2,0.4-0.6,0.7-0.9,1c-0.2,0.2-0.4,0.4-0.5,0.6c0,0.1,0.1,0.4,0.3,0.8c0.3,0.6,0.7,1.5,0.8,2.6
					c0.1-0.3,0.1-0.5,0.2-0.8c0.1-0.4,0.2-0.8,0.1-1.2c0,0.4,0,0.8-0.1,1.2c-0.1,0.4-0.1,0.8-0.2,1.2c0,0.7,0,1.2,0,1.6
					c0,0.5-0.1,0.8,0,1.3c0.1,0.4,0.2,0.9,0.2,1.4c0-0.1,0.1-0.3,0.1-0.4c0-0.1,0.1-0.3,0.1-0.5c0-0.2,0-0.3,0-0.5
					c0,0.2,0,0.3,0,0.5c0,0.2,0,0.3,0,0.5c0,0.2,0,0.3-0.1,0.5c0,0.1,0,0.3,0,0.4c0,0.4,0.1,0.6,0.1,0.7c0.1,0.3,0.2,0.4,0.3,0.4
					c0.3,0.1,0.6,0.2,0.9,0.2c0.3,0.1,0.6,0.1,0.9,0.1c0.6,0.1,1.2,0.1,1.8,0.2c1.2,0.1,2.4,0.1,3.7,0.1c1.2,0,2.4-0.1,3.7-0.1
					l1.8-0.1c0.6,0,1.2-0.1,1.8-0.1c-0.6,0.1-1.2,0.1-1.8,0.1L27.6,42c-1.2,0.1-2.4,0.2-3.7,0.2c-1.2,0-2.5,0-3.7-0.1
					c-0.6,0-1.2-0.1-1.8-0.2c-0.3,0-0.6-0.1-0.9-0.1c-0.3-0.1-0.6-0.1-0.9-0.2c-0.1,0.1-0.2,0.5-0.1,1
					C16.8,43.2,17.3,43.2,17.3,43.2z"/>
				<path class="st4" d="M36.3,37.5c-0.1,0.1-0.3,0.3-0.6,0.4l0.4,1c0.1,0.2,0.2,0.3,0.3,0.5c0.2-0.6,0.1-1.1,0-1.5
					C36.3,37.8,36.3,37.7,36.3,37.5z"/>
				<path class="st3" d="M17.6,24.9c-0.2,1.8-0.2,3.3-0.2,3.3l0,0l0,0l0,0.8c0,0.2,0.2,0.4,0.4,0.4l0.6,0c0.2,0,0.4-0.2,0.4-0.4
					c0-0.4,0-0.9,0.1-1.4h0c0,0,0.1-1.3,0.3-3.3c0.1-0.7,0.2-1.4,0.2-2.1c0.2-1.2,0.3-2.4,0.2-2.7l0,0c0,0-0.1-0.2-0.6,0
					c-0.6,0.2-0.8,0.4-0.8,0.9c0,0.3-0.1,0.7-0.1,1.1C17.9,22.5,17.7,23.8,17.6,24.9z"/>
			</g>
			<g>
				<g>
					<path class="st5" d="M16.2,40.5C16.2,40.4,16.2,40.4,16.2,40.5c-0.1-0.5-0.2-1.3-0.3-1.8c-0.1-0.5-0.1-0.9,0-1.4
						c0-0.3,0.1-0.7,0.1-1.3l0,0c0,0-0.6-0.5-1.5-2c-0.5-0.7-1-1.1-1.4-1.4c-0.4-0.2-0.7-0.3-0.7-0.3l0-0.1l0,0.1
						c-0.3-0.1-0.6-0.1-0.8-0.1c-0.1,0-0.3,0-0.4-0.1c-0.1,0-0.3,0-0.4,0c0.1,0,0.3,0,0.4,0c0.1,0,0.3,0,0.4,0c0.3,0,0.6,0,0.8,0.1
						v0c0,0,0.7,0.1,1.4,0.7c0.8-0.8,1.1-1.5,1.2-1.7c-2.6-1.6-4.4-3.3-5-3.9c0,0-0.1-0.1-0.1-0.1c-0.2,0.2-0.3,0.5-0.5,0.7
						c-0.5,0.7-1,1.4-1.6,2.1c-0.6,0.7-1.6,2.6,0.2,4.6c1.6,1.7,7.5,5.6,8.4,6.2C16.2,40.9,16.2,40.7,16.2,40.5L16.2,40.5z"/>
					<g>
						<path class="st5" d="M25,20.8c0.7,0,1.3-0.1,1.8-0.3c0.2-0.1,0.3-0.1,0.3-0.1l0.1,0c1.8-0.7,2.9-2.2,3.1-2.5l-1.1-0.7
							c-0.1,0.1-0.2,0.3-0.4,0.4c-0.2,0.2-0.3,0.4-0.5,0.6c-0.7,0.9-1.5,1.1-3.2,1.1c-1.5,0-1.8-0.2-2.8-1.1l-0.9,0.6
							c0,0.1,0.1,0.5,0.5,1C22.7,20.7,24,20.8,25,20.8z"/>
						<path class="st5" d="M25.1,19.3c1.7,0,2.5-0.3,3.1-1.1c0.2-0.2,0.3-0.4,0.5-0.6c0.4-0.5,0.8-0.9,1.2-1.8
							c0.4-0.7,0.4-1.1,0.4-1.5c0-0.3,0-0.6,0.1-1.1c-0.1-0.1-0.1-0.1-0.1-0.2c0-0.1-0.1-0.2,0-0.3c0,0.1,0,0.2,0.1,0.2
							c0,0.1,0.1,0.1,0.1,0.1l0,0c0,0,0.5,0.2,0.9,0.1c0.1-0.1,0.2-0.2,0.3-0.4c0.1-0.3,0.1-0.5,0.1-0.7c0-0.4,0.1-0.7,0.3-1.3
							c0.1-0.3,0.2-0.8,0-1.2c-0.1-0.2-0.3-0.3-0.5-0.3c-0.2,0-0.4,0-0.6,0.1c-0.1,0.1-0.2,0.2-0.2,0.3c0,0.3,0,0.9-0.1,1.3
							c0,0,0.1,0,0.1,0c0.1,0,0.1,0,0.2-0.1c0.1-0.1,0.2-0.2,0.3-0.3c0,0.1-0.1,0.3-0.2,0.4c-0.1,0-0.1,0.1-0.2,0.1c0,0,0,0-0.1,0
							c0,0,0,0,0,0c0,0,0.1,0.1,0.1,0.1c0,0,0,0,0,0l0.3,0l-0.3,0.1c0,0.1,0,0.1,0,0.2c0,0.1,0,0.2-0.1,0.3c0,0.1-0.1,0.1-0.2,0.2
							c0.1,0,0.2-0.1,0.2-0.2c0-0.1,0-0.2,0-0.3c0-0.1,0-0.2-0.1-0.3c0-0.1-0.1-0.1-0.1-0.1c-0.1,0.2-0.1,0.3-0.2,0.3h-0.2
							c0,0-0.1,0-0.1,0c0,0-0.1,0-0.1,0c-0.1,0-0.1,0-0.1-0.1c-0.2-0.2-0.1-0.7-0.1-1.4c0-0.3,0-0.5,0-0.8c0-0.7-0.3-0.9-0.5-1.1
							C29.1,8.2,29,8.1,28.9,8c-0.3,0.2-0.8,0.4-1.1,0.5c0,0,0,0,0,0c0,0,0,0.1-0.1,0.1c0,0-0.1,0-0.1,0c-0.1,0-0.2,0.1-0.4,0
							c0,0-0.1-0.1-0.2-0.1c-2.1-1.3-3.5-1.9-4-1.8c-0.8,0.1-3.5,2.3-3.9,2.5c0.1,0.3,0.7,2.7,0.7,4.1c0,0.3,0,0.5,0,0.7
							c-0.1,1.1-0.1,1.8,1.5,3.2c0.3,0.3,0.6,0.5,0.8,0.8C23.4,19.1,23.6,19.3,25.1,19.3z M28.4,12.3c-0.3-0.1-0.6-0.1-1-0.2L27,12
							l-0.2-0.1c-0.1,0-0.2,0-0.2-0.1c-0.2,0-0.3,0-0.5,0c-0.1,0-0.1,0.1-0.2,0.1c-0.1,0-0.2,0.1-0.2,0.1c0.1,0,0.1-0.1,0.2-0.1
							c0.1,0,0.1-0.1,0.2-0.1l0-0.1c-0.1-0.4-0.2-1.2,0.6-1.4c0.8-0.2,1.5,0.1,1.9,0.4c0.4,0.3,0.2,1.3,0.2,1.5
							c0.2,0.1,0.5,0.1,0.7,0.2C29.1,12.4,28.7,12.4,28.4,12.3z M25.7,8.9c0.3-0.1,0.8-0.3,1.5-0.1l-0.3,0.1c0,0,1.3-0.2,2.4,1
							c0,0,0,0.1,0,0.1c-0.3,0-1.1-0.3-1.8-0.3c-0.6,0-1.3,0.2-1.7,0.3c-0.1,0-0.3-0.1-0.3-0.2l0-0.2C25.5,9.2,25.6,8.9,25.7,8.9z
							 M23.1,12.8c0,0,0.1-0.1,0.1-0.1c0.2-0.3,0.4-0.6,0.4-1c0.1-0.4,0.1-0.7,0-1.1c0.1,0.4,0.1,0.7,0.1,1.1c0,0.3-0.1,0.6-0.3,0.9
							c0.1,0,0.1,0,0.2,0c0.2,0,0.4,0,0.5,0.1c-0.2-0.1-0.3-0.1-0.5-0.1c-0.1,0-0.2,0-0.3,0.1c0,0-0.1,0-0.1,0
							C23.2,12.8,23.2,12.9,23.1,12.8c-0.2,0.3-0.4,0.6-0.3,1c0,0.3,0.3,0.6,0.6,0.7c0.3,0.1,0.7,0.1,1-0.2c-0.2,0.3-0.6,0.4-1,0.3
							c-0.2-0.1-0.3-0.2-0.5-0.3c-0.1-0.1-0.2-0.3-0.2-0.5c0-0.2,0-0.4,0.1-0.6c0-0.1,0.1-0.2,0.1-0.2c0,0,0.1-0.1,0.1-0.1
							C23,12.9,23,12.9,23.1,12.8C23,12.8,23.1,12.8,23.1,12.8z M19.7,10.7C19.7,10.7,19.7,10.7,19.7,10.7c0.5-1.2,1.6-1.3,1.6-1.3
							l-0.2,0c0.5-0.2,0.9-0.2,1.2-0.2c0.2,0,0.3,0.2,0.3,0.4l0,0.2c0,0.1-0.1,0.3-0.2,0.3c-0.3,0-0.9,0-1.3,0.1
							C20.5,10.2,20,10.6,19.7,10.7z M21.1,12.4c-0.2,0.1-0.4,0.1-0.7,0.2c0.1,0,0.1-0.1,0.2-0.1c0-0.1-0.3-1.1,0-1.4
							c0.4-0.3,1-0.6,1.6-0.4c0.7,0.1,0.6,0.8,0.5,1.2l0,0c0.1,0,0.2,0.1,0.3,0.1c-0.2-0.1-0.4-0.1-0.7-0.1c-0.1,0-0.1,0-0.2,0
							c0,0-0.1,0-0.2,0.1l-0.3,0.1C21.5,12.2,21.3,12.3,21.1,12.4z M23,15.3L23,15.3c0,0,3.3,0.1,4.5-1l0.1-0.1l0,0.1
							c0,0,0.5,1.5-0.5,2.5c-0.3,0.3-0.8,0.5-1.5,0.5c-0.2,0-0.5,0-0.7-0.1c-0.8-0.1-1.4-0.3-1.5-0.3l0,0l0,0
							c-0.2-0.1-0.4-0.1-0.6-0.2c0.2,0,0.4,0.1,0.6,0.1l-0.4-1.3L22,15.3L23,15.3z"/>
					</g>
					<path class="st5" d="M41.4,26.9c-0.5,0-1.3,0.1-2.4,0.3c-1.5,0.3-2.8,1-3,1.1c0.1,0.2,0.2,0.3,0.2,0.5c0,0.1,0.1,0.2,0.1,0.3
						c0.4-0.1,0.8-0.1,1.2-0.1c0.4,0,0.8,0,1.2,0.1c0.4,0.1,0.8,0.1,1.2,0.3c0.4,0.1,0.8,0.3,1.1,0.5c-0.3-0.2-0.7-0.4-1.1-0.5
						c-0.4-0.1-0.8-0.2-1.2-0.2c-0.4,0-0.8-0.1-1.2,0c-0.4,0-0.8,0.1-1.1,0.2c0,0,0,0.1,0.1,0.1c0.1,0.4,0.3,0.8,0.4,1.1
						c-0.1-0.4-0.3-0.8-0.4-1.1c-0.1-0.2-0.2-0.4-0.3-0.5c-0.1-0.2-0.2-0.4-0.3-0.5c0,0-1.3-2-4.1-1.8c0,0.4,0.2,0.8,0.3,1.3
						c0,0,0.1,0,0.1,0c0.1,0,0.1,0,0.2,0c0,0,0.1,0,0.1,0.1c0,0,0,0.1,0,0.1c0,0.1-0.1,0.1-0.1,0.2l0,0c0,0,0,0,0,0l0,0l0,0
						c0,0-0.2,0.2-0.5,0.4c-0.2,0.1-0.5,0.2-0.8,0.2c-0.2,0-0.5,0-0.8,0c-0.8-0.1-1.7-0.1-1.7-0.1v0c0,0-0.1,0-0.1-0.1
						c0,0,0,0,0-0.1c0,0,0,0,0-0.1c0,0,0-0.1,0.1-0.1c0,0,0.1,0,0.1,0c0,0,0,0-0.1,0.1c0,0,0,0,0,0.1c0,0,0,0,0,0c0,0,0,0,0,0
						c0,0,0,0,0.1,0l0,0.1l0-0.1c0,0,0.3,0,0.7,0.1l-0.2-0.6c-0.4,0.1-1.1,0.5-1.6,0.8c0,0-0.1,0.1-0.1,0.1c0,0-0.1,0.1-0.1,0.1
						c-0.3,0.3-0.2,1.1,0,2.1c0.1,0.6,0.3,0.9,0.5,1.1c0.2,0.2,0.3,0.2,0.3,0.2l0.2,0l0,0c0.3,0.1,0.7,0.1,1,0.1
						c0.4,0,0.8,0,1.2-0.1c-0.4,0.1-0.8,0.2-1.2,0.2c-0.4,0-0.8,0-1.2-0.1c-0.1,0.1-0.3,0.3,0,1.4c0.3,1.1,0.9,1.1,1,1.1
						c0,0,0,0,0,0l0,0l0,0c0.3,0,0.7,0,1,0c0.3,0,0.7-0.1,1-0.1c-0.3,0.1-0.7,0.1-1,0.2c-0.3,0-0.7,0.1-1,0c0,0-0.2,0.1,0.1,1.1
						c0.3,1,1,1.2,1.1,1.2c0.1,0,0.3,0,0.4,0c0.1,0,0.3,0,0.4,0c0.1,0,0.3,0,0.4,0c0.1,0,0.3-0.1,0.4-0.1c-0.1,0.1-0.3,0.1-0.4,0.1
						c-0.1,0-0.3,0.1-0.4,0.1c-0.1,0-0.3,0-0.4,0c-0.1,0-0.3,0-0.4,0c0,0.1,0,0.6,0.6,1c0.7,0.5,1.8,0.4,3.8-0.2
						c1.6-0.5,1.9-1.6,1.9-1.6l0,0c0.1-0.3,0.2-0.6,0.2-0.9c0.1-0.3,0.2-0.6,0.3-0.9c-0.1,0.3-0.1,0.6-0.2,0.9
						c-0.1,0.3-0.1,0.5-0.2,0.8c0.2,0,0.7-0.1,1.8-0.5c1.3-0.5,2.6-2,2.6-2l0,0l0,0c0.1-0.1,0.2-0.2,0.2-0.3
						c0.1-0.1,0.1-0.2,0.2-0.4c0.1-0.1,0.1-0.2,0.2-0.4c0.1-0.1,0.1-0.3,0.1-0.4c0,0.1-0.1,0.3-0.1,0.4c0,0.1-0.1,0.3-0.1,0.4
						c-0.1,0.1-0.1,0.3-0.2,0.4c0,0.1-0.1,0.1-0.1,0.2c1-0.3,1.8-1.2,1.5-2.7C42.7,30.3,41.6,27.2,41.4,26.9z"/>
				</g>
				<path class="st5" d="M32.5,28.1C32.5,28.1,32.5,28.1,32.5,28.1c0-0.1,0-0.1-0.1-0.1c0,0-0.1-0.1-0.2-0.1c0,0-0.1,0-0.1,0
					c0,0.1,0.1,0.2,0.1,0.3l0.1,0.2c0.1-0.1,0.1-0.1,0.1-0.1l0,0l0,0C32.5,28.2,32.5,28.2,32.5,28.1z"/>
			</g>
			<g>
				<path class="st6" d="M30.7,13.2c0.4,0.1,0.8,0.1,1-0.1c0.2-0.2,0.2-0.4,0.2-0.5c0-0.2,0-0.6,0-0.6c0,0.4-0.2,1-0.5,1.1
					c-0.4,0.1-0.9,0-1-0.3C30.3,12.8,30.3,13.1,30.7,13.2z"/>
				<path class="st6" d="M27.9,14.7c-0.1-0.2-0.2-0.3-0.3-0.3c0,0,0,0,0,0s-0.3,0.4-1.4,0.7c-1.1,0.3-2.1,0.4-2.7,0.4
					c-0.5,0-1.5-0.1-1.5-0.1l0.7,0.3l0.3,1l-0.3,0.1c0,0,0.8,0.4,1.7,0.6c0.9,0.2,1.7,0.2,2.4-0.2c0.8-0.4,0.9-1.1,0.9-1.7
					c0-0.4-0.1-0.8-0.1-1C27.8,14.5,27.9,14.7,27.9,14.7z"/>
				<path class="st6" d="M27.7,20.1c-1.2,0.6-1.7,0.7-1.7,0.7s1.1-0.2,2.1-0.8c1-0.6,1.5-1.2,1.7-1.5c0.2-0.2,0.3-0.4,0.3-0.4
					l-0.1,0c0,0,0-0.1,0.1-0.1l-1.1-0.7c-0.1,0.1-0.2,0.3-0.4,0.4c-0.2,0.2-0.3,0.4-0.5,0.6c-0.7,0.9-1.5,1.1-3.2,1.1
					c-1.5,0-1.8-0.2-2.8-1.1l-0.9,0.6c0,0,0,0.1,0.1,0.3l0.8-0.6c0,0,0.7,0.8,1.5,0.9c0.8,0.1,1.9,0.1,2.8,0c0.9-0.1,1.6-0.6,2-1.1
					c0.4-0.6,0.6-0.8,0.6-0.8l0.7,0.5C29.7,18.3,28.8,19.6,27.7,20.1z"/>
				<path class="st6" d="M29.8,15.7c-0.3,0.6-0.7,1.4-1.2,2.1c0-0.1,0.1-0.1,0.1-0.2c0.4-0.5,0.8-0.9,1.2-1.8
					c0.4-0.7,0.4-1.1,0.4-1.5c0-0.3,0-0.6,0.1-1.1c-0.1-0.1-0.1-0.1-0.1-0.2c0-0.1-0.1-0.2,0-0.3c0,0-0.1,0.4,0,0.5
					c0,0-0.1,0.5-0.1,0.9C30.2,14.6,30.2,15,29.8,15.7z"/>
				<path class="st6" d="M30.6,12.2c0.1,0,0.2-0.1,0.2-0.2c0-0.1,0-0.2,0-0.3c0-0.1,0-0.2-0.1-0.3c0-0.1-0.1-0.1-0.1-0.1
					c0,0,0,0.1,0,0.1c0,0,0.2,0.1,0.1,0.3C30.7,12,30.7,12.1,30.6,12.2z"/>
				<path class="st6" d="M31,11.6l0.3-0.2l-0.4-0.1l0-0.1c0,0,0.4,0,0.4-0.5c0,0.1-0.1,0.3-0.2,0.4c-0.1,0-0.1,0.1-0.2,0.1
					c0,0,0,0-0.1,0c0,0,0,0,0,0c0,0,0.1,0.1,0.1,0.1c0,0,0,0,0,0l0.3,0L31,11.6c-0.1,0-0.1,0-0.1,0.1c0,0.1,0,0.2-0.1,0.3
					c0,0.1-0.1,0.1-0.2,0.2C30.6,12.2,31,12.2,31,11.6z"/>
				<path class="st6" d="M29.3,8.7c0.3,0.3,0.3,0.8,0.3,1.6c0,0.8-0.2,1.4,0.6,1.3c0,0-0.1,0-0.1,0c-0.1,0-0.1,0-0.1-0.1
					c-0.2-0.2-0.1-0.7-0.1-1.4c0-0.3,0-0.5,0-0.8c0-0.7-0.3-0.9-0.5-1.1C29.1,8.2,29,8.1,28.9,8c-0.1,0-0.1,0.1-0.2,0.1l0,0l-1,0.4
					l0,0.2l1.1-0.4C28.9,8.4,29.1,8.6,29.3,8.7z"/>
				<path class="st6" d="M30.9,11.1c0,0,0.1-0.6,0.1-1c0-0.4,0-0.5,0.5-0.6c0.5,0,0.9,0.5,0.6,1.5c0,0,0-0.1,0.1-0.2
					c0.1-0.3,0.2-0.8,0-1.2c-0.1-0.2-0.3-0.3-0.5-0.3c-0.2,0-0.4,0-0.6,0.1c-0.1,0.1-0.2,0.2-0.2,0.3c0,0.3,0,0.9-0.1,1.3
					C30.7,11.2,30.8,11.2,30.9,11.1c0,0.1,0.1,0.1,0.1,0c0.1-0.1,0.2-0.2,0.3-0.3C31.2,10.8,31.1,11,30.9,11.1z"/>
				<path class="st6" d="M29.4,12.5l-0.6-0.3c0,0,0-0.6,0-0.8c0-0.2-0.1-0.6-0.3-0.7c-0.2-0.2-0.6-0.4-0.9-0.4
					c-0.3,0-0.7-0.1-1.2,0.1c-0.4,0.1-0.6,0.4-0.6,0.7c-0.1,0.3,0,0.8,0,0.8l-0.3,0.3l0.3-0.2c0,0,0.2-0.1,0.4-0.1
					c0.2,0,0.6,0.1,0.6,0.1l1.6,0.4L29.4,12.5z"/>
				<path class="st6" d="M20.9,12.4c0.1,0,1-0.4,1-0.4s0.3-0.2,0.6-0.2c0.2,0,0.3,0,0.4,0c0.1,0,0.2,0.1,0.2,0.1s-0.1-0.1-0.2-0.2
					c0,0,0.2-0.7-0.2-1c-0.4-0.3-0.8-0.3-1.4-0.2c-0.5,0.1-0.9,0.4-0.9,0.6c0,0.2,0,0.5,0,0.8c0.1,0.3,0.1,0.4,0.1,0.4l-0.1,0.2
					C20.5,12.6,20.8,12.4,20.9,12.4z"/>
				<path class="st6" d="M20.2,15.3c-0.2-0.7,0-1.8-0.1-2.8c0-0.5-0.2-1.1-0.3-1.7c0.1-0.1,0.5-0.3,0.8-0.4c0.4-0.1,0.6-0.2,1-0.2
					c0.3,0,0.6,0,0.8,0c0.2,0,0.2-0.2,0.2-0.3c0,0-1.3,0.1-1.8,0.2c-0.5,0-1,0.7-1,0.7l0,0c0,0,0,0,0,0c0,0-0.1,0-0.1-0.1
					c0-0.1,0.1-0.1,0.1-0.2c-0.1-0.4-0.2-0.8-0.3-1c0-0.1,0-0.2,0.1-0.3c0.7-0.5,3.3-2.5,3.9-2.4l0,0c-0.2-0.1-0.3-0.1-0.5-0.1
					c-0.8,0.1-3.5,2.3-3.9,2.5c0.1,0.3,0.7,2.7,0.7,4.1c0,0.3,0,0.5,0,0.7c-0.1,1.1-0.1,1.8,1.5,3.2C20.9,16.6,20.5,16,20.2,15.3z"
					/>
				<path class="st6" d="M23,12.9l0.3-0.2c0,0,0.2-0.4,0.3-0.8c0.1-0.4,0-0.7,0-0.8c0-0.1,0-0.3-0.1-0.4c0,0,0,0.8-0.2,1.3
					C23.2,12.6,23,12.9,23,12.9z"/>
				<path class="st6" d="M25.9,10c0.2,0,0.2,0,0.7-0.1C27,9.7,27.5,9.7,28,9.7c0.5,0,0.9,0.2,1.2,0.2c0.2,0.1,0.3-0.1,0.2-0.2
					c0,0-0.2,0-0.4-0.1c-0.2-0.1-1.1-0.2-1.8-0.3c-0.8,0-1.6,0.2-1.6,0.2C25.6,9.9,25.8,10,25.9,10z"/>
				<path class="st6" d="M29.2,35C29.2,35,29.2,35,29.2,35L29.2,35L29.2,35C29.2,35,29.2,35,29.2,35c-0.1-0.1-0.4-0.4-0.6-0.9
					c-0.2-0.6-0.2-1.1-0.2-1.1s1.5,0.1,2.1-0.4c0,0,0,0,0,0c-0.4,0.1-0.8,0.1-1.2,0.1c-0.4,0-0.8,0-1.2-0.1c-0.1,0.1-0.3,0.3,0,1.4
					C28.5,35.1,29.1,35,29.2,35z"/>
				<path class="st6" d="M28.3,32.5c-0.1-0.2-0.5-0.8-0.6-1.7c-0.1-1.1-0.2-1.4,0.1-1.7c0.3-0.2,0.6-0.4,0.6-0.4s-0.2,0.2,0.9,0.2
					c1,0.1,1.9,0.2,2.2,0.1c0.3,0,0.5-0.1,0.7-0.3c0.2-0.2,0.6-0.6,0.3-0.8c0,0,0,0,0,0c0,0,0,0.1,0,0.1c0,0.1-0.1,0.1-0.1,0.2l0,0
					c0,0,0,0,0,0l0,0l0,0c0,0-0.2,0.2-0.5,0.4c-0.2,0.1-0.5,0.2-0.8,0.2c-0.2,0-0.5,0-0.8,0c-0.8-0.1-1.7-0.1-1.7-0.1v0
					c0,0-0.1,0-0.1-0.1c0,0,0,0,0-0.1c0,0,0,0,0-0.1c0,0,0-0.1,0.1-0.1c0,0,0.1,0,0.1,0c0,0,0,0-0.1,0.1c0,0,0,0,0,0.1c0,0,0,0,0,0
					c0,0,0,0,0,0c0,0,0,0,0.1,0l0,0.1l0-0.1c0,0,0.3,0,0.7,0.1l-0.2-0.6c-0.4,0.1-1.1,0.5-1.6,0.8c0,0-0.1,0.1-0.1,0.1
					c0,0-0.1,0.1-0.1,0.1c-0.3,0.3-0.2,1.1,0,2.1c0.1,0.6,0.3,0.9,0.5,1.1c0.2,0.2,0.3,0.2,0.3,0.2L28.3,32.5z"/>
				<path class="st6" d="M31.8,26.6c0,0.4,0.2,0.8,0.3,1.3l-0.1,0l0.2,0.5l0.1,0c0,0,0.2-0.2,0.2-0.3c0-0.1-0.1-0.2-0.2-0.2
					c0,0-0.1,0-0.1,0c0-0.1-0.2-0.4-0.2-0.7C32,26.8,32,26.7,32,26.7s1,0,2.1,0.5c0.9,0.4,1.5,0.9,1.8,1.2c0,0,0,0,0,0
					C35.9,28.3,34.6,26.4,31.8,26.6z"/>
				<path class="st6" d="M41.7,33.5c0.1-0.1,0.1-0.2,0.2-0.4c0.1-0.1,0.1-0.3,0.1-0.4c0,0-0.4,0.8-1,1.4c-0.6,0.6-1.5,1.3-2.1,1.6
					c-0.6,0.3-1.7,0.5-1.9,0.5c0,0.1,0,0.2-0.1,0.3c0.2,0,0.7-0.1,1.8-0.5c1.3-0.5,2.6-2,2.6-2l0,0l0,0c0.1-0.1,0.2-0.2,0.2-0.3
					C41.5,33.7,41.6,33.6,41.7,33.5z"/>
				<path class="st6" d="M29.8,36.5c-0.3-0.7-0.3-1.2-0.3-1.2s0.9,0,1.7-0.4c-0.3,0.1-0.7,0.1-1,0.2c-0.3,0-0.7,0.1-1,0
					c0,0-0.2,0.1,0.1,1.1c0.3,1,1,1.2,1.1,1.2c0.1,0,0.2,0,0.4,0C30.5,37.3,30.1,37,29.8,36.5z"/>
				<path class="st6" d="M42.9,31.3c-0.2-1-1.4-4.1-1.5-4.4c-0.5,0-1.3,0.1-2.4,0.3c-1.5,0.3-2.8,1-3,1.1c0,0,0,0,0,0.1l-0.1,0
					c0,0,0.3,0.5,0.4,0.8c0.2,0.4,0.5,1.3,0.5,1.3l-0.3-1.4c0,0,0.1-0.1,1.8-0.1c1.7,0,2.7,0.8,2.7,0.8c-1.7-1.3-4.4-1.1-4.4-1.1
					l-0.2-0.4c0.3-0.2,1-0.5,2-0.7c1.6-0.5,2.7-0.4,2.7-0.4s0.6,1.5,0.9,2.5c0.3,1,0.7,2.2,0.5,2.8c-0.2,0.6-0.7,1-0.9,1.2
					c0,0,0,0.1-0.1,0.1c0,0.1-0.1,0.1-0.1,0.2C42.4,33.8,43.2,32.9,42.9,31.3z"/>
				<path class="st6" d="M37.2,34.9c0,0-0.5,1.1-0.6,1.6c-0.1,0.5-0.8,1-1.7,1.4c-0.9,0.4-2,0.6-2.6,0.6c-0.7,0-1.3-0.3-1.4-0.6
					c-0.1-0.2-0.1-0.3-0.1-0.3s0.8-0.1,1.4-0.4c0,0,0,0,0,0c-0.1,0-0.3,0.1-0.4,0.1c-0.1,0-0.3,0.1-0.4,0.1c-0.1,0-0.3,0-0.4,0
					c-0.1,0-0.3,0-0.4,0c0,0.1,0,0.6,0.6,1c0.7,0.5,1.8,0.4,3.8-0.2c1.6-0.5,1.9-1.6,1.9-1.6l0,0c0.1-0.3,0.2-0.6,0.2-0.9
					C37,35.5,37.1,35.2,37.2,34.9z"/>
				<path class="st6" d="M13.8,31.1c-0.3,0.5-0.7,1.1-0.7,1.1s-0.8-0.3-2.6,0c0.1,0,0.3,0,0.4,0c0.1,0,0.3,0,0.4,0
					c0.3,0,0.6,0,0.8,0.1v0c0,0,0.7,0.1,1.4,0.7c0.8-0.8,1.1-1.5,1.2-1.7c-0.2-0.1-0.5-0.3-0.7-0.4l0.1,0c0,0-2.2-1.5-3.1-2.3
					c-0.8-0.8-1.4-1.2-1.4-1.2l-0.2,0.3c0,0,1.3,1.2,2.3,2C12.7,30.2,13.5,30.9,13.8,31.1z"/>
				<polygon class="st6" points="12.2,32.3 12.2,32.4 12.2,32.4 				"/>
				<path class="st6" d="M13,32.7c0.3,0.4,1,1.7,1.7,2.5c0.6,0.8,1.1,1.2,1.2,1.3c0-0.2,0-0.4,0-0.6l0,0c0,0-0.6-0.5-1.5-2
					C13.9,33.3,13.4,32.9,13,32.7z"/>
				<path class="st6" d="M11.2,37.1c-2.1-1.6-3-2.4-3.6-3.3C7,33,7.1,31.3,7.5,30.4c-0.6,0.9-1.3,2.6,0.4,4.4
					c1.6,1.7,7.5,5.6,8.4,6.2c0-0.1,0-0.3-0.1-0.5C15.8,40.2,13.2,38.5,11.2,37.1z"/>
			</g>
			<g>
				<path class="st7" d="M27.2,20.6c0,0.3,0.1,2.1,0.2,2.4c0,0.3,0.3,0.4,0.6,0.6c0.3,0.1,1.2,0.3,1.8,0c0.6-0.2,0.8-0.5,0.8-1
					c0-0.4-0.2-2.2-0.2-2.2l0-0.1l0.1,0c0.2,0,0.5,0.1,0.6,0.2l0.6-2.4l-0.3,0c-0.2,0.3-0.5,0.7-0.7,1c-0.3,0.3-0.6,0.6-0.9,0.8
					L29.7,20c0,0-0.1,0.1-0.1,0.1c-0.1,0.1-0.2,0.1-0.2,0.2c-0.2,0.1-0.3,0.2-0.5,0.3c-0.4,0.2-0.7,0.4-1.1,0.5
					c0.4-0.1,0.8-0.3,1.1-0.5c0.2-0.1,0.3-0.2,0.5-0.3c0.1-0.1,0.2-0.1,0.2-0.2c0,0,0.1-0.1,0.1-0.1l0.1-0.1
					c0.3-0.3,0.6-0.5,0.9-0.9c0.2-0.3,0.5-0.6,0.7-0.9c-0.3-0.1-0.8-0.1-0.9,0C30.2,18.2,29.1,19.8,27.2,20.6z"/>
				<g>
					<path class="st7" d="M32.5,22.9c0.2,1,0,1.4-0.3,2.1c0,0.1-0.1,0.2-0.1,0.3c-0.2,0.4-0.3,0.8-0.2,1.2c1-0.1,1.8,0.1,2.4,0.4
						c2.1-1.4,5.1-1.9,6.8-2.1c-0.1-0.3-0.3-0.7-0.4-1.1l0,0c-0.1-0.2-0.2-0.4-0.3-0.6c-0.1-0.2-0.3-0.3-0.4-0.5
						c-0.1-0.2-0.3-0.3-0.5-0.4c-0.2-0.1-0.3-0.3-0.5-0.4c0.2,0.1,0.4,0.2,0.5,0.4c0.2,0.1,0.3,0.3,0.5,0.4c0.1,0.1,0.3,0.3,0.4,0.5
						c-0.5-1.2-1-2.6-1.3-3.2c-0.6-1.1-3.3-1.1-3.4-1.1c-0.2,0-0.4,0.1-0.6,0.2c-0.2,0.1-0.4,0.2-0.6,0.3c-0.2,0.1-0.4,0.2-0.5,0.3
						c-0.2,0.1-0.4,0.2-0.5,0.4c0.2-0.1,0.3-0.3,0.5-0.4c0.2-0.1,0.3-0.2,0.5-0.4c0.2-0.1,0.4-0.2,0.6-0.3c0.1,0,0.2-0.1,0.3-0.1
						l-1.9-0.3l-1.1,3.8C32.3,22.4,32.4,22.7,32.5,22.9z"/>
					<path class="st7" d="M35.9,28.2c0.3-0.1,1.5-0.8,3.1-1.1c1.4-0.3,2.4-0.3,2.8-0.3c0,0,0,0,0,0c0,0,0,0,0,0
						c-0.1-0.3-0.3-1.1-0.6-1.8c0,0-0.1,0-0.1,0c0,0-0.1,0-0.1,0c-1.6,0.3-4.6,0.8-6.7,2.1C35.3,27.4,35.8,28.1,35.9,28.2z"/>
					<path class="st7" d="M9.8,27.2c0,0,0.1,0.1,0.2,0.2c0.6,0.6,2.4,2.3,5,3.9c-0.1-0.7-0.3-1.4-0.5-2c-0.2-0.1-0.7-0.4-1.4-1
						c-0.8-0.6-1.6-1.6-2.1-2.3c-0.1-0.1-0.2-0.3-0.3-0.4c-0.1,0-0.3,0-0.6,0.5c0,0.1-0.1,0.1-0.1,0.2C9.6,26.8,9.5,27,9.8,27.2z"/>
					<path class="st7" d="M19.3,24.3c-0.2,1.8-0.3,3-0.3,3.3c0.4,0,2.5,0.1,5,0c2.5-0.1,4.5-0.3,4.9-0.3c-0.4-0.6-1.1-1-1.5-1.2l0,0
						c0,0-0.1-0.1-0.2-0.1c-0.4-0.2-1.1-0.6-1.5-1.7c-0.5-1.4,0.3-2.8,0.5-3.2c0.1-0.2,0.2-0.3,0.3-0.4c-0.5,0.1-1,0.2-1.5,0.2
						c-1,0-2.4-0.2-3.2-1c-0.4-0.4-0.5-0.8-0.5-1l-0.6,0.2c0,0.2,0.1,0.3,0.2,0.5c0.1,0.2,0.2,0.3,0.3,0.5c0.2,0.3,0.5,0.6,0.8,0.8
						c0.2,0.1,0.3,0.2,0.5,0.3c0,0,0.1,0,0.1,0.1c0,0,0.1,0,0.1,0.1c0.1,0,0.2,0.1,0.3,0.1c0.4,0.1,0.8,0.2,1.1,0.2
						c-0.4,0-0.8-0.1-1.2-0.2c-0.1,0-0.2-0.1-0.3-0.1c0,0-0.1,0-0.1-0.1c0,0-0.1,0-0.1-0.1c-0.2-0.1-0.3-0.2-0.5-0.3
						c-0.3-0.2-0.6-0.5-0.8-0.8c-0.1-0.2-0.2-0.3-0.3-0.5c-0.1-0.2-0.1-0.3-0.2-0.5l-0.8,0.3c0.1,0.3,0,1.2-0.2,2.7
						C19.4,23,19.3,23.7,19.3,24.3z"/>
					<path class="st7" d="M13.1,28.2c0.6,0.5,1.1,0.8,1.3,0.9c-0.1-0.3-0.2-0.6-0.3-0.7l0,0l0.4-1.4l0,0l0.4-1.3L14.6,27l-0.1,0
						l0.1,0l-0.4,1.3c0.1,0.2,0.2,0.5,0.4,0.8c0,0,0,0,0,0c0.2,0.6,0.4,1.4,0.5,2.2c0.1,0,0.1-0.1,0.2-0.2c0.3-0.3,0.6-0.6,0.8-1
						c0.4-0.7,1.1-1.9,1.2-2.1c0-0.2,0-1.6,0.2-3.3c0.1-1.1,0.3-2.5,0.4-3.4c0.1-0.4,0.1-0.7,0.1-1l-0.1,0.1
						c-0.2,0.1-0.4,0.2-0.5,0.4c-0.2,0.1-0.4,0.3-0.5,0.4c-0.2,0.1-0.3,0.3-0.5,0.4c-0.2,0.2-0.3,0.3-0.4,0.5
						c0.1-0.2,0.3-0.3,0.4-0.5c0.1-0.2,0.3-0.3,0.5-0.5c0.2-0.1,0.3-0.3,0.5-0.4c0.1-0.1,0.3-0.2,0.4-0.3c-0.3,0-1,0-1.9,0.5
						c-1.7,0.8-4.5,3.6-5.1,4.5c0.1,0.1,0.2,0.2,0.3,0.4C11.6,26.6,12.4,27.6,13.1,28.2z"/>
				</g>
			</g>
			<path class="st8" d="M41.8,26.4c-0.1-0.2-0.5-1.6-0.5-1.6l-0.2-0.1l-0.6-1.5l-1.2-2.8c0,0-0.2-0.7-0.7-1.1
				c-0.5-0.4-1.1-0.5-1.8-0.6c-0.6-0.1-1.5-0.1-1.5-0.1l-0.6-0.1l-1.5-0.2l-1.1,3.8c0,0,0.3,0.9,0.3,1.5c0,0.6-0.3,1.3-0.5,1.7
				c-0.2,0.3-0.3,1-0.2,1.3c0,0,0.5-0.1,0.9,0c0.4,0.1,1,0.2,1.2,0.3c0.2,0.1,0.4,0.1,0.4,0.1s0.1-0.1,0.3-0.2l0,0
				c0,0,1.4-0.9,3.4-1.3c1.8-0.4,2.8-0.6,3-0.6l0.1,0l0.5,1.6c0,0-1.1,0-2.8,0.4c-1.6,0.4-2.7,1.1-2.7,1.1s-0.5-0.8-1.4-1.2L34.2,27
				c0,0,0.5,0.2,1,0.6c0.5,0.4,0.7,0.7,0.7,0.7s0.3-0.2,1.2-0.6c0.9-0.3,1.7-0.6,2.8-0.8c1.1-0.2,1.5-0.1,1.5-0.1s0.3,0.1,0.4-0.1
				C41.9,26.8,41.9,26.6,41.8,26.4z M37.4,25.2c-1.6,0.5-2.8,1.1-3.1,1.3c-0.3-0.1-0.8-0.2-1.1-0.3c-0.5-0.1-1.1-0.1-1.1-0.1
				s0.1-0.6,0.3-1c0.3-0.4,0.5-1.2,0.4-1.9c-0.1-0.7-0.4-1.3-0.4-1.3l1-3.3l1.2,0.1c0,0-0.6,0.4-1.2,1.1c0,0,0.8-0.7,1.4-0.9
				l0.2-0.1c0,0,0.9,0,1.8,0.2c1,0.2,1.5,0.4,1.8,0.8c0.3,0.4,1.1,2.4,1.1,2.4s-0.2-0.2-0.8-0.4c0,0,0.5,0.3,0.9,0.7l0.1,0.1
				l0.7,1.9C40.3,24.5,39.1,24.7,37.4,25.2z"/>
			<path class="st9" d="M29.8,4c0.3,0.4,0.2,1,0,1.5c-0.1,0.2-0.1,0.4-0.2,0.6c-0.1,0.4-0.1,0.7-0.1,1c0.1,0.1,0.2,0.1,0.3,0.2
				c0.1,0.1,0.2,0.1,0.3,0.2c0.2,0.1,0.4,0.3,0.6,0.5c0.4,0.3,0.8,0.6,1.1,1c-0.4-0.3-0.8-0.6-1.2-0.9c-0.2-0.1-0.4-0.3-0.6-0.4
				c-0.1-0.1-0.2-0.1-0.3-0.2c-0.1-0.1-0.2-0.1-0.3-0.1c0,0.2,0,0.3,0,0.4c0.2,0.1,0.9,0.4,2.6,1.8c0-0.5,0.1-2.1,0-3l0-0.1
				c0-0.7,0-1.7-1.7-2.7c-1.5-1-3.7-1.9-5.1-2.3C26.7,1.9,29.1,3.1,29.8,4z"/>
			<path class="st7" d="M24.3,16.3c0.3,0,0.7,0,1,0c0.3,0,0.7-0.1,1-0.2l0.1,0l0.1,0l0.1,0l0.2-0.1c0.1,0,0.2-0.1,0.2-0.1l0.2-0.1
				L27,15.9c-0.1,0-0.2,0.1-0.2,0.1l-0.2,0.1l-0.1,0l-0.1,0l-0.1,0c-0.3,0.1-0.7,0.2-1,0.2C24.9,16.4,24.6,16.4,24.3,16.3
				c-0.3,0.1-0.6,0.1-0.9,0l0.2,0.5c0.3,0.1,2.6,0.8,3.5-0.1c0.8-0.8,0.6-1.9,0.5-2.2c-0.5,0.4-1.4,0.7-2.7,0.9
				c-0.8,0.1-1.5,0.1-1.7,0.1l0.2,0.7C23.6,16.2,23.9,16.3,24.3,16.3z"/>
			<g>
				<path class="st7" d="M22.2,11.5C22.2,11.5,22.2,11.6,22.2,11.5c0,0.2,0,0.3-0.1,0.3c0,0,0,0,0.1,0c0.1,0,0.1,0,0.2,0
					c0.1,0,0.2,0,0.3,0l0,0c0.1-0.4,0.1-0.9-0.4-1c-0.6-0.1-1.2,0.1-1.5,0.4c-0.2,0.2-0.1,0.9,0,1.3c0.1-0.1,0.2-0.1,0.3-0.1
					c0.2-0.1,0.4-0.1,0.5-0.2c-0.2-0.1-0.3-0.2-0.3-0.4c0-0.3,0.2-0.5,0.5-0.5c0.1,0,0.2,0.1,0.3,0.1c-0.1,0-0.2,0.1-0.2,0.2
					c0,0.1,0.1,0.2,0.2,0.2C22.1,11.6,22.2,11.6,22.2,11.5z"/>
				<path class="st7" d="M26.6,10.5c-0.7,0.1-0.6,0.8-0.5,1.3l0,0c0.1,0,0.3-0.1,0.4,0c0.1,0,0.2,0,0.2,0l0.2,0
					c-0.1-0.1-0.2-0.3-0.2-0.4c0-0.3,0.2-0.5,0.5-0.5c0.1,0,0.3,0.1,0.4,0.2c-0.1,0-0.2,0.1-0.2,0.2c0,0.1,0.1,0.2,0.2,0.2
					c0.1,0,0.1,0,0.1-0.1c0,0,0,0.1,0,0.1c0,0.3-0.2,0.5-0.5,0.5l0.2,0c0.3,0.1,0.6,0.2,1,0.2c0,0,0.1,0,0.1,0
					c0.1-0.4,0.1-1.2-0.2-1.4C28,10.5,27.4,10.3,26.6,10.5z"/>
			</g>
			<path class="st5" d="M18.8,9.6c-0.2,0.2-0.1,0.6-0.1,1c0,0.3,0.1,0.5,0.2,0.7c0.1,0.2,0.2,0.5,0.2,0.8c0,0.4,0,0.6,0.2,0.8
				c0.1,0.1,0.2,0.1,0.4,0.1c-0.1-1.2-0.5-2.9-0.6-3.5C19,9.5,18.9,9.5,18.8,9.6z"/>
			<g>
				<path class="st10" d="M30,11.5C30,11.5,30,11.5,30,11.5c0.1,0,0.1,0,0.2,0c0,0,0,0,0.1,0h0.2c0.1,0,0.2-0.4,0.2-1.7
					c0-0.2,0.1-0.4,0.3-0.5c0.2-0.1,0.4-0.1,0.6-0.1c0,0,0.1,0,0.1,0c-1.5-1.3-2.2-1.5-2.3-1.6c-0.1,0-0.2,0.1-0.4,0.2
					c0.1,0.1,0.2,0.2,0.3,0.3c0.3,0.2,0.6,0.4,0.6,1.2c0,0.3,0,0.6,0,0.8C29.9,10.8,29.9,11.4,30,11.5z"/>
				<path class="st10" d="M30.6,13.3c-0.1,0.5-0.1,0.8-0.1,1.1c0,0.3,0,0.6-0.2,1c0.2-0.2,0.7-0.7,1.1-2
					C31.1,13.4,30.8,13.3,30.6,13.3z"/>
			</g>
			<g>
				<path class="st11" d="M30.4,27.4c-0.4,0.1-0.6,0.6-0.5,1l0.1,0.3c0.1,0,0.2,0,0.3,0c0.7,0.1,1.1,0.1,1.4,0l-0.3-0.9
					C31.3,27.4,30.8,27.2,30.4,27.4z"/>
				<g>
					<path class="st11" d="M31.8,25.6c-0.4,0.2-0.8,0.5-1.5,0.6c-0.9,0.2-1.6,0.3-2.3,0.1c0.5,0.3,1,0.8,1.2,1.4l0.3,0.9
						c0.1,0,0.3,0,0.5,0l-0.1-0.3c-0.2-0.5,0.1-1,0.5-1.1c0.5-0.2,1,0.1,1.1,0.5l0.3,0.9c0,0,0.1,0,0.1-0.1c0.1-0.1,0.2-0.1,0.2-0.2
						l-0.1-0.2C31.7,27.1,31.5,26.4,31.8,25.6z"/>
					<path class="st11" d="M29.8,23.6c-0.7,0.3-1.6,0.2-1.9,0c-0.3-0.1-0.6-0.3-0.7-0.7c0-0.3-0.2-1.9-0.2-2.4c-0.1,0-0.1,0-0.2,0.1
						c-0.2,0.1-0.4,0.3-0.5,0.5c-1,1.5-0.7,2.8-0.5,3.1c0.1,0.4,0.3,0.7,0.5,0.9c1,0.9,2,1.1,3.8,0.7c1-0.2,1.6-0.6,1.9-1
						c0.3-0.7,0.5-1.1,0.3-2c0-0.2-0.1-0.5-0.2-0.7l0,0l0,0c-0.4-0.9-1-1.7-1.6-1.8c0,0.3,0.1,1.8,0.2,2.2
						C30.7,23,30.5,23.4,29.8,23.6z"/>
					<path class="st11" d="M35.1,40.8c-1,0.2-1.6,0.6-1.9,1c-0.3,0.7-0.5,1.1-0.3,2c0.2,1,1.1,2.5,1.8,2.6c0-0.3-0.1-1.8-0.2-2.2
						c0-0.5,0.2-0.9,0.9-1.1c0.7-0.3,1.6-0.2,1.9,0c0.3,0.1,0.6,0.3,0.7,0.7c0,0.3,0.2,2,0.2,2.4c0.1,0,0.4-0.2,0.7-0.6
						c1-1.5,0.7-2.8,0.5-3.1c-0.1-0.4-0.3-0.7-0.5-0.9C37.8,40.6,36.9,40.4,35.1,40.8z"/>
					<path class="st11" d="M35.6,38c-0.1,0.1-0.2,0.1-0.4,0.2l0.1,0.1c0.2,0.5-0.1,1-0.5,1.1c-0.5,0.2-1-0.1-1.1-0.5l-0.1-0.2
						c-0.1,0-0.3,0.1-0.4,0.1c0.3,1,0.5,1.6,0.3,2.3c0.4-0.2,0.8-0.5,1.5-0.6c0.9-0.2,1.6-0.3,2.3-0.1c-0.5-0.3-1-0.8-1.2-1.4
						L35.6,38z"/>
				</g>
				<path class="st11" d="M34.7,39.4c0.4-0.1,0.6-0.6,0.5-1l-0.1-0.1c-0.1,0-0.2,0.1-0.3,0.1c-0.4,0.1-0.8,0.3-1.2,0.4l0.1,0.2
					C33.9,39.3,34.3,39.5,34.7,39.4z"/>
			</g>
			<g>
				<path class="st4" d="M19.5,8.1L19.5,8.1c0.1-0.2,0.1-0.5,0.1-0.7c0-0.2,0-0.5-0.1-0.7c0-0.1-0.1-0.2-0.1-0.3
					c0-0.1-0.1-0.2-0.1-0.4c-0.1-0.2-0.1-0.5-0.2-0.7c0,0.2,0.1,0.5,0.2,0.7c0,0.1,0.1,0.2,0.1,0.4c0,0.1,0.1,0.2,0.1,0.3
					c0.1,0.2,0.1,0.5,0.1,0.7c0,0.2,0,0.4-0.1,0.6C20.8,7.2,22.5,6,23.1,6c0,0,0,0,0,0v0C25.3,6,27,6.5,27.9,6.8
					c0.4,0.2,0.8,0.3,1,0.4c0-0.2,0-0.5,0.1-0.7c0-0.3,0.1-0.5,0.2-0.8c0.1-0.3,0.2-0.5,0.3-0.8c0-0.1,0.1-0.3,0.1-0.4
					c0-0.1,0-0.1,0-0.2c0-0.1-0.1-0.1-0.1-0.2c0,0.1,0.1,0.1,0.1,0.2c0,0.1,0,0.1,0,0.2c0,0.1,0,0.3-0.1,0.4
					c-0.1,0.3-0.2,0.5-0.2,0.8c-0.1,0.3-0.1,0.5-0.1,0.8c0,0.3,0,0.5,0,0.8c0.1,0.1,0.2,0.1,0.3,0.2c0-0.2,0-0.6,0.2-1.4
					c0-0.2,0.1-0.4,0.2-0.6c0.2-0.5,0.3-1,0-1.4c-0.9-1.2-4.6-2.8-5.4-2.8c-0.3,0-1.5,0.5-2.9,1.3C19.9,3.4,19,4,18.9,4.1
					c-0.2,0.8,0,1.6,0.2,2.3c0.1,0.3,0.2,0.5,0.2,0.7c0,0.5,0,0.8-0.2,1.2c0,0,0,0,0.1,0C19.3,8.2,19.4,8.2,19.5,8.1z"/>
				<path class="st3" d="M27,7.8c0.4,0.3,0.7,0.5,0.7,0.6c0.5-0.2,1.3-0.6,1.6-0.8c-0.4-0.3-2.2-1.3-5.5-1.5C24.7,6.4,26,7.1,27,7.8
					z"/>
				<path class="st3" d="M27.1,8.4c0.1,0.1,0.2,0.1,0.2,0.1c0.1,0.1,0.2,0.1,0.3,0c0,0,0,0,0.1,0l0,0c0,0,0.1,0,0.1,0
					c0,0-0.1-0.2-0.7-0.6c-1.4-1-3.1-1.8-3.8-1.8c0,0,0,0-0.1,0c-0.6,0-2.7,1.6-3.8,2.3c-0.1,0.1-0.2,0.1-0.3,0.2c0,0,0,0,0,0l0,0
					c-0.1,0.1-0.2,0.2-0.3,0.2c-0.1,0-0.1,0.1-0.1,0.2c0,0.1,0,0.2,0.1,0.2c0.1,0,0.2,0,0.3-0.1c0.2-0.1,3.1-2.5,4-2.6
					C23.9,6.5,26.3,8,27.1,8.4z"/>
			</g>
			<path class="st6" d="M24.3,14.3c0,0-0.2,0.4-0.7,0.4c-0.5,0-1-0.3-1-1l0.2,0.3c0,0,0.2,0.5,0.7,0.5
				C23.9,14.7,24.2,14.4,24.3,14.3z"/>
			<g>
				<path class="st12" d="M27.6,14.7l-0.1-0.2c0,0-0.5,0.4-1.2,0.6c-0.8,0.2-1.9,0.3-1.9,0.3l-1.1,0.1L23,15.4l0.4,1.4l0.2,0
					l-0.1-0.4c0.1,0,0.4,0,0.8,0c0.5,0,1.3-0.2,1.7-0.3c-0.1,0-0.8,0.2-1.3,0.2c-0.5,0-1.2-0.1-1.3-0.1l-0.2-0.6c0,0,0.6,0,1.8-0.1
					c1.2-0.2,2.2-0.7,2.2-0.7s0.1,0.4,0,1.1c-0.1,0.7-0.7,1.1-0.7,1.1s0.6-0.2,0.9-1C27.8,15.3,27.6,14.7,27.6,14.7z"/>
				<path class="st12" d="M25.8,16.3C25.8,16.2,25.8,16.2,25.8,16.3C25.8,16.2,25.8,16.3,25.8,16.3z"/>
			</g>
			<path class="st8" d="M31.7,18.1L31.4,18c0,0-0.1-0.1-0.4-0.1c-0.2,0-0.7,0-0.7,0s-0.7,1.1-1.7,1.8c-1,0.7-1.6,0.8-2.1,1
				c-0.5,0.2-1.4,0.3-2.7,0.1c-1.3-0.2-2-0.9-2.1-1.2c-0.2-0.3-0.3-0.7-0.3-0.7l-1.7,0.6l0,0.2l0,0c0,0,0,0.9-0.1,1.6
				c-0.1,0.6-0.3,1.9-0.4,3.4c-0.2,1.5-0.3,3-0.3,3l0.3,0c0,0,0-0.5,0.1-1c0-0.5,0.2-3,0.4-4.5c0.2-1.3,0.2-2.3,0.3-2.5l0.5-0.2
				c0,0,0.5,1,1.5,1.6l0-0.1c0,0-0.5-0.3-0.7-0.6c-0.2-0.3-0.5-1-0.5-1l0.5-0.2c0,0,0.3,0.9,1.4,1.4c1,0.5,1.9,0.5,2.7,0.5
				c0.7,0,1.2-0.1,1.2-0.1l0.4-0.3l0.3-0.1l0,0.2c0,0,0.7-0.2,1.7-0.9c1.1-0.8,1.6-1.7,1.6-1.7s0.5-0.1,0.8,0c0,0-0.4,0.8-1.1,1.3
				c-0.6,0.5-0.8,0.7-1,0.8c0,0,1-0.6,1.6-1.2c0.6-0.6,0.7-0.9,0.7-0.9l0,0l-0.6,2.2l0.2,0.1l0.6-2.4l0,0L31.7,18.1z"/>
			<path class="st8" d="M17.4,20.8l0.4-0.1c0,0-0.7,4.4-0.7,5.8c0,1.1,0,1.5,0,1.5s-0.4,0.7-0.7,1.2c-0.3,0.5-0.6,1-0.9,1.2
				C15.3,30.6,15,31,15,31s-0.1-0.7-0.2-1.1c-0.1-0.4-0.3-0.8-0.3-0.8s-0.1-0.3-0.2-0.5c-0.1-0.1-0.2-0.3-0.2-0.3l0.7-2.7
				c0,0-0.7,1.6-0.8,2.1c-0.2,0.5-0.2,0.6-0.2,0.6l0,0.2c0,0-0.4-0.3-1-0.9c-0.6-0.6-1.9-2.1-1.9-2.1s1.7-2,3.5-3.3
				c1.9-1.4,2.6-1.3,2.6-1.3s-0.8,0.6-1.1,1.4c0,0,0.5-0.7,1.1-1.1c0.6-0.4,0.7-0.6,0.7-0.6s-0.1-0.1-0.7,0c-0.5,0.1-1.6,0.4-2.3,1
				c-0.8,0.6-1.4,1.1-2.3,1.9c-0.9,0.8-1.8,1.9-1.8,2.1c0,0-0.3-0.1-0.5,0.2C10,26,9.6,26.6,9.6,26.9c0,0.3,0.1,0.3,0.3,0.5
				c0.2,0.2,1.5,1.4,2.3,2c0.8,0.6,2.2,1.6,2.2,1.6l0,0l0.6,0.3l0,0.2c0,0,0.7-0.6,0.9-0.9c0.2-0.3,0.8-1.4,0.8-1.4l0.5-0.8
				c0,0,0-1.6,0.1-2.4c0.1-0.8,0.1-1.3,0.2-2.2c0.1-0.9,0.4-3.4,0.4-3.4L17.4,20.8z M12.1,28.8c-1-0.8-1.9-1.7-2-1.8
				c-0.1-0.1,0.2-0.7,0.5-0.9c0.2-0.2,0.3-0.3,0.3-0.3s1.1,1.4,1.8,2c0.8,0.7,1.5,1.2,1.5,1.2l0.4,1.6
				C14.6,30.6,13.1,29.6,12.1,28.8z"/>
			<g>
				<g>
					<path class="st4" d="M17.4,28.8c0,0-0.4,1-0.8,1.7c-0.4,0.7-1.1,1.3-1.2,1.4c-0.1,0.1,0,0.4,0.2,0.9C15.8,33.2,16,34,16,34
						s0.2-0.3,0.2-0.7c0,0,0,0.4,0,0.8c-0.1,0.4-0.1,0.8-0.1,0.8s0.2,1.5,0.1,2.3c-0.1,0.8,0,1.5,0.1,1.9c0,0,0.1-0.2,0.2-0.4
						c0,0,0,0.6-0.1,0.8s0,0.3,0,0.3s0.2,1,0.2,1.3c0.1,0.3,0.2,0.6,0.2,0.6s-0.3,0.1-0.5-0.4c-0.1-0.4-0.2-1.2-0.2-1.2
						s-0.1-0.6-0.1-0.9c-0.1-0.3-0.2-0.8-0.2-1.1c0-0.3,0.1-1.2,0.1-1.8c0-0.6-0.1-1.4-0.1-1.4s-0.2-0.9-0.4-1.3
						c-0.2-0.5-0.4-0.9-0.5-1.2c-0.1-0.2-0.2-0.4,0-0.6c0.2-0.2,0.7-0.6,1.1-1.3c0.4-0.7,1.3-2.1,1.3-2.1L17.4,28.8z"/>
					<path class="st4" d="M19.3,19.4c0.1,0.1,0,0.8-0.2,2.7c-0.2,1.8-0.6,6.8-0.7,7.1c0,0.3,0,0.4,0,0.4l0,0.1c0,0,0.2,0,0.4-0.1
						c0.2-0.1,0.4,0.1,0.4-1.8L19,27.7l-0.1,0c0,0,0.1-1.6,0.2-2.8c0.1-1.1,0.3-2.3,0.3-2.3s0.2-1.6,0.3-2.2c0-0.6,0.1-0.8,0-0.9
						C19.6,19.3,19.3,19.4,19.3,19.4z"/>
					<g>
						<path class="st4" d="M17.4,43.3c-0.2-0.2-0.5-0.5-0.5-0.8c0-0.4,0-0.5,0-0.5s0.5,0.2,2.8,0.3c2.3,0.2,7.3,0.1,11.6-0.5
							c0,0-2.3,0.2-3.1,0.2c-0.8,0-3.6,0.2-4.2,0.2c-0.6,0-3.8-0.1-5.3-0.2c-1.6-0.2-2-0.4-2-0.4s-0.3,0.5-0.1,0.9
							c0.1,0.4,0.3,0.7,0.8,0.8c0,0-0.3,0.5-0.4,1.7c0,1.2-0.1,1.9-0.1,1.9l0.5,0c0,0,0-0.7,0-1.6c0-0.9,0.2-1.7,0.2-1.7
							s1,0.1,4.4,0.1c3.4,0,7.1-0.1,8.4-0.2c1.3-0.1,2.4-0.3,2.4-0.3l0-0.3c0,0-2.9,0.3-5.8,0.4c-3,0-4.6,0-5.9,0
							C19.6,43.4,17.4,43.3,17.4,43.3z"/>
						<path class="st4" d="M26.5,41.4c1.2-0.1,2.3-0.3,3.3-0.6c1-0.4,1.1-0.8,1.2-1.1c0-0.3,0-0.6,0-0.6s0.2,0.2,0.9,0.2
							c0.6,0,1,0,1,0s0.2,0.4,0.3,0.9c0.1,0.6,0.1,1.4,0,1.6c0,0,0.2-0.3,0.3-0.4c0.1-0.1,0.1-0.6,0.1-0.8c0-0.2,0-0.6-0.1-0.9
							c-0.1-0.3-0.3-0.8-0.3-0.8s-0.8,0.1-1.2,0.1c-0.4,0-0.8-0.2-1-0.4c-0.2-0.1-0.3-0.3-0.3-0.3s0.2,1.1,0.1,1.4
							c-0.1,0.3-0.5,0.7-1.1,1C28.9,40.9,26.5,41.4,26.5,41.4z"/>
						<path class="st13" d="M35.3,43.2c0.4-0.1,0.6,0.3,0.6,1c0,0.7-0.1,2.7-0.1,2.7h0.5c0,0,0.1-0.5,0.1-1.4c0-0.8-0.2-2.5-0.2-2.5
							s-0.2-0.1-0.5,0C35.5,43.1,35.3,43.2,35.3,43.2z"/>
					</g>
				</g>
				<path class="st4" d="M19.9,40.4c-0.4-0.4-0.6-0.5-0.7-1.9c-0.1-1.4-0.2-1.9-0.3-3c-0.1-1.1-0.3-2.5-0.5-3.1
					c-0.1-0.6,0-1.1,0.2-1.3c0.2-0.2,0.6-0.3,1-0.3c0.5,0,3.1-0.1,3.8-0.1c0.7-0.1,3.1-0.1,3.3-0.2c0.2,0,0.4,0,0.4,0s0.1,0.8,0.2,1
					c0,0.2,0.3,0.7,0.4,0.8c0.1,0.1,0.4,0.3,0.4,0.3s-0.2,0.3-0.1,1c0.1,0.7,0.3,1.1,0.5,1.3c0.2,0.2,0.4,0.3,0.6,0.3
					c0,0-0.3,0.4,0.1,1.3c0.3,0.9,1.1,1.1,1.1,1.1s0,0.4,0.2,0.7c0,0-0.4-0.2-0.5-0.5c0,0-0.7-0.3-1-1.2c-0.3-0.9-0.2-1.2-0.2-1.2
					s-0.4,0-0.7-0.6c-0.3-0.6-0.4-1-0.4-1.3c0-0.4,0.1-0.7,0.1-0.7s-0.3-0.1-0.3-0.3l-8.7,0.7l0-0.3l6.2-0.5l2.3-0.2
					c0,0-0.3-0.2-0.3-1.3c0,0-3.4,0.2-4.9,0.2c-1.5,0-3.2,0-3.4,0.2c-0.1,0.2-0.1,0.4,0,0.7c0.1,0.3,0.2,1.3,0.2,1.3l0.5,3.4l0.1,1
					c0,0,0.1,1.1,0.1,1.4c0,0.3,0.1,0.6,0.2,0.9C19.9,40.3,19.9,40.4,19.9,40.4z"/>
			</g>
			<g>
				<path class="st0" d="M23.3,16.8c-0.2,0-0.4-0.1-0.6-0.1c0.2,0.1,0.4,0.1,0.6,0.2l0,0l0,0c0,0,0.7,0.2,1.5,0.3
					c0.3,0,0.5,0.1,0.7,0.1c0.7,0,1.2-0.2,1.5-0.5c1-1,0.5-2.5,0.5-2.5l0,0c0.1,0,0.1,0.1,0.2,0.1c0.1,0.1,0.1,0.1,0.2,0.2
					c0-0.1,0-0.2-0.1-0.2c0-0.1-0.1-0.1-0.2-0.2c-0.2-0.1-0.4-0.1-0.6,0c0.1,0,0.2,0,0.3,0c0.1,0,0.1,0,0.2,0l0,0
					c-1.2,1-4.4,1-4.5,1l0,0l-1,0l0.9,0.2L23.3,16.8z M24.8,15.4c1.3-0.2,2.2-0.4,2.7-0.9c0.1,0.3,0.3,1.5-0.5,2.2
					c-0.9,0.9-3.2,0.2-3.5,0.1l-0.2-0.5c0.3,0.1,0.6,0.1,0.9,0.1c0.3,0,0.7,0,1,0c0.3,0,0.7-0.1,1-0.2l0.1,0l0.1,0l0.1,0l0.2-0.1
					c0.1,0,0.2-0.1,0.2-0.1l0.2-0.1L27,15.9c-0.1,0-0.1,0.1-0.2,0.1l-0.2-0.3l0,0.4l-0.1,0l-0.1,0l-0.1,0l-0.1,0
					c-0.3,0.1-0.7,0.1-1,0.2c-0.3,0-0.7,0-1,0c-0.3,0-0.7-0.1-1-0.1l-0.2-0.7C23.3,15.5,24,15.5,24.8,15.4z"/>
				<path class="st0" d="M43.1,31.3c-0.2-1-1.3-3.9-1.5-4.4c0.1,0,0.2,0,0.2,0c0.1,0,0.1,0,0.1-0.1c0,0,0-0.1,0-0.2
					c-0.1-0.3-0.3-1.1-0.6-1.8c0-0.1-0.1-0.1-0.2-0.1c0,0-0.1,0-0.1,0c-0.4-1-1.6-4.1-2-5c-0.3-0.5-0.9-0.9-2-1.1
					c-0.7-0.1-1.4-0.1-1.5-0.1l-2.3-0.3c0-0.1-0.2-0.3-0.8-0.4c-0.5-0.1-0.7,0.1-0.8,0.2l-0.3,0c-0.3-0.2-0.9-0.1-1.1-0.1l-1.1-0.7
					c0.3-0.3,0.5-0.7,0.8-1.3c0.1-0.1,0.1-0.3,0.2-0.4c0.1-0.1,0.8-0.5,1.3-2.3c0.1-0.1,0.3-0.2,0.3-0.4c0.1-0.3,0.1-0.5,0.1-0.8
					c0-0.3,0.1-0.7,0.3-1.2c0.2-0.4,0.2-0.9,0-1.3c0,0,0-0.1-0.1-0.1c0-0.1,0.1-2.1,0-3.1l0-0.1c0-0.7,0-1.7-1.8-2.8
					c-1.9-1.2-4.8-2.4-6.1-2.4h0c0,0,0,0,0,0c0,0,0,0,0,0v0c-0.4,0-1.8,0.7-3,1.3c-0.9,0.5-2.4,1.4-2.5,1.6c-0.2,0.8,0,1.7,0.2,2.3
					c0.1,0.3,0.2,0.5,0.2,0.7c0.1,0.6,0,0.9-0.3,1.3c-0.1,0.1-0.2,0.2-0.3,0.2c-0.1,0.1-0.2,0.2-0.2,0.3c0,0.1,0.1,0.3,0.2,0.3
					c0,0,0.1,0,0.2,0c0.1,0,0.1,0,0.2-0.1c0,0,0,0,0,0c-0.2,0-0.3,0.1-0.4,0.2c-0.2,0.2-0.2,0.7-0.1,1.1c0,0.3,0.2,0.6,0.3,0.8
					c0.1,0.2,0.2,0.4,0.2,0.7c0,0.4,0.1,0.7,0.2,0.9c0.1,0.1,0.2,0.1,0.3,0.1c0.1,0,0.1,0,0.2,0c0,0.1,0,0.2,0,0.3
					c0,0.3,0,0.5,0,0.7c-0.1,1.1-0.1,1.8,1.6,3.3c0.3,0.3,0.6,0.5,0.8,0.8c0,0,0,0,0,0l-0.9,0.6l-1.6,0.6c-0.1-0.1-0.3-0.2-0.7,0
					c-0.6,0.2-0.8,0.5-0.9,0.9l-0.2,0.1c-0.2,0-0.9-0.1-2.1,0.5c-1.7,0.8-4.5,3.6-5.1,4.6c-0.1,0-0.4,0-0.7,0.6
					c0,0.1-0.1,0.1-0.1,0.2c-0.3,0.5-0.4,0.8-0.2,1.1c-0.2,0.2-0.3,0.5-0.5,0.7c-0.5,0.7-1,1.4-1.6,2.1c-0.6,0.7-1.7,2.7,0.2,4.8
					c1.6,1.8,8.1,6,8.5,6.2c0.1,0.3,0.2,0.4,0.3,0.4c-0.1,0.1-0.2,0.5-0.1,1.1c0.2,0.5,0.5,0.6,0.7,0.7c-0.1,0.2-0.4,1-0.4,3.6v0.1
					l8.2,0.2l11.4-0.2l0.1,0c0.2-1.5,0.1-2.5,0-3.4c0-0.1,0-0.3,0-0.4c0.4,0,0.7,0.1,0.8,0.2c0.3,0.2,0.6,0.3,0.6,0.6
					c0,0.3,0.2,2.4,0.2,2.4l0,0.1l0.1,0c0,0,0.5-0.1,0.9-0.7c0.3-0.4,1.1-1.8,0.5-3.2c-0.4-1.1-1.1-1.5-1.5-1.7
					c-0.1,0-0.1-0.1-0.2-0.1l0,0c-0.3-0.2-0.9-0.5-1.4-1.1l0,0c0.2-0.6,0.1-1.1,0-1.6c0-0.2-0.1-0.4-0.1-0.6
					c0.3-0.3,0.4-0.5,0.4-0.6c0.2,0,0.7-0.1,1.8-0.5c0.7-0.2,1.4-0.8,1.8-1.2c0.4-0.4,0.8-0.8,0.8-0.8c0.7-0.2,1.3-0.6,1.6-1.2
					C43.1,32.5,43.2,31.9,43.1,31.3z M41.2,24.9C41.2,24.9,41.2,24.9,41.2,24.9c0.3,0.7,0.6,1.6,0.7,1.8c0,0,0,0,0,0c0,0,0,0,0,0
					c-0.4,0-1.4,0-2.8,0.3c-1.6,0.4-2.8,1-3.1,1.1c-0.1-0.2-0.7-0.8-1.6-1.3c2.1-1.3,5.1-1.8,6.7-2.1C41.1,24.9,41.1,24.9,41.2,24.9
					z M33.3,18.4l1.9,0.3c-0.1,0-0.2,0.1-0.3,0.1c-0.2,0.1-0.4,0.2-0.6,0.3c-0.2,0.1-0.4,0.2-0.5,0.4c-0.2,0.1-0.3,0.3-0.5,0.4
					c0.2-0.1,0.3-0.2,0.5-0.4c0.2-0.1,0.4-0.2,0.5-0.3c0.2-0.1,0.4-0.2,0.6-0.3c0.2-0.1,0.4-0.1,0.6-0.2c0.1,0,2.8,0,3.4,1.1
					c0.3,0.6,0.9,2,1.3,3.2c-0.1-0.2-0.3-0.3-0.4-0.5c-0.2-0.1-0.3-0.3-0.5-0.4c-0.2-0.1-0.3-0.2-0.5-0.4c0.2,0.1,0.3,0.2,0.5,0.4
					c0.2,0.1,0.3,0.3,0.5,0.4c0.1,0.2,0.3,0.3,0.4,0.5c0.1,0.2,0.2,0.4,0.3,0.6l0,0c0.2,0.5,0.3,0.9,0.4,1.1
					c-1.7,0.3-4.7,0.8-6.8,2.1c-0.6-0.3-1.4-0.5-2.4-0.4c0-0.4,0-0.8,0.2-1.2c0-0.1,0.1-0.2,0.1-0.3c0.3-0.7,0.6-1.2,0.3-2.1
					c0-0.2-0.1-0.5-0.2-0.7L33.3,18.4z M32.4,28.3L32.4,28.3c0,0-0.1,0-0.1,0l-0.1-0.2c0-0.1-0.1-0.2-0.1-0.3c0,0,0.1,0,0.1,0
					c0.1,0,0.1,0,0.2,0.1c0,0,0,0,0.1,0.1c0,0,0,0,0,0.1C32.5,28.2,32.5,28.2,32.4,28.3L32.4,28.3z M32.2,28.4
					c-0.1,0.1-0.1,0.1-0.2,0.2c0,0-0.1,0-0.1,0.1l-0.3-0.9c-0.2-0.5-0.7-0.7-1.1-0.5c-0.5,0.2-0.7,0.7-0.5,1.1l0.1,0.3
					c-0.2,0-0.3,0-0.5,0l-0.3-0.9c-0.2-0.6-0.8-1.1-1.2-1.4c0.6,0.1,1.3,0.1,2.3-0.1c0.7-0.2,1.2-0.4,1.5-0.6
					c-0.2,0.8,0,1.6,0.4,2.6L32.2,28.4z M31.7,28.7c-0.3,0.1-0.7,0.1-1.4,0c-0.1,0-0.2,0-0.3,0L30,28.3c-0.1-0.4,0.1-0.8,0.5-1
					c0.4-0.1,0.8,0.1,1,0.5L31.7,28.7z M30.7,22.5c0-0.4-0.2-1.8-0.2-2.2c0.6,0.1,1.2,0.9,1.6,1.8l0,0l0,0c0.1,0.3,0.2,0.5,0.2,0.7
					c0.2,0.9,0,1.3-0.3,2c-0.4,0.4-0.9,0.7-1.9,1c-1.8,0.4-2.7,0.2-3.8-0.7c-0.2-0.2-0.4-0.5-0.5-0.9c-0.1-0.3-0.5-1.6,0.5-3.1
					c0.2-0.3,0.4-0.5,0.5-0.5c0.1,0,0.1-0.1,0.2-0.1c0,0.4,0.1,2.1,0.2,2.4c0,0.4,0.4,0.5,0.7,0.7c0.4,0.2,1.3,0.3,1.9,0
					C30.5,23.4,30.7,23,30.7,22.5z M31.8,18.1c0,0,0.2-0.2,0.7-0.1c0.6,0.1,0.7,0.3,0.7,0.3l-1,3.7c-0.3-0.6-0.5-1-1-1.4L31.8,18.1z
					 M30.4,18c0.1,0,0.7-0.1,0.9,0c-0.2,0.3-0.4,0.6-0.7,0.9c-0.3,0.3-0.6,0.6-0.9,0.9l-0.1,0.1c0,0-0.1,0.1-0.1,0.1
					c-0.1,0.1-0.2,0.1-0.2,0.2c-0.2,0.1-0.3,0.2-0.5,0.3c-0.3,0.2-0.7,0.4-1.1,0.5c0.4-0.1,0.8-0.3,1.1-0.5c0.2-0.1,0.4-0.2,0.5-0.3
					c0.1-0.1,0.2-0.1,0.2-0.2c0,0,0.1-0.1,0.1-0.1l0.1-0.1c0.3-0.3,0.6-0.5,0.9-0.8c0.3-0.3,0.5-0.6,0.7-1l0.3,0l-0.6,2.4
					c-0.2-0.1-0.5-0.2-0.6-0.2l-0.1,0l0,0.1c0,0,0.1,1.8,0.2,2.2c0,0.5-0.2,0.8-0.8,1c-0.7,0.3-1.6,0.1-1.8,0
					c-0.3-0.2-0.6-0.3-0.6-0.6c0-0.3-0.2-2-0.2-2.4C29.1,19.8,30.2,18.2,30.4,18z M30.3,15.3c0.1-0.4,0.2-0.7,0.2-1
					c0-0.3,0-0.6,0.1-1.1c0.1,0.1,0.5,0.2,0.8,0.1C31.1,14.6,30.6,15.1,30.3,15.3z M30.4,3.6c1.7,1.1,1.7,2,1.7,2.7l0,0.1
					c0,0.9,0,2.5,0,3c-1.7-1.4-2.4-1.7-2.6-1.8c0-0.1,0-0.2,0-0.4c0.1,0,0.2,0.1,0.3,0.1c0.1,0.1,0.2,0.1,0.3,0.2
					c0.2,0.1,0.4,0.3,0.6,0.4c0.4,0.3,0.8,0.6,1.2,0.9c-0.4-0.3-0.8-0.7-1.1-1c-0.2-0.2-0.4-0.3-0.6-0.5c-0.1-0.1-0.2-0.1-0.3-0.2
					c-0.1-0.1-0.2-0.1-0.3-0.2c0-0.2,0.1-0.6,0.1-1c0-0.2,0.1-0.4,0.2-0.6c0.2-0.5,0.3-1,0-1.5c-0.7-0.9-3.2-2.2-4.6-2.7
					C26.7,1.7,28.8,2.7,30.4,3.6z M29.4,8.2c-0.1-0.1-0.2-0.2-0.3-0.3c0.2-0.1,0.3-0.2,0.4-0.2c0.1,0,0.8,0.3,2.3,1.6
					c0,0-0.1,0-0.1,0c-0.3,0-0.5,0-0.6,0.1c-0.2,0.1-0.3,0.3-0.3,0.5c0,1.3-0.2,1.7-0.2,1.7h-0.2c0,0,0,0-0.1,0c0,0-0.1,0-0.1,0
					c0,0,0,0,0,0c-0.1-0.1-0.1-0.7-0.1-1.3c0-0.3,0-0.5,0-0.8C29.9,8.7,29.6,8.4,29.4,8.2z M27.8,8.4c-0.1-0.1-0.3-0.3-0.7-0.6
					c-1-0.7-2.3-1.4-3.2-1.7c3.3,0.2,5.1,1.2,5.5,1.5C29.1,7.8,28.3,8.2,27.8,8.4z M19.4,7.2c0-0.2-0.1-0.4-0.2-0.7
					c-0.2-0.7-0.5-1.5-0.2-2.3c0-0.1,1-0.8,2.4-1.6c1.5-0.8,2.6-1.3,2.9-1.3c0.8,0,4.5,1.7,5.4,2.8c0.3,0.4,0.1,0.9,0,1.4
					c-0.1,0.2-0.1,0.4-0.2,0.6c-0.1,0.8-0.2,1.2-0.2,1.4c-0.1,0-0.2-0.1-0.3-0.2c0-0.3,0-0.5,0-0.8c0-0.3,0.1-0.5,0.1-0.8
					c0.1-0.3,0.2-0.5,0.2-0.8c0-0.1,0.1-0.3,0.1-0.4c0-0.1,0-0.1,0-0.2c0-0.1-0.1-0.1-0.1-0.2c0,0.1,0.1,0.1,0.1,0.2
					c0,0.1,0,0.1,0,0.2c0,0.1,0,0.3-0.1,0.4c-0.1,0.3-0.2,0.5-0.3,0.8C29.1,6,29,6.3,29,6.6c0,0.2,0,0.5-0.1,0.7
					c-0.3-0.1-0.6-0.3-1-0.4C27,6.5,25.3,6,23.1,6v0c0,0,0,0,0,0c-0.5,0-2.3,1.2-3.5,2.1c0-0.2,0.1-0.4,0.1-0.6c0-0.3,0-0.5-0.1-0.7
					c0-0.1-0.1-0.2-0.1-0.3c0-0.1-0.1-0.2-0.1-0.4c-0.1-0.2-0.1-0.5-0.2-0.7c0,0.2,0.1,0.5,0.2,0.7c0,0.1,0.1,0.2,0.1,0.4
					c0,0.1,0.1,0.2,0.1,0.3c0.1,0.2,0.1,0.5,0.1,0.7c0,0.2-0.1,0.5-0.1,0.7l0,0c-0.1,0.1-0.2,0.1-0.2,0.2c0,0,0,0-0.1,0
					C19.4,8,19.4,7.6,19.4,7.2z M19.1,9.1c-0.1,0.1-0.2,0.1-0.3,0.1c-0.1,0-0.1-0.1-0.1-0.2c0-0.1,0-0.2,0.1-0.2
					c0,0,0.1-0.1,0.3-0.2l0,0c0,0,0,0,0,0c0.1-0.1,0.2-0.1,0.3-0.2c1-0.7,3.2-2.3,3.8-2.3c0,0,0,0,0.1,0c0.7,0.1,2.4,0.9,3.8,1.8
					c0.7,0.4,0.7,0.6,0.7,0.6c0,0,0,0-0.1,0l0,0c0,0,0,0-0.1,0c-0.1,0-0.1,0.1-0.3,0c0,0-0.1-0.1-0.2-0.1C26.3,8,23.9,6.5,23,6.6
					C22.1,6.7,19.2,9,19.1,9.1z M19.3,12.9c-0.2-0.1-0.2-0.4-0.2-0.8c0-0.4-0.1-0.6-0.2-0.8c-0.1-0.2-0.2-0.4-0.2-0.7
					c-0.1-0.4-0.1-0.8,0.1-1c0.1-0.1,0.2-0.1,0.3-0.1c0.2,0.6,0.6,2.3,0.6,3.5C19.6,13,19.4,12.9,19.3,12.9z M21.4,17.3
					c-1.6-1.5-1.6-2.2-1.5-3.2c0-0.2,0-0.5,0-0.7c0-1.4-0.6-3.8-0.7-4.1c0.3-0.3,3-2.4,3.9-2.5c0.5,0,1.9,0.6,4,1.8
					c0.1,0.1,0.2,0.1,0.2,0.1c0.2,0.1,0.3,0.1,0.4,0c0,0,0.1,0,0.1,0c0.1,0,0.1-0.1,0.1-0.1c0,0,0,0,0,0c0.3-0.1,0.8-0.4,1.1-0.5
					c0.1,0.2,0.2,0.3,0.3,0.4c0.3,0.2,0.5,0.4,0.5,1.1c0,0.3,0,0.6,0,0.8c0,0.7,0,1.2,0.1,1.4c0,0,0.1,0.1,0.1,0.1
					c0.1,0,0.1,0,0.1,0c0,0,0,0,0.1,0h0.2c0.1,0,0.2-0.1,0.2-0.3c0,0,0.1,0.1,0.1,0.1c0,0.1,0.1,0.2,0.1,0.3c0,0.1,0,0.2,0,0.3
					c0,0.1-0.1,0.1-0.2,0.2c0.1,0,0.2-0.1,0.2-0.2c0.1-0.1,0.1-0.2,0.1-0.3c0-0.1,0-0.1,0-0.2l0.3-0.1l-0.3,0c0,0,0,0,0,0
					c0,0,0-0.1-0.1-0.1c0,0,0,0,0,0c0,0,0,0,0.1,0c0.1,0,0.1-0.1,0.2-0.1c0.1-0.1,0.2-0.2,0.2-0.4c0,0.1-0.1,0.2-0.3,0.3
					c-0.1,0-0.1,0-0.2,0.1c0,0-0.1,0-0.1,0c0.1-0.4,0.1-1,0.1-1.3c0-0.2,0.1-0.3,0.2-0.3c0.1-0.1,0.3-0.1,0.6-0.1
					c0.2,0,0.4,0.1,0.5,0.3c0.2,0.3,0.2,0.9,0,1.2c-0.2,0.5-0.3,0.9-0.3,1.3c0,0.2,0,0.5-0.1,0.7c-0.1,0.2-0.1,0.3-0.3,0.4
					c-0.3,0.2-0.9-0.1-0.9-0.1l0,0c-0.1,0-0.1-0.1-0.1-0.1c0-0.1-0.1-0.1-0.1-0.2c0,0.1,0,0.2,0,0.3c0,0.1,0.1,0.1,0.1,0.2
					c-0.1,0.5-0.1,0.8-0.1,1.1c0,0.5,0,0.8-0.4,1.5c-0.5,0.9-0.8,1.3-1.2,1.8c-0.2,0.2-0.3,0.4-0.5,0.6c-0.7,0.8-1.4,1.1-3.1,1.1
					c-1.5,0-1.7-0.1-2.9-1.2C22,17.8,21.7,17.6,21.4,17.3z M22.3,18.2c1.1,1,1.3,1.1,2.8,1.1c1.8,0,2.6-0.3,3.2-1.1
					c0.2-0.2,0.3-0.4,0.5-0.6c0.1-0.1,0.2-0.3,0.4-0.4l1.1,0.7c-0.2,0.3-1.3,1.7-3.1,2.5l-0.1,0c0,0-0.1,0-0.3,0.1
					c-0.5,0.2-1.1,0.3-1.8,0.3c-1,0-2.3-0.2-3.1-1c-0.4-0.4-0.5-0.8-0.5-1L22.3,18.2z M19.7,19.5l0.8-0.3c0,0.2,0.1,0.3,0.2,0.5
					c0.1,0.2,0.2,0.3,0.3,0.5c0.2,0.3,0.5,0.6,0.8,0.8c0.2,0.1,0.3,0.2,0.5,0.3c0,0,0.1,0,0.1,0.1c0,0,0.1,0,0.1,0.1
					c0.1,0,0.2,0.1,0.3,0.1c0.4,0.1,0.8,0.2,1.2,0.2c-0.4,0-0.8-0.1-1.1-0.2c-0.1,0-0.2-0.1-0.3-0.1c0,0-0.1,0-0.1-0.1
					c0,0-0.1,0-0.1-0.1c-0.2-0.1-0.3-0.2-0.5-0.3c-0.3-0.2-0.6-0.5-0.8-0.8c-0.1-0.2-0.2-0.3-0.3-0.5c-0.1-0.2-0.1-0.3-0.2-0.5
					l0.6-0.2c0,0.2,0.2,0.6,0.5,1c0.8,0.9,2.2,1,3.2,1c0.6,0,1.1-0.1,1.5-0.2c-0.1,0.1-0.2,0.2-0.3,0.4c-0.3,0.4-1.1,1.8-0.5,3.2
					c0.4,1.1,1.1,1.5,1.5,1.7c0.1,0,0.1,0.1,0.2,0.1l0,0c0.3,0.2,1.1,0.6,1.5,1.2c-0.4,0-2.4,0.2-4.9,0.3c-2.5,0.1-4.6,0-5,0
					c0-0.3,0.1-1.5,0.3-3.3c0.1-0.7,0.2-1.4,0.2-2.1C19.7,20.7,19.8,19.8,19.7,19.5z M18.2,20.4c0.1-0.4,0.3-0.6,0.8-0.9
					c0.5-0.2,0.6,0,0.6,0l0,0c0.1,0.2-0.1,1.5-0.2,2.7c-0.1,0.7-0.2,1.4-0.2,2.1c-0.2,2-0.3,3.3-0.3,3.3h0c0,0.6-0.1,1.1-0.1,1.4
					c0,0.2-0.2,0.4-0.4,0.4l-0.6,0c-0.2,0-0.4-0.2-0.4-0.4l0-0.8l0,0l0,0c0,0,0-1.5,0.2-3.3c0.1-1.1,0.3-2.5,0.4-3.4
					C18.1,21,18.1,20.6,18.2,20.4z M15.8,21c1-0.5,1.7-0.5,1.9-0.5c-0.1,0.1-0.3,0.2-0.4,0.3c-0.2,0.1-0.3,0.3-0.5,0.4
					c-0.2,0.1-0.3,0.3-0.5,0.5c-0.1,0.2-0.3,0.3-0.4,0.5c0.1-0.2,0.3-0.3,0.4-0.5c0.2-0.2,0.3-0.3,0.5-0.4c0.2-0.1,0.3-0.3,0.5-0.4
					c0.2-0.1,0.4-0.2,0.5-0.4l0.1-0.1c0,0.3-0.1,0.6-0.1,1c-0.1,1-0.3,2.3-0.4,3.4c-0.2,1.7-0.2,3.2-0.2,3.3
					c-0.1,0.1-0.8,1.4-1.2,2.1c-0.2,0.4-0.6,0.7-0.8,1c-0.1,0.1-0.1,0.1-0.2,0.2c-0.1-0.8-0.3-1.6-0.5-2.2c0,0,0,0,0,0
					c-0.1-0.4-0.3-0.7-0.4-0.8l0.4-1.3l-0.1,0l0.1,0l0.3-1.3L14.5,27l0,0l-0.4,1.4l0,0c0.1,0.1,0.2,0.4,0.3,0.7
					c-0.2-0.1-0.7-0.4-1.3-0.9c-0.8-0.6-1.6-1.6-2.1-2.3c-0.1-0.1-0.2-0.3-0.3-0.4C11.3,24.6,14.1,21.8,15.8,21z M15.1,32.8
					c0.3,0.6,0.7,1.5,0.8,2.6c0,0.2,0,0.3,0,0.5c-0.2-0.2-0.7-0.7-1.4-1.9c-0.2-0.4-0.5-0.7-0.7-0.9c0.8-0.8,1.1-1.5,1.2-1.7
					c0,0,0.1,0,0.1,0c0,0,0,0.1,0,0.1c-0.1,0.1-0.2,0.2-0.2,0.4C14.8,32.1,14.9,32.3,15.1,32.8z M9.9,26.3c0-0.1,0.1-0.1,0.1-0.2
					c0.3-0.5,0.5-0.5,0.6-0.5c0.1,0.1,0.2,0.2,0.3,0.4c0.5,0.7,1.4,1.7,2.1,2.3c0.8,0.6,1.3,0.9,1.4,1c0.2,0.6,0.4,1.3,0.5,2
					c-2.7-1.6-4.5-3.3-5-3.9c-0.1-0.1-0.1-0.1-0.2-0.2C9.5,27,9.6,26.8,9.9,26.3z M7.9,34.8c-1.9-2-0.8-3.9-0.2-4.6
					c0.6-0.8,1.1-1.4,1.6-2.1c0.2-0.2,0.3-0.4,0.5-0.7c0,0,0.1,0.1,0.1,0.1c0.6,0.6,2.3,2.2,5,3.9c-0.1,0.2-0.4,0.9-1.2,1.7
					c-0.7-0.6-1.4-0.7-1.4-0.7v0c-0.3,0-0.6-0.1-0.8-0.1c-0.1,0-0.3,0-0.4,0c-0.1,0-0.3,0-0.4,0c0.1,0,0.3,0,0.4,0
					c0.1,0,0.3,0,0.4,0.1c0.3,0,0.6,0.1,0.8,0.1l0-0.1l0,0.1c0,0,0.3,0,0.7,0.3c0.4,0.2,1,0.6,1.4,1.4c0.9,1.5,1.5,1.9,1.5,2l0,0
					c0,0.5,0,0.9-0.1,1.3c0,0.5-0.1,0.9,0,1.4c0.1,0.6,0.2,1.3,0.3,1.8c0,0,0,0,0,0l0,0c0,0.2,0,0.4,0.1,0.5
					C15.4,40.4,9.4,36.5,7.9,34.8z M16.6,42.6c-0.2-0.5,0-0.9,0.1-1c0.3,0.1,0.6,0.2,0.9,0.2c0.3,0.1,0.6,0.1,0.9,0.1
					c0.6,0.1,1.2,0.1,1.8,0.2c1.2,0.1,2.5,0.1,3.7,0.1c1.2,0,2.5-0.1,3.7-0.2l1.8-0.1c0.6,0,1.2-0.1,1.8-0.1
					c-0.6,0.1-1.2,0.1-1.8,0.1L27.6,42c-1.2,0.1-2.4,0.1-3.7,0.1c-1.2,0-2.5,0-3.7-0.1c-0.6,0-1.2-0.1-1.8-0.2
					c-0.3,0-0.6-0.1-0.9-0.1c-0.3-0.1-0.6-0.1-0.9-0.2c0,0-0.2-0.1-0.3-0.4c0,0,0-0.3-0.1-0.7c0-0.1,0-0.3,0-0.4
					c0-0.2,0-0.3,0.1-0.5c0-0.2,0-0.3,0-0.5c0-0.2,0-0.3,0-0.5c0,0.2,0,0.3,0,0.5c0,0.2,0,0.3-0.1,0.5c0,0.1-0.1,0.3-0.1,0.4
					c-0.1-0.4-0.1-1-0.2-1.4c-0.1-0.5-0.1-0.8,0-1.3c0-0.4,0.1-0.9,0-1.6c0.1-0.4,0.1-0.8,0.2-1.2c0.1-0.4,0.1-0.8,0.1-1.2
					c0,0.4,0,0.8-0.1,1.2c-0.1,0.3-0.1,0.5-0.2,0.8c-0.1-1.1-0.5-2-0.8-2.6c-0.2-0.4-0.3-0.7-0.3-0.8c0-0.2,0.2-0.3,0.5-0.6
					c0.3-0.3,0.6-0.6,0.9-1c0.3-0.6,0.8-1.5,1.1-1.9l0,0.6c0,0.3,0.2,0.5,0.5,0.5l0.6,0c0,0,0,0,0,0c0.3,0,0.5-0.2,0.5-0.5
					c0-0.3,0-0.8,0.1-1.4c0.3,0,1.5,0,3,0c0.6,0,1.3,0,1.9,0c2.7-0.1,4.9-0.3,5-0.3c0.1,0.1,0.1,0.2,0.1,0.3l0.1,0.2
					c-0.4,0.1-1.2,0.5-1.7,0.9c-0.1,0-0.1,0.1-0.2,0.1c0,0,0,0,0,0c-0.3,0.3-0.2,0.8-0.2,1.4c-0.7,0-5.9,0.4-7.4,0.4
					c-0.5,0-0.9,0.1-1.1,0.3c-0.2,0.3-0.1,0.7-0.1,1c0,0.1,0,0.1,0,0.2c0.1,0.5,0.7,5.4,0.8,6.5c0,0.5,0.1,1.4,0.8,2.1
					c0.6,0.5,1.6,0.8,3,0.8c0.3,0,0.7,0,1.1-0.1c4.4-0.4,6.4-1.1,6.3-2.3c0-0.4-0.1-0.8-0.1-1c0.1,0.1,0.2,0.2,0.3,0.3
					c0.3,0.2,0.7,0.4,1.2,0.4c0.3,0,0.6,0,0.9-0.1c0.4,1.1,0.5,1.8,0.1,2.6c0,0.1-0.1,0.2-0.1,0.3c-0.2,0.5-0.4,0.8-0.4,1.3
					c-3.4,0.5-12,0.5-15,0.3l-0.3,0C17.3,43.2,16.8,43.2,16.6,42.6z M28.1,34c0.1,0.5,0.4,0.9,0.7,1.1c0.1,0.1,0.2,0.1,0.3,0.1
					c-0.1,0.2-0.1,0.6,0.1,1.1c0.2,0.6,0.5,0.9,0.7,1.1c0.2,0.1,0.3,0.2,0.4,0.2c0,0.1,0,0.3,0.2,0.6c0,0.1,0.1,0.7,0.1,1.2
					c0.1,1.1-1.9,1.7-6.2,2.1c-1.9,0.2-3.2-0.1-4-0.7c-0.7-0.6-0.8-1.5-0.8-2c0-0.9-0.5-4.6-0.7-6l8.8-0.6c0.2,0.3,0.4,0.4,0.5,0.4
					C28,32.7,27.8,33,28.1,34z M18.8,32.6c0-0.2,0-0.3-0.1-0.4c0-0.1,0-0.1,0-0.2c-0.1-0.3-0.1-0.6,0.1-0.9c0.2-0.2,0.5-0.3,1-0.3
					c1.4,0,6.7-0.3,7.4-0.4c0,0.2,0.1,0.5,0.1,0.7c0.1,0.3,0.1,0.6,0.2,0.8L18.8,32.6z M36.4,46.8L24.9,47l-8-0.2
					c0-3,0.3-3.4,0.4-3.5c1.1,0.1,3.3,0.2,5.7,0.2c3.5,0,7.5-0.1,9.6-0.4c0,0.2,0,0.5,0.1,0.8c0.2,1,1.1,2.6,2,2.7l0.1,0l0-0.1
					c0,0-0.1-1.8-0.2-2.2c0-0.5,0.2-0.8,0.8-1c0.3-0.1,0.6-0.2,0.9-0.1c0,0.1,0,0.3,0,0.4C36.4,44.4,36.5,45.4,36.4,46.8z
					 M38.8,41.5c0.2,0.2,0.4,0.5,0.5,0.9c0.1,0.3,0.5,1.6-0.5,3.1c-0.3,0.4-0.6,0.6-0.7,0.6c0-0.4-0.1-2.1-0.2-2.4
					c0-0.4-0.4-0.5-0.7-0.7c-0.4-0.2-1.3-0.3-1.9,0c-0.6,0.2-0.9,0.6-0.9,1.1c0,0.4,0.2,1.8,0.2,2.2c-0.8-0.1-1.6-1.6-1.8-2.6
					c-0.2-0.9,0-1.3,0.3-2c0.4-0.4,0.9-0.7,1.9-1C36.9,40.4,37.8,40.6,38.8,41.5z M37.2,40.4c-0.6-0.1-1.3-0.1-2.3,0.1
					c-0.7,0.2-1.2,0.4-1.5,0.6c0.2-0.7,0.1-1.4-0.3-2.3c0.1,0,0.3-0.1,0.4-0.1l0.1,0.2c0.2,0.5,0.7,0.7,1.1,0.5
					c0.5-0.2,0.7-0.7,0.5-1.1l-0.1-0.1c0.1-0.1,0.3-0.1,0.4-0.2l0.4,1C36.2,39.6,36.8,40.1,37.2,40.4z M33.7,38.7
					c0.4-0.1,0.7-0.2,1.2-0.4c0.1,0,0.2-0.1,0.3-0.1l0.1,0.1c0.1,0.4-0.1,0.8-0.5,1c-0.4,0.1-0.8-0.1-1-0.5L33.7,38.7z M36.4,39.4
					c-0.1-0.1-0.2-0.3-0.3-0.5l-0.4-1c0.2-0.1,0.4-0.3,0.6-0.4c0,0.1,0,0.3,0.1,0.5C36.4,38.4,36.5,38.9,36.4,39.4z M41.4,34.1
					c0-0.1,0.1-0.1,0.1-0.2c0.1-0.1,0.1-0.2,0.2-0.4c0.1-0.1,0.1-0.3,0.1-0.4c0-0.1,0.1-0.3,0.1-0.4c0,0.1-0.1,0.3-0.1,0.4
					c-0.1,0.1-0.1,0.2-0.2,0.4c-0.1,0.1-0.1,0.2-0.2,0.4c-0.1,0.1-0.1,0.2-0.2,0.3l0,0l0,0c0,0-1.3,1.5-2.6,2
					c-1,0.4-1.6,0.5-1.8,0.5c0-0.3,0.1-0.5,0.2-0.8c0.1-0.3,0.1-0.6,0.2-0.9c-0.1,0.3-0.2,0.6-0.3,0.9c-0.1,0.3-0.2,0.6-0.2,0.9l0,0
					c0,0-0.3,1-1.9,1.6c-2,0.7-3.2,0.8-3.8,0.2c-0.5-0.4-0.6-0.9-0.6-1c0.1,0,0.3,0,0.4,0c0.1,0,0.3,0,0.4,0c0.1,0,0.3,0,0.4-0.1
					c0.1,0,0.3-0.1,0.4-0.1c-0.1,0-0.3,0.1-0.4,0.1c-0.1,0-0.3,0-0.4,0c-0.1,0-0.3,0-0.4,0c-0.1,0-0.3,0-0.4,0c0,0-0.8-0.2-1.1-1.2
					c-0.3-0.9-0.1-1-0.1-1.1c0.3,0,0.7,0,1,0c0.3,0,0.7-0.1,1-0.2c-0.3,0.1-0.7,0.1-1,0.1c-0.3,0-0.7,0-1,0l0,0l0,0c0,0,0,0,0,0
					c0,0-0.7,0.1-1-1.1c-0.3-1-0.1-1.3,0-1.4c0.4,0.1,0.8,0.1,1.2,0.1c0.4,0,0.8,0,1.2-0.2c-0.4,0.1-0.8,0.1-1.2,0.1
					c-0.3,0-0.7-0.1-1-0.1l0,0l-0.2,0c0,0-0.2,0-0.3-0.2c-0.2-0.2-0.4-0.5-0.5-1.1c-0.2-1.1-0.3-1.8,0-2.1c0,0,0.1-0.1,0.1-0.1
					c0,0,0.1-0.1,0.1-0.1c0.5-0.3,1.1-0.7,1.6-0.8l0.2,0.6c-0.4,0-0.7-0.1-0.7-0.1l0,0.1l0-0.1c0,0-0.1,0-0.1,0c0,0,0,0,0,0
					c0,0,0,0,0,0c0,0,0-0.1,0-0.1c0,0,0,0,0.1-0.1c0,0-0.1,0-0.1,0c0,0-0.1,0-0.1,0.1c0,0,0,0,0,0.1c0,0,0,0.1,0,0.1
					c0,0,0.1,0,0.1,0.1v0c0,0,0.9,0.1,1.7,0.1c0.3,0,0.6,0,0.8,0c0.4,0,0.6,0,0.8-0.2c0.3-0.2,0.4-0.4,0.5-0.4l0,0l0,0c0,0,0,0,0,0
					l0,0c0.1-0.1,0.1-0.1,0.1-0.2c0,0,0-0.1,0-0.1c0,0-0.1-0.1-0.1-0.1c-0.1,0-0.1,0-0.2,0c0,0-0.1,0-0.1,0
					c-0.2-0.5-0.3-0.9-0.3-1.3c2.8-0.2,4.1,1.7,4.1,1.8c0.1,0.2,0.2,0.3,0.3,0.5c0.1,0.2,0.2,0.4,0.3,0.5c0.2,0.4,0.3,0.7,0.4,1.1
					c-0.1-0.4-0.2-0.8-0.4-1.1c0,0,0-0.1-0.1-0.1c0.4-0.1,0.8-0.1,1.1-0.2c0.4,0,0.8,0,1.2,0c0.4,0,0.8,0.1,1.2,0.2
					c0.4,0.1,0.8,0.3,1.1,0.5c-0.3-0.2-0.7-0.4-1.1-0.5c-0.4-0.1-0.8-0.2-1.2-0.3C38.4,29,38,29,37.6,29c-0.4,0-0.8,0-1.2,0.1
					c0-0.1-0.1-0.2-0.1-0.3c-0.1-0.2-0.2-0.3-0.2-0.5c0.3-0.1,1.5-0.8,3-1.1c1-0.2,1.9-0.3,2.4-0.3c0.1,0.3,1.3,3.4,1.5,4.4
					C43.2,32.9,42.4,33.8,41.4,34.1z"/>
				<path class="st0" d="M22.2,11.9c0.1,0,0.1,0,0.2,0c0.2,0,0.4,0,0.7,0.1c-0.1-0.1-0.2-0.1-0.3-0.1l0,0c0.1-0.4,0.1-1-0.5-1.2
					c-0.6-0.1-1.2,0.1-1.6,0.4c-0.3,0.3,0,1.3,0,1.4c-0.1,0-0.1,0.1-0.2,0.1c0.2-0.1,0.4-0.1,0.7-0.2c0.2-0.1,0.4-0.2,0.6-0.2
					l0.3-0.1C22.1,12,22.2,12,22.2,11.9z M21.9,11.4c0-0.1,0.1-0.2,0.2-0.2c-0.1-0.1-0.2-0.1-0.3-0.1c-0.3,0-0.5,0.2-0.5,0.5
					c0,0.2,0.1,0.4,0.3,0.4c-0.2,0.1-0.4,0.1-0.5,0.2c-0.1,0-0.2,0.1-0.3,0.1c-0.1-0.3-0.3-1.1,0-1.3c0.3-0.3,0.9-0.5,1.5-0.4
					c0.6,0.1,0.5,0.7,0.4,1l0,0c-0.1,0-0.2,0-0.3,0c-0.1,0-0.1,0-0.2,0c0,0,0,0-0.1,0c0-0.1,0.1-0.2,0.1-0.3c0,0,0,0,0-0.1
					c0,0-0.1,0.1-0.1,0.1C22,11.6,21.9,11.5,21.9,11.4z"/>
				<path class="st0" d="M28.4,10.7c-0.4-0.3-1-0.6-1.9-0.4c-0.8,0.2-0.6,1-0.6,1.4l0,0.1c-0.1,0-0.1,0.1-0.2,0.1
					c-0.1,0-0.1,0.1-0.2,0.1c0.1,0,0.2-0.1,0.2-0.1c0.1,0,0.2-0.1,0.2-0.1c0.2,0,0.3-0.1,0.5,0c0.1,0,0.2,0,0.2,0.1L27,12l0.5,0.1
					c0.3,0.1,0.6,0.2,1,0.2c0.3,0.1,0.6,0.1,1,0.2c-0.2-0.1-0.5-0.2-0.7-0.2C28.7,12,28.8,11,28.4,10.7z M28.5,12.2
					C28.5,12.2,28.5,12.2,28.5,12.2c-0.4-0.1-0.7-0.2-1-0.3l-0.2,0c0.3,0,0.5-0.3,0.5-0.5c0,0,0-0.1,0-0.1c0,0-0.1,0.1-0.1,0.1
					c-0.1,0-0.2-0.1-0.2-0.2c0-0.1,0.1-0.2,0.2-0.2c-0.1-0.1-0.2-0.2-0.4-0.2c-0.3,0-0.5,0.2-0.5,0.5c0,0.2,0.1,0.3,0.2,0.4l-0.2,0
					c-0.1,0-0.2,0-0.2,0c-0.1,0-0.3,0-0.4,0l0,0c-0.1-0.5-0.2-1.1,0.5-1.3c0.8-0.2,1.4,0.1,1.7,0.3C28.6,11.1,28.6,11.9,28.5,12.2z"
					/>
				<path class="st0" d="M23,12.9c0,0-0.1,0.1-0.1,0.1c-0.1,0.1-0.1,0.2-0.1,0.2c-0.1,0.2-0.1,0.4-0.1,0.6c0,0.2,0.1,0.4,0.2,0.5
					c0.1,0.1,0.3,0.3,0.5,0.3c0.4,0.1,0.8,0,1-0.3c-0.3,0.2-0.7,0.3-1,0.2c-0.3-0.1-0.6-0.4-0.6-0.7c0-0.3,0.1-0.7,0.4-0.9
					c0,0,0.1-0.1,0.1-0.1c0,0,0,0,0.1,0c0.1,0,0.2-0.1,0.3-0.1c0.2,0,0.3,0,0.5,0.1c-0.2-0.1-0.3-0.1-0.5-0.1c-0.1,0-0.1,0-0.2,0
					c0.2-0.3,0.3-0.6,0.3-0.9c0-0.4,0-0.7-0.1-1.1c0.1,0.4,0.1,0.7,0,1.1c-0.1,0.4-0.2,0.7-0.4,1c0,0-0.1,0-0.1,0.1
					C23.1,12.8,23,12.8,23,12.9C23,12.9,23,12.9,23,12.9z"/>
				<path class="st0" d="M25.5,9.6c0,0.2,0.2,0.3,0.3,0.2c0.4-0.1,1-0.3,1.7-0.3c0.7,0,1.5,0.2,1.8,0.3c0.1,0,0.1-0.1,0-0.1
					c-1-1.1-2.4-1-2.4-1l0.3-0.1c-0.6-0.1-1.2,0-1.5,0.1c-0.2,0.1-0.3,0.3-0.2,0.5L25.5,9.6z"/>
				<path class="st0" d="M22.4,10c0.1,0,0.2-0.1,0.2-0.3l0-0.2c0-0.2-0.1-0.3-0.3-0.4c-0.3,0-0.7-0.1-1.2,0.2l0.2,0
					c0,0-1.1,0.1-1.6,1.2c0,0,0,0.1,0.1,0.1c0.2-0.1,0.8-0.5,1.3-0.6C21.5,10,22.1,10,22.4,10z"/>
				<path class="st0" d="M25.4,17.7c-0.2,0-0.4,0-0.5,0.1c-0.2,0.1-0.3,0.1-0.5,0.2c0.2-0.1,0.3-0.1,0.5-0.2c0.2,0,0.3,0,0.5,0
					c0.2,0,0.3,0,0.5,0c0.1,0,0.2,0,0.3,0.1c0.1,0,0.2,0.1,0.2,0.1c-0.1-0.1-0.3-0.2-0.5-0.2C25.7,17.7,25.6,17.7,25.4,17.7z"/>
			</g>
		</g>
	</g>
	<g>
		<path class="st11" d="M34.8,40.6c-1,0.2-1.6,0.6-1.9,1c-0.3,0.7-0.5,1.1-0.3,2c0.2,1,1.1,2.5,1.8,2.6c0-0.3-0.1-1.8-0.2-2.2
			c0-0.5,0.2-0.9,0.9-1.1c0.7-0.3,1.6-0.2,1.9,0c0.3,0.1,0.6,0.3,0.7,0.7c0,0.3,0.2,2,0.2,2.4c0.1,0,0.4-0.2,0.7-0.6
			c1-1.5,0.7-2.8,0.5-3.1c-0.1-0.4-0.3-0.7-0.5-0.9C37.5,40.3,36.6,40.2,34.8,40.6z"/>
		<path class="st0" d="M34.5,39.1c-0.4,0.1-0.8-0.1-1-0.4l-0.1,0c0.2,0.5,0.7,0.7,1.1,0.5c0.4-0.2,0.7-0.6,0.6-1.1l-0.1,0
			C35,38.6,34.8,39,34.5,39.1z"/>
		<path class="st11" d="M35.7,38.8L35.5,38l-0.4,0.1c0.1,0.4-0.1,0.9-0.6,1.1c-0.5,0.2-1-0.1-1.1-0.5L33,38.8
			c0.3,0.8,0.4,1.4,0.2,2.1c0.4-0.2,0.8-0.5,1.5-0.6c0.9-0.2,1.6-0.3,2.3-0.1C36.5,39.8,36,39.4,35.7,38.8z"/>
		<path class="st11" d="M33.5,38.7c0.2,0.4,0.6,0.6,1,0.4c0.4-0.1,0.6-0.5,0.5-0.9L33.5,38.7z"/>
		<path class="st0" d="M34.5,46.2L34.5,46.2L34.5,46.2c0.1-0.1-0.1-1.9-0.1-2.3c0-0.5,0.2-0.8,0.8-1c0.3-0.1,0.6-0.2,0.9-0.1l0.1,0
			c0.4,0,0.7,0.1,0.8,0.2c0.3,0.2,0.6,0.3,0.6,0.6c0,0.3,0.2,2.4,0.2,2.4l0,0.1l0.1,0c0,0,0.5-0.1,0.9-0.7c0.3-0.4,1.1-1.8,0.5-3.2
			c-0.4-1.1-1.1-1.5-1.5-1.7c-0.1,0-0.1-0.1-0.2-0.1l0,0c-0.3-0.2-0.9-0.5-1.4-1.1c0,0,0,0-0.1-0.1c-0.1-0.1-0.2-0.3-0.3-0.5
			L35.6,38l0,0l-0.1,0l0.3,0.7c0.2,0.6,0.8,1.1,1.2,1.4c-0.6-0.1-1.3-0.1-2.3,0.1c-0.7,0.2-1.2,0.4-1.5,0.6c0.2-0.6,0.1-1.2-0.2-2.1
			l-0.1,0c0.3,1,0.4,1.6,0,2.3c0,0.1-0.1,0.2-0.1,0.3c-0.2,0.5-0.4,0.8-0.4,1.3l0,0.1c0,0.2,0,0.5,0.1,0.8
			C32.7,44.6,33.6,46.2,34.5,46.2z M32.9,41.5c0.4-0.4,0.9-0.7,1.9-1c1.8-0.4,2.7-0.2,3.8,0.7c0.2,0.2,0.4,0.5,0.5,0.9
			c0.1,0.3,0.5,1.6-0.5,3.1c-0.3,0.4-0.6,0.6-0.7,0.6c0-0.4-0.1-2.1-0.2-2.4c0-0.4-0.4-0.5-0.7-0.7c-0.4-0.2-1.3-0.3-1.9,0
			c-0.6,0.2-0.9,0.6-0.9,1.1c0,0.4,0.2,1.8,0.2,2.2c-0.8-0.1-1.6-1.6-1.8-2.6C32.4,42.6,32.5,42.2,32.9,41.5z"/>
	</g>
</g>
</svg>
