<svg xmlns="http://www.w3.org/2000/svg" xmlns:xlink="http://www.w3.org/1999/xlink" viewBox="0 0 195.35 423.37"><defs><style>.cls-1{fill:none;}.cls-12,.cls-15,.cls-16,.cls-18,.cls-2,.cls-22,.cls-30,.cls-4,.cls-42{fill:#fff;}.cls-19,.cls-2{opacity:0.5;}.cls-27,.cls-3{fill:#27aae1;}.cls-13,.cls-26,.cls-4,.cls-6{opacity:0.15;}.cls-16,.cls-5{opacity:0.1;}.cls-6{fill:#1c1f23;}.cls-7{fill:#fdbe92;}.cls-8{opacity:0.05;}.cls-9{fill:#fcbd92;}.cls-10{fill:#768184;}.cls-11,.cls-19{fill:#526064;}.cls-12{opacity:0.35;}.cls-14{fill:#d40032;}.cls-15,.cls-28,.cls-49{opacity:0.2;}.cls-17{fill:#f7941e;}.cls-18{opacity:0.4;}.cls-20{fill:#e7e9e6;}.cls-21,.cls-27,.cls-30{opacity:0.3;}.cls-23{fill:#167dc2;}.cls-24{fill:#4d4d4d;}.cls-25{fill:#434343;}.cls-29{fill:#937e65;}.cls-31{fill:#8b7a63;}.cls-32{fill:#a69986;}.cls-33{fill:#897a62;}.cls-34{fill:#8c7b63;}.cls-35{fill:#557dd9;opacity:0.07;}.cls-36{clip-path:url(#clip-path);}.cls-37{fill:#f1f2fa;}.cls-38{fill:#d09f7b;}.cls-39{clip-path:url(#clip-path-2);}.cls-40{fill:#4e6da0;}.cls-41{fill:#252d3a;}.cls-42{opacity:0.7;}.cls-43{fill:#4e474b;}.cls-44{fill:url(#linear-gradient);}.cls-45{clip-path:url(#clip-path-3);}.cls-46{fill:#523112;}.cls-47{fill:#5a3412;}.cls-48{fill:#67c3ea;}</style><clipPath id="clip-path"><path class="cls-1" d="M91.29,55.71c3,4.12,6,6.62,8.72,6.83,3.19.24,4.77.56,5.94.4a21,21,0,0,0,2.77-.17,10.31,10.31,0,0,1,1.17-5.25c-1.59.35-4.82-.19-7.09-.29s-4.44.23-6.31.07C92.92,57,90.79,55,91.29,55.71Z"/></clipPath><clipPath id="clip-path-2"><path class="cls-2" d="M107.13,37.61a12.12,12.12,0,0,0-.77,5.87,16.25,16.25,0,0,0,6.22.63c.4-4.84.35-5.27.35-5.27a4.72,4.72,0,0,0-3.06-1.39A10.75,10.75,0,0,0,107.13,37.61Z"/></clipPath><linearGradient id="linear-gradient" x1="420.54" y1="48.69" x2="426.67" y2="42.91" gradientTransform="matrix(-1, 0, 0, 1, 532.95, 0)" gradientUnits="userSpaceOnUse"><stop offset="0" stop-color="#fc9f7c"/><stop offset="0.26" stop-color="#fcac86"/><stop offset="0.64" stop-color="#fcb98f"/><stop offset="1" stop-color="#fcbd92"/></linearGradient><clipPath id="clip-path-3"><path class="cls-2" d="M96.38,36.46a12.6,12.6,0,0,1-.21,6.23c-1.56.4-5.65,0-8.16-.54.42-5.1,1.73-6,1.73-6a10.31,10.31,0,0,1,4.16-.79C95.86,35.5,96.38,36.46,96.38,36.46Z"/></clipPath></defs><title>Asset 1</title><g id="Layer_2" data-name="Layer 2"><g id="Work"><path class="cls-3" d="M119.36,85.48c13.45-.54,19.74,8.67,24.67,16.29,5.83,7,12.56,13.18,18.09,16.09s17.2,11,15.85,26.08-19,14.26-27.81,4.59S127,136.1,121.4,127.68,104.27,86.08,119.36,85.48Z"/><path class="cls-4" d="M117.16,85.85a8.22,8.22,0,0,1,2.2-.37c13.45-.54,19.74,8.67,24.67,16.29,5.83,7,12.56,13.18,18.09,16.09s17.2,11,15.85,26.08c-.69,7.74-5.66,11.28-11.53,11.61,1.74-12.26-6.93-31.55-9.51-36-3.41-5.84-6.37-7.33-11.44-12.21s-10.28-1.89-10.28-1.89,1.2-3.5,5.74-3.12C132.33,88.57,127.65,87.93,117.16,85.85Z"/><path class="cls-5" d="M121.4,127.68c-3.77-5.64-10.18-22.41-9.46-33,12.22.06,21.81,13,22.07,28.5.75,7.19,4.92,9.15,4.92,9.15a15.36,15.36,0,0,1,0-10.18c.17,3.59,1.32,10.73,9.19,9.85,5.38-.6,18.27,1.74,27.67-.62a23.8,23.8,0,0,1,2.18,12.6c-1.34,15.1-19,14.26-27.81,4.59S127,136.1,121.4,127.68Z"/><path class="cls-3" d="M157.44,113.83c-7.43.81-14.53,10.8-16.62,22.33-2.21,12.18,11.9,20.94,20.71,23,6.95,1.63,16.34-.33,19.85-10.06s2.08-15.74-4.48-24.6S164.76,113,157.44,113.83Z"/><path class="cls-4" d="M149.54,143.74c.86,6.32,5.43,12.21,16.05,14.7-5.11.35-13.52-1.69-19.66-9.88,3.59,3.53,4.55,3.71,5.66,4.06S148.6,150.1,149.54,143.74Z"/><path class="cls-4" d="M142.1,138.16c-.18.94-1-1.59-.43-5.68,2.78-9.9,9.15-17.92,15.77-18.65a18.48,18.48,0,0,1,6.16.28A22.72,22.72,0,0,0,146.33,130c2-4.15,7-8.19,7.9-7.89-3.76,2.5-8.43,12.74-7.2,24.11-1.75-.39-2.71-6.27-3.23-8.16S142.41,136.56,142.1,138.16Z"/><path class="cls-6" d="M158.65,121c-9,4.5-10.36,16.7-8.27,24.72s13.7,13.2,18.78,11.91,13.39-5.18,12.09-19.08-16.63-33.07-29.34-15.34C160.53,116.07,158.65,121,158.65,121Z"/><path class="cls-7" d="M159.85,112.77c.6-5.53-2-15.4-3.45-20s12.14-6.92,14.67-2.26-2.4,7.09,5.66,24.64c8.72,18.95,7.77,23.77,4.7,29.81a24.17,24.17,0,0,1-6.32,8,2.23,2.23,0,0,1-.39.23,8.8,8.8,0,0,1-4.82,3.48c-1.63.27-5.93-1.86-8-3.7a15.2,15.2,0,0,1-6.82-7.2C149.91,133.47,159.26,118.31,159.85,112.77Z"/><path class="cls-8" d="M155.1,145.75a15.2,15.2,0,0,0,6.82,7.2c2.05,1.84,6.35,4,8,3.7a8.8,8.8,0,0,0,4.82-3.48,2.23,2.23,0,0,0,.39-.23,24.17,24.17,0,0,0,6.32-8,16.14,16.14,0,0,0,2.06-10.15c-.76,12.31-8.51,11-11,10-3.74-1.47-7.07-4.09-5.23-16.49.8-5.41,1.87-11,.73-18.61-1.19-7.89-5.51-11.27-10-11.42,1.21,4.81,2.31,10.7,1.89,14.52C159.26,118.31,149.91,133.47,155.1,145.75ZM159.36,125c1.79-6.52,2.54-13.62,1.79-17.36s.07-4.57,1.23-2.21C165.26,111.31,161.75,118.55,159.36,125Z"/><path class="cls-8" d="M161.92,153a15.2,15.2,0,0,1-6.82-7.2c-2.61-6.17-1.55-13.06.23-19.09-.91,5.47-4.37,23.19,15.17,27.31-3.79.53,2.33,4.31,6.88-7.16a22.87,22.87,0,0,1-.23,2.89c3.61-3.53,6.79-11.72,5.31-19.94,2.13,7.6,1,11.11-1,15.17a24.17,24.17,0,0,1-6.32,8,2.23,2.23,0,0,1-.39.23,8.8,8.8,0,0,1-4.82,3.48C168.27,156.92,164,154.79,161.92,153Z"/><path class="cls-9" d="M156.23,75.55c-.7-1.17-4.87-1.87-7.34-3s-4.42-.35-5.28,1-.44,3.92,2.79,5.15,4.45.78,6.82,1.46S158.2,78.82,156.23,75.55Z"/><path class="cls-9" d="M149.93,99.28c-2.83-2.47-3.46-4.16-2.06-6.06s1.34-6.61.81-9.25.16-4,2.78-4.28,17.69,1.78,19.6,4.35,2.27,7.21,1.38,10.32c-.45,1.55-.33,4.57-.28,7.13.05,2.09-.31,3.39-4.45,3.89-3.87.47-4.56-1-4.85-1.45-.94-1.45-3.17-1.87-4.59-2.14C156.41,101.45,152.76,101.75,149.93,99.28Z"/><path class="cls-8" d="M165.85,101.36c3.1,1.79,3.6,14.76,3.48,18.35s-.5-3.93-1.39-8.07-1.5-6.78-2.49-7.92S163.15,99.79,165.85,101.36Z"/><path class="cls-9" d="M172.48,87.36c0,1.22-5.65-3.45-5.74-5.25,0,0-.52-1.82.79-2.64s2.87,0,3.48,2A30.57,30.57,0,0,1,172.48,87.36Z"/><path class="cls-8" d="M148.64,81.5c.31-1.06,1.19-1.66,2.82-1.81,2.62-.24,16.14,1.8,18,4.38s2.39,7.84,1.5,11c-.67,2.32,1.34,10.4,2.66,13.33.45,1-5.92-9.21-7.24-8.62,8-8.7-2.59-14.8-3-12.83s-4.28,2.63-4.28,2.63,3.35,3.82,4.09,6.32C158.67,88.74,152,90,148.64,81.5Z"/><path class="cls-9" d="M146.09,98.39a6.67,6.67,0,0,1-3.42-.93c-1.42-.65-4.45.86-5.19.52a3.12,3.12,0,0,1-1.2-2.46c.08-.59,2.13-3.22,4-3.54a8.55,8.55,0,0,1,5.25,1.37C148,94.92,147.18,98.31,146.09,98.39Z"/><path class="cls-9" d="M143.81,96c.1-1.42,1.09-3.08,1.73-2.67,1.07.7,2.91-.46,3.48-1.06h0a7.62,7.62,0,0,1,6-1.62c2.86.41,9.75,7.18,10.12,8.3h0a1,1,0,0,1-.29,1.39c-1.91,1.35-2.52,1.56-4.78,1.46-4.68-.21-6.55.52-8.79-.87s-4.07-2.4-5.22-2.57C144.38,98.13,143.71,97.43,143.81,96Z"/><path class="cls-8" d="M162,101.52c1.68,1.76,1.11,2.85.82,2.41-.94-1.45-3.16-1.87-4.58-2.14-3.39,0-5.05.36-7-.83-2.24-1.38-4.07-2.4-5.22-2.57a6.67,6.67,0,0,1-3.42-.93c-1.42-.65-4.45.86-5.19.52a2.18,2.18,0,0,1-.86-1c1.34,1.53,3.68-.85,5.91-1.86,2.38-1.09,1-2.66-1.12-3.13a9.46,9.46,0,0,1,4.13,1.4,2.36,2.36,0,0,0,2.29-.21l0,.08A6.25,6.25,0,0,0,150,98.36c2.45,1.9,3.1,1.61,5.67,1.6S160.37,99.77,162,101.52Z"/><path class="cls-8" d="M150.38,90.91c2.3-1.1,6.26-.88,12,4.89-1-2.29-6.15-5.64-8.4-6.09A3.85,3.85,0,0,0,150.38,90.91Z"/><path class="cls-10" d="M45.52,53.88c-.09.41.75.47.67.83s-.87,0-1,.44.75.46.67.82-.87,0-1,.44.75.47.66.83-.86,0-1,.44.75.46.66.82-.86,0-1,.44.75.47.66.83-.86,0-1,.44.75.46.66.82-.87,0-1,.44.75.47.66.83-.87,0-1,.44.74.46.66.82-.87,0-1,.44.75.47.67.83-.87,0-1,.44.75.46.67.82-.87,0-1,.44.75.47.67.83-.87,0-1,.44.75.46.66.83-.86,0-1,.43.75.47.66.83l-.08.33A2.65,2.65,0,1,1,37.34,69l3.55-14.89a2.61,2.61,0,0,1,3.16-1.94l2.32.55.12.72C46.4,53.8,45.62,53.48,45.52,53.88Z"/><path class="cls-11" d="M53.79,75.23l-8.65-2.06a9.11,9.11,0,0,1-4.06-2.32c-.42-.42-2.72,1-2.89.67l.36-2.24,4-16.78,1.51-.33.18-.74a1.16,1.16,0,0,0-.85-1.38l-2.55-.6a1.72,1.72,0,0,0-2.21.85c-2.36,1.37-8,2.41-11.59,17.41-2.49,10.48,6.85,14.14,10.06,14.91L51.23,86Z"/><path class="cls-12" d="M27.05,74.19a12.48,12.48,0,0,1,0-6.48c3.57-15,9.23-16,11.59-17.41a1.72,1.72,0,0,1,2.21-.85l2.55.6a1.15,1.15,0,0,1,.7.51c-.72-.2-2.25-.62-2.76-.69-.68-.1-.86.27-1.12,1.17-1.65-.1-2.26,2.52-2.93,4.76C29,57.42,26.43,70.22,27.05,74.19Z"/><path class="cls-12" d="M40.9,71c-.54,0-.86.88-.75,1.42s13.11,3.12,13.11,3.12,1-.17-1.24-.64-6.23-1.43-7.18-1.67a9.19,9.19,0,0,1-2.92-1.46C41.29,71.26,41.2,71,40.9,71Z"/><path class="cls-10" d="M53.79,75.23l58.75,14a5.52,5.52,0,0,1,4.1,6.65h0A5.53,5.53,0,0,1,110,100L51.23,86a5.51,5.51,0,0,1-4.09-6.65h0A5.52,5.52,0,0,1,53.79,75.23Z"/><path class="cls-13" d="M53.67,78l57.75,13.75a2.82,2.82,0,0,1,2.1,3.41h0a2.83,2.83,0,0,1-3.41,2.1L52.35,83.48a2.83,2.83,0,0,1-2.1-3.41h0A2.84,2.84,0,0,1,53.67,78Z"/><path class="cls-14" d="M110.68,67.73C99.7,65.12,69,58.31,62.08,54.5l-8.5,22.64L54,97.58l18.91,2.78,5.55-14.08,9.15,2.18c2.17.52,5,.4,9.77-2.54s4.23-2.41,9.26-1.28Z"/><path class="cls-14" d="M195.05,96.75h0c1.12-4.67-1-9.17-4.76-10.07l-19.47-2.84S119,69.71,110.68,67.73l-4,16.91c8.31,2,60.95,12.73,60.95,12.73l18.66,6.23C190,104.49,193.94,101.42,195.05,96.75Zm-5.58-.86c-.38,1.62-1.77,2.65-3.05,2.27l-7-2.11a3,3,0,0,1,1.34-5.66L188,91.67c1.31.23,2.08,1.78,1.7,3.4Z"/><path class="cls-15" d="M112.29,85.9a8.92,8.92,0,0,0,2.23-2.43c.37-1.06,2.61-1.6,4.36-1.92s3.29-2,3-3.56,0-6.1,4.47-6.17l4,1.06c-1.7,0-2.3.54-2,1.67s-.33,1.75.78,2.69,1.41,1.3,1.86,4.24.52,3.56-.76,3.64.89,3.21-.15,4.51l-6.37-1.33a14.91,14.91,0,0,1-.3-2.46c0-.68,1.22-1,3.2-1.58s1.64-3,1.09-5.1a2.5,2.5,0,0,0-3.79-1.54c-1,.76.1,4.73-2.09,5.06s-2.13,1.35-3.09,2c-.64.47-.32,1.74,0,2.53Z"/><path class="cls-5" d="M191.76,96c1.28-5.41-2.43-7.28-8.79-7.63s-9.6-.56-14.28-1.67L75.61,64.51c-1.6-.38-3.28.92-3.75,2.92s.44,3.91,2,4.29L167,93.88c4.68,1.11,7.67,2.39,13.51,4.94S190.47,101.38,191.76,96Zm-2.16,0c-.46,1.93-1.86,3.26-3.24,2.83l-8.62-2.53c-1.29-.39-2-2.13-1.55-3.93s1.82-3,3.16-2.82L188.2,91c1.42.25,2.09,2,1.63,3.93Z"/><path class="cls-5" d="M186.26,103.6,167.6,97.37S115,86.62,106.65,84.64l.37-1.53c2.89.68,28.35,6,34.34,7.34s29.52,6.25,38.49,10.08,13.08.92,14.25-4c1.08-4.53-1.23-9.07-10.23-9.55S163,82.59,144.79,77.85,120,71.4,110.35,69.1l.33-1.37c8.31,2,60.14,16.11,60.14,16.11l19.47,2.84c3.74.9,5.88,5.4,4.76,10.07h0C193.94,101.42,190,104.49,186.26,103.6Z"/><path class="cls-5" d="M167.58,89.18l-.49,2.07a.24.24,0,0,1-.29.18l-1.12-.27a.24.24,0,0,1-.18-.29v0a.24.24,0,0,1,.29-.17l.54.13a.24.24,0,0,0,.29-.18L167,89a.24.24,0,0,1,.29-.18l.1,0A.24.24,0,0,1,167.58,89.18Z"/><path class="cls-16" d="M167.9,89l-.49,2.07a.24.24,0,0,1-.29.18L166,91a.24.24,0,0,1-.18-.29h0a.24.24,0,0,1,.28-.18l.55.13a.25.25,0,0,0,.29-.18l.37-1.59a.24.24,0,0,1,.29-.17l.11,0A.24.24,0,0,1,167.9,89Z"/><path class="cls-17" d="M167.79,89.05l-.49,2.07a.24.24,0,0,1-.29.18L165.89,91a.24.24,0,0,1-.18-.29h0a.25.25,0,0,1,.29-.18l.55.13a.25.25,0,0,0,.29-.18l.37-1.59a.24.24,0,0,1,.29-.18l.11,0A.24.24,0,0,1,167.79,89.05Z"/><path class="cls-5" d="M157.92,86.59a1.26,1.26,0,0,1,.92,1.62,1.22,1.22,0,0,1-1.5,1,1.25,1.25,0,0,1-.93-1.64A1.21,1.21,0,0,1,157.92,86.59Zm-.09.46c-.4-.1-.71.24-.82.7s0,.91.41,1,.7-.2.82-.7S158.22,87.14,157.83,87.05Z"/><path class="cls-16" d="M158.24,86.39a1.26,1.26,0,0,1,.92,1.62,1.21,1.21,0,0,1-1.5,1,1.24,1.24,0,0,1-.93-1.63A1.22,1.22,0,0,1,158.24,86.39Zm-.09.46c-.4-.09-.71.25-.82.7s0,.92.41,1,.7-.2.81-.7S158.53,86.94,158.15,86.85Z"/><path class="cls-17" d="M158.13,86.46a1.26,1.26,0,0,1,.92,1.62,1.21,1.21,0,0,1-1.5,1,1.24,1.24,0,0,1-.93-1.63A1.22,1.22,0,0,1,158.13,86.46Zm-.09.46c-.4-.1-.71.24-.82.7s0,.91.41,1,.7-.21.81-.7S158.42,87,158,86.92Z"/><path class="cls-5" d="M149.38,87a.24.24,0,0,1-.29.18l-.1,0a.24.24,0,0,1-.18-.28l.18-.77-.17,0c-.24,0-.37,0-.51.31s-.16.31-.22.4a.24.24,0,0,1-.26.11l-.11,0a.23.23,0,0,1-.15-.34c.07-.12.14-.27.21-.4a.65.65,0,0,1,.45-.39h0a.69.69,0,0,1-.3-.73.64.64,0,0,1,.36-.48,1.34,1.34,0,0,1,.87,0,5.26,5.26,0,0,1,.55.16.24.24,0,0,1,.15.28Zm-.12-2a1.16,1.16,0,0,0-.26-.08c-.26-.06-.45,0-.51.25s.09.41.37.47l.23.06Z"/><path class="cls-16" d="M149.69,86.84a.24.24,0,0,1-.28.17l-.11,0a.24.24,0,0,1-.17-.29l.18-.76-.18,0c-.23,0-.36,0-.5.31s-.16.31-.22.41a.22.22,0,0,1-.26.1l-.11,0a.24.24,0,0,1-.15-.35l.21-.39a.67.67,0,0,1,.45-.4h0a.7.7,0,0,1-.3-.73.69.69,0,0,1,.36-.47,1.33,1.33,0,0,1,.87,0c.21,0,.4.11.55.16a.25.25,0,0,1,.16.28Zm-.12-2a1,1,0,0,0-.25-.08c-.27-.06-.45,0-.51.25s.08.41.37.48l.23,0Z"/><path class="cls-17" d="M149.58,86.9a.24.24,0,0,1-.28.18l-.11,0a.23.23,0,0,1-.17-.29l.18-.77L149,86c-.23,0-.36,0-.5.31s-.16.31-.22.41a.24.24,0,0,1-.26.1l-.11,0a.24.24,0,0,1-.15-.35L148,86a.68.68,0,0,1,.45-.39h0a.71.71,0,0,1,.06-1.21,1.34,1.34,0,0,1,.87,0,4.13,4.13,0,0,1,.55.16.25.25,0,0,1,.16.28Zm-.12-2a1,1,0,0,0-.25-.08c-.27-.06-.45,0-.51.25s.08.41.37.48l.23,0Z"/><path class="cls-5" d="M139.1,83.45h0a.24.24,0,0,1,.29-.18l.47.11a.24.24,0,0,0,.28-.17l0-.06a.24.24,0,0,0-.18-.29l-.52-.13a.24.24,0,0,1-.18-.29h0a.24.24,0,0,1,.29-.18l1.1.26a.24.24,0,0,1,.18.29l-.5,2.07a.24.24,0,0,1-.29.18l-1.15-.27a.24.24,0,0,1-.18-.29h0a.23.23,0,0,1,.28-.17l.58.13a.24.24,0,0,0,.29-.17l0-.14a.24.24,0,0,0-.18-.29l-.46-.11A.24.24,0,0,1,139.1,83.45Z"/><path class="cls-16" d="M139.42,83.26h0a.24.24,0,0,1,.29-.18l.46.11a.24.24,0,0,0,.29-.18l0-.06a.24.24,0,0,0-.18-.29l-.53-.12a.24.24,0,0,1-.17-.29h0a.24.24,0,0,1,.29-.17l1.1.26a.24.24,0,0,1,.17.29l-.49,2.07a.24.24,0,0,1-.29.18l-1.15-.28a.24.24,0,0,1-.18-.29h0a.24.24,0,0,1,.29-.18l.58.14a.24.24,0,0,0,.29-.18l0-.14a.24.24,0,0,0-.18-.28l-.47-.12A.24.24,0,0,1,139.42,83.26Z"/><path class="cls-17" d="M139.31,83.32h0a.23.23,0,0,1,.29-.17l.46.11a.24.24,0,0,0,.29-.18l0-.06a.24.24,0,0,0-.18-.29l-.53-.13a.24.24,0,0,1-.17-.28h0a.24.24,0,0,1,.29-.18l1.1.27a.24.24,0,0,1,.17.29l-.49,2.07a.24.24,0,0,1-.29.17l-1.15-.27a.24.24,0,0,1-.18-.29h0a.24.24,0,0,1,.29-.18l.58.14a.24.24,0,0,0,.29-.18l0-.14a.24.24,0,0,0-.18-.29l-.47-.11A.24.24,0,0,1,139.31,83.32Z"/><path class="cls-5" d="M129.8,82.38a.25.25,0,0,1-.29.17l-.09,0a.25.25,0,0,1-.18-.31l.61-2a.24.24,0,0,1,.29-.16l.35.08a.24.24,0,0,1,.19.22l0,.73c0,.3,0,.66,0,1h0c.13-.28.28-.58.43-.86l.36-.63a.24.24,0,0,1,.27-.11l.37.09a.24.24,0,0,1,.18.27l-.36,2.1a.24.24,0,0,1-.3.19h-.06a.25.25,0,0,1-.18-.28l.15-.75c.05-.32.13-.71.2-1.06h0c-.14.32-.31.66-.46.94l-.42.75a.22.22,0,0,1-.26.12l-.1,0a.24.24,0,0,1-.19-.22l-.06-.89c0-.32,0-.7-.05-1.05h0c-.09.37-.18.74-.27,1Z"/><path class="cls-16" d="M130.11,82.18a.23.23,0,0,1-.28.17l-.09,0a.24.24,0,0,1-.18-.3l.61-2a.23.23,0,0,1,.28-.17l.36.09a.24.24,0,0,1,.19.21l.05.73c0,.31,0,.66,0,1h0a8.62,8.62,0,0,1,.43-.86l.36-.63a.23.23,0,0,1,.26-.12l.37.09a.23.23,0,0,1,.18.28l-.36,2.1a.24.24,0,0,1-.29.19H132a.25.25,0,0,1-.18-.28l.14-.75c.06-.32.14-.72.21-1.06h0c-.14.31-.31.65-.46.93l-.42.76a.26.26,0,0,1-.27.12l-.1,0a.23.23,0,0,1-.18-.21l-.06-.89c0-.32-.05-.71-.05-1h0c-.09.36-.19.73-.27,1Z"/><path class="cls-17" d="M130,82.25a.23.23,0,0,1-.28.17l-.09,0a.24.24,0,0,1-.18-.3l.61-2a.23.23,0,0,1,.28-.16l.36.08a.23.23,0,0,1,.18.22l.06.73c0,.3,0,.66,0,1h0c.12-.28.28-.58.43-.85l.36-.63a.23.23,0,0,1,.26-.12l.37.09a.23.23,0,0,1,.18.27l-.36,2.1a.24.24,0,0,1-.29.2l-.06,0a.24.24,0,0,1-.18-.27l.14-.75c.06-.32.14-.72.21-1.07h0c-.14.32-.31.66-.46.94l-.42.76a.24.24,0,0,1-.27.11l-.1,0a.24.24,0,0,1-.18-.22l-.06-.88c0-.32,0-.71,0-1h0c-.09.37-.19.74-.27,1Z"/><path class="cls-5" d="M116.78,76.84l.11,0a.24.24,0,0,1,.18.29l-.49,2.07a.25.25,0,0,1-.29.18l-.11,0a.24.24,0,0,1-.18-.29l.49-2.07A.24.24,0,0,1,116.78,76.84Z"/><path class="cls-16" d="M117.1,76.64l.11,0a.24.24,0,0,1,.18.29l-.5,2.07a.23.23,0,0,1-.29.17l-.11,0a.24.24,0,0,1-.17-.29l.49-2.07A.24.24,0,0,1,117.1,76.64Z"/><path class="cls-17" d="M117,76.71l.11,0a.24.24,0,0,1,.18.28l-.5,2.07a.24.24,0,0,1-.29.18l-.11,0a.24.24,0,0,1-.17-.29l.49-2.07A.24.24,0,0,1,117,76.71Z"/><path class="cls-5" d="M108.28,77.25a.24.24,0,0,1-.29.18l-.1,0a.24.24,0,0,1-.18-.29l.16-.67-.2,0a1.25,1.25,0,0,1-.76-.46.86.86,0,0,1-.09-.66.76.76,0,0,1,.41-.52,1.27,1.27,0,0,1,.83,0,5.1,5.1,0,0,1,.56.16.24.24,0,0,1,.15.28Zm-.12-2a.89.89,0,0,0-.24-.07c-.28-.07-.48,0-.53.26s.09.46.39.53l.2,0Z"/><path class="cls-16" d="M108.6,77.05a.24.24,0,0,1-.29.18l-.1,0a.24.24,0,0,1-.18-.29l.16-.68-.2,0a1.17,1.17,0,0,1-.76-.47.8.8,0,0,1-.09-.65.78.78,0,0,1,.41-.53,1.33,1.33,0,0,1,.83,0l.55.16a.25.25,0,0,1,.16.29Zm-.13-2a.91.91,0,0,0-.23-.08c-.28-.07-.48,0-.53.27s.09.46.39.53l.2,0Z"/><path class="cls-17" d="M108.49,77.12a.24.24,0,0,1-.29.18l-.1,0a.24.24,0,0,1-.18-.29l.16-.67-.2,0a1.25,1.25,0,0,1-.76-.47.82.82,0,0,1-.09-.66.79.79,0,0,1,.41-.52,1.33,1.33,0,0,1,.83,0l.55.16a.24.24,0,0,1,.16.28Zm-.13-2a1.11,1.11,0,0,0-.23-.08c-.28-.07-.48,0-.53.26s.08.46.39.54l.2,0Z"/><path class="cls-5" d="M99.31,75a.25.25,0,0,1-.22.24,2,2,0,0,1-.53,0c-.7-.17-.94-.61-.84-1s.35-.54.84-.6.52-.09.56-.25-.07-.27-.32-.33a1,1,0,0,0-.33,0,.24.24,0,0,1-.23-.24h0a.23.23,0,0,1,.23-.25,1.48,1.48,0,0,1,.44.05c.59.14.88.56.77,1s-.42.54-.87.58-.47.1-.51.26.07.31.34.37a1.49,1.49,0,0,0,.42,0,.24.24,0,0,1,.25.24Z"/><path class="cls-16" d="M99.63,74.83a.23.23,0,0,1-.23.24,1.69,1.69,0,0,1-.53,0c-.69-.16-.93-.6-.83-1s.35-.54.84-.6.51-.08.55-.24-.06-.28-.31-.33a1.35,1.35,0,0,0-.33,0,.24.24,0,0,1-.24-.23h0a.25.25,0,0,1,.24-.25,1.78,1.78,0,0,1,.43,0c.6.14.88.56.78,1s-.42.53-.87.58-.48.1-.52.25.08.31.34.38a1.51,1.51,0,0,0,.42,0,.24.24,0,0,1,.26.23Z"/><path class="cls-17" d="M99.52,74.9a.24.24,0,0,1-.23.24,1.69,1.69,0,0,1-.53,0c-.69-.16-.93-.6-.83-1s.35-.54.84-.6.51-.08.55-.24-.06-.28-.31-.34a1.31,1.31,0,0,0-.33,0,.25.25,0,0,1-.24-.23h0a.24.24,0,0,1,.24-.25,1.78,1.78,0,0,1,.43,0c.6.14.88.56.78,1s-.42.54-.87.59-.48.09-.52.25.08.31.34.37a1.21,1.21,0,0,0,.42,0,.25.25,0,0,1,.26.24Z"/><path class="cls-5" d="M90.89,70.67a.23.23,0,0,1,.17.29l-.28,1.18c-.19.81-.65,1.08-1.29.92a1,1,0,0,1-.78-1.4L89,70.47a.24.24,0,0,1,.29-.18l.1,0a.25.25,0,0,1,.18.29l-.29,1.23c-.11.45,0,.7.31.77s.51-.11.62-.55l.29-1.23a.24.24,0,0,1,.29-.17Z"/><path class="cls-16" d="M91.2,70.48a.24.24,0,0,1,.18.29L91.1,72c-.19.81-.65,1.07-1.29.92A1,1,0,0,1,89,71.46l.29-1.19a.24.24,0,0,1,.29-.18l.1,0a.24.24,0,0,1,.18.29l-.29,1.23c-.11.44,0,.69.31.77s.51-.12.61-.55l.3-1.23a.24.24,0,0,1,.28-.18Z"/><path class="cls-17" d="M91.09,70.55a.24.24,0,0,1,.18.28L91,72c-.19.81-.65,1.07-1.29.92a1,1,0,0,1-.79-1.41l.29-1.19a.24.24,0,0,1,.29-.18l.1,0a.24.24,0,0,1,.18.29l-.29,1.22c-.11.45,0,.7.31.77s.51-.11.61-.55l.3-1.22a.24.24,0,0,1,.28-.18Z"/><path class="cls-5" d="M79.79,70.47a.24.24,0,0,1-.29.17l-.09,0a.24.24,0,0,1-.18-.3l.61-2a.24.24,0,0,1,.29-.17l.35.09a.23.23,0,0,1,.19.21l0,.73c0,.31,0,.66,0,1h0c.13-.29.28-.59.43-.86l.36-.63a.24.24,0,0,1,.27-.12l.37.09a.25.25,0,0,1,.18.28L82,71a.25.25,0,0,1-.3.19h-.06a.25.25,0,0,1-.18-.28l.15-.75c0-.32.13-.72.2-1.06h0c-.14.31-.31.65-.46.93l-.42.76a.25.25,0,0,1-.26.12l-.1,0a.24.24,0,0,1-.19-.21l-.06-.89c0-.32,0-.71,0-1h0c-.08.36-.18.73-.27,1Z"/><path class="cls-16" d="M80.1,70.28a.24.24,0,0,1-.28.17l-.09,0a.25.25,0,0,1-.18-.31l.61-2a.23.23,0,0,1,.28-.16l.36.08a.26.26,0,0,1,.19.22L81,69c0,.3,0,.66,0,1h0c.12-.28.28-.58.43-.86l.36-.63a.23.23,0,0,1,.26-.11l.37.09a.23.23,0,0,1,.18.27l-.36,2.1A.23.23,0,0,1,82,71H82a.25.25,0,0,1-.18-.28l.14-.75c.06-.32.14-.71.21-1.06h0c-.14.32-.31.66-.46.94l-.42.75a.23.23,0,0,1-.27.12l-.1,0a.25.25,0,0,1-.18-.22l-.06-.89c0-.32,0-.7,0-1h0c-.09.37-.19.74-.27,1Z"/><path class="cls-17" d="M80,70.35a.23.23,0,0,1-.28.16l-.09,0a.24.24,0,0,1-.18-.3l.61-2a.24.24,0,0,1,.28-.17l.36.09a.24.24,0,0,1,.19.21l.05.74c0,.3,0,.65,0,1h0c.12-.29.28-.58.43-.86l.36-.63a.23.23,0,0,1,.26-.11l.37.08a.23.23,0,0,1,.18.28l-.36,2.1a.23.23,0,0,1-.29.19h-.06a.25.25,0,0,1-.18-.28l.14-.75c.06-.32.14-.71.21-1.06h0c-.14.31-.31.66-.46.93l-.42.76a.24.24,0,0,1-.27.12l-.1,0a.26.26,0,0,1-.18-.22l-.06-.89c0-.32,0-.71,0-1.05h0c-.09.37-.19.73-.27,1Z"/><path class="cls-18" d="M177.39,96.23c-2.2-.88-1.48-4.33-.69-5.19-.54.93-.39,3.16.26,2.13a8.73,8.73,0,0,1,1.44-1.58,3.56,3.56,0,0,0-.49,1.12,2.7,2.7,0,0,0,1.5,3.34l5.79,1.74h0l-2.85-.19S177.79,96.39,177.39,96.23Z"/><path class="cls-18" d="M172.06,84l18.23,2.66c3.74.9,5.88,5.4,4.76,10.07h0a10,10,0,0,1-.33,1.1c-.93.79-2.48.06-2-1.73,1.3-7.28-4.83-8.57-9.28-8.82s-10.51-1.65-14.07-2.44C169.61,84.37,170.89,84.13,172.06,84Z"/><path class="cls-18" d="M191.25,87.2a25.27,25.27,0,0,0-5.78-1c-2.37-.2,2,.56,3,.8s1.23.79.36.7,1.83.8,2.65,1.75A5.7,5.7,0,0,1,192.83,92c.17.74.9-.27,1.16-.73s.43-.62,0-1.46A7.7,7.7,0,0,0,191.25,87.2Z"/><rect class="cls-11" x="77.41" y="78.87" width="10.85" height="17.91" rx="1.54" transform="translate(22.59 -16.8) rotate(13.39)"/><rect class="cls-2" x="77.41" y="83.53" width="10.85" height="8.59" rx="1.06" transform="translate(22.59 -16.8) rotate(13.39)"/><rect class="cls-2" x="77.41" y="86.1" width="10.85" height="3.45" rx="0.67" transform="translate(22.59 -16.8) rotate(13.39)"/><path class="cls-2" d="M85.76,94.44l-8.53-2a1.06,1.06,0,0,1-.75-1.3l.1-.45a1,1,0,0,0,.71,1.23L86,94a1,1,0,0,0,1.18-.77l-.1.44A1.06,1.06,0,0,1,85.76,94.44Z"/><path class="cls-2" d="M88.37,83.76,79.71,81.7a1,1,0,0,0-1.18.77l.11-.44a1.07,1.07,0,0,1,1.26-.83l8.53,2a1.06,1.06,0,0,1,.76,1.3l-.11.44A1,1,0,0,0,88.37,83.76Z"/><path class="cls-2" d="M86.4,96.25l3.42-14.34A1.55,1.55,0,0,0,88.72,80l-7.63-1.81a1.53,1.53,0,0,0-1.82,1.18L75.85,93.74a1.54,1.54,0,0,0,1.09,1.88l7.64,1.82A1.54,1.54,0,0,0,86.4,96.25Zm-.15-1a1.4,1.4,0,0,1-1.65,1.08l-7.17-1.71a1.39,1.39,0,0,1-1-1.7l3-12.51a1.39,1.39,0,0,1,1.64-1.07L88.24,81a1.38,1.38,0,0,1,1,1.7Z"/><rect class="cls-19" x="81.21" y="78.87" width="3.25" height="17.91" transform="translate(22.59 -16.79) rotate(13.39)"/><path class="cls-20" d="M54.63,77.34,55,88.51s.56,3.07,8.49,3.45l.39-13.37L69,65.07l-6.4-1.53c-.78-.18-1.42-.64-2.69,2.42S54.63,77.34,54.63,77.34Z"/><path class="cls-21" d="M38.18,82.88c1.91.45,9-.95,9-.95a3.35,3.35,0,0,0,.73,1.68,4,4,0,0,0,2.56-1.68,6,6,0,0,1,.13-1.46,2.64,2.64,0,0,1,3-2.07l0,1.8,1.09,0,0,1h9.07l0-.79s15.44.78,22.55-2S96.09,89.81,85,90.05s-18.18-.36-18.18-.36Z"/><path class="cls-5" d="M64.85,68.14a1.8,1.8,0,1,0-2.17,1.33A1.8,1.8,0,0,0,64.85,68.14Z"/><path class="cls-20" d="M64.61,68.21a1.58,1.58,0,1,0-3.07-.73,1.58,1.58,0,0,0,3.07.73Z"/><path class="cls-22" d="M63.91,68.45a1,1,0,1,0-1.15.7A1,1,0,0,0,63.91,68.45Z"/><path class="cls-20" d="M49.3,73.48l.13-.37c.13-.34.87.08,1-.31s-.68-.56-.55-.9.86.07,1-.32-.68-.55-.55-.9.86.07,1-.32-.69-.55-.56-.9.87.08,1-.31-.69-.56-.56-.91.87.08,1-.31-.68-.56-.55-.9.86.07,1-.32-.69-.55-.55-.9.86.07,1-.32-.69-.55-.56-.9.87.08,1-.31-.68-.56-.55-.91.86.08,1-.31-.68-.56-.55-.9.86.07,1-.32-.69-.55-.56-.9.87.07,1-.32-.69-.55-.56-.9.87.08,1-.31-.68-.56-.55-.91.86.08,1-.31-.69-.56-.55-.9.86.07,1-.32-.69-.55-.56-.9.87.07,1-.32-.68-.55-.55-.9l.24-.64,5,1.87L54.25,75.34Z"/><path class="cls-20" d="M43.2,53.33c-.09.41.75.46.67.83s-.87,0-1,.43.75.47.66.83-.86,0-1,.44.75.46.66.83-.86,0-1,.44.75.46.66.82-.86,0-1,.44.75.46.66.83-.87,0-1,.44.75.46.66.82-.87,0-1,.44.74.47.66.83-.87,0-1,.44.75.46.67.82-.87,0-1,.44.75.47.67.83-.87,0-1,.44.75.46.67.82-.87,0-1,.44.75.47.66.83-.86,0-1,.44.75.46.66.82-.86,0-1,.44.75.47.66.83l-.08.33A2.65,2.65,0,0,1,35,68.44l3.54-14.88a2.64,2.64,0,0,1,3.17-2l2.32.56.12.72C44.08,53.25,43.3,52.92,43.2,53.33Z"/><path class="cls-5" d="M77.18,78.77c1.68-1.63,2.16-2.14,5.68-1.3l7.21,1.72c1.53.36,1.83.62,1.44,2.25s-.94,4-1.24,5.24,3.55.09,5.34-1.37,3.06-2.67,4.74-4.27,3.82,1.39,6.67,2.07l-.37,1.53c-5-1.13-4.47-1.66-9.26,1.28s-7.6,3.06-9.77,2.54l-9.15-2.18-5.55,14.08L54,97.58l-.43-20.44,8.5-22.64C69,58.31,99.7,65.12,110.68,67.73l-.33,1.37c-18.65-4.44-37-9-47.64-12-.93,0-2.15,2.45-4.57,9S54,75,53.89,77.64s.65,16.7.73,17.93,2.66,1.5,7.18,2.07,9,1.29,9.7,1.38S73,98.36,74,95s-1.79-7.23-1.23-9.6S75.51,80.39,77.18,78.77Z"/><path class="cls-20" d="M40.16,69a2.78,2.78,0,0,1-.34-.24l2.11.56.43.25c.21.13.17.29.17.29l-2.2-.52A.39.39,0,0,0,40.16,69Z"/><path class="cls-20" d="M40.46,67.76a2.17,2.17,0,0,1-.34-.24l2.11.56.43.25a.28.28,0,0,1,.17.29l-2.2-.53A.38.38,0,0,0,40.46,67.76Z"/><path class="cls-20" d="M40.76,66.5a2.14,2.14,0,0,1-.34-.25l2.11.56.43.25c.21.13.17.29.17.29l-2.2-.52A.37.37,0,0,0,40.76,66.5Z"/><path class="cls-20" d="M41.05,65.23a2,2,0,0,1-.33-.24l2.11.56.43.25c.21.13.17.29.17.29l-2.2-.52A.38.38,0,0,0,41.05,65.23Z"/><path class="cls-20" d="M41.35,64a2,2,0,0,1-.33-.24l2.11.56.42.25c.22.12.18.29.18.29l-2.21-.53A.34.34,0,0,0,41.35,64Z"/><path class="cls-20" d="M41.65,62.71a2.79,2.79,0,0,1-.33-.25l2.11.56.42.25c.22.13.18.29.18.29L41.82,63A.33.33,0,0,0,41.65,62.71Z"/><path class="cls-20" d="M42,61.44a2,2,0,0,1-.33-.24l2.11.56.42.25c.22.13.18.29.18.29l-2.21-.53A.38.38,0,0,0,42,61.44Z"/><path class="cls-20" d="M42.25,60.18a1.57,1.57,0,0,1-.33-.25l2.1.57.43.25c.22.12.18.29.18.29l-2.21-.53A.38.38,0,0,0,42.25,60.18Z"/><path class="cls-20" d="M42.55,58.92a2.79,2.79,0,0,1-.33-.25l2.1.56.43.25c.22.13.18.29.18.29l-2.21-.52A.37.37,0,0,0,42.55,58.92Z"/><path class="cls-20" d="M42.85,57.65a2,2,0,0,1-.33-.24l2.1.56.43.25c.21.13.17.29.17.29L43,58A.38.38,0,0,0,42.85,57.65Z"/><path class="cls-20" d="M43.15,56.39a2.74,2.74,0,0,1-.34-.25l2.11.57.43.25a.28.28,0,0,1,.17.29l-2.2-.53A.38.38,0,0,0,43.15,56.39Z"/><path class="cls-20" d="M43.45,55.13c-.14-.1-.25-.17-.34-.25l2.11.56.43.25c.21.13.17.29.17.29l-2.2-.52A.37.37,0,0,0,43.45,55.13Z"/><path class="cls-20" d="M43.75,53.86a2,2,0,0,1-.33-.24l2.1.56.43.25a.28.28,0,0,1,.17.29l-2.2-.53A.38.38,0,0,0,43.75,53.86Z"/><polygon class="cls-20" points="44.24 52.9 46.43 53.42 46.32 52.76 44.11 52.23 44.24 52.9"/><path class="cls-5" d="M135.75,75.49l5,1.26,0,0,23.64,6c-.74.21-.89,2.14-2,3.63a2.73,2.73,0,0,1-4.49-.6,5,5,0,0,1-7.48-.75,5.08,5.08,0,0,1-6.19-3.53,5.22,5.22,0,0,0-.48-1,2.82,2.82,0,0,0-2.09-.27C139.12,80.53,135.43,78.35,135.75,75.49Z"/><path class="cls-21" d="M116.2,70.51a13.2,13.2,0,0,1,.33,2.34c0,1.17,0,1.17-1,1.64s-1.79.55-2.2,3.29-1,2.67-2.42,2.76-3.82-.47-6.18-.32-1.18,1.5-9.16,5.76c-4.47,2.4-18.31,5.91-18.48-9C77,64.42,73.83,59,80.63,61.26S116.2,70.51,116.2,70.51Z"/><path class="cls-9" d="M137.16,73.78a1,1,0,0,1,.89-.53h0c.3-.17.84,0,1.89-.06A7,7,0,0,0,142,73c.66-.22.89,0,1.74-.27h0a13.84,13.84,0,0,1,2-.59c2.45-.51,2.81,2.44,2.36,4.11a2.92,2.92,0,0,1-2.43,2.52,11.4,11.4,0,0,1-6.35,0A3.72,3.72,0,0,1,137.16,73.78Z"/><path class="cls-4" d="M146,72.18a2.68,2.68,0,0,1,2.28,2.2,1.73,1.73,0,0,0-1-2.2C146.29,72,146,72.18,146,72.18Z"/><path class="cls-4" d="M138.09,73.3a3.3,3.3,0,0,1,1.55,1.31,9.28,9.28,0,0,0,3.78-.37,1.52,1.52,0,0,0-1.39-1C139.55,73.38,138.29,73.06,138.09,73.3Z"/><path class="cls-5" d="M137.07,76.45c1.51,1.56,2.86,2.08,5.69,1.9s4.77-.45,5.38-2.17c.09-.26.12-.22,0,.07a2.92,2.92,0,0,1-2.43,2.52,11.4,11.4,0,0,1-6.35,0A3.35,3.35,0,0,1,137.07,76.45Z"/><path class="cls-4" d="M136.9,75a3.22,3.22,0,0,1,.26-1.17,1,1,0,0,1,.89-.53h0c.3-.17.84,0,1.89-.06A7,7,0,0,0,142,73c.66-.22.89,0,1.74-.27h0a13.68,13.68,0,0,1,1.8-.53l.16,0,.09,0h.07l.28,0h.1a5.61,5.61,0,0,1,2.62.51,5.55,5.55,0,0,0-3.56.15c-.91.31-1.67.31-1.48.56s.15.7-.08.43c-.75-.81-1.49-.69-1.67-.54a.63.63,0,0,1,.52.25s-2.86.3-3.48.25c-.66-.54-1-.36-1-.36v.18C137.76,73.5,137.23,73.66,136.9,75Z"/><path class="cls-9" d="M158.78,78.85c-2-.51-3.85.66-5.74-.38s-3.55-2.4-2.11-4.71c1.29-2.07,3.22-.76,5.64-.61s4.28.2,5.29,2.41S160.83,79.36,158.78,78.85Z"/><path class="cls-9" d="M154.56,78.91c-2.4,3.47-5.41,4.68-7.09,3.07-2.32-2.22-1.18-3.93-.42-4.64s2.2-1.52,2.85-2.92a2.71,2.71,0,0,1,2.66-1.79c2-.22,3.85,2,4,3.64S155.3,77.82,154.56,78.91Z"/><path class="cls-5" d="M147.47,82a3.37,3.37,0,0,1-1.34-3c0,.94.71,1.52,1.58,2.4s3.25.49,4.31-.47,2.9-2.91,2.85-5.46c.36.28.93,1.09.57,2.69a2.73,2.73,0,0,0-.88.79C152.16,82.38,149.15,83.59,147.47,82Z"/><path class="cls-4" d="M149.74,75.61c1.2-.07,2.79,1.39,2.79,1.39a30.59,30.59,0,0,1-2.39,2.89,22.12,22.12,0,0,0-3.23-1.62S148.85,76.39,149.74,75.61Z"/><path class="cls-4" d="M157.09,73.9a9.05,9.05,0,0,1-1.67-.18c-.57-.11-1.11-.26-1.62-.38a5.4,5.4,0,0,0-.74-.12,2.91,2.91,0,0,0-.72,0,2.44,2.44,0,0,0-1.26.36,2.89,2.89,0,0,0-.84,1,4.85,4.85,0,0,1-.88,1.12,7.52,7.52,0,0,1-.93.73l-.75.47c-.41.26-.63.43-.63.43s.2-.19.58-.49a12.38,12.38,0,0,0,1.52-1.33,4.53,4.53,0,0,0,.75-1.1,3.28,3.28,0,0,1,.87-1.21,2.87,2.87,0,0,1,1.49-.55,4.83,4.83,0,0,1,1.65,0l1.63.32a12.41,12.41,0,0,0,1.59.16,9.63,9.63,0,0,1,2.8.47,3.22,3.22,0,0,1,1.55,1.23,3.77,3.77,0,0,1,.29.49l.09.18-.18-.14-.43-.36c-.19-.15-.42-.3-.66-.46a3.18,3.18,0,0,0-.87-.4A12.39,12.39,0,0,0,157.09,73.9Z"/><path class="cls-9" d="M164.18,80.76c-2-.14-3.34,1.18-5.37.53s-3.95-1.6-3.3-3.88c.58-2,2.73-1.16,5-1.38s4-.47,5.54,1.34S166.2,80.91,164.18,80.76Z"/><path class="cls-9" d="M159.55,82c-1.35,2.45-3.34,4.57-6.37,2.59-2.52-1.64-1.21-3.16-.61-3.83a7.66,7.66,0,0,0,2-2.86c.4-1.29,1-1.54,2.2-1.68,1.87-.22,3.88,1.82,4.3,3.32S160.1,81,159.55,82Z"/><path class="cls-5" d="M158.1,84.05A5.5,5.5,0,0,1,157,85a4.15,4.15,0,0,1-.69.28,3,3,0,0,1-.71.1,2.9,2.9,0,0,1-.67,0,4.18,4.18,0,0,1-.59-.16,5.35,5.35,0,0,1-.82-.39l-.29-.17a2.2,2.2,0,0,1,.44-.08,2.87,2.87,0,0,1,.41,0,4.47,4.47,0,0,1,.45.09,6.07,6.07,0,0,0,1.05,0,1.24,1.24,0,0,0,.27,0,2.51,2.51,0,0,0,.27,0,4.11,4.11,0,0,0,.57-.17,4,4,0,0,0,1.1-.68,6.88,6.88,0,0,0,.92-.83c.26-.26.49-.48.64-.65l.25-.25a11.08,11.08,0,0,1-.66,1.06A8,8,0,0,1,158.1,84.05Z"/><path class="cls-4" d="M152.64,81.44s1.65-1.85,2.35-2.58a5.61,5.61,0,0,1,2.57.83,22.16,22.16,0,0,1-1.78,2.69A5.28,5.28,0,0,0,152.64,81.44Z"/><path class="cls-4" d="M164.9,76.84q-.27-.11-.54-.18a4.56,4.56,0,0,0-.53-.13,7.88,7.88,0,0,0-2.31.07c-.41.05-.79.13-1.26.16s-.9,0-1.32,0a7.09,7.09,0,0,0-2.21.06l-.12,0h0a1.92,1.92,0,0,0-1,.28,1.17,1.17,0,0,0-.3.35,3,3,0,0,0-.24.53,4.65,4.65,0,0,1-.3.69,4.6,4.6,0,0,1-.4.64,8.22,8.22,0,0,1-1,1.07c-.33.32-.67.62-.94.93a2.13,2.13,0,0,0-.53,1.06,1.48,1.48,0,0,0,0,.59,2.76,2.76,0,0,0,.27.58,4.06,4.06,0,0,0,.43.5,5.57,5.57,0,0,0,.51.46c-.18-.14-.38-.25-.55-.41a3.63,3.63,0,0,1-.48-.48,2.63,2.63,0,0,1-.35-.58,1.71,1.71,0,0,1-.1-.67,2.32,2.32,0,0,1,.5-1.25c.27-.36.6-.68.9-1a6,6,0,0,0,1.45-2.28,2,2,0,0,1,1.92-1.64h0A3.46,3.46,0,0,1,157.7,76c.42,0,.84,0,1.26,0s.84,0,1.25,0l1.26-.12A7.7,7.7,0,0,1,164,76a4.27,4.27,0,0,1,.6.21,3.55,3.55,0,0,1,.54.3,5.38,5.38,0,0,1,.94.84c-.22-.09-.39-.21-.59-.28A3.35,3.35,0,0,0,164.9,76.84Z"/><path class="cls-9" d="M168.4,83.22c-1.55-.71-3-.07-4.37-1.18s-2.61-2.43-1.43-4c1.05-1.42,2.48-.11,4.32.39s3.25.81,3.94,2.69S169.94,83.93,168.4,83.22Z"/><path class="cls-9" d="M164.41,82.8c-1.78,1.52-4,2.59-5.76.14-1.49-2,0-2.83.66-3.18a6.37,6.37,0,0,0,2.39-1.65,1.75,1.75,0,0,1,2.22-.67c1.53.38,2.5,2.57,2.39,3.87S165.13,82.18,164.41,82.8Z"/><path class="cls-4" d="M161.56,79.07a5.81,5.81,0,0,1,1.76,1,11.11,11.11,0,0,1-2,1.64A4,4,0,0,0,159,80.47S160.79,79.44,161.56,79.07Z"/><path class="cls-4" d="M165.08,78.41l-.76-.2a2.68,2.68,0,0,0-.59-.11l-.18,0a4.75,4.75,0,0,0-.49-.1.72.72,0,0,0-.36,0,1.09,1.09,0,0,0-.38.22l-.22.2a3.13,3.13,0,0,1-.26.25,5,5,0,0,1-1.23.72,9,9,0,0,1-1.3.36,7,7,0,0,0,2.18-1.4,3.32,3.32,0,0,1,.93-.9,1.88,1.88,0,0,1,1.28-.07h0a4.26,4.26,0,0,1,1.63.44,12.62,12.62,0,0,0,1.59.59,1.49,1.49,0,0,1-1,.18C165.64,78.56,165.36,78.47,165.08,78.41Z"/><path class="cls-5" d="M160.87,84.38a2.81,2.81,0,0,1-.59-.13,2.9,2.9,0,0,1-.92-.54,4.28,4.28,0,0,1-.53-.55l-.18-.22a1.67,1.67,0,0,1,.41,0,2,2,0,0,1,.67.29,4.21,4.21,0,0,0,1.68.45,3.53,3.53,0,0,0,1-.17,6.84,6.84,0,0,0,1-.34l1-.41a9,9,0,0,1-.83.64,5,5,0,0,1-2.09.92A2.58,2.58,0,0,1,160.87,84.38Z"/><path class="cls-23" d="M111.69,421.31c0-30.34-.55-74.48,3.24-103.49H99.25s-5.67,17.64-5.67,30.57S106,389.32,106,421.31Z"/><path class="cls-23" d="M19.93,421.31c8.57-32,3.68-60,7.15-72.92s13.86-30.57,13.86-30.57H56.62c-1.44,3.6-2.87,7.44-4.29,11.45-.44,5.31-.35,14.23-3.14,19.81a207.15,207.15,0,0,0-13,33.19c-3.85,14-7.4,27.49-10.49,39Z"/><path class="cls-23" d="M88.27,240.66V213.85H120s8.11,23.68-5.06,104H99.25S101.36,240.66,88.27,240.66Z"/><path class="cls-4" d="M120,213.85s8.11,23.68-5.06,104c-2.73,20.89-3.21,49.63-3.26,75.41a5.22,5.22,0,0,1-.65-2.43c-.66-15.11-2.63-36.19-.68-50.24s-1.69-17.43.59-19.89c6.13-8.39,7-46.2,8.38-63.25s-.08-39.77-1.5-40.67a5.72,5.72,0,0,0,.55-2.9Z"/><path class="cls-5" d="M102.68,242.12s-5.09-.3-6.48.69,5.78,6.78,6.48,8.38-3.36-.7-3.77.69-.37,25.21-.37,25.21h0c-1.19-18.54-4-36.42-10.27-36.42C95.2,239.22,102.68,242.12,102.68,242.12Z"/><path class="cls-23" d="M88.27,240.66l7.18-26.81H63.73s-14.45,23.68-22.79,104H56.62S75.18,240.66,88.27,240.66Z"/><path class="cls-4" d="M30.16,404.37c1.57-27.43,20.37-73.75,18.53-73.33-2.19.5-4.49-.3-1.68-1.3,9.78-7.18,12.14-33.89,18.31-50.46,5.77-15.54,10-33.57,20-37.39-12.75,9.83-28.65,75.93-28.65,75.93-1.44,3.6-2.87,7.44-4.29,11.45-.44,5.31-.35,14.23-3.14,19.81a207.15,207.15,0,0,0-13,33.19C34.05,389.84,32.05,397.29,30.16,404.37Z"/><path class="cls-4" d="M25.53,370.41c.11-9.27.16-16.85,1.55-22,3.46-12.93,13.86-30.57,13.86-30.57,8.34-80.29,22.79-104,22.79-104h6.19c2.18,1.79-2.56.68-5.69,7.24C60.75,228.42,47.79,264.75,42.81,328c-1.4-3-2-4.38-7,2.79S25.61,365,25.53,370.41Z"/><ellipse class="cls-13" cx="116.5" cy="421.31" rx="23.66" ry="2.06"/><path class="cls-24" d="M107.66,400.49c-5.33,0-6.51,2.36-6.51,2.36l.9,3.29-.39,10.94h15l-2.38-12.23,1-2.71S114.46,400.49,107.66,400.49Z"/><path class="cls-24" d="M100,417.08s1.62-8.29,13.24-8.29c5,0,13.42,3.46,13.42,3.46l3.43-.82,2.19,1.5,1.05,4.15Z"/><polygon class="cls-25" points="99.95 417.08 99.4 421.31 134.04 421.31 133.28 417.08 99.95 417.08"/><path class="cls-13" d="M113.19,408.79a23.08,23.08,0,0,1,5.25.79h0c-2.83-.05-6.87,2-8.52,7.5h-4.38A9.84,9.84,0,0,1,113.19,408.79Z"/><path class="cls-13" d="M119.31,409.8c1.13.31,2.22.64,3.21,1a7.89,7.89,0,0,0-3,6.31h-5.67S115.18,411,119.31,409.8Z"/><path class="cls-13" d="M115.35,402.14l-1,2.71c-8.33-3-12.28,1.29-12.28,1.29l-.9-3.29s1.18-2.36,6.51-2.36C114.46,400.49,115.35,402.14,115.35,402.14Z"/><path class="cls-15" d="M128.92,413.71l-7.37,1.52a2.92,2.92,0,0,1,1.88-2.11c-8.89-3-13.72-3.8-19.6-1.66,2-1.48,5-2.67,9.36-2.67,5,0,13.42,3.46,13.42,3.46l3.43-.82,2.19,1.5,1.05,4.15h-2.44l-.55-2.63Z"/><ellipse class="cls-13" cx="25.65" cy="421.31" rx="19.16" ry="2.06"/><path class="cls-24" d="M26.88,400.49c5.33,0,6.51,2.36,6.51,2.36l-.89,3.29.38,10.94H17.83l2.38-12.23-.42-2.71S20.08,400.49,26.88,400.49Z"/><path class="cls-24" d="M36.52,417.08s-1.06-8.29-8.62-8.29c-3.23,0-11,2.64-11,2.64l-1.43,1.5-.68,4.15Z"/><path class="cls-15" d="M27.37,411.75c-3.71,0-11.88,1.18-11.88,1.18l1.43-1.5s7.75-2.64,11-2.64c5.42,0,7.49,4.25,8.23,6.66C34.87,413.74,32.35,411.75,27.37,411.75Z"/><polygon class="cls-25" points="36.66 417.08 37.02 421.31 14.31 421.31 14.81 417.08 36.66 417.08"/><path class="cls-13" d="M19.79,402.14l.42,2.71c8.33-3,12.29,1.29,12.29,1.29l.89-3.29s-1.18-2.36-6.51-2.36C20.08,400.49,19.79,402.14,19.79,402.14Z"/><path class="cls-4" d="M75.89,243.32c3.8-4.19,22.14-9.43,32.91.4.29-3-9.37-7.18-9.37-7.18a18.47,18.47,0,0,1-8.28,0c-5.68-.6-10.52-.7-10.52-.7s4.17.24,4.84,1.4S79.87,237.84,75.89,243.32Z"/><path class="cls-5" d="M78.25,251.82h0c2-4.85,4.58-7.45,3.83-8.19s-3,.19-3,.19,1.25-2.44,5.58-3.36,7.28-2.67,6.23-2.57a24.82,24.82,0,0,1-3.64-.25s9.52-1,10.57-2.64,2.39-12.27,3.59-12.34c-1.2,3.91-1.7,12.73-3.79,13.63s-1.19,1.35-1.19,1.35a19.29,19.29,0,0,0-8.17,3C85.13,240.66,81.69,245.09,78.25,251.82Z"/><path class="cls-3" d="M39.48,87.3c22.92-2.47,53.16-3.65,69.92-2.77,4.86.25,17.6,5.87,19.76,10.45,5.62,11.91,5.5,31.72.55,40.42-7.67,15.49-11.22,35.23-10.46,73.95,1.43,3,2.82,5.69-5.16,8.81s-26.87,3-38,.81-13.13-3.49-12.76-5.4c5.38-27.41-5.18-44.8-14.36-58.52-3.21-4.78-6.25-8.9-8.38-12.47C24.13,123.65,25.61,88.79,39.48,87.3Z"/><path class="cls-13" d="M107.54,84.44c3.13.94.71,10.25-12.68,10.93-18.39.94-43.51-9.19-42.39-9.27C72,84.55,93.67,83.87,107.54,84.44Z"/><path class="cls-9" d="M66,88.07c-.13,2.44,14.13,6.55,23.62,6.26s10.63-4.88,10.76-7.33-9.55-2.23-19-1.94S66.11,85.62,66,88.07Z"/><path class="cls-4" d="M72.86,96.09c8.29,4.29,19.59,5,29.26,3.57-.8,1.52-5,2.17-7.16,2.89,3.27,1.32,10.55,1.4,11.44-7,.7,4.14-2.09,11.14-13.75,6.89C80.89,100.58,76.79,98.63,72.86,96.09Z"/><path class="cls-5" d="M129.71,135.4c-7.67,15.49-11.22,35.23-10.46,73.95,1.43,3,2.82,5.69-5.16,8.81s-26.87,3-38,.81-13.13-3.49-12.76-5.4c5.38-27.41-5.18-44.8-14.36-58.52-3.21-4.78-6.25-8.9-8.38-12.47C28.24,128.38,26,105.21,31.49,93.9c8-3.41,16.48,5.56,16.1,19.34-.4,14.55,1.54,23.22,11.37,36.25s8.86,28.61,8.86,28.61A3.74,3.74,0,0,0,70,175.42c.25-1.87-1-31.83-11.17-48.48.74-1.69,7.07-4.35,9.53-5.58.78-6.14-8.79-30-21.09-34.82,2.87-.26,5.8-.5,8.77-.72a38,38,0,0,1,13.82,16.85c7.21,17.2,5.47,15.62,10.53,15.66s14.71,2.6,21.47,3.86,11-1.58,19.18-1.73c2-6.06-2.73-29-23.32-36.22,3.22,0,6.23.07,9,.17,9.72,5.19,21.81,17.16,22.12,38.57.08,1.68,1.78,2.83,3.82,3.58A28.41,28.41,0,0,1,129.71,135.4Z"/><path class="cls-23" d="M71,176.23c.89-10.56-2.68-36.38-10.21-49.54,5.36-3.62,12.25-6,19.85-7.37,5.61-.74,18.19,2.34,23.35,2.81s13.93-1.24,17.72-.5a75.7,75.7,0,0,1,11.39,4.14c.51.24-.4,4.91-1.7,7.9s-8.62,19.67-9.82,37.84-1.29,37.66-.64,43.06-16.15,7.22-24.43,7.52-32.1-2.42-34-6c.4-4,.93-7.65,1-11.5-.53-1.58-1.63-2.61-1.34-3.36s1.14-2.49.55-3.83-1.52-1.78-.89-2.6.44-1.88.05-3.57c-.32-1.15-.67-2.33-1.1-3.58C60.35,185.31,68.43,181.22,71,176.23Z"/><path class="cls-4" d="M117.11,207.63c0-5.08,1.07-7.92.18-7.7a5.8,5.8,0,0,1-4.86-.82c1.94-.45,5.23-1.49,6.06-7.33A229.24,229.24,0,0,1,122.94,161a93.09,93.09,0,0,0-1.34,10.51c-1.19,18.18-1.29,37.66-.64,43.06.17,1.41-.86,2.57-2.61,3.53a2.74,2.74,0,0,0-.54-1.35C119.46,212.72,117.06,212.72,117.11,207.63Z"/><g class="cls-26"><path class="cls-22" d="M63,201.65c-.39-.34-.39.34-.08,1.54-.46-.8-.86-1.42-.67-1.91.3-.75,1.14-2.49.55-3.83s-1.52-1.78-.89-2.6.44-1.88.05-3.57c-.32-1.15-.67-2.33-1.1-3.58-.29-1.41,2.37-3.4,5.14-5.81h0a31.23,31.23,0,0,0-3.34,4.51c1.09-.75,2.23-2.19,3.34-2.25S64.17,195.92,70.24,199c-.74,1.71-6.25-1.42-7.29-2.76s1.31,6.8,8.82,10.31C72.37,208.83,64.26,202.77,63,201.65Z"/><path class="cls-22" d="M62.54,216.14c.38-3.81.87-7.3,1-10.95,1,2.75,2.94,6.32,5.31,7.9,3.64,2.43.41,1.28-2.79,5.08C64.22,217.54,62.93,216.86,62.54,216.14Z"/></g><path class="cls-5" d="M121.73,121.63a75.7,75.7,0,0,1,11.39,4.14c.13.06.17.41.13,1-.81-1-2.16-1.81-2.18-1.3,0,.7-1.54,6.87-1.54,6.87l-1.68.55a57.48,57.48,0,0,1-7.46-2c.24-.56.84-8.82.84-8.82l-.39-.52C121.16,121.54,121.46,121.58,121.73,121.63Z"/><path class="cls-5" d="M101.38,122.24a20.72,20.72,0,0,0,11,.66c3.74-.64,6.58-1.13,8.33-1-.93-.47-4.67-.36-7.43,0s-4.66.89-6.78.79S101.38,122.24,101.38,122.24Z"/><path class="cls-5" d="M62.92,196.79c3.2,3.75,9,5.09,14.65,4.19C76.37,203.15,67.4,204.72,62.92,196.79Z"/><path class="cls-5" d="M62.92,202.18c5,5.12,7.06,9.57,19.87,9.19-9.11,2.62-14.85.16-17-3.29S62,201.21,62.92,202.18Z"/><path class="cls-5" d="M80.36,128.74s-6.15,1.34-8.7,2.79a43.53,43.53,0,0,1-3.84-7.3,27.92,27.92,0,0,0-5.57,2.71,103.25,103.25,0,0,1,6.08,21.72h0c-1.74-8.18-4.26-16.26-7.52-22A48.65,48.65,0,0,1,77.42,120a14.7,14.7,0,0,1,2.27,4.52L81,127.64Z"/><path class="cls-27" d="M77.84,132.65s.5,0,.45.25-1,.16-.83.51.93.83,2.48-.16,8.32-2.47,12.4-1.72a85.1,85.1,0,0,0,19.54.58h.4a29.52,29.52,0,0,1,12.66,2.67s-5.68,28.21-7.67,34.09c-4.59,5-17.55,6.78-17.55,6.78s-17.58-2.33-19.43-6.28c-2.67-5.69-4.49-36.09-4.49-36.09S76.58,133,77.84,132.65Z"/><path class="cls-16" d="M79.11,165.15c-.58-3-1.11-6.9-1.56-11,23.72,1.55,24.6-16,14.75-22.09l-1-.67c.37,0,.73.08,1.07.14a79.79,79.79,0,0,0,15.13.83c-1.39,2.31-1.84,5,1.29,6.74,3.67,2.08,10.56-.85,16.11-4-.21,1.06-.9,4.41-1.78,8.65-11.76-2.77-24.1,6.85-18.53,14.06,2.9,3.75,8.68,5,14.25,5.32-.61,2.51-1.15,4.54-1.54,5.7a14.4,14.4,0,0,1-4.15,2.91C99.41,158.14,86.06,161.67,79.11,165.15Z"/><path class="cls-5" d="M77.84,132.64s.5.06.45.26-1,.16-.83.51.93.83,2.48-.16,8.32-2.47,12.4-1.72a85.17,85.17,0,0,0,19.55.58s-10.74-.18-16.5-.93S86,130.45,77.84,132.64Z"/><path class="cls-16" d="M77.84,132.65s.5,0,.45.25-1,.16-.83.51.93.83,2.48-.16,8.32-2.47,12.4-1.72a85.1,85.1,0,0,0,19.54.58h.4a29.52,29.52,0,0,1,12.66,2.67,43.21,43.21,0,0,0-16.42-2c-6.72.58-11.14-.22-16.22-.73s-10.09,1.19-14.11,2.46l-2.39-1.25S76.58,133,77.84,132.65Z"/><path class="cls-5" d="M81,168.51c.35,1.72,11.48,5.36,15.63,6.65-5.12-.86-15-2.89-16.37-5.8-2.67-5.69-4.49-36.09-4.49-36.09l2.39,1.25S80.6,166.4,81,168.51Z"/><path class="cls-5" d="M92.3,132.06c5.08.51,9.5,1.31,16.22.73l1.52-.1h.09c-7.59,1.35-12.71.47-17.94,0s-12.68,2.07-12.68,2.07a4.21,4.21,0,0,1-1.32-.25C82.21,133.25,87.21,131.54,92.3,132.06Z"/><path class="cls-23" d="M72.41,130C67,104.32,55.56,86.61,46.4,86.61c1.54-1.53,2.69-1.41,8.22-1.72S74.7,96.39,81,127.64Z"/><path class="cls-16" d="M77,121.49c-.47-3.35-2.19-10.39-2.9-11.59s2.45,9.36,1.74,11-2.86-6-3.75-8c-.69-.65,1.85,7.35,2.2,8.94s1.17,2.69,2.28,3S77.3,123.53,77,121.49Z"/><path class="cls-16" d="M70.92,119s2.48,8.17,2.84,8.62,4.74-.25,4.74-.25-4.64,1.2-5.24,1.3S70.92,119,70.92,119Z"/><path class="cls-4" d="M51.48,85.7c5.8,1.67,14.2,14.28,17.64,24.67-.67-8.75-10-21.23-11.21-22s2.39.75,5.08,3.07-2.61-5.09-7.17-6.17C54.21,85.1,49.27,85.07,51.48,85.7Z"/><path class="cls-23" d="M98.73,84.25c2.19.08,27.81,8,23.22,45.53l7.18,2.28s4.49-18.53-4.09-33.33-15.91-15.3-19.17-15.5S100,83.17,98.73,84.25Z"/><path class="cls-16" d="M124.37,119.94s-.35,7.16-.72,9a4.78,4.78,0,0,0,1.14.51s-.72-.62-.44-2.74.71-1.9,1-3.69c-.38.62-.81.7-.83-.27S124.37,119.94,124.37,119.94Z"/><path class="cls-16" d="M126.08,127.91c-.48-1,.6-4.86-.62-13-.27-1.49.87,1.34,1.3,6.7s1.42,2.62,1.87,1.28.44-2.65.64-2.65-.33,5.8-1.15,7.23S126.42,128.62,126.08,127.91Z"/><path class="cls-4" d="M102.91,83.61c5.62,1.82,12.64,5.68,18.17,18.76-.82-3.81-4.48-10.86-5.76-12.53s4.42,2.23,5.76,4.21-4.37-8.42-12.32-10.14C106.58,83.53,101.19,83.05,102.91,83.61Z"/><path class="cls-5" d="M98.73,84.25a3.21,3.21,0,0,1,.91-.53c4.17-1.3,28.3,8.16,23.81,45.42l5.82,2.25c-.08.43-.14.67-.14.67L122,129.78C126.54,92.3,100.92,84.33,98.73,84.25Z"/><path class="cls-5" d="M72.41,130C67,104.32,55.56,86.61,46.4,86.61a4.22,4.22,0,0,1,1.81-1.13C64.37,86.63,73,129,73,129l7.92-1.81c0,.16.07.3.1.46Z"/><path class="cls-28" d="M74.27,126.48a2.2,2.2,0,0,0,3-.29,2,2,0,0,0-2.82-2.82A2.36,2.36,0,0,0,74.27,126.48Z"/><path class="cls-29" d="M74.19,124.11a2,2,0,1,0,2-2A2,2,0,0,0,74.19,124.11Z"/><path class="cls-21" d="M74.67,123.9a1.66,1.66,0,1,0,1.66-1.66A1.66,1.66,0,0,0,74.67,123.9Zm.16.16a1.43,1.43,0,1,1,1.43,1.43A1.43,1.43,0,0,1,74.83,124.06Z"/><rect class="cls-21" x="75.34" y="123.54" width="1.98" height="0.41" transform="translate(152.66 247.49) rotate(180)"/><rect class="cls-21" x="75.84" y="124.28" width="0.98" height="0.41" transform="translate(152.66 248.96) rotate(180)"/><path class="cls-30" d="M75.33,123a1.42,1.42,0,0,0,1.08,2.35,1.39,1.39,0,0,0,.93-.35,1.41,1.41,0,0,1-1.08.51,1.43,1.43,0,0,1-.93-2.51Z"/><path class="cls-28" d="M125.06,129.28a2.21,2.21,0,0,0,3-.29,2,2,0,1,0-2.83-2.83A2.37,2.37,0,0,0,125.06,129.28Z"/><circle class="cls-29" cx="126.97" cy="126.9" r="2"/><path class="cls-21" d="M125.46,126.7a1.66,1.66,0,1,0,1.66-1.66A1.65,1.65,0,0,0,125.46,126.7Zm.16.15a1.43,1.43,0,1,1,1.42,1.43A1.42,1.42,0,0,1,125.62,126.85Z"/><rect class="cls-21" x="126.28" y="126.17" width="1.98" height="0.41" transform="translate(189 294.78) rotate(-154.93)"/><rect class="cls-21" x="126.47" y="126.84" width="0.98" height="0.41" transform="translate(188.12 295.92) rotate(-154.93)"/><path class="cls-30" d="M126.12,125.77a1.39,1.39,0,0,0-.35.93,1.42,1.42,0,0,0,2.35,1.08,1.42,1.42,0,0,1-2.5-.93A1.4,1.4,0,0,1,126.12,125.77Z"/><path class="cls-16" d="M120.34,144.77a.69.69,0,0,0,.24-.05.62.62,0,0,0,.32-.32l.67-1.67a.6.6,0,0,0-.32-.78,21.74,21.74,0,0,0-8.21-1.29c-1.13,0-2.3,0-3.43.08s-2.49.08-3.75.08a34.11,34.11,0,0,1-7.77-.77,38.1,38.1,0,0,0-8.43-1,30.43,30.43,0,0,0-8.08,1,.6.6,0,0,0-.4.75l.51,1.72a.61.61,0,0,0,.57.42l.17,0a28.56,28.56,0,0,1,7.28-.84,35.13,35.13,0,0,1,7.72.86,37.94,37.94,0,0,0,8.48.84c1.32,0,2.58,0,3.8-.08s2.3-.07,3.38-.07a18.77,18.77,0,0,1,7,1.07A.59.59,0,0,0,120.34,144.77Z"/><path class="cls-28" d="M117.17,143.72a.85.85,0,0,1,.54.21,2.65,2.65,0,0,0,.3.27v.63h-.21l-1.16,5.24,2.43.3-.1-5.45-.37,0,0-.53a3,3,0,0,0,.78.06l.48,0,.4-2.06a7.44,7.44,0,0,0-2.6-.61A18.16,18.16,0,0,0,117.17,143.72Z"/><path class="cls-31" d="M120.34,144.17l.68-1.66c-3.51-1.43-7.34-1.31-11.39-1.18a44.47,44.47,0,0,1-11.68-.7,34.32,34.32,0,0,0-16.2,0l.51,1.71a33.37,33.37,0,0,1,15.3,0,46.48,46.48,0,0,0,12.13.75C113.71,143,117.18,142.89,120.34,144.17Z"/><path class="cls-32" d="M109.63,141.33c4.05-.13,7.88-.25,11.39,1.18l-.27.66c-3.2-1.21-6.71-1.11-10.76-1a49.33,49.33,0,0,1-12.44-.75A35.3,35.3,0,0,0,82,141.39l-.22-.74a34.32,34.32,0,0,1,16.2,0A44.47,44.47,0,0,0,109.63,141.33Z"/><path class="cls-32" d="M120.41,142.14a5,5,0,0,0-1-.56c-.35-.1-.87,0-1.54-.12l-.45,2.08c.65.21,1.06.55,1.41.63a5.48,5.48,0,0,0,1.15,0Z"/><polygon class="cls-33" points="117.91 149.09 119.84 149.09 119.54 144.68 118.21 144.68 117.91 149.09"/><rect class="cls-33" x="118.39" y="142.36" width="0.97" height="2.64" transform="translate(237.75 287.37) rotate(180)"/><rect class="cls-34" x="117.99" y="142.51" width="1.97" height="0.64" transform="translate(204.12 308.07) rotate(-167.47)"/><path class="cls-5" d="M63.1,185.61c4.07-.19,5.73,3.49,9.7,6.27,4.4,3.09,8.68,4.89,11.67-1s5-10.27,4.91-15.33,2.56-5.31-8.4-8.3-9.37-5.21-15.45-4-9.76-.33-9.76-.33,7.46,17.49,8,20.86C63.59,184.92,62.66,185.63,63.1,185.61Z"/><path class="cls-5" d="M103,88.42c-.25,5.49-6.58,15.75-37,3.19,11.62,8.57,28,9.06,32.55,6.13C104.48,93.91,103,88.42,103,88.42Z"/><path class="cls-3" d="M42.83,87c-16.09,0-21.15,17.31-21.15,17.31S17.29,117.36,13.1,125s-16.34,20-7.37,35.27c8.89,15.16,23.32,8.09,27.11-.38s2.49-15.45,11-23.65C59.07,121.51,54.62,87,42.83,87Z"/><path class="cls-5" d="M35.63,128.69c1.5.07,4.1,6.63,4.18,8.73S50.93,129.05,53,116.84c-1.16,7.34-4.06,14.5-9.17,19.44-7,6.77-7.33,12.7-9.36,19.32a33.48,33.48,0,0,1,2.44-12A17.81,17.81,0,0,0,35.63,128.69Z"/><path class="cls-3" d="M28,137.16c-5.43-2.24-10.94-4.93-23.5,2.54C-1,143-.39,154.92.81,160.31s10.85,15,24.26,12.55S49.41,146,28,137.16Z"/><path class="cls-4" d="M.43,147.12c.58-3.24,1.81-6.07,4.1-7.42,12.56-7.47,18.07-4.78,23.5-2.54,5.61,2.31,9,5.7,10.69,9.48-3.88-6.39-12.94-12-23.87-10C4.46,138.44,2.26,141.74.43,147.12Z"/><path class="cls-6" d="M1.91,155.72c2.31-5.48,9.57-11.63,13.61-13.8-6.58.67-10.54,3.66-13,5.31,1-1.5,9.06-9.27,18.93-7.48s15.52,5,18.24,11.59c1,2.52-.14,7.16-2.25,11.67-2.77,5-7.39,8.94-12.35,9.85a22.7,22.7,0,0,1-11.47-.79,32.87,32.87,0,0,1-4-2.55C4.14,165.5-.4,161.21,1.91,155.72Z"/><path class="cls-4" d="M26.26,103.81s2.37-1.24,8.66-1.14c-4.07.7-8.56,1.69-12.65,10.57S15.92,129.33,14,132.7s-3.44,3.94-3.44,3.94,9.14-2.75,15.69.17c0,0-1.38.4.41,1.45s1.39,2.24-2.79,1.19-7.33-2.59-12.76.3-8.92,6.38-9.32,7.93c-.2.74,2.44-2.28,7.82-4,1.1-.2,1.38-.23-.69,1.44C6.23,147.3,1.14,151.26.3,157.27c-.73-6-.42-14.82,4.23-17.57h0C7,133.8,11,128.85,13.1,125c4.19-7.68,8.58-20.78,8.58-20.78S26.74,87,42.83,87C42.83,87,32.24,88.31,26.26,103.81Z"/><path class="cls-9" d="M65.41,48.29C67.27,53,68.54,61.73,69.4,71c1.22,13.18-1.26,15.19-.76,16.35s12.25,4.62,23,5.5c4.81.39,6.26-3.25,6.06-5.42S96.19,70.31,98,63.13,88.3,49.66,81.6,48.1,62.75,41.54,65.41,48.29Z"/><path class="cls-15" d="M69.4,71c-.46-5-1-9.73-1.75-13.83.66,2.59,1.33,5.51,1.81,8.36,1.4,8.29,3.69,16,6.17,18.62-1.65-.4-3.54-3.15-4.21-1.4-1.42,3.94-2.78,4.6-2.78,4.6L68.57,87C68.63,85.66,70.49,82.79,69.4,71Z"/><path class="cls-5" d="M79.92,83.4A121.08,121.08,0,0,1,69.83,64.86c-1.4-6.34-3-13-4.42-16.57-2.66-6.75,9.5-1.74,16.19-.19s18.23,7.84,16.41,15-.53,22.17-.33,24.33-1.25,5.81-6.06,5.42l-2-.21C86,90.7,82.33,86.81,79.92,83.4Z"/><path class="cls-23" d="M128.26,38.38c-.3.77-1.62.66-4.54-1.54S111.4,27.43,94.05,24.38c12.45-.46,27.37,4.61,31,7.21S128.86,36.85,128.26,38.38Z"/><path class="cls-9" d="M72.58,52.66c-9.69-5.13-9.65-7.9-11.83-15s-3-17.14,2.38-25S78.54.93,86.8,1.6s22.34,6.66,25.32,10.68,3.6,45.77-14,44.33S76.07,54.51,72.58,52.66Z"/><path class="cls-9" d="M109.32,72.66c-2.15,1.78-4.54.35-8.2.57s-6,1.13-12.05-3.45c-5.81-4.4-17.78-11.2-18.6-15.61a22.33,22.33,0,0,1-.64-5.36c0-1.54.6-5.68.69-9.68.2-9.38-.2-19.82,10.86-26.77s26.18-3.53,30.74-.08c2.68,2,3,10.8,3.65,14.58s1.6,4.49.45,8.18-1.64,7.42-1.34,8.57,1.84,1.69-1.3,11.91S113.94,68.82,109.32,72.66Z"/><path class="cls-35" d="M76.75,42a50.89,50.89,0,0,0,.9,6.44c.52,1.89,7.4,8.51,7.4,8.51s2.73-1.26,3-2.62c.35-2,4-3.36,5-3.9s8.17,1.72,12,1.71,5.23-1,6.16.22,1.56,5,1.66,5.59c-1.94,8.3.63,11.19-3.6,14.7-2.15,1.78-4.54.35-8.2.57s-6,1.13-12.05-3.45c-5.81-4.4-17.78-11.2-18.6-15.61a22.33,22.33,0,0,1-.64-5.36c0-1.54.6-5.68.69-9.68,0-1.32,0-2.66.08-4l2.86.21Z"/><path class="cls-8" d="M71.42,49.74a21.39,21.39,0,0,0,9.56,12c4.27,2.56,9.06,6.65,11.78,7.95s3,1.44,6.23,1.4,3.27,0,6-1.43c1.88-.95-.52,1.33.94,1.61s3,.89,4.62-.79a7.38,7.38,0,0,1-1.41,1.48c-2,1.66-4.27.33-7.72.54s-5.64,1-11.35-3.23C84.63,65.14,72.58,58,71.8,53.86A23.88,23.88,0,0,1,71.42,49.74Z"/><path class="cls-15" d="M100,62.64a35,35,0,0,0,6,.3,21,21,0,0,0,2.77-.17v0a1.64,1.64,0,0,0,.75-.18,1.85,1.85,0,0,1-1.65.89c-.93-.06-2.11.18-1.89.36a1.14,1.14,0,0,1,.32.49s-.33-.59-1.89-.79-3.65-.27-5.32-.38-4.46-2.84-5.63-4.6C93.4,58.52,96.6,62.36,100,62.64Z"/><g class="cls-36"><path class="cls-13" d="M91.29,55.71c3,4.12,6,6.62,8.72,6.83,3.19.24,4.77.56,5.94.4a21,21,0,0,0,2.77-.17,10.31,10.31,0,0,1,1.17-5.25c-1.59.35-4.82-.19-7.09-.29s-4.44.23-6.31.07C92.92,57,90.79,55,91.29,55.71Z"/><path class="cls-37" d="M108.2,60.21l.32,3.64s-6.36,1.31-15.92-2.5c-.24-.9.78-3.74.78-3.74A42,42,0,0,0,108.2,60.21Z"/><path class="cls-22" d="M104.88,60.92c-.22,0-.11,1-.1,1.31s.08.38.28.37.21-.32.19-.84S105.42,60.87,104.88,60.92Z"/><path class="cls-22" d="M105.72,61c-.25,0,0,.54,0,1s.1.61.57.55.86-.19,1-.56.07-.89-.08-.95S106.31,61,105.72,61Z"/><path class="cls-5" d="M92.6,61.35c9.56,3.81,15.92,2.5,15.92,2.5l-.32-3.64a42,42,0,0,1-14.82-2.6S92.36,60.45,92.6,61.35Zm2.59-1.57c.22-.81,1.16-.3,2.83,0a61.42,61.42,0,0,0,6.4.92c2,.11,3.37,0,3.54.07a2,2,0,0,1,.1,1.34c-.13.22-.26.81-3.84.68s-7.25-1.16-8-1.72S95,60.58,95.19,59.78Z"/><path class="cls-37" d="M109.77,56.64,108.65,60s-.1.72-3.27.52A35.39,35.39,0,0,1,91.63,57C89.26,55.06,90,53.08,90,53.08S102.47,58,109.77,56.64Z"/><path class="cls-22" d="M105,58s-.1,1.47-.2,2.17c-.08.3-.62.12-.62.12a3.72,3.72,0,0,0,.37-1.24C104.71,58.19,105,58,105,58Z"/><path class="cls-22" d="M105.68,58c-.28.15-.18,1.27-.34,1.89s.32.46.92.47,1.85,0,2-.36.07-1.55-.52-1.72A15.64,15.64,0,0,0,105.68,58Z"/><path class="cls-5" d="M108.54,59.78s.47-1.53.6-1.74,1-1.22,1-1.22,0,0-5.28-.38-4.31,0-6.22.15a14,14,0,0,1-6.59-1.41c-2.14-1-2.79,0-2.79,0a45.38,45.38,0,0,0,3.44,3.94c.93.79,2.48-.67,2.48-.67s-1.46-.54-.92-.83.64,0,2.94.24,4,.22,6.26.4,4.48,0,4.93.13S108.54,59.78,108.54,59.78Z"/></g><path class="cls-5" d="M108.22,65.81a13.32,13.32,0,0,0-2.17-.22c-1.15,0-5.3.07-7.4-.6s1.93,1.53,3.53,1.65,2.88-.42,4.42-.31,2.22.61,2.37.42.91-.69.74-1.19S110.05,65.89,108.22,65.81Z"/><path class="cls-38" d="M91,54.67c.25,1.11,2.27,2,5.27,2.15a26.22,26.22,0,0,0,6.23-.49c1.06-.18,1.58-.26,2.27.38a1.71,1.71,0,0,0,2-.06c.31-.24.53-.25,1.28.23a4.67,4.67,0,0,0,2.3.51c.3,0,.79-.19.82-.47s-.29-.38-.23-.59.67.29.48,1l-2.41.58c-.94.22-2.13-.07-3,.08a5.47,5.47,0,0,1-2.37-.27c-1.06-.22-1.22-.31-4.58-.16a14.12,14.12,0,0,1-6.7-1.22c-1.15-.51-1.35-1-1.78-1s-.68-.16-.47-.89,1.66-.72,1.83-.42S90.86,54.05,91,54.67Z"/><path class="cls-15" d="M104.43,56.16c-.66-.79-.22-2.46-.17-2.7s.36.78.8,1.68.9,1.79.45,1.82S104.43,56.16,104.43,56.16Z"/><path class="cls-15" d="M90,53.86a2.06,2.06,0,0,0,0,2.31c.35.75-1-.12-1.29-1S89.29,53.79,90,53.86Z"/><path class="cls-2" d="M107.13,37.61a12.12,12.12,0,0,0-.77,5.87,16.25,16.25,0,0,0,6.22.63c.4-4.84.35-5.27.35-5.27a4.72,4.72,0,0,0-3.06-1.39A10.75,10.75,0,0,0,107.13,37.61Z"/><g class="cls-39"><path class="cls-2" d="M112.71,40.81c.07,2.89-1.7,3.25-3.33,2.91-1.91-.39-2.74-.74-2.7-3.4,0-2.45,1.61-2.87,3.24-2.5C111.7,38.22,112.67,39.18,112.71,40.81Z"/><path class="cls-40" d="M110.51,40.88a2.2,2.2,0,1,1-2-2.37A2.21,2.21,0,0,1,110.51,40.88Z"/><path class="cls-41" d="M107.26,40.62a1.06,1.06,0,1,0,2.12.17,1.06,1.06,0,1,0-2.12-.17Z"/></g><path class="cls-42" d="M110.58,39.21a.88.88,0,1,1-.81-1A.88.88,0,0,1,110.58,39.21Z"/><path class="cls-21" d="M106,42.41c.06.52-.28,1.61,2.68,2.09s4.28-.33,4.28-.33l-.31-.05S107.23,44.38,106,42.41Z"/><path class="cls-43" d="M107.13,37.61A2.89,2.89,0,0,1,109,36.23c1.77.49,3.3,1.09,4,2.61A7.25,7.25,0,0,0,107.13,37.61Z"/><path class="cls-5" d="M109.59,50.41c-1,2.44-5,3.62-7,3.75s-2.48-1-3.65-1.82c-2.06-1.46-1.73-2.23-.35-3S110.34,48.58,109.59,50.41Z"/><path class="cls-9" d="M99.7,48.61c-.3.39-1.08.27-1.71,1.14s.09,1.69,1.44,1.73,2.55-.19,3.17.4a2.86,2.86,0,0,0,1.82.43s3.74.42,5.36-1.88c.63-.8-.65-2.62-1.6-3.86a7.33,7.33,0,0,1-1.46-5.3,29.63,29.63,0,0,1,.93-5.41c1.21-1.15,2.9-3.08,3.17-4.34-1.29-2.5-8-3-10.17-2.95-2.4,1.54-2.2,14.83-1.24,16.79A3.77,3.77,0,0,1,99.7,48.61Z"/><path class="cls-44" d="M99.7,48.61c-.3.39-1.08.27-1.71,1.14s.09,1.69,1.44,1.73,2.55-.19,3.17.4a2.86,2.86,0,0,0,1.82.43s3.74.42,5.36-1.88c.63-.8-.65-2.62-1.6-3.86a7.33,7.33,0,0,1-1.46-5.3,29.63,29.63,0,0,1,.93-5.41c1.21-1.15,2.9-3.08,3.17-4.34-1.29-2.5-8-3-10.17-2.95-2.4,1.54-2.2,14.83-1.24,16.79A3.77,3.77,0,0,1,99.7,48.61Z"/><path class="cls-15" d="M109.11,49.16c-.06.47-1.15,1-2.85.12a1.16,1.16,0,1,1,1-2.06C108.6,48,109.16,48.8,109.11,49.16Z"/><path class="cls-2" d="M108.5,48.38a.57.57,0,0,1-.17,1.08c-.48.07-.44-.31-.37-.56S108,48,108.5,48.38Z"/><path class="cls-13" d="M99.78,51a1.08,1.08,0,0,0,.87-.69c0-.12.53,0,1.23.24a11.55,11.55,0,0,1,1.59.52c.15.17-.44.41-1,.34a5.56,5.56,0,0,0-1.76-.14C99.77,51.41,99.78,51,99.78,51Z"/><path class="cls-13" d="M99.93,48.86a1.46,1.46,0,0,0-1.43,1.39.81.81,0,0,0,.91.82,2,2,0,0,1-1,.17A.93.93,0,0,1,98,49.75,2.07,2.07,0,0,1,99.06,49,1.89,1.89,0,0,1,99.93,48.86Z"/><path class="cls-30" d="M108.44,51c1.28-.89,1.64-1.36-.08-3.49s-2.13-2.29-2.29-3.35-.6-2,1.3-7.16h0a30.84,30.84,0,0,0-.65,4.3,7.33,7.33,0,0,0,1.46,5.3c.95,1.24,2.23,3.06,1.6,3.86-1.62,2.3-5.36,1.88-5.36,1.88a2.86,2.86,0,0,1-1.82-.43,1.41,1.41,0,0,0-.39-.24l0,0A7.09,7.09,0,0,0,108.44,51Z"/><path class="cls-8" d="M106,50.88c-2.38-.21-3.41-1.49-5.54-1.41-1.56.05-2.35.82-2.4,1.56A.9.9,0,0,1,98,49.75a2.3,2.3,0,0,1,1.18-.83,5.13,5.13,0,0,1,2.58,0s1.93-.48,1.74-1.17-.32-.7.8.4,2.62,2.24,4.2,1.76c.78-.24.88-.5.79-1C109.72,49.56,109.63,51.2,106,50.88Z"/><path class="cls-2" d="M96.38,36.46a12.6,12.6,0,0,1-.21,6.23c-1.56.4-5.65,0-8.16-.54.42-5.1,1.73-6,1.73-6a10.31,10.31,0,0,1,4.16-.79C95.86,35.5,96.38,36.46,96.38,36.46Z"/><g class="cls-45"><path class="cls-2" d="M89,38.71c-.62,3,1.43,3.69,3.46,3.64,2.36-.06,3.42-.26,3.87-3,.4-2.54-1.4-3.27-3.43-3.19C90.73,36.21,89.39,37,89,38.71Z"/><path class="cls-40" d="M89.57,39a2.32,2.32,0,1,0,2.5-2.12A2.33,2.33,0,0,0,89.57,39Z"/><path class="cls-41" d="M90.76,39.12a1.12,1.12,0,1,0,1.21-1A1.12,1.12,0,0,0,90.76,39.12Z"/></g><path class="cls-43" d="M89.74,36.13c3-2,8.86-.81,8.86-.81l-2.22,1.14S94.85,35.18,89.74,36.13Z"/><path class="cls-42" d="M92.33,37.53a.93.93,0,1,0,1-.85A.93.93,0,0,0,92.33,37.53Z"/><path class="cls-21" d="M96.67,39.38s.33,2.31.34,3.16a3,3,0,0,0,1.08-.78s0,1.72-3.67,1.67a36,36,0,0,1-8-1.28H88s7.07,1.07,7.74.38S96.67,39.38,96.67,39.38Z"/><path class="cls-46" d="M100.93,32.09c-1,.71-5.72-.74-9-1.34s-4.27,1.09-5.13,1.61c-.68.37-1.06-1.57-.61-3.07.9-.63,2.66-1.3,3.7-2.39s2.66,0,5.15.67,5.58,1.17,6.44.77S102.19,31.18,100.93,32.09Z"/><path class="cls-46" d="M108.62,29.61c-.27.86-.31,2.81.3,3.46s3.07.77,5.11.82,1.92,1.62,1.92,2,.79-.32,1-1.15a6.31,6.31,0,0,0,0-3c-.23-.53-.11-1.08-2.24-1.34a27.34,27.34,0,0,1-4.84-.85C109.05,29.18,108.77,29.11,108.62,29.61Z"/><path class="cls-47" d="M72,40.94A12.07,12.07,0,0,0,76.75,42c.07-1.76.26-9.42,4.14-12.26-.37-1.87.49-3.32-1.8-7.92-1.91-3.84-.85-2.59,3.79-6.18.9-2.24-3.58-7.63,4.84-6.88s17.62,6.58,21,6,3.49-2.47,3.82-2a13.22,13.22,0,0,1,1.52,3.37,11.81,11.81,0,0,0-.66-4.13c-.43-1.46-9.67-6.88-18.26-9.38S75.75.35,67.88,6.63c-4.39,1.94-8.43,5.33-10,10.27s-1.75,7.62-.1,13,4.53,14.73,4.68,16.76c1.25,1.44,3.89,7.42,3.89,7.42a2.75,2.75,0,0,0,.87-1.7C67.43,51.24,66,41.77,72,40.94Z"/><path class="cls-15" d="M66.38,54.08s-2.64-6-3.89-7.42c-.12-1.7-2.18-8.56-3.81-13.9a4,4,0,0,1,1.77.69A24,24,0,0,0,61,38.53a11.57,11.57,0,0,1,0-2.81,70.22,70.22,0,0,0,2.21,10.51c-.26.4,2.83,3.88,3.17,7.84Z"/><path class="cls-13" d="M75.78,14.08c15.55-4.71,35.81-2.39,37.83,3.74s4.16,11.39,2.75,16.72-7.76,5.93-8.71,3.73-2.14-2.48-7.83-.86-13.65-1.23-14.5-5-3.24-6.31-3.7-5.62.11,1.95-.64,3.29c-1.39.79-3.14,2.94-4.33,6a11.78,11.78,0,0,1,3.29-6.78,4.34,4.34,0,0,0-.49-1.95C78,27.67,76.37,28.9,75,31.13a4.31,4.31,0,0,1-3.89,2.35c1.16-.49,2.09-.49,3.1-2.54a12.26,12.26,0,0,1,1.8-2.88,3.4,3.4,0,0,0-2.36,1.19,5.29,5.29,0,0,1-4.1,2,4.65,4.65,0,0,0,2.53-2c.12-.4-4.52.78-6.62.22A39.91,39.91,0,0,0,59.38,32s-.8.43-1-.23C56.34,24.05,60.23,18.79,75.78,14.08Z"/><path class="cls-23" d="M58,32c3-1.8,22.26-13,58.79-4.48-.4-7.86-1.06-15.44-3.12-17.38S95,0,84.77,0C79.59,0,64.55,5.28,58.31,12.26,56,15.35,54.05,24.36,58,32Z"/><path class="cls-8" d="M78.69,7.05a67,67,0,0,0-15.52,4C61.5,17.59,64,28.47,64,28.47a54.18,54.18,0,0,1,16.93-4.92c-.65-3.91-1.65-15.08-1.45-16.22-.6.2-1.74.45-1.74.45Z"/><path class="cls-15" d="M58.31,12.26C64.55,5.28,79.59,0,84.77,0,95,0,111.59,8.17,113.65,10.12c-11-7.18-30.77-4.21-31.47-4A1.58,1.58,0,0,0,81,8.15c.25,1.34.15,12.21.15,12.21S79.89,8,80,7.43a2.46,2.46,0,0,1,.45-1.07s-11.81.77-19.88,5.18c-4.48,6.83-2.25,14.13-1.31,18.84C58,31.69,58,32,58,32,54.05,24.36,56,15.35,58.31,12.26Z"/><path class="cls-23" d="M82.72,24.71c5.19,1.72,7,7.86,13.32,6.51s17-3.66,25.27-.42,6.42,7.11,6,7.45.6,1.12,1,.23a5.83,5.83,0,0,0-2-6.78c-3.09-2.2-9.63-4.46-9.63-4.46a51.75,51.75,0,0,0-9.63-2.51C101,23.6,89.26,23.11,83.35,24,83.06,24.08,83,24.66,82.72,24.71Z"/><path class="cls-21" d="M65.48,28c8.35-3.57,16.14-5,17.87-3.93a11.12,11.12,0,0,1,3.25,1.91c2.66,1.92,4.81,3.28,7.8,3.48s5.75-1,14.29-1.38c7.39-.33,17,1.66,19.71,6.26a6,6,0,0,1,0,4.18c-.45.89-1.42.12-1-.23s2.17-4.21-6-7.45-18.94-.92-25.27.42-8.13-4.78-13.32-6.51c-13.6,1.28-21.59,5.46-24.21,7C59.51,30.56,61.86,29.51,65.48,28Z"/><path class="cls-48" d="M83.88,23.55a11.75,11.75,0,0,1-1.16-2.07c-.14-.55-.49-11.61-.44-14.2,1-1.3,13.68-2,22.73-.1a37.13,37.13,0,0,1,8.79,3.47s2.22,2.61,2.32,14.57a2.39,2.39,0,0,1-.37,1.31A33.63,33.63,0,0,0,106.91,24,90.18,90.18,0,0,0,83.88,23.55Z"/><path class="cls-15" d="M83.88,23.55a11.75,11.75,0,0,1-1.16-2.07c0-.19-.12-1.63-.2-3.54,9.5,4.5,19.38,4.28,19.7.63.36-4-5.73-10.54-14.2-12.44a74.28,74.28,0,0,1,11.69.24c-.88,3,2.89,6.55,5.17,4.87.81-.6,1.32-2,1.86-3.61a35.15,35.15,0,0,1,4.43,1.71c-2.25,1.21-3.85,3.68-2,6.92,1.4,2.54,4.16,4.22,6.9,5.33,0,1.1.09,2.31.1,3.63a2.39,2.39,0,0,1-.37,1.31s-.19-.1-.57-.26c-1.56-4.31-7-4.45-13.23-2.87A90.81,90.81,0,0,0,83.88,23.55Z"/><path class="cls-15" d="M105,7.18a37.13,37.13,0,0,1,8.79,3.47s2.22,2.61,2.32,14.57a2.56,2.56,0,0,1-.07.58,33.06,33.06,0,0,0-7.82-2.67,134.43,134.43,0,0,0-1.1-14.67c-8.34-2.36-20.36-1.78-23-1.58,0,0,.38-.2,1-.46A66.52,66.52,0,0,1,105,7.18Z"/><path class="cls-13" d="M82.08,6.36a1.16,1.16,0,0,0-.9,1.32c.2,1,.53,11.51.44,13.2a3.22,3.22,0,0,0,1.56,2.67,2.17,2.17,0,0,0-.43-1,2.72,2.72,0,0,1-.42-2c0-.89-.22-12.16-.32-12.74s-.16-.74.16-.9S82.42,6.33,82.08,6.36Z"/><path class="cls-18" d="M116.76,27.24s6.54,2.26,9.63,4.46A5.49,5.49,0,0,1,128,33.45c-3.48-4-11.44-5.32-11.44-5.32a39.56,39.56,0,0,0-5.12-2.27,20.52,20.52,0,0,0-2.25-.72A45.87,45.87,0,0,1,116.76,27.24Z"/><path class="cls-15" d="M106.63,27.94c-5.19.27-9.62,1.52-12.56,1.3s-5.61-2.18-7.4-3.5c0,0,4,1,3.61-.77a2.41,2.41,0,0,0-1.61-1.37c1,0,2.09-.05,3.19-.05a4,4,0,0,0,1,2.81c1.4,1.36,5.38.75,5.38-1.37a1.46,1.46,0,0,0-.86-1.28c1.72.09,3.4.22,5,.38a4.21,4.21,0,0,0-2.16.26C99.24,26.2,105.88,27.62,106.63,27.94Z"/><path class="cls-13" d="M90.69,28.75a7.37,7.37,0,0,0,2.44.77h0a15.2,15.2,0,0,0,4,0c-1.23.4-3,.57-2.94,1,.12.66,1.93.56,1.93.56a7.07,7.07,0,0,1-2.06.14A7.73,7.73,0,0,1,90.5,30,.74.74,0,0,1,90.69,28.75Z"/><path class="cls-2" d="M89.42,27.62C91,28.89,94.63,29.83,97.86,29c-1.87.1-2.94.2-3.54-.1A2,2,0,0,0,93,28.62a8.3,8.3,0,0,1-2.34-.45C90.14,28,89.42,27.62,89.42,27.62Z"/><path class="cls-15" d="M82.29.26A14.83,14.83,0,0,1,84.77,0C95,0,111.59,8.17,113.65,10.12s2.68,9.06,3.08,16.67A7.93,7.93,0,0,0,114,24.84c-.23-3-.49-10.59-1.88-14.55-2.24-1.68-5.71-2.61-6.92-3.08.94.11,4.67,1.14,5.71,1.38-.84-.41-2.65-1-2.65-1C91.36-.49,82.54.24,82.29.26Z"/><path class="cls-23" d="M101.42,17a5.66,5.66,0,0,0,4.71,5.2,3.71,3.71,0,0,0,4.42-3.88c-.08-2.51-4.84-9.54-4.84-9.54S101.34,14.54,101.42,17Z"/><path class="cls-3" d="M110,20.61a3.85,3.85,0,0,1-4.2.85c4.08.47,4.24-2.5,4-3.39-.7,1.07-3.39-.23-2.81-2.67s-1.83-3.11-2.87-2c-.8.85-1.21,2.82-1.65,4.1-.7-3.14,3.32-8.67,3.32-8.67s4.76,7,4.84,9.54A4,4,0,0,1,110,20.61Z"/><path class="cls-2" d="M110.55,18.36a4.46,4.46,0,0,1-.1,1.05c.33-2.1-4.07-9.09-4.61-9.52s-.81,0-.81,0V9.73c.4-.56.67-.91.67-.91S110.47,15.85,110.55,18.36Z"/><path class="cls-15" d="M108.87,21.38c-.12-2.88-.63-7.33-.8-8.77,1.21,2.08,2.44,4.49,2.48,5.75a3.88,3.88,0,0,1-.92,2.69A3.55,3.55,0,0,1,108.87,21.38Z"/><path class="cls-9" d="M71.17,49.14a26.28,26.28,0,0,0,1.19-8c-.15-3.91-.3-4.56-1.19-5.43S67,33.38,65.66,34.16s-3,4.51-3.39,7.05,1.94,5.09,2.84,7.25,1.27,3.14,2.62,3.44a3,3,0,0,0,2.39-.15C70.72,51.45,70.6,51.25,71.17,49.14Z"/><path class="cls-13" d="M66.68,50.46c.47.92,2.79,1.07,3.29.75s.65-1.13,1.1-1.71h0c-.46,1.77-.39,2-.95,2.25a3,3,0,0,1-2.39.15,2.19,2.19,0,0,1-1.12-.58s0,0,0-.06a9.06,9.06,0,0,0-1.12-2.45A7.44,7.44,0,0,1,66.68,50.46Z"/><path class="cls-13" d="M69.6,40.37c-1-2-1.3-2.72-3.39-3.54-1.2,0-2,4-1.85,5a24.63,24.63,0,0,0,2,4.24,14.32,14.32,0,0,1-.75-3.38,1.1,1.1,0,0,1,1.69-1C67.05,42.71,67,43.2,68.85,45c0-.4,0-1-.41-1.21s-.64-1.12-.49-1.9a.93.93,0,0,1,1.31-.64C69.6,41.4,70,41.08,69.6,40.37Z"/><path class="cls-13" d="M67.05,47.64c.71,1.57,2.28.6,1.91-.75-.56-.82-.63.7-.75.78A5.41,5.41,0,0,1,67.05,47.64Z"/><path class="cls-4" d="M69.35,36.58c-1.75-.95-3.74-3-5.25.65s-1.22,5.35-.29,7c1.1,2,1.1,2.44.75,1.8a29.63,29.63,0,0,1-2.09-3.72,3.34,3.34,0,0,1-.2-1.14c.38-2.54,2-6.26,3.39-7s4.61.7,5.51,1.57,1,1.52,1.19,5.43a15.93,15.93,0,0,1,0,1.83C72,39.75,71.09,37.52,69.35,36.58Z"/><path class="cls-9" d="M72.49,163a57.6,57.6,0,0,1-31.15-12.06c-10.4-8.35-17.7-11.79-27.39-4C-1.25,159.09,7,164,12,169.19c5.36,5.57,18.7,4.44,32,4.35s19.27,2.42,22.15,3.75S79.91,163.64,72.49,163Z"/><path class="cls-4" d="M37.1,147.66c-6.1-2.2-9.94-1.92-12.83-.78S27,152,40.42,156.46s23.72,7.41,27,7.61S52.83,161.63,37.1,147.66Z"/><path class="cls-8" d="M14,146.88c6.55-5.25,12-5.38,18.07-2.34-3.83-1.5-10.25-1.49-16.82,6.38s-2.4,9.92,6.58,13.58,18.93,4.3,26.21,5.38c5.84.86,12.51,2.9,16.62,6.74-3.32-1.37-9.34-3.16-20.61-3.08-13.29.09-26.63,1.22-32-4.35C7,164-1.25,159.09,14,146.88Z"/><path class="cls-8" d="M14,146.88a27.36,27.36,0,0,1,3-2.07c-4.37,3.72-10.46,8.79-10.83,13.63s2.94,6.16,8.09,10a18.79,18.79,0,0,1-3.6-1.58s3.55,3.73,10.74,6.2c-4-.6-7.25-1.75-9.32-3.9C7,164-1.25,159.09,14,146.88Z"/><path class="cls-7" d="M58.11,165.89c1.87-4.72,5-5.67,6.62-7.75s2.21-3.53,5.13-5,3.29-3.91,4.55-4.78c1-.69,2.41-4.08,2.7-6.5,0-.29,1.56-.6,1.93-.39,2.61,1.53,3.57,6,2.72,7.66-1,2-3.22,3.21-4.2,3.84s-1.76,3.23-1.6,4.23.67,1.25,1.58,2.2,3.09,6-5.12,10.87S56.52,169.91,58.11,165.89Z"/><path class="cls-4" d="M81.76,149.09a4.25,4.25,0,0,1-.35.58,3,3,0,0,1-4.14-.08c1.2.88,3.37.65,4-.19-1.56,1.34-4.26-.08-4.43-1.4s.82-3.09.87-4.49a7.39,7.39,0,0,0-.38-1.88,2.84,2.84,0,0,1,1.7-.2C81.65,143,82.61,147.43,81.76,149.09Z"/><path class="cls-8" d="M77.56,152.93c-1.2.35-1.79-.23-2,.28a12.62,12.62,0,0,1-2.7,3.44c-1,.85-9.65,5-3.25,14.86a14.77,14.77,0,0,0,2.76-1.28c8.21-4.87,6-9.92,5.12-10.87s-1.42-1.2-1.58-2.2S76.58,153.57,77.56,152.93Z"/><path class="cls-7" d="M61.7,160.25c2.64-2.59,4-2.72,8.69-2.3s5.89.85,9,1.21,2.68,11.69.2,17.55-3,7.57-4.76,8-3.9-1.74-7-2.82-4.75-3.76-7.49-6-3.33-2.78-3.53-7S59.85,162.05,61.7,160.25Z"/><path class="cls-8" d="M67.82,181.87c-3.08-1.07-4.75-3.76-7.49-6s-3.26-2.73-3.5-6.4c.68,2.14,2.23,2.44,5.22,4.23s10.47,5.16,11.83,6.44c.37.55.05,3.33.94,4.5h0C73,185.1,70.9,183,67.82,181.87Z"/><path class="cls-8" d="M74.09,176.09c-3.48-1.15-6.6-3.44-12.74-6.9,3.45,2.24,9.13,6.44,10.65,7.75S73.87,177.65,74.09,176.09Z"/><path class="cls-7" d="M81.4,175.57c1.26,0,1.75,1.93,1.12,3.24s-2.75,2.75-4.37,4.45S75.4,185,74,184.61s-1.17-3.83.72-5.46S80.17,175.54,81.4,175.57Z"/><path class="cls-7" d="M85.7,172.07c1,0,1.07,1.08.59,2.17s-.36,2-2.38,2.92-5.71,2-7.57,3.9c-2.43-.31-2.71-3.3-2-4.53S80.21,172,85.7,172.07Z"/><path class="cls-7" d="M88.53,165.5a2.05,2.05,0,0,1,1.33,2.75c-.38,1.19,0,2.18-1.69,3.24s-7.23,1.56-10.28,4.06c-1,.48-3.48-1.45-3.29-4.6s3-4.89,6-5.08S86.94,165,88.53,165.5Z"/><path class="cls-4" d="M77.28,169.12c2.08.24,1.66.37,0,1.54A5.24,5.24,0,0,0,75,173.41c-.48,1-1.13-1.18-.94-2.17C74.36,169.61,75.28,168.87,77.28,169.12Z"/><path class="cls-7" d="M79.36,159.16c2.11-.28,2.5.3,4.52.46s2-1.17,4.84.54,1.93,2.82,1.48,4.19-1.24,1.34-2.15,1.49-3,.28-4.6.58-3.16-.61-5.46,1.14C76.31,168.06,73.82,159.88,79.36,159.16Z"/><path class="cls-8" d="M80.45,150.83c-2,.81-3.58.44-4.59-1.24A3,3,0,0,0,77.24,152C77.66,152.21,78.12,152.6,80.45,150.83Z"/><g class="cls-26"><path class="cls-22" d="M60.6,161.31c.39-.39.77-.74,1.1-1.06a8.36,8.36,0,0,1,3-2.11h0l.38-.51.12-.17.21-.28.46-.64h0c.24-.33.48-.64.73-.94l0,0a10.84,10.84,0,0,1,.82-.85l0,0c.15-.14.31-.28.48-.41h0a12.18,12.18,0,0,1,1.87-1.18c2.91-1.51,3.29-3.91,4.55-4.78a4.83,4.83,0,0,0,1.23-1.73c-.6,1.47-.72,2.6-1.5,2.86s-.83,2.71-2.91,4.17c-.6.42-1.22.81-1.86,1.22a6,6,0,0,1-.2,1.71c-.24,1.13,1.11,1.39,3.27,1.64l-.1,0,1.75.22h0a16.69,16.69,0,0,1,2.14.33c1,.16,1.91.31,3.13.46,2.11-.28,2.5.3,4.52.46s2-1.17,4.84.54c1.3.77,1.82,1.42,2,2a6.58,6.58,0,0,1-1.64,0,73,73,0,0,0-7.77.15c-2.42.12-3.28.26-3.82.26-1,.48-1.12,2.94-.86,3.7-.51-.13-1-.93-1.22-1.9h0c-.88-.76-1.51-.88-4.51-2.18a11.6,11.6,0,0,0-8.71-.55C60.64,162.23,60.39,161.91,60.6,161.31Z"/><polygon class="cls-22" points="76.02 145.75 76.02 145.75 76.02 145.75 76.02 145.75"/></g><path class="cls-13" d="M74.8,184.69l-.21-.05a2.07,2.07,0,0,1-.5-.2,4.46,4.46,0,0,1-.67-.44c-.25-.18-.52-.42-.82-.66s-.63-.54-1-.83a14.32,14.32,0,0,0-1.22-.89,11.41,11.41,0,0,0-1.47-.81l-.75-.32-.38-.15-.26-.14a11,11,0,0,1-1.18-.67c-.39-.26-.78-.54-1.17-.81L64,177.89c-.37-.28-.75-.52-1.1-.75a11,11,0,0,0-1-.58c-.3-.17-.59-.28-.82-.39s-.42-.15-.55-.2l-.2-.06.57.48c.36.31.85.76,1.43,1.33s1.24,1.25,2,1.93a11.87,11.87,0,0,0,2.58,1.83,14.49,14.49,0,0,0,1.49.6c.49.21,1,.42,1.42.66.9.46,1.71.95,2.43,1.32a7.63,7.63,0,0,0,1,.45,3.48,3.48,0,0,0,.83.21,2.38,2.38,0,0,0,.54,0Z"/><path class="cls-13" d="M82.52,178.81l-.13.07-.35.18-1.14.51a12.47,12.47,0,0,0-1.53.83c-.27.17-.55.36-.82.57s-.54.45-.81.69l-.38.4-.18.2,0,0h0l0,0h0l0,.05-.08.09-.15.19-.12.14c-.07.1-.17.19-.24.29a4.89,4.89,0,0,1-.94.9,2.86,2.86,0,0,1-.54.3l-.52.19-.37.12-.13.05s.16,0,.45.11a3.65,3.65,0,0,0,1.23,0,3.37,3.37,0,0,0,1.57-.7,9,9,0,0,0,.74-.66l.71-.72c1-.94,2-1.8,2.76-2.53a6.82,6.82,0,0,0,.8-.94l.18-.29Z"/><path class="cls-13" d="M86.29,174.24l-.13.1a3.86,3.86,0,0,0-.33.31l-.44.47a2.46,2.46,0,0,1-.53.4,3.52,3.52,0,0,1-.65.26l-.82.24c-.18,0-.37.11-.53.15a3.84,3.84,0,0,0-.52.16c-.36.11-.73.25-1.1.38s-.74.31-1.09.49a11.48,11.48,0,0,0-1,.59,7.83,7.83,0,0,0-1.67,1.38c-.11.13-.22.23-.31.36l-.25.35a4,4,0,0,0-.35.6c-.08.17-.12.33-.16.43s0,.15,0,.15l.39-.37c.13-.1.29-.24.48-.38s.42-.29.67-.44A24.39,24.39,0,0,1,81.76,178c.73-.29,1.46-.56,2.13-.86A4.18,4.18,0,0,0,85.51,176a4.49,4.49,0,0,0,.59-1.28C86.21,174.42,86.29,174.24,86.29,174.24Z"/><path class="cls-13" d="M89.86,168.25l-.12.14a3.67,3.67,0,0,0-.3.43l-.38.67a2.3,2.3,0,0,1-.49.57,3.53,3.53,0,0,1-.73.37l-.23.09h0l.06,0h0l-.07,0-.15.06-.16,0-.1,0-.22,0-1.22.26c-.44.09-.89.21-1.34.32s-.91.27-1.36.43a13.59,13.59,0,0,0-1.3.53,10.93,10.93,0,0,0-1.18.64,8.83,8.83,0,0,0-1,.71,6.86,6.86,0,0,0-1.27,1.34c-.13.19-.21.35-.27.45a1.19,1.19,0,0,0-.08.17l.51-.39c.17-.12.38-.24.62-.39s.54-.29.85-.45.66-.31,1-.45.78-.3,1.19-.44c.83-.28,1.73-.53,2.63-.78s1.81-.48,2.63-.78a4.56,4.56,0,0,0,1.12-.58,2.82,2.82,0,0,0,.78-.8,2.46,2.46,0,0,0,.34-.89c.06-.28.09-.53.13-.73A5.24,5.24,0,0,1,89.86,168.25Z"/><path class="cls-13" d="M90.2,164.35l-.13.11a3,3,0,0,1-.34.28,1.5,1.5,0,0,1-.5.22,2.18,2.18,0,0,1-.6,0l-.43-.06-.28,0-.25,0c-.31,0-.7-.06-1.08-.07s-.8,0-1.21,0-.84.06-1.27.12l-.65.11-.16,0-.08,0h0l-.28.06-.16,0-.24,0-.55,0a9.58,9.58,0,0,0-1.24.19,4,4,0,0,0-1.13.44,3.26,3.26,0,0,0-.81.59,3.22,3.22,0,0,0-.48.57,3,3,0,0,0-.24.4l-.08.16s.17-.13.47-.33a5.66,5.66,0,0,1,.57-.31,3,3,0,0,1,.36-.16,2.59,2.59,0,0,1,.42-.14,6.14,6.14,0,0,1,2.1-.15,7.88,7.88,0,0,0,1.19,0c.4,0,.81-.14,1.21-.19.82-.12,1.64-.2,2.41-.28s1.48-.17,2.09-.28a1.84,1.84,0,0,0,.76-.34,2,2,0,0,0,.41-.51,2.69,2.69,0,0,0,.17-.38Z"/><g class="cls-49"><path d="M25.55,368.53h2.12v3h12a217.73,217.73,0,0,1,9.56-22.4c2.79-5.58,2.7-14.5,3.14-19.81.06-.18.13-.35.19-.53H43.94v-2.95H36.57c-3.28,6.3-7.51,15.21-9.49,22.6C25.79,353.21,25.65,360.12,25.55,368.53Z"/><path d="M114.93,317.82H103.42v10.92H96.3c-1.38,5.95-2.72,13.36-2.72,19.65,0,4.82,1.71,11.73,3.87,20.14H111.9C112.24,350.26,113.05,332.18,114.93,317.82Z"/></g></g></g></svg>