<?xml version="1.0" encoding="utf-8"?>
<!-- Generator: Adobe Illustrator 22.0.0, SVG Export Plug-In . SVG Version: 6.00 Build 0)  -->
<svg version="1.1" id="Layer_1" xmlns="http://www.w3.org/2000/svg" xmlns:xlink="http://www.w3.org/1999/xlink" x="0px" y="0px"
	 viewBox="0 0 64 36.1" style="enable-background:new 0 0 64 36.1;" xml:space="preserve">
<style type="text/css">
	.st0{fill:#33140D;}
	.st1{clip-path:url(#SVGID_2_);fill:#33140D;}
	.st2{clip-path:url(#SVGID_4_);}
	.st3{fill:#F89747;}
	.st4{fill:#F5822A;}
	.st5{fill:#FDDEC0;}
	.st6{fill:#DF9987;}
	.st7{fill:#FFFFFF;}
	.st8{fill:#A3A3A2;}
	.st9{fill:#909BCE;}
	.st10{fill:#925850;}
	.st11{fill:#CFCFCE;}
	.st12{fill:#DCD6D2;}
	.st13{fill:#234785;}
	.st14{font-family:'BigNoodleTitling';}
	.st15{font-size:17.3313px;}
	.st16{font-size:12.6991px;}
	.st17{letter-spacing:2;}
</style>
<g>
	<path class="st0" d="M27.1,5.9c-0.1,0-7.4-3.5-13.2-3.5S0.8,5.9,0.8,5.9L0.6,6v17.8c0,2.1,1.7,6.5,13.2,11.4l0.1,0l0.1,0
		c11.5-4.9,13.2-9.2,13.2-11.4V6L27.1,5.9z M26.8,23.8c0,2-1.7,6.2-12.9,11C2.7,30,1,25.8,1,23.8V6.2c0.9-0.4,7.6-3.5,12.9-3.5
		c5.3,0,12,3,12.9,3.5V23.8z"/>
	<path class="st0" d="M25.9,6.4c-0.1,0-1.8-0.8-4-1.6c-2.1-0.7-5.2-1.6-8-1.6S8,4.1,5.9,4.8c-2.3,0.8-4,1.6-4,1.6L1.5,6.6v16.8
		c0,2.5,2.1,6.4,12.1,10.8l0.3,0.1l0.3-0.1c10-4.4,12.1-8.3,12.1-10.8V6.6L25.9,6.4z M24.9,7.6v15.8c0,1.6-1.4,5-10.9,9.3
		C4.4,28.4,3,25,3,23.4V7.6c1.6-0.7,6.7-2.8,10.9-2.8C18.1,4.8,23.2,6.9,24.9,7.6z"/>
	<g>
		<defs>
			<path id="SVGID_1_" d="M13.9,4C8.7,4,2.2,7.1,2.2,7.1s0,14.4,0,16.3c0,1.9,1.5,5.6,11.7,10.1c10.2-4.5,11.7-8.2,11.7-10.1
				c0-1.9,0-16.3,0-16.3S19.1,4,13.9,4z"/>
		</defs>
		<use xlink:href="#SVGID_1_"  style="overflow:visible;fill:#FFFFFF;"/>
		<clipPath id="SVGID_2_">
			<use xlink:href="#SVGID_1_"  style="overflow:visible;"/>
		</clipPath>
		<path class="st1" d="M31.9,19.6c0-0.4,0.1-0.8,0.1-1.2L19.8,19c0,0,0-0.1,0-0.1l12.3-2c0-0.4,0-0.8-0.1-1.2l-12.2,3.1
			c0,0,0-0.1,0-0.1l12-4.7c-0.1-0.4-0.2-0.8-0.3-1.2l-11.7,5.8c0,0,0,0,0,0l11.5-6.7c-0.1-0.4-0.3-0.8-0.4-1.2l-11.1,7.9
			c0,0,0,0-0.1-0.1L29.9,9c-0.2-0.4-0.4-0.8-0.7-1.2l-9.7,10.6c0,0,0,0-0.1,0l8.8-11.9c-0.3-0.4-0.6-0.8-0.9-1.1l-7.9,13
			c0,0,0,0-0.1,0l6.5-14.4c-0.4-0.3-0.8-0.7-1.2-1l-5.4,15.4c0,0,0,0-0.1,0l4.2-16.2c-0.5-0.3-1-0.6-1.4-0.8l-2.8,17
			c0,0-0.1,0-0.1,0l0.8-17.9c-0.6-0.2-1.1-0.4-1.7-0.5L19,18.3c0,0-0.1,0-0.1,0l-3-18.8c-0.6-0.1-1.2-0.1-1.9-0.1l4.8,18.9
			c0,0-0.1,0-0.1,0L11.5-0.5c-0.6,0.1-1.3,0.2-1.9,0.4l9.2,18.5c0,0,0,0,0,0L8.1,0.3C7.5,0.5,6.9,0.8,6.3,1.1l12.4,17.4
			c0,0,0,0-0.1,0.1L3.9,2.4C3.3,2.8,2.7,3.2,2.2,3.6l16.3,14.9c0,0,0,0,0,0.1L0.5,5.3C0,5.8-0.4,6.3-0.9,6.9l19.3,11.7
			c0,0,0,0,0,0.1L-2.3,9.3c-0.3,0.6-0.6,1.3-0.8,1.9l21.6,7.5c0,0,0,0,0,0.1L-3.7,13c-0.2,0.7-0.3,1.4-0.4,2.1l22.5,3.8
			c0,0,0,0.1,0,0.1l-22.6-1c0,0.7,0.1,1.4,0.2,2.1l22.5-1c0,0,0,0.1,0,0.1l-21.9,3.6c0.2,0.7,0.4,1.3,0.7,1.9l21.2-5.4
			c0,0,0,0.1,0,0.1l-20,7.8c0.4,0.6,0.7,1.1,1.1,1.7l18.9-9.4c0,0,0,0,0,0L0.5,29.9c0.4,0.5,0.9,0.9,1.4,1.4l16.6-11.8
			c0,0,0,0,0.1,0.1L4,32.8c0.5,0.3,1.1,0.7,1.6,0.9l13-14.2c0,0,0,0,0.1,0l-11.1,15c0.6,0.2,1.1,0.4,1.7,0.5l9.4-15.5c0,0,0,0,0.1,0
			l-7.2,15.9c0.6,0.1,1.1,0.1,1.7,0.1l5.6-16.1c0,0,0,0,0.1,0l-4.2,16c0.5,0,1.1-0.1,1.6-0.1l2.7-15.9c0,0,0.1,0,0.1,0l-0.7,15.5
			c0.5-0.1,1-0.3,1.4-0.4l-0.7-15c0,0,0.1,0,0.1,0l2.3,14.4c0.4-0.2,0.8-0.4,1.2-0.6l-3.5-13.7c0,0,0.1,0,0.1,0l5,12.8
			c0.4-0.3,0.7-0.5,1.1-0.8l-6-12c0,0,0,0,0,0L26.1,31c0.3-0.3,0.6-0.6,0.9-0.9l-7.5-10.6c0,0,0,0,0.1-0.1l8.6,9.4
			c0.3-0.3,0.5-0.6,0.7-1l-9.2-8.4c0,0,0,0,0-0.1l9.9,7.3c0.2-0.3,0.4-0.7,0.6-1l-10.5-6.3c0,0,0,0,0-0.1l11.1,5
			c0.1-0.4,0.3-0.7,0.4-1.1l-11.4-4c0,0,0,0,0-0.1l11.7,3.1c0.1-0.4,0.2-0.7,0.3-1.1l-11.9-2c0,0,0-0.1,0-0.1L31.9,19.6z"/>
	</g>
	<g>
		<defs>
			<path id="SVGID_3_" d="M25.6,16.6c0-4.5,0-9.5,0-9.5s-2.8-1.3-6.1-2.2V3.5l-2-1.4l-4.1-1.6L9.2,2.8v0.8l0.1,1.1
				C5.5,5.5,2.2,7.1,2.2,7.1s0,14.4,0,16.3c0,1.9,1.5,5.6,11.7,10.1C21.8,30,24.5,27,25.3,25l1.4-0.6l0.6-1.5L25.6,16.6z"/>
		</defs>
		<clipPath id="SVGID_4_">
			<use xlink:href="#SVGID_3_"  style="overflow:visible;"/>
		</clipPath>
		<g class="st2">
			<g>
				<path class="st3" d="M19.1,15.8l0.7-2.6c0,0-0.1-0.2-0.5-0.2c-0.4-0.1-0.5,0.1-0.5,0.1l-0.4,1.8C18.7,15.1,18.9,15.4,19.1,15.8z
					"/>
				<path class="st3" d="M15.5,21.9c-0.5,0-4.2,0.3-5.3,0.3c-0.3,0-0.6,0.1-0.7,0.2c-0.1,0.2-0.1,0.4,0,0.6c0,0,0,0.1,0,0.1
					c0,0,0,0.1,0,0.3l6.2-0.4c-0.1-0.1-0.1-0.3-0.2-0.5C15.5,22.2,15.5,22,15.5,21.9z"/>
				<path class="st3" d="M22,30.8c-0.2,0-0.4,0-0.7,0.1c-0.4,0.2-0.6,0.4-0.6,0.7c0,0.3,0.1,1.6,0.1,1.6l0,0l0,0
					c-0.6,0-1.3-1.1-1.4-1.9c0-0.2-0.1-0.4-0.1-0.5c-1.5,0.2-4.3,0.3-6.8,0.3c-1.7,0-3.3,0-4.1-0.1c0,0-0.3,0.4-0.3,2.5l5.7,0.1
					l8.1-0.1c0.1-1,0-1.7,0-2.3C22,31,22,30.9,22,30.8z"/>
				<path class="st3" d="M15.8,23l-6.2,0.5c0.1,1,0.5,3.6,0.5,4.3c0,0.3,0.1,1,0.6,1.4c0.5,0.5,1.5,0.6,2.8,0.5
					c3.1-0.3,4.5-0.8,4.4-1.5c0-0.4-0.1-0.8-0.1-0.9c-0.1-0.2-0.1-0.4-0.1-0.4c-0.1,0-0.2-0.1-0.3-0.1c-0.2-0.1-0.4-0.3-0.5-0.8
					c-0.1-0.4-0.1-0.6-0.1-0.8c-0.1,0-0.1,0-0.2-0.1c-0.2-0.1-0.4-0.4-0.5-0.8c-0.2-0.6-0.1-0.9,0-1C16.1,23.3,15.9,23.2,15.8,23z"
					/>
				<path class="st3" d="M8.5,30.9l0.2,0c2.2,0.2,8.3,0.1,10.7-0.2c0-0.3,0.1-0.6,0.3-0.9c0-0.1,0.1-0.1,0.1-0.2
					c0.3-0.6,0.2-1-0.1-1.8c-0.2,0-0.5,0.1-0.7,0.1c-0.4,0-0.7-0.1-0.9-0.3c-0.1-0.1-0.2-0.1-0.2-0.2c0,0.2,0.1,0.5,0.1,0.7
					c0,0.8-1.3,1.3-4.5,1.6c-0.3,0-0.5,0-0.8,0c-1,0-1.7-0.2-2.1-0.6C10,28.7,10,28.1,10,27.7c0-0.8-0.5-4.3-0.6-4.6
					c0,0,0-0.1,0-0.1c0-0.2-0.1-0.5,0.1-0.7c0.1-0.2,0.4-0.2,0.8-0.2c1,0,4.7-0.2,5.2-0.3c-0.1-0.4-0.1-0.8,0.1-1c0,0,0,0,0,0
					c0,0,0.1-0.1,0.1-0.1c0.3-0.3,0.9-0.5,1.2-0.6l0-0.1c0-0.1-0.1-0.1-0.1-0.2c-0.1,0-1.6,0.2-3.5,0.2c-0.5,0-1,0-1.4,0
					c-1.1,0-2,0-2.2,0c0,0.4,0,0.7-0.1,1c0,0.2-0.2,0.3-0.4,0.3c0,0,0,0,0,0l-0.4,0c-0.2,0-0.3-0.2-0.3-0.4l0-0.4
					c-0.2,0.3-0.5,0.9-0.8,1.3c-0.2,0.3-0.4,0.5-0.6,0.7c-0.2,0.2-0.3,0.3-0.3,0.4c0,0.1,0.1,0.3,0.2,0.6c0.2,0.4,0.5,1.1,0.6,1.8
					c0-0.2,0.1-0.4,0.1-0.6c0.1-0.3,0.1-0.6,0.1-0.9c0,0.3,0,0.6-0.1,0.9c0,0.3-0.1,0.6-0.1,0.8c0,0.5,0,0.8,0,1.1
					c0,0.3-0.1,0.6,0,0.9c0.1,0.3,0.1,0.6,0.2,1c0-0.1,0-0.2,0.1-0.3c0-0.1,0-0.2,0.1-0.3c0-0.1,0-0.2,0-0.3c0,0.1,0,0.2,0,0.3
					c0,0.1,0,0.2,0,0.3c0,0.1,0,0.2,0,0.3c0,0.1,0,0.2,0,0.3c0,0.3,0.1,0.4,0.1,0.5c0,0.2,0.2,0.3,0.2,0.3c0.2,0.1,0.4,0.1,0.6,0.2
					c0.2,0,0.4,0.1,0.6,0.1c0.4,0.1,0.9,0.1,1.3,0.1c0.9,0.1,1.7,0.1,2.6,0.1c0.9,0,1.7-0.1,2.6-0.1l1.3-0.1c0.4,0,0.9-0.1,1.3-0.1
					c-0.4,0-0.9,0.1-1.3,0.1L15.8,30c-0.9,0-1.7,0.1-2.6,0.1c-0.9,0-1.7,0-2.6,0c-0.4,0-0.9-0.1-1.3-0.1c-0.2,0-0.4-0.1-0.6-0.1
					c-0.2,0-0.4-0.1-0.6-0.1c0,0.1-0.2,0.3,0,0.7C8.1,30.9,8.5,30.9,8.5,30.9z"/>
				<path class="st4" d="M22,26.8c-0.1,0.1-0.2,0.2-0.4,0.3l0.3,0.7c0,0.1,0.1,0.2,0.2,0.3c0.1-0.4,0.1-0.8,0-1.1
					C22,27.1,22,26.9,22,26.8z"/>
				<path class="st3" d="M8.7,17.9c-0.1,1.3-0.1,2.4-0.1,2.4l0,0l0,0l0,0.6c0,0.1,0.1,0.3,0.3,0.3l0.4,0c0.1,0,0.3-0.1,0.3-0.3
					c0-0.3,0-0.6,0.1-1h0c0,0,0.1-1,0.2-2.4c0-0.5,0.1-1,0.2-1.5c0.1-0.9,0.2-1.7,0.2-1.9l0,0c0,0-0.1-0.2-0.4,0
					c-0.4,0.2-0.6,0.3-0.6,0.6c0,0.2-0.1,0.5-0.1,0.8C8.9,16.1,8.8,17.1,8.7,17.9z"/>
			</g>
			<g>
				<g>
					<path class="st5" d="M7.7,28.9C7.7,28.9,7.7,28.9,7.7,28.9c0-0.4-0.1-0.9-0.2-1.3c-0.1-0.4-0.1-0.6,0-1c0-0.2,0-0.5,0-0.9l0,0
						c0,0-0.4-0.4-1.1-1.4c-0.3-0.5-0.7-0.8-1-1c-0.3-0.2-0.5-0.2-0.5-0.2l0,0l0,0c-0.2,0-0.4-0.1-0.6-0.1c-0.1,0-0.2,0-0.3,0
						c-0.1,0-0.2,0-0.3,0c0.1,0,0.2,0,0.3,0c0.1,0,0.2,0,0.3,0c0.2,0,0.4,0,0.6,0.1v0c0,0,0.5,0.1,1,0.5c0.6-0.5,0.8-1,0.8-1.2
						c-1.9-1.1-3.1-2.3-3.5-2.7c0,0-0.1-0.1-0.1-0.1C3,19.8,2.9,20,2.8,20.1c-0.4,0.5-0.7,1-1.1,1.5c-0.4,0.5-1.2,1.9,0.1,3.3
						c1.1,1.2,5.3,4,5.9,4.4C7.7,29.2,7.7,29.1,7.7,28.9L7.7,28.9z"/>
					<g>
						<path class="st5" d="M14,15c0.5,0,0.9-0.1,1.3-0.2c0.1-0.1,0.2-0.1,0.2-0.1l0,0c1.3-0.5,2.1-1.6,2.2-1.8l-0.8-0.5
							c-0.1,0.1-0.2,0.2-0.3,0.3c-0.1,0.1-0.2,0.3-0.3,0.4c-0.5,0.6-1,0.8-2.3,0.8c-1.1,0-1.2-0.1-2-0.8l-0.6,0.5
							c0,0.1,0.1,0.4,0.4,0.7C12.3,14.9,13.3,15,14,15z"/>
						<path class="st5" d="M14,13.9c1.2,0,1.8-0.2,2.2-0.8c0.1-0.2,0.2-0.3,0.3-0.4c0.3-0.3,0.5-0.6,0.9-1.2
							c0.3-0.5,0.3-0.8,0.3-1.1c0-0.2,0-0.4,0.1-0.8c0,0-0.1-0.1-0.1-0.1c0-0.1,0-0.1,0-0.2c0,0.1,0,0.1,0.1,0.2
							c0,0,0.1,0.1,0.1,0.1l0,0c0,0,0.4,0.2,0.6,0c0.1,0,0.2-0.1,0.2-0.3c0.1-0.2,0.1-0.3,0.1-0.5c0-0.2,0-0.5,0.2-0.9
							c0.1-0.2,0.1-0.6,0-0.8c-0.1-0.1-0.2-0.2-0.4-0.2c-0.2,0-0.3,0-0.4,0.1c-0.1,0-0.2,0.1-0.2,0.2c0,0.2,0,0.6-0.1,0.9
							c0,0,0.1,0,0.1,0c0,0,0.1,0,0.1,0c0.1,0,0.1-0.1,0.2-0.2c0,0.1-0.1,0.2-0.2,0.3c0,0-0.1,0.1-0.1,0.1c0,0,0,0,0,0c0,0,0,0,0,0
							c0,0,0,0.1,0.1,0.1c0,0,0,0,0,0l0.2,0l-0.2,0.1c0,0,0,0.1,0,0.1c0,0.1,0,0.1-0.1,0.2c0,0.1-0.1,0.1-0.2,0.1
							c0.1,0,0.1-0.1,0.1-0.1c0-0.1,0-0.1,0-0.2c0-0.1,0-0.1,0-0.2c0,0-0.1-0.1-0.1-0.1c0,0.1-0.1,0.2-0.2,0.2h-0.1c0,0,0,0-0.1,0
							c0,0,0,0-0.1,0c0,0-0.1,0-0.1,0c-0.1-0.1-0.1-0.5-0.1-1c0-0.2,0-0.4,0-0.6c0-0.5-0.2-0.6-0.4-0.8C16.9,6,16.8,6,16.8,5.9
							C16.5,6,16.2,6.1,16,6.2c0,0,0,0,0,0c0,0,0,0.1-0.1,0.1c0,0-0.1,0-0.1,0c-0.1,0-0.1,0.1-0.3,0c0,0-0.1,0-0.1-0.1
							c-1.5-0.9-2.5-1.3-2.8-1.3C12,5,10.1,6.6,9.8,6.7c0.1,0.2,0.5,1.9,0.5,2.9c0,0.2,0,0.3,0,0.5c0,0.8-0.1,1.3,1.1,2.3
							c0.2,0.2,0.4,0.4,0.6,0.5C12.8,13.8,13,13.9,14,13.9z M16.4,8.9c-0.2,0-0.5-0.1-0.7-0.2l-0.3-0.1l-0.2,0c-0.1,0-0.1,0-0.2,0
							c-0.1,0-0.2,0-0.3,0c-0.1,0-0.1,0-0.2,0.1c-0.1,0-0.1,0-0.2,0.1c0.1,0,0.1-0.1,0.2-0.1c0,0,0.1-0.1,0.1-0.1l0,0
							c0-0.3-0.1-0.9,0.4-1c0.6-0.1,1.1,0.1,1.3,0.3c0.3,0.2,0.2,0.9,0.2,1.1c0.2,0,0.4,0.1,0.5,0.2C16.8,9,16.6,9,16.4,8.9z
							 M14.5,6.5c0.2-0.1,0.6-0.2,1-0.1l-0.2,0.1c0,0,0.9-0.1,1.7,0.7c0,0,0,0.1,0,0.1c-0.2,0-0.8-0.2-1.2-0.2
							c-0.4,0-0.9,0.1-1.2,0.2c-0.1,0-0.2,0-0.2-0.2l0-0.2C14.3,6.7,14.4,6.5,14.5,6.5z M12.6,9.3C12.6,9.3,12.7,9.3,12.6,9.3
							C12.8,9,12.9,8.8,13,8.6c0-0.3,0-0.5,0-0.8C13,8,13.1,8.3,13,8.6c0,0.2-0.1,0.4-0.2,0.6c0,0,0.1,0,0.1,0c0.1,0,0.3,0,0.4,0.1
							c-0.1,0-0.2-0.1-0.4-0.1c-0.1,0-0.1,0-0.2,0c0,0,0,0,0,0C12.7,9.3,12.7,9.3,12.6,9.3c-0.2,0.2-0.3,0.4-0.2,0.7
							c0,0.2,0.2,0.4,0.4,0.5c0.2,0.1,0.5,0,0.7-0.1c-0.2,0.2-0.5,0.3-0.7,0.2c-0.1,0-0.2-0.1-0.3-0.2c-0.1-0.1-0.1-0.2-0.2-0.4
							c0-0.1,0-0.3,0.1-0.4c0-0.1,0.1-0.1,0.1-0.2C12.5,9.4,12.5,9.4,12.6,9.3C12.5,9.3,12.5,9.3,12.6,9.3
							C12.6,9.3,12.6,9.3,12.6,9.3z M10.2,7.8C10.2,7.8,10.2,7.8,10.2,7.8c0.4-0.9,1.1-0.9,1.1-0.9l-0.1,0c0.3-0.2,0.6-0.2,0.8-0.1
							c0.1,0,0.2,0.1,0.2,0.3l0,0.1c0,0.1-0.1,0.2-0.1,0.2c-0.2,0-0.6,0-1,0.1C10.8,7.5,10.4,7.7,10.2,7.8z M11.2,9
							C11,9,10.9,9.1,10.7,9.1c0,0,0.1,0,0.1-0.1c0-0.1-0.2-0.8,0-1c0.3-0.2,0.7-0.4,1.1-0.3c0.5,0.1,0.4,0.6,0.4,0.8l0,0
							c0.1,0,0.1,0,0.2,0.1c-0.2-0.1-0.3-0.1-0.5,0c0,0-0.1,0-0.1,0c0,0-0.1,0-0.1,0l-0.2,0.1C11.5,8.9,11.4,8.9,11.2,9z M12.5,11.1
							L12.5,11.1c0,0,2.3,0,3.2-0.7l0,0l0,0.1c0,0,0.4,1.1-0.3,1.8c-0.2,0.2-0.6,0.3-1.1,0.3c-0.2,0-0.3,0-0.5,0
							c-0.6-0.1-1-0.2-1-0.2l0,0l0,0c-0.1,0-0.3-0.1-0.4-0.2c0.1,0,0.3,0,0.4,0.1L12.5,11.1l-0.7,0L12.5,11.1z"/>
					</g>
					<path class="st5" d="M25.6,19.3c-0.4,0-1,0-1.7,0.2c-1.1,0.2-2,0.7-2.2,0.8c0.1,0.1,0.1,0.2,0.2,0.4c0,0.1,0.1,0.2,0.1,0.2
						c0.3-0.1,0.6-0.1,0.8-0.1c0.3,0,0.6,0,0.9,0.1c0.3,0,0.6,0.1,0.8,0.2c0.3,0.1,0.5,0.2,0.8,0.4c-0.2-0.2-0.5-0.3-0.8-0.4
						c-0.3-0.1-0.6-0.1-0.8-0.2c-0.3,0-0.6,0-0.9,0c-0.3,0-0.6,0-0.8,0.1c0,0,0,0.1,0,0.1c0.1,0.3,0.2,0.5,0.3,0.8
						c-0.1-0.3-0.2-0.5-0.3-0.8C22,21,22,20.8,21.9,20.7c-0.1-0.1-0.1-0.3-0.2-0.4c0,0-0.9-1.4-2.9-1.3c0,0.3,0.1,0.6,0.2,0.9
						c0,0,0.1,0,0.1,0c0,0,0.1,0,0.1,0c0,0,0,0,0.1,0c0,0,0,0.1,0,0.1c0,0.1,0,0.1-0.1,0.1l0,0c0,0,0,0,0,0l0,0l0,0
						c0,0-0.1,0.1-0.3,0.3c-0.1,0.1-0.3,0.1-0.6,0.1c-0.2,0-0.4,0-0.6,0c-0.6-0.1-1.2-0.1-1.2-0.1v0c0,0-0.1,0-0.1,0c0,0,0,0,0-0.1
						c0,0,0,0,0,0c0,0,0,0,0.1-0.1c0,0,0,0,0.1,0c0,0,0,0,0,0c0,0,0,0,0,0.1c0,0,0,0,0,0c0,0,0,0,0,0c0,0,0,0,0,0l0,0l0,0
						c0,0,0.2,0,0.5,0l-0.1-0.4c-0.3,0.1-0.8,0.4-1.1,0.6c0,0-0.1,0-0.1,0c0,0-0.1,0.1-0.1,0.1c-0.2,0.2-0.1,0.7,0,1.5
						c0.1,0.4,0.2,0.6,0.3,0.8c0.1,0.1,0.2,0.1,0.2,0.1l0.1,0l0,0c0.2,0.1,0.5,0.1,0.7,0.1c0.3,0,0.6,0,0.8-0.1
						c-0.3,0.1-0.6,0.1-0.8,0.1c-0.3,0-0.6,0-0.8-0.1c0,0-0.2,0.2,0,1c0.2,0.8,0.7,0.8,0.7,0.8c0,0,0,0,0,0l0,0l0,0
						c0.2,0,0.5,0,0.7,0c0.2,0,0.5,0,0.7-0.1c-0.2,0.1-0.5,0.1-0.7,0.1c-0.2,0-0.5,0-0.7,0c0,0-0.1,0.1,0,0.8
						c0.2,0.7,0.7,0.9,0.8,0.9c0.1,0,0.2,0,0.3,0c0.1,0,0.2,0,0.3,0c0.1,0,0.2,0,0.3,0c0.1,0,0.2,0,0.3-0.1c-0.1,0-0.2,0.1-0.3,0.1
						c-0.1,0-0.2,0-0.3,0.1c-0.1,0-0.2,0-0.3,0c-0.1,0-0.2,0-0.3,0c0,0.1,0,0.4,0.4,0.7c0.5,0.4,1.3,0.3,2.7-0.2
						c1.1-0.4,1.3-1.1,1.4-1.1l0,0c0.1-0.2,0.1-0.4,0.2-0.6c0.1-0.2,0.1-0.4,0.2-0.6c0,0.2-0.1,0.4-0.1,0.6c0,0.2-0.1,0.4-0.1,0.6
						c0.1,0,0.5-0.1,1.2-0.3c0.9-0.3,1.9-1.4,1.9-1.4l0,0l0,0c0.1-0.1,0.1-0.1,0.2-0.2c0.1-0.1,0.1-0.2,0.1-0.2
						c0-0.1,0.1-0.2,0.1-0.3c0-0.1,0.1-0.2,0.1-0.3c0,0.1-0.1,0.2-0.1,0.3c0,0.1-0.1,0.2-0.1,0.3c0,0.1-0.1,0.2-0.1,0.3
						c0,0-0.1,0.1-0.1,0.1c0.7-0.2,1.3-0.8,1.1-2C26.6,21.7,25.7,19.6,25.6,19.3z"/>
				</g>
				<path class="st5" d="M19.3,20.2C19.3,20.2,19.3,20.1,19.3,20.2C19.3,20.1,19.3,20.1,19.3,20.2c-0.1-0.1-0.1-0.1-0.2-0.1
					c0,0-0.1,0-0.1,0c0,0.1,0,0.1,0.1,0.2l0,0.1C19.2,20.3,19.2,20.3,19.3,20.2l0,0.1L19.3,20.2C19.3,20.2,19.3,20.2,19.3,20.2z"/>
			</g>
			<g>
				<path class="st6" d="M18,9.6c0.3,0.1,0.6,0.1,0.7-0.1c0.1-0.1,0.2-0.3,0.2-0.4c0-0.1,0-0.5,0-0.5c0,0.3-0.1,0.7-0.4,0.8
					c-0.3,0.1-0.6,0-0.7-0.2C17.8,9.3,17.7,9.5,18,9.6z"/>
				<path class="st6" d="M16,10.6c0-0.1-0.2-0.2-0.2-0.2c0,0,0,0,0,0s-0.2,0.3-1,0.5c-0.8,0.2-1.5,0.3-1.9,0.3c-0.4,0-1-0.1-1-0.1
					l0.5,0.2l0.2,0.7l-0.2,0.1c0,0,0.6,0.3,1.2,0.4c0.6,0.1,1.2,0.1,1.7-0.1c0.5-0.3,0.6-0.8,0.6-1.2c0-0.3-0.1-0.5-0.1-0.7
					C15.9,10.5,16,10.6,16,10.6z"/>
				<path class="st6" d="M15.9,14.5c-0.8,0.4-1.2,0.5-1.2,0.5s0.8-0.1,1.5-0.6c0.7-0.5,1.1-0.9,1.2-1c0.1-0.2,0.2-0.3,0.2-0.3l0,0
					c0,0,0,0,0-0.1l-0.8-0.5c-0.1,0.1-0.2,0.2-0.3,0.3c-0.1,0.1-0.2,0.3-0.3,0.4c-0.5,0.6-1,0.8-2.3,0.8c-1.1,0-1.2-0.1-2-0.8
					l-0.6,0.5c0,0,0,0.1,0.1,0.2l0.6-0.4c0,0,0.5,0.6,1.1,0.7c0.6,0.1,1.4,0.1,2,0c0.6-0.1,1.1-0.4,1.4-0.8c0.3-0.4,0.4-0.6,0.4-0.6
					l0.5,0.3C17.3,13.2,16.7,14.1,15.9,14.5z"/>
				<path class="st6" d="M17.4,11.3c-0.2,0.4-0.5,1-0.9,1.5c0,0,0.1-0.1,0.1-0.1c0.3-0.3,0.5-0.6,0.9-1.2c0.3-0.5,0.3-0.8,0.3-1.1
					c0-0.2,0-0.4,0.1-0.8c0,0-0.1-0.1-0.1-0.1c0-0.1,0-0.1,0-0.2c0,0-0.1,0.3,0,0.4c0,0-0.1,0.3-0.1,0.7
					C17.6,10.6,17.6,10.8,17.4,11.3z"/>
				<path class="st6" d="M17.9,8.8c0.1,0,0.1-0.1,0.1-0.1c0-0.1,0-0.1,0-0.2c0-0.1,0-0.1,0-0.2c0,0-0.1-0.1-0.1-0.1c0,0,0,0.1,0,0.1
					c0,0,0.1,0.1,0.1,0.2C18,8.7,18,8.8,17.9,8.8z"/>
				<path class="st6" d="M18.2,8.5l0.2-0.1l-0.3,0l0-0.1c0,0,0.3,0,0.3-0.4c0,0.1-0.1,0.2-0.2,0.3c0,0-0.1,0.1-0.1,0.1c0,0,0,0,0,0
					c0,0,0,0,0,0c0,0,0,0.1,0.1,0.1c0,0,0,0,0,0l0.2,0L18.2,8.5C18.2,8.4,18.2,8.5,18.2,8.5c-0.1,0.1-0.1,0.2-0.1,0.3
					c0,0.1-0.1,0.1-0.2,0.1C17.9,8.8,18.2,8.8,18.2,8.5z"/>
				<path class="st6" d="M17,6.4c0.2,0.2,0.2,0.6,0.2,1.1c0,0.6-0.2,1,0.4,1c0,0,0,0-0.1,0c0,0-0.1,0-0.1,0c-0.1-0.1-0.1-0.5-0.1-1
					c0-0.2,0-0.4,0-0.6c0-0.5-0.2-0.6-0.4-0.8C16.9,6,16.8,6,16.8,5.9c0,0-0.1,0-0.1,0.1l0,0l-0.7,0.3l0,0.1l0.8-0.3
					C16.8,6.2,16.9,6.3,17,6.4z"/>
				<path class="st6" d="M18.1,8.1c0,0,0.1-0.4,0.1-0.7c0-0.3,0-0.4,0.4-0.4c0.3,0,0.6,0.3,0.5,1c0,0,0-0.1,0-0.1
					c0.1-0.2,0.1-0.6,0-0.8c-0.1-0.1-0.2-0.2-0.4-0.2c-0.2,0-0.3,0-0.4,0.1c-0.1,0-0.2,0.1-0.2,0.2c0,0.2,0,0.6-0.1,0.9
					C18,8.1,18.1,8.1,18.1,8.1c0,0.1,0.1,0.1,0.1,0c0.1,0,0.1-0.1,0.2-0.2C18.4,7.9,18.3,8,18.1,8.1z"/>
				<path class="st6" d="M17.1,9.1l-0.4-0.2c0,0,0-0.4,0-0.5c0-0.1,0-0.4-0.2-0.5c-0.2-0.1-0.4-0.3-0.7-0.3c-0.2,0-0.5,0-0.8,0
					c-0.3,0.1-0.4,0.3-0.4,0.5c0,0.2,0,0.5,0,0.5l-0.2,0.2l0.2-0.1c0,0,0.1-0.1,0.3-0.1c0.2,0,0.4,0.1,0.4,0.1l1.1,0.3L17.1,9.1z"/>
				<path class="st6" d="M11.1,9c0,0,0.7-0.3,0.7-0.3s0.2-0.1,0.4-0.1s0.2,0,0.3,0c0,0,0.1,0.1,0.1,0.1s-0.1-0.1-0.1-0.1
					c0,0,0.1-0.5-0.1-0.7c-0.3-0.2-0.6-0.2-1-0.1C11,7.8,10.7,8,10.7,8.2c0,0.1,0,0.4,0,0.6c0,0.2,0.1,0.3,0.1,0.3l-0.1,0.1
					C10.7,9.1,11,9,11.1,9z"/>
				<path class="st6" d="M10.6,11c-0.2-0.5,0-1.3-0.1-2c0-0.3-0.1-0.8-0.2-1.2c0.1-0.1,0.4-0.2,0.6-0.3c0.3-0.1,0.5-0.1,0.7-0.1
					c0.2,0,0.4,0,0.5,0c0.1,0,0.2-0.1,0.2-0.2c0,0-0.9,0.1-1.3,0.1c-0.4,0-0.7,0.5-0.7,0.5l0,0c0,0,0,0,0,0c0,0-0.1,0,0,0
					c0,0,0-0.1,0.1-0.1c-0.1-0.3-0.1-0.6-0.2-0.7c0-0.1,0-0.2,0.1-0.2c0.5-0.4,2.4-1.8,2.8-1.7l0,0c-0.1,0-0.2-0.1-0.3,0
					C12,5,10.1,6.6,9.8,6.7c0.1,0.2,0.5,1.9,0.5,2.9c0,0.2,0,0.3,0,0.5c0,0.8-0.1,1.3,1.1,2.3C11,12,10.7,11.5,10.6,11z"/>
				<path class="st6" d="M12.5,9.4l0.2-0.1c0,0,0.2-0.3,0.2-0.6c0.1-0.3,0-0.5,0-0.6c0-0.1,0-0.2,0-0.3c0,0,0,0.6-0.1,0.9
					C12.7,9.2,12.5,9.4,12.5,9.4z"/>
				<path class="st6" d="M14.6,7.3c0.1,0,0.2,0,0.5-0.1c0.3-0.1,0.6-0.1,1-0.1c0.3,0,0.7,0.1,0.8,0.2c0.2,0,0.2-0.1,0.1-0.2
					c0,0-0.1,0-0.3,0C16.7,7,16,6.9,15.5,6.9c-0.6,0-1.1,0.2-1.1,0.2C14.4,7.2,14.5,7.3,14.6,7.3z"/>
				<path class="st6" d="M16.9,25.1C16.9,25.1,16.9,25.1,16.9,25.1L16.9,25.1L16.9,25.1C17,25.1,17,25.1,16.9,25.1
					c-0.1-0.1-0.3-0.3-0.4-0.6c-0.1-0.4-0.1-0.8-0.1-0.8s1.1,0,1.5-0.3c0,0,0,0,0,0c-0.3,0.1-0.6,0.1-0.8,0.1c-0.3,0-0.6,0-0.8-0.1
					c0,0-0.2,0.2,0,1C16.5,25.1,16.9,25.1,16.9,25.1z"/>
				<path class="st6" d="M16.3,23.3c-0.1-0.1-0.4-0.6-0.4-1.2c-0.1-0.8-0.1-1,0.1-1.2c0.2-0.2,0.4-0.3,0.4-0.3s-0.1,0.1,0.6,0.2
					c0.7,0.1,1.4,0.1,1.6,0.1c0.2,0,0.3-0.1,0.5-0.2c0.1-0.1,0.4-0.4,0.2-0.6c0,0,0,0,0,0c0,0,0,0.1,0,0.1c0,0.1,0,0.1-0.1,0.1l0,0
					c0,0,0,0,0,0l0,0l0,0c0,0-0.1,0.1-0.3,0.3c-0.1,0.1-0.3,0.1-0.6,0.1c-0.2,0-0.4,0-0.6,0c-0.6-0.1-1.2-0.1-1.2-0.1v0
					c0,0-0.1,0-0.1,0c0,0,0,0,0-0.1c0,0,0,0,0,0c0,0,0,0,0.1-0.1c0,0,0,0,0.1,0c0,0,0,0,0,0c0,0,0,0,0,0.1c0,0,0,0,0,0c0,0,0,0,0,0
					c0,0,0,0,0,0l0,0l0,0c0,0,0.2,0,0.5,0l-0.1-0.4c-0.3,0.1-0.8,0.4-1.1,0.6c0,0-0.1,0-0.1,0c0,0-0.1,0.1-0.1,0.1
					c-0.2,0.2-0.1,0.7,0,1.5c0.1,0.4,0.2,0.6,0.3,0.8C16.1,23.2,16.2,23.2,16.3,23.3L16.3,23.3z"/>
				<path class="st6" d="M18.8,19.1c0,0.3,0.1,0.6,0.2,0.9l0,0l0.1,0.4l0.1,0c0,0,0.2-0.1,0.2-0.2c0,0-0.1-0.1-0.1-0.1
					c0,0-0.1,0-0.1,0c0-0.1-0.1-0.3-0.1-0.5c0-0.2-0.1-0.3-0.1-0.3s0.7,0,1.5,0.4c0.6,0.3,1,0.6,1.3,0.8c0,0,0,0,0,0
					C21.7,20.3,20.8,19,18.8,19.1z"/>
				<path class="st6" d="M25.8,24c0-0.1,0.1-0.2,0.1-0.3c0-0.1,0.1-0.2,0.1-0.3c0,0-0.3,0.6-0.7,1c-0.4,0.4-1,0.9-1.5,1.2
					c-0.4,0.2-1.2,0.3-1.4,0.4c0,0.1,0,0.1,0,0.2c0.1,0,0.5-0.1,1.2-0.3c0.9-0.3,1.9-1.4,1.9-1.4l0,0l0,0c0.1-0.1,0.1-0.1,0.2-0.2
					C25.7,24.1,25.8,24.1,25.8,24z"/>
				<path class="st6" d="M17.4,26.1c-0.2-0.5-0.2-0.8-0.2-0.8s0.6,0,1.2-0.3c-0.2,0.1-0.5,0.1-0.7,0.1c-0.2,0-0.5,0-0.7,0
					c0,0-0.1,0.1,0,0.8c0.2,0.7,0.7,0.9,0.8,0.9c0.1,0,0.2,0,0.3,0C17.9,26.7,17.6,26.5,17.4,26.1z"/>
				<path class="st6" d="M26.7,22.5c-0.1-0.7-1-2.9-1.1-3.1c-0.4,0-1,0-1.7,0.2c-1.1,0.2-2,0.7-2.2,0.8c0,0,0,0,0,0l-0.1,0
					c0,0,0.2,0.3,0.3,0.6c0.1,0.3,0.3,0.9,0.3,0.9l-0.2-1c0,0,0.1-0.1,1.3,0c1.2,0,1.9,0.6,1.9,0.6c-1.2-0.9-3.2-0.7-3.2-0.7
					l-0.1-0.3c0.2-0.1,0.7-0.3,1.4-0.5c1.1-0.3,1.9-0.3,1.9-0.3s0.4,1,0.7,1.8c0.2,0.7,0.5,1.5,0.4,2c-0.1,0.4-0.5,0.7-0.7,0.8
					c0,0,0,0.1,0,0.1c0,0-0.1,0.1-0.1,0.1C26.3,24.2,26.9,23.6,26.7,22.5z"/>
				<path class="st6" d="M22.6,25c0,0-0.4,0.8-0.4,1.1c-0.1,0.3-0.6,0.7-1.2,1c-0.7,0.3-1.4,0.4-1.9,0.4c-0.5,0-0.9-0.2-1-0.5
					C18,27,18,27,18,27s0.6-0.1,1-0.3c0,0,0,0,0,0c-0.1,0-0.2,0.1-0.3,0.1c-0.1,0-0.2,0-0.3,0.1c-0.1,0-0.2,0-0.3,0
					c-0.1,0-0.2,0-0.3,0c0,0.1,0,0.4,0.4,0.7c0.5,0.4,1.3,0.3,2.7-0.2c1.1-0.4,1.3-1.1,1.4-1.1l0,0c0.1-0.2,0.1-0.4,0.2-0.6
					C22.5,25.4,22.6,25.2,22.6,25z"/>
				<path class="st6" d="M6,22.3c-0.2,0.3-0.5,0.8-0.5,0.8s-0.6-0.2-1.8,0c0.1,0,0.2,0,0.3,0c0.1,0,0.2,0,0.3,0c0.2,0,0.4,0,0.6,0.1
					v0c0,0,0.5,0.1,1,0.5c0.6-0.5,0.8-1,0.8-1.2c-0.2-0.1-0.3-0.2-0.5-0.3l0,0c0,0-1.6-1.1-2.2-1.6c-0.6-0.6-1-0.9-1-0.9L3,19.8
					c0,0,0.9,0.9,1.6,1.4C5.2,21.7,5.8,22.1,6,22.3z"/>
				<polygon class="st6" points="4.9,23.2 4.9,23.2 4.9,23.2 				"/>
				<path class="st6" d="M5.4,23.4c0.2,0.3,0.7,1.2,1.2,1.8c0.5,0.6,0.7,0.9,0.8,0.9c0-0.1,0-0.3,0-0.4l0,0c0,0-0.4-0.4-1.1-1.4
					C6.1,23.9,5.7,23.6,5.4,23.4z"/>
				<path class="st6" d="M4.2,26.5c-1.5-1.1-2.1-1.7-2.6-2.3c-0.4-0.6-0.4-1.8-0.1-2.4c-0.4,0.6-0.9,1.8,0.3,3.1
					c1.1,1.2,5.3,4,5.9,4.4c0-0.1,0-0.2,0-0.4C7.4,28.8,5.6,27.6,4.2,26.5z"/>
			</g>
			<g>
				<path class="st7" d="M15.5,14.8c0,0.2,0.1,1.5,0.1,1.7c0,0.2,0.2,0.3,0.4,0.4c0.2,0.1,0.8,0.2,1.3,0c0.4-0.2,0.6-0.4,0.6-0.7
					c0-0.3-0.1-1.6-0.1-1.6l0,0l0,0c0.1,0,0.3,0.1,0.5,0.2l0.4-1.7l-0.2,0c-0.1,0.2-0.3,0.5-0.5,0.7c-0.2,0.2-0.4,0.4-0.6,0.6
					l-0.1,0.1c0,0-0.1,0-0.1,0.1c-0.1,0-0.1,0.1-0.2,0.1c-0.1,0.1-0.2,0.2-0.4,0.2c-0.3,0.1-0.5,0.2-0.8,0.3
					c0.3-0.1,0.5-0.2,0.8-0.4c0.1-0.1,0.2-0.2,0.4-0.2c0.1,0,0.1-0.1,0.2-0.1c0,0,0.1,0,0.1-0.1l0.1-0.1c0.2-0.2,0.4-0.4,0.6-0.6
					c0.2-0.2,0.3-0.4,0.5-0.7c-0.2-0.1-0.6,0-0.7,0C17.7,13.1,16.9,14.3,15.5,14.8z"/>
				<g>
					<path class="st7" d="M19.3,16.5c0.1,0.7,0,1-0.2,1.5c0,0.1-0.1,0.1-0.1,0.2c-0.1,0.3-0.2,0.5-0.2,0.8c0.7,0,1.3,0.1,1.7,0.3
						c1.5-1,3.6-1.3,4.8-1.5c-0.1-0.2-0.2-0.5-0.3-0.8l0,0c-0.1-0.1-0.1-0.3-0.2-0.4c-0.1-0.1-0.2-0.2-0.3-0.3
						c-0.1-0.1-0.2-0.2-0.3-0.3c-0.1-0.1-0.2-0.2-0.4-0.3c0.1,0.1,0.3,0.2,0.4,0.3c0.1,0.1,0.2,0.2,0.3,0.3c0.1,0.1,0.2,0.2,0.3,0.3
						c-0.3-0.9-0.7-1.9-1-2.3c-0.4-0.8-2.4-0.8-2.4-0.8c-0.1,0-0.3,0.1-0.4,0.1c-0.1,0.1-0.3,0.1-0.4,0.2c-0.1,0.1-0.3,0.2-0.4,0.2
						c-0.1,0.1-0.3,0.2-0.4,0.3c0.1-0.1,0.2-0.2,0.4-0.3c0.1-0.1,0.2-0.2,0.4-0.3c0.1-0.1,0.3-0.2,0.4-0.2c0.1,0,0.1-0.1,0.2-0.1
						l-1.4-0.2l-0.8,2.7C19.2,16.1,19.2,16.3,19.3,16.5z"/>
					<path class="st7" d="M21.7,20.3c0.2-0.1,1.1-0.6,2.2-0.8c1-0.2,1.7-0.2,2-0.2c0,0,0,0,0,0c0,0,0,0,0,0c0-0.2-0.2-0.8-0.4-1.3
						c0,0,0,0-0.1,0c0,0-0.1,0-0.1,0c-1.2,0.2-3.3,0.5-4.8,1.5C21.3,19.7,21.7,20.1,21.7,20.3z"/>
					<path class="st7" d="M3.2,19.5c0,0,0.1,0.1,0.1,0.1c0.4,0.4,1.7,1.6,3.6,2.8c-0.1-0.5-0.2-1-0.3-1.4c-0.1-0.1-0.5-0.3-1-0.7
						c-0.5-0.4-1.1-1.2-1.5-1.6c-0.1-0.1-0.2-0.2-0.2-0.3c0,0-0.2,0-0.4,0.4c0,0,0,0.1-0.1,0.1C3,19.2,3,19.4,3.2,19.5z"/>
					<path class="st7" d="M9.9,17.5c-0.1,1.3-0.2,2.1-0.2,2.3c0.3,0,1.8,0.1,3.5,0c1.8,0,3.2-0.2,3.5-0.2c-0.3-0.4-0.8-0.7-1-0.9
						l0,0c0,0-0.1,0-0.1-0.1c-0.3-0.2-0.8-0.4-1.1-1.2c-0.4-1,0.2-2,0.4-2.3c0.1-0.1,0.1-0.2,0.2-0.3c-0.3,0.1-0.7,0.1-1.1,0.1
						c-0.7,0-1.7-0.1-2.3-0.7c-0.3-0.3-0.4-0.6-0.4-0.7l-0.5,0.2c0,0.1,0.1,0.2,0.1,0.3c0.1,0.1,0.1,0.2,0.2,0.4
						c0.2,0.2,0.3,0.4,0.6,0.6c0.1,0.1,0.2,0.2,0.4,0.2c0,0,0.1,0,0.1,0c0,0,0.1,0,0.1,0c0.1,0,0.1,0,0.2,0.1
						c0.3,0.1,0.5,0.1,0.8,0.1c-0.3,0-0.6,0-0.8-0.1c-0.1,0-0.1,0-0.2-0.1c0,0-0.1,0-0.1,0c0,0-0.1,0-0.1,0
						c-0.1-0.1-0.2-0.1-0.4-0.2c-0.2-0.2-0.4-0.4-0.6-0.6c-0.1-0.1-0.2-0.2-0.2-0.4c-0.1-0.1-0.1-0.2-0.1-0.3l-0.6,0.2
						c0,0.2,0,0.9-0.2,1.9C10,16.5,9.9,17,9.9,17.5z"/>
					<path class="st7" d="M5.5,20.2c0.4,0.4,0.8,0.6,0.9,0.7c-0.1-0.2-0.2-0.4-0.2-0.5l0,0l0.3-1l0,0l0.3-0.9l-0.2,1l0,0l0,0l-0.2,1
						c0.1,0.1,0.2,0.3,0.3,0.6c0,0,0,0,0,0c0.1,0.4,0.3,1,0.4,1.6c0,0,0.1-0.1,0.1-0.1c0.2-0.2,0.4-0.4,0.6-0.7
						c0.3-0.5,0.8-1.4,0.8-1.5c0-0.1,0-1.1,0.1-2.4c0.1-0.8,0.2-1.8,0.3-2.4C9,15.2,9,14.9,9,14.7l-0.1,0.1C8.8,14.9,8.7,15,8.6,15
						c-0.1,0.1-0.2,0.2-0.4,0.3c-0.1,0.1-0.2,0.2-0.3,0.3c-0.1,0.1-0.2,0.2-0.3,0.3c0.1-0.1,0.2-0.2,0.3-0.4
						c0.1-0.1,0.2-0.2,0.3-0.3c0.1-0.1,0.2-0.2,0.4-0.3c0.1-0.1,0.2-0.1,0.3-0.2c-0.2,0-0.7,0-1.4,0.3c-1.2,0.6-3.2,2.5-3.6,3.2
						C3.9,18.4,4,18.5,4,18.6C4.4,19.1,5,19.8,5.5,20.2z"/>
				</g>
			</g>
			<path class="st8" d="M25.9,19c0-0.1-0.4-1.1-0.4-1.1l-0.2-0.1L25,16.7l-0.8-2c0,0-0.2-0.5-0.5-0.8c-0.3-0.3-0.8-0.4-1.3-0.4
				c-0.4-0.1-1-0.1-1-0.1l-0.4-0.1l-1.1-0.1l-0.8,2.7c0,0,0.2,0.6,0.2,1c0,0.4-0.2,0.9-0.4,1.2c-0.1,0.2-0.2,0.7-0.2,1
				c0,0,0.3,0,0.6,0c0.3,0,0.7,0.1,0.9,0.2c0.1,0.1,0.3,0.1,0.3,0.1s0.1-0.1,0.2-0.1l0,0c0,0,1-0.6,2.4-1c1.3-0.3,2-0.4,2.1-0.4
				l0.1,0l0.4,1.1c0,0-0.8,0-2,0.3c-1.2,0.3-1.9,0.8-1.9,0.8s-0.4-0.5-1-0.9l-0.3,0.2c0,0,0.4,0.1,0.7,0.5c0.4,0.3,0.5,0.5,0.5,0.5
				s0.2-0.2,0.9-0.4c0.6-0.2,1.2-0.4,2-0.5c0.8-0.1,1.1-0.1,1.1-0.1s0.2,0,0.3,0C26,19.2,26,19.1,25.9,19z M22.8,18.1
				c-1.2,0.3-2,0.8-2.2,0.9c-0.2-0.1-0.6-0.2-0.8-0.2c-0.4-0.1-0.8-0.1-0.8-0.1s0-0.4,0.2-0.7c0.2-0.3,0.4-0.8,0.3-1.3
				c-0.1-0.5-0.3-0.9-0.3-0.9l0.7-2.4l0.8,0.1c0,0-0.5,0.3-0.9,0.7c0,0,0.6-0.5,1-0.6l0.2-0.1c0,0,0.6,0,1.3,0.1
				c0.7,0.1,1.1,0.3,1.3,0.6c0.2,0.3,0.7,1.7,0.7,1.7s-0.2-0.1-0.6-0.3c0,0,0.4,0.2,0.6,0.5l0.1,0.1l0.5,1.4
				C24.8,17.6,24,17.7,22.8,18.1z"/>
			<path class="st9" d="M17.4,3.1c0.2,0.3,0.1,0.7,0,1.1c0,0.1-0.1,0.3-0.1,0.4c0,0.3-0.1,0.5-0.1,0.7c0.1,0,0.2,0.1,0.2,0.1
				c0.1,0,0.1,0.1,0.2,0.2c0.1,0.1,0.3,0.2,0.4,0.3c0.3,0.2,0.5,0.5,0.8,0.7c-0.3-0.2-0.6-0.4-0.8-0.7c-0.1-0.1-0.3-0.2-0.4-0.3
				c-0.1,0-0.1-0.1-0.2-0.1c-0.1,0-0.1-0.1-0.2-0.1c0,0.1,0,0.2,0,0.3c0.1,0,0.6,0.3,1.8,1.3c0-0.3,0-1.5,0-2.1l0-0.1
				c0-0.5,0-1.2-1.2-1.9c-1.1-0.7-2.6-1.4-3.6-1.6C15.2,1.5,16.9,2.4,17.4,3.1z"/>
			<path class="st7" d="M13.4,11.8c0.2,0,0.5,0,0.7,0c0.2,0,0.5-0.1,0.7-0.1l0.1,0l0,0l0,0l0.2-0.1c0.1,0,0.1,0,0.2-0.1l0.2-0.1
				l-0.2,0.1c-0.1,0-0.1,0.1-0.2,0.1L15,11.6l0,0l0,0l-0.1,0c-0.2,0.1-0.5,0.1-0.7,0.2C13.9,11.8,13.7,11.9,13.4,11.8
				c-0.2,0.1-0.4,0-0.7,0l0.1,0.4c0.2,0.1,1.9,0.6,2.5,0c0.6-0.5,0.4-1.4,0.3-1.6c-0.4,0.3-1,0.5-1.9,0.6c-0.6,0.1-1.1,0.1-1.2,0.1
				l0.1,0.5C13,11.7,13.2,11.8,13.4,11.8z"/>
			<g>
				<path class="st7" d="M12,8.4C12,8.4,12,8.4,12,8.4c0,0.1,0,0.2-0.1,0.2c0,0,0,0,0,0c0,0,0.1,0,0.1,0c0.1,0,0.1,0,0.2,0l0,0
					c0-0.3,0.1-0.6-0.3-0.7c-0.4-0.1-0.8,0.1-1.1,0.3c-0.2,0.1,0,0.7,0,0.9c0.1,0,0.2-0.1,0.2-0.1c0.1-0.1,0.3-0.1,0.4-0.2
					c-0.1,0-0.2-0.2-0.2-0.3c0-0.2,0.1-0.3,0.3-0.3c0.1,0,0.2,0,0.2,0.1c-0.1,0-0.1,0.1-0.1,0.1C11.8,8.4,11.8,8.4,12,8.4
					C11.9,8.4,11.9,8.4,12,8.4z"/>
				<path class="st7" d="M15.1,7.6c-0.5,0.1-0.4,0.6-0.3,0.9l0,0c0.1,0,0.2,0,0.3,0c0.1,0,0.1,0,0.2,0l0.1,0
					c-0.1-0.1-0.2-0.2-0.2-0.3c0-0.2,0.2-0.4,0.4-0.4c0.1,0,0.2,0,0.3,0.1c-0.1,0-0.1,0.1-0.1,0.1c0,0.1,0.1,0.1,0.1,0.1
					c0,0,0.1,0,0.1-0.1c0,0,0,0,0,0.1c0,0.2-0.1,0.4-0.3,0.4l0.1,0c0.2,0.1,0.5,0.1,0.7,0.2c0,0,0,0,0.1,0c0-0.3,0.1-0.8-0.1-1
					C16.1,7.7,15.7,7.5,15.1,7.6z"/>
			</g>
			<path class="st5" d="M9.5,7C9.4,7.2,9.4,7.4,9.5,7.7c0,0.2,0.1,0.4,0.2,0.5c0.1,0.2,0.2,0.3,0.1,0.6c0,0.3,0,0.5,0.1,0.5
				c0.1,0.1,0.2,0.1,0.3,0c-0.1-0.9-0.3-2-0.5-2.5C9.7,6.9,9.6,6.9,9.5,7z"/>
			<g>
				<path class="st10" d="M17.5,8.4C17.5,8.4,17.5,8.4,17.5,8.4c0.1,0,0.1,0,0.1,0c0,0,0,0,0,0h0.1c0,0,0.2-0.3,0.2-1.2
					c0-0.1,0.1-0.3,0.2-0.3c0.1,0,0.3-0.1,0.5-0.1c0,0,0.1,0,0.1,0c-1.1-0.9-1.5-1.1-1.6-1.1c0,0-0.1,0.1-0.3,0.1
					C16.9,5.9,17,6,17.1,6c0.2,0.1,0.4,0.3,0.4,0.8c0,0.2,0,0.4,0,0.6C17.4,7.9,17.4,8.3,17.5,8.4z"/>
				<path class="st10" d="M18,9.6c-0.1,0.3-0.1,0.6-0.1,0.8c0,0.2,0,0.4-0.1,0.7c0.2-0.1,0.5-0.5,0.8-1.4C18.3,9.7,18.1,9.7,18,9.6z
					"/>
			</g>
			<g>
				<path class="st11" d="M17.8,19.6c-0.3,0.1-0.4,0.4-0.3,0.7l0.1,0.2c0.1,0,0.1,0,0.2,0c0.5,0,0.8,0.1,1,0L18.5,20
					C18.4,19.7,18.1,19.5,17.8,19.6z"/>
				<g>
					<path class="st11" d="M18.8,18.4c-0.3,0.2-0.6,0.3-1.1,0.4C17,19,16.5,19,16.1,18.9c0.3,0.2,0.7,0.5,0.9,1l0.2,0.7
						c0.1,0,0.2,0,0.3,0l-0.1-0.2c-0.1-0.3,0.1-0.7,0.4-0.8c0.3-0.1,0.7,0.1,0.8,0.4l0.2,0.6c0,0,0,0,0.1,0c0.1-0.1,0.1-0.1,0.2-0.1
						l0-0.1C18.8,19.5,18.6,18.9,18.8,18.4z"/>
					<path class="st11" d="M17.4,17c-0.5,0.2-1.1,0.1-1.4,0c-0.2-0.1-0.4-0.2-0.5-0.5c0-0.2-0.1-1.4-0.1-1.7c0,0-0.1,0-0.1,0.1
						c-0.1,0.1-0.3,0.2-0.4,0.4c-0.7,1.1-0.5,2-0.4,2.2c0.1,0.3,0.2,0.5,0.4,0.7c0.7,0.6,1.4,0.8,2.7,0.5c0.7-0.2,1.1-0.4,1.4-0.7
						c0.2-0.5,0.4-0.8,0.2-1.4c0-0.2-0.1-0.3-0.2-0.5l0,0l0,0c-0.3-0.6-0.7-1.2-1.1-1.3c0,0.2,0.1,1.3,0.1,1.5
						C18.1,16.6,17.9,16.8,17.4,17z"/>
					<path class="st11" d="M21.1,29.2c-0.7,0.2-1.1,0.4-1.4,0.7c-0.2,0.5-0.4,0.8-0.2,1.4c0.2,0.7,0.8,1.7,1.3,1.8
						c0-0.2-0.1-1.3-0.1-1.5c0-0.4,0.2-0.6,0.6-0.8c0.5-0.2,1.1-0.1,1.4,0c0.2,0.1,0.4,0.2,0.5,0.5c0,0.2,0.1,1.4,0.1,1.7
						c0.1,0,0.3-0.1,0.5-0.4c0.7-1.1,0.5-2,0.4-2.2c-0.1-0.3-0.2-0.5-0.4-0.7C23.1,29,22.4,28.9,21.1,29.2z"/>
					<path class="st11" d="M21.5,27.2c-0.1,0-0.2,0.1-0.3,0.1l0,0.1c0.1,0.3-0.1,0.7-0.4,0.8c-0.3,0.1-0.7-0.1-0.8-0.4L20,27.7
						c-0.1,0-0.2,0-0.3,0.1c0.2,0.7,0.3,1.2,0.2,1.6c0.3-0.2,0.6-0.3,1.1-0.4c0.7-0.2,1.2-0.2,1.6-0.1c-0.3-0.2-0.7-0.5-0.9-1
						L21.5,27.2z"/>
				</g>
				<path class="st11" d="M20.9,28.2c0.3-0.1,0.4-0.4,0.3-0.7l0-0.1c-0.1,0-0.1,0.1-0.2,0.1c-0.3,0.1-0.6,0.2-0.8,0.3l0,0.1
					C20.3,28.1,20.6,28.3,20.9,28.2z"/>
			</g>
			<g>
				<path class="st4" d="M10,6L10,6c0-0.2,0.1-0.3,0.1-0.5c0-0.2,0-0.3-0.1-0.5C10,4.9,10,4.8,10,4.7c0-0.1-0.1-0.2-0.1-0.3
					c0-0.2-0.1-0.3-0.1-0.5c0,0.2,0.1,0.3,0.1,0.5c0,0.1,0.1,0.2,0.1,0.2c0,0.1,0.1,0.2,0.1,0.2c0.1,0.2,0.1,0.3,0.1,0.5
					C10.2,5.6,10.2,5.8,10,6c0.9-0.7,2.2-1.5,2.6-1.5c0,0,0,0,0,0v0c1.6,0.1,2.8,0.4,3.5,0.6c0.3,0.1,0.6,0.2,0.7,0.3
					c0-0.2,0-0.3,0-0.5c0-0.2,0.1-0.4,0.1-0.6c0.1-0.2,0.1-0.4,0.2-0.5c0-0.1,0-0.2,0.1-0.3c0,0,0-0.1,0-0.1c0,0,0-0.1-0.1-0.1
					c0,0,0.1,0.1,0.1,0.1c0,0,0,0.1,0,0.1c0,0.1,0,0.2,0,0.3c0,0.2-0.1,0.4-0.2,0.6c0,0.2-0.1,0.4-0.1,0.6c0,0.2,0,0.4,0,0.6
					c0.1,0,0.2,0.1,0.2,0.1c0-0.1,0-0.5,0.1-1c0-0.1,0.1-0.3,0.1-0.4c0.1-0.4,0.2-0.7,0-1c-0.6-0.8-3.3-2-3.8-2
					c-0.2,0-1.1,0.4-2.1,0.9c-1,0.6-1.7,1-1.7,1.1c-0.2,0.6,0,1.2,0.2,1.6C9.9,5,9.9,5.1,9.9,5.3c0,0.3,0,0.6-0.1,0.8c0,0,0,0,0,0
					C9.9,6,10,6,10,6z"/>
				<path class="st3" d="M15.4,5.7c0.3,0.2,0.5,0.3,0.5,0.4C16.3,6,16.9,5.7,17,5.6c-0.3-0.2-1.6-0.9-3.9-1.1
					C13.7,4.8,14.7,5.3,15.4,5.7z"/>
				<path class="st3" d="M15.5,6.2c0.1,0,0.1,0.1,0.1,0.1c0.1,0.1,0.1,0,0.2,0c0,0,0,0,0,0l0,0c0,0,0,0,0,0c0,0-0.1-0.1-0.5-0.4
					c-1-0.7-2.2-1.3-2.7-1.3c0,0,0,0,0,0c-0.4,0-1.9,1.1-2.7,1.6C9.8,6.2,9.8,6.3,9.7,6.3c0,0,0,0,0,0l0,0C9.6,6.4,9.5,6.4,9.5,6.4
					c0,0-0.1,0.1-0.1,0.1c0,0.1,0,0.1,0.1,0.2c0.1,0,0.1,0,0.2,0c0.1-0.1,2.2-1.8,2.8-1.8C13.2,4.8,14.9,5.8,15.5,6.2z"/>
			</g>
			<path class="st6" d="M13.5,10.4c0,0-0.1,0.3-0.5,0.3c-0.4,0-0.7-0.2-0.7-0.7l0.1,0.2c0,0,0.2,0.3,0.5,0.4
				C13.2,10.6,13.4,10.4,13.5,10.4z"/>
			<g>
				<path class="st12" d="M15.8,10.6l-0.1-0.2c0,0-0.3,0.3-0.9,0.4c-0.5,0.1-1.4,0.2-1.4,0.2l-0.8,0l-0.2,0l0.3,1l0.1,0l-0.1-0.3
					c0.1,0,0.3,0,0.6,0c0.4,0,0.9-0.1,1.2-0.2c-0.1,0-0.5,0.1-0.9,0.1c-0.4,0-0.8-0.1-0.9-0.1l-0.1-0.4c0,0,0.5,0,1.3-0.1
					c0.9-0.1,1.6-0.5,1.6-0.5s0.1,0.3,0,0.8c-0.1,0.5-0.5,0.8-0.5,0.8s0.5-0.2,0.6-0.7C15.9,11.1,15.8,10.6,15.8,10.6z"/>
				<path class="st12" d="M14.5,11.7C14.5,11.7,14.5,11.7,14.5,11.7C14.5,11.7,14.5,11.7,14.5,11.7z"/>
			</g>
			<path class="st8" d="M18.8,13l-0.2,0c0,0-0.1-0.1-0.3-0.1c-0.2,0-0.5,0-0.5,0s-0.5,0.8-1.2,1.3c-0.7,0.5-1.2,0.6-1.5,0.7
				c-0.4,0.1-1,0.2-1.9,0.1c-0.9-0.1-1.4-0.6-1.5-0.9c-0.1-0.2-0.2-0.5-0.2-0.5L10.2,14l0,0.1l0,0c0,0,0,0.7-0.1,1.1
				c0,0.4-0.2,1.4-0.3,2.4c-0.1,1.1-0.2,2.1-0.2,2.1l0.2,0c0,0,0-0.3,0-0.7c0-0.3,0.2-2.2,0.3-3.2c0.1-0.9,0.2-1.6,0.2-1.8l0.3-0.1
				c0,0,0.4,0.7,1.1,1.1l0-0.1c0,0-0.3-0.2-0.5-0.4c-0.2-0.2-0.4-0.7-0.4-0.7l0.4-0.1c0,0,0.2,0.6,1,1c0.7,0.3,1.4,0.3,1.9,0.3
				c0.5,0,0.9-0.1,0.9-0.1l0.3-0.2l0.2-0.1l0,0.2c0,0,0.5-0.1,1.2-0.7c0.7-0.6,1.1-1.2,1.1-1.2s0.4-0.1,0.6,0c0,0-0.3,0.5-0.8,0.9
				c-0.4,0.4-0.6,0.5-0.7,0.6c0,0,0.7-0.4,1.1-0.8c0.4-0.4,0.5-0.6,0.5-0.6l0,0l-0.4,1.5l0.1,0.1L18.8,13l0,0.1L18.8,13z"/>
			<path class="st8" d="M8.6,15l0.3-0.1c0,0-0.5,3.1-0.5,4.1c0,0.8,0,1.1,0,1.1S8.1,20.6,7.8,21c-0.2,0.4-0.5,0.7-0.6,0.8
				c-0.2,0.1-0.4,0.4-0.4,0.4s-0.1-0.5-0.2-0.8c-0.1-0.3-0.2-0.5-0.2-0.5s-0.1-0.2-0.1-0.3c0-0.1-0.1-0.2-0.1-0.2l0.5-1.9
				c0,0-0.5,1.1-0.6,1.5c-0.1,0.3-0.1,0.4-0.1,0.4l0,0.1c0,0-0.3-0.2-0.7-0.6C4.9,19.4,4,18.3,4,18.3s1.2-1.5,2.5-2.4
				C7.9,15,8.4,15,8.4,15s-0.6,0.4-0.8,1c0,0,0.4-0.5,0.8-0.8c0.4-0.3,0.5-0.4,0.5-0.4s-0.1-0.1-0.5,0c-0.4,0.1-1.1,0.3-1.7,0.7
				c-0.6,0.4-1,0.8-1.6,1.4c-0.6,0.6-1.3,1.3-1.3,1.5c0,0-0.2,0-0.3,0.2C3.3,18.7,3,19.1,3,19.3c0,0.2,0.1,0.2,0.2,0.4
				c0.2,0.1,1.1,1,1.7,1.4c0.6,0.4,1.6,1.1,1.6,1.1l0,0l0.4,0.2l0,0.1c0,0,0.5-0.5,0.7-0.7c0.2-0.2,0.6-1,0.6-1l0.4-0.6
				c0,0,0-1.1,0.1-1.7c0-0.6,0.1-0.9,0.1-1.6c0.1-0.7,0.3-2.4,0.3-2.4L8.6,15z M4.8,20.7c-0.7-0.5-1.3-1.2-1.4-1.3
				c-0.1-0.1,0.2-0.5,0.3-0.6c0.2-0.1,0.2-0.2,0.2-0.2s0.8,1,1.3,1.5s1,0.8,1,0.8l0.3,1.1C6.6,21.9,5.5,21.2,4.8,20.7z"/>
			<g>
				<g>
					<path class="st4" d="M8.5,20.7c0,0-0.3,0.7-0.6,1.2c-0.3,0.5-0.8,0.9-0.8,1c0,0.1,0,0.3,0.2,0.6c0.1,0.3,0.3,0.9,0.3,0.9
						s0.1-0.2,0.2-0.5c0,0,0,0.3,0,0.5c0,0.3-0.1,0.6-0.1,0.6s0.1,1,0.1,1.6c-0.1,0.6,0,1,0.1,1.3c0,0,0.1-0.1,0.1-0.3
						c0,0,0,0.4,0,0.5s0,0.2,0,0.2s0.1,0.7,0.2,0.9c0,0.2,0.2,0.4,0.2,0.4s-0.2,0-0.3-0.3c-0.1-0.3-0.1-0.9-0.1-0.9S7.6,28.2,7.6,28
						c0-0.2-0.1-0.6-0.1-0.8c0-0.2,0-0.8,0.1-1.3c0-0.4-0.1-1-0.1-1S7.3,24.3,7.2,24c-0.1-0.3-0.3-0.7-0.4-0.8
						c-0.1-0.2-0.1-0.3,0-0.4c0.1-0.1,0.5-0.4,0.8-0.9c0.3-0.5,0.9-1.5,0.9-1.5L8.5,20.7z"/>
					<path class="st4" d="M9.9,13.9c0.1,0.1,0,0.6-0.1,1.9c-0.2,1.3-0.5,4.8-0.5,5c0,0.2,0,0.3,0,0.3l0,0c0,0,0.2,0,0.3,0
						c0.1,0,0.3,0.1,0.3-1.3l-0.2,0l0,0c0,0,0.1-1.2,0.2-2c0.1-0.8,0.2-1.6,0.2-1.6s0.2-1.2,0.2-1.6c0-0.4,0-0.6,0-0.7
						C10.1,13.9,9.9,13.9,9.9,13.9z"/>
					<g>
						<path class="st4" d="M8.6,30.9c-0.2-0.1-0.3-0.3-0.3-0.6c0-0.3,0-0.3,0-0.3s0.3,0.1,2,0.2c1.7,0.1,5.2,0.1,8.2-0.4
							c0,0-1.6,0.1-2.2,0.2c-0.6,0-2.6,0.1-3,0.1c-0.4,0-2.7,0-3.8-0.2C8.3,29.9,8,29.7,8,29.7s-0.2,0.4-0.1,0.7
							c0.1,0.3,0.2,0.5,0.5,0.5c0,0-0.2,0.4-0.3,1.2c0,0.9,0,1.3,0,1.3l0.3,0c0,0,0-0.5,0-1.1c0-0.6,0.2-1.2,0.2-1.2
							s0.7,0.1,3.1,0.1c2.4,0,5,0,5.9-0.1c0.9-0.1,1.7-0.2,1.7-0.2l0-0.2c0,0-2,0.2-4.1,0.3c-2.1,0-3.3,0-4.2,0
							C10.2,31.1,8.6,30.9,8.6,30.9z"/>
						<path class="st4" d="M15,29.6c0.8-0.1,1.6-0.2,2.4-0.5c0.7-0.3,0.8-0.6,0.8-0.8c0-0.2,0-0.4,0-0.4s0.1,0.1,0.6,0.1
							c0.5,0,0.7,0,0.7,0s0.1,0.3,0.2,0.7c0.1,0.4,0.1,1,0,1.2c0,0,0.1-0.2,0.2-0.3c0-0.1,0.1-0.4,0.1-0.6c0-0.1,0-0.4-0.1-0.6
							c-0.1-0.2-0.2-0.6-0.2-0.6s-0.6,0.1-0.8,0.1c-0.3,0-0.6-0.2-0.7-0.3c-0.1-0.1-0.2-0.2-0.2-0.2s0.1,0.8,0,1
							c-0.1,0.2-0.3,0.5-0.8,0.7C16.7,29.2,15,29.6,15,29.6z"/>
						<path class="st13" d="M21.3,30.9c0.3,0,0.4,0.2,0.4,0.7c0,0.5-0.1,1.9-0.1,1.9h0.4c0,0,0.1-0.4,0.1-1c0-0.6-0.1-1.8-0.1-1.8
							s-0.2,0-0.4,0C21.4,30.8,21.3,30.9,21.3,30.9z"/>
					</g>
				</g>
				<path class="st4" d="M10.4,28.9c-0.3-0.3-0.4-0.4-0.5-1.4c-0.1-1-0.1-1.3-0.2-2.1c-0.1-0.8-0.2-1.8-0.3-2.2
					c-0.1-0.4,0-0.8,0.1-0.9c0.1-0.1,0.4-0.2,0.7-0.2c0.3,0,2.2,0,2.7-0.1c0.5,0,2.2-0.1,2.3-0.1c0.1,0,0.3,0,0.3,0s0.1,0.5,0.1,0.7
					c0,0.2,0.2,0.5,0.3,0.5c0.1,0.1,0.3,0.2,0.3,0.2S16,23.5,16.1,24c0.1,0.5,0.2,0.8,0.3,0.9c0.1,0.1,0.3,0.2,0.4,0.2
					c0,0-0.2,0.3,0,0.9c0.2,0.6,0.8,0.8,0.8,0.8s0,0.3,0.1,0.5c0,0-0.3-0.2-0.3-0.3c0,0-0.5-0.2-0.7-0.9c-0.2-0.6-0.1-0.8-0.1-0.8
					s-0.3,0-0.5-0.4c-0.2-0.4-0.3-0.7-0.3-1c0-0.3,0.1-0.5,0.1-0.5s-0.2-0.1-0.2-0.2l-6.2,0.5l0-0.2l4.4-0.3l1.7-0.1
					c0,0-0.2-0.1-0.2-0.9c0,0-2.4,0.1-3.5,0.2c-1.1,0-2.3,0-2.4,0.2c-0.1,0.1-0.1,0.3,0,0.5c0,0.2,0.1,0.9,0.1,0.9l0.3,2.4L10,27
					c0,0,0.1,0.8,0.1,1c0,0.2,0.1,0.4,0.2,0.6C10.3,28.8,10.4,28.9,10.4,28.9z"/>
			</g>
			<g>
				<path class="st0" d="M12.8,12.1c-0.1,0-0.3,0-0.4-0.1C12.5,12.1,12.7,12.2,12.8,12.1L12.8,12.1L12.8,12.1
					c0.1,0.1,0.5,0.3,1.1,0.3c0.2,0,0.4,0,0.5,0c0.5,0,0.8-0.1,1.1-0.3c0.7-0.7,0.3-1.7,0.3-1.8l0,0c0.1,0,0.1,0.1,0.1,0.1
					c0,0,0.1,0.1,0.1,0.1c0-0.1,0-0.1-0.1-0.2c0-0.1-0.1-0.1-0.2-0.1c-0.1-0.1-0.3-0.1-0.4,0c0.1,0,0.1,0,0.2,0c0,0,0.1,0,0.1,0l0,0
					c-0.8,0.7-3.2,0.7-3.2,0.7l0,0l-0.7,0l0.6,0.1L12.8,12.1z M13.8,11.1c0.9-0.1,1.5-0.3,1.9-0.6c0.1,0.2,0.2,1-0.3,1.6
					c-0.6,0.6-2.3,0.1-2.5,0l-0.1-0.4c0.2,0,0.4,0.1,0.7,0.1c0.2,0,0.5,0,0.7,0c0.2,0,0.5-0.1,0.7-0.2l0.1,0l0,0l0,0l0.2-0.1
					c0.1,0,0.1,0,0.2-0.1l0.2-0.1l-0.2,0.1c0,0-0.1,0-0.1,0.1l-0.1-0.2l0,0.3l-0.1,0l0,0l0,0l-0.1,0c-0.2,0.1-0.5,0.1-0.7,0.1
					c-0.2,0-0.5,0-0.7,0c-0.2,0-0.5,0-0.7-0.1l-0.1-0.5C12.8,11.2,13.3,11.2,13.8,11.1z"/>
				<path class="st0" d="M26.8,22.4c-0.1-0.7-0.9-2.8-1.1-3.1c0.1,0,0.1,0,0.2,0c0,0,0.1,0,0.1,0c0,0,0-0.1,0-0.1
					c0-0.2-0.2-0.8-0.4-1.3c0,0-0.1,0-0.1-0.1c0,0,0,0-0.1,0c-0.3-0.7-1.1-2.9-1.5-3.6c-0.2-0.4-0.7-0.6-1.4-0.7
					c-0.5-0.1-1-0.1-1.1-0.1l-1.6-0.2c0-0.1-0.2-0.2-0.6-0.3c-0.4-0.1-0.5,0.1-0.6,0.1l-0.2,0c-0.2-0.1-0.7-0.1-0.8-0.1L17,12.4
					c0.2-0.2,0.4-0.5,0.6-0.9c0.1-0.1,0.1-0.2,0.1-0.3c0.1-0.1,0.6-0.4,0.9-1.6c0.1-0.1,0.2-0.2,0.2-0.3c0.1-0.2,0.1-0.4,0.1-0.5
					c0-0.2,0-0.5,0.2-0.9c0.1-0.3,0.1-0.7,0-0.9c0,0,0,0-0.1-0.1c0-0.1,0.1-1.5,0-2.2l0-0.1c0-0.5,0-1.2-1.3-2
					c-1.4-0.8-3.4-1.7-4.3-1.7h0c0,0,0,0,0,0c0,0,0,0,0,0v0c-0.3,0-1.3,0.5-2.1,1c-0.6,0.4-1.7,1-1.8,1.2c-0.2,0.6,0,1.2,0.2,1.7
					C9.8,5,9.8,5.1,9.9,5.3c0,0.4,0,0.6-0.2,1C9.6,6.3,9.5,6.3,9.5,6.4c-0.1,0-0.1,0.1-0.1,0.2c0,0.1,0.1,0.2,0.1,0.2
					c0,0,0.1,0,0.1,0c0,0,0.1,0,0.2,0c0,0,0,0,0,0c-0.1,0-0.2,0.1-0.3,0.1C9.3,7.1,9.4,7.4,9.4,7.7c0,0.2,0.1,0.4,0.2,0.5
					c0.1,0.2,0.2,0.3,0.1,0.5c0,0.3,0,0.5,0.2,0.6c0.1,0.1,0.1,0.1,0.2,0.1c0,0,0.1,0,0.1,0c0,0.1,0,0.1,0,0.2c0,0.2,0,0.3,0,0.5
					c0,0.8-0.1,1.3,1.1,2.4c0.2,0.2,0.4,0.4,0.6,0.5c0,0,0,0,0,0l-0.6,0.5L10.2,14c0-0.1-0.2-0.2-0.5,0c-0.4,0.2-0.6,0.3-0.6,0.7
					l-0.1,0.1c-0.1,0-0.7-0.1-1.5,0.3c-1.2,0.6-3.2,2.6-3.6,3.2c-0.1,0-0.3,0-0.5,0.4c0,0,0,0.1-0.1,0.1c-0.2,0.3-0.3,0.5-0.1,0.8
					c-0.1,0.2-0.2,0.3-0.4,0.5c-0.4,0.5-0.7,1-1.1,1.5c-0.4,0.5-1.2,1.9,0.2,3.4c1.2,1.3,5.7,4.2,6,4.4c0,0.2,0.1,0.3,0.2,0.3
					c-0.1,0.1-0.2,0.4,0,0.8C8,30.8,8.3,30.9,8.4,31c-0.1,0.2-0.3,0.7-0.3,2.5v0l5.8,0.2l8.1-0.2l0,0c0.1-1,0.1-1.8,0-2.4
					c0-0.1,0-0.2,0-0.3c0.3,0,0.5,0.1,0.6,0.1c0.2,0.1,0.4,0.2,0.4,0.4c0,0.2,0.1,1.7,0.1,1.7l0,0l0,0c0,0,0.3-0.1,0.6-0.5
					c0.2-0.3,0.8-1.3,0.4-2.3c-0.3-0.8-0.8-1.1-1.1-1.2c0,0-0.1,0-0.1-0.1l0,0c-0.2-0.1-0.7-0.4-1-0.8l0,0c0.1-0.5,0.1-0.8,0-1.1
					c0-0.1,0-0.3-0.1-0.4c0.2-0.2,0.3-0.4,0.3-0.5c0.1,0,0.5-0.1,1.3-0.3c0.5-0.2,1-0.6,1.3-0.9c0.3-0.3,0.5-0.5,0.6-0.6
					c0.5-0.1,0.9-0.4,1.1-0.8C26.8,23.3,26.9,22.9,26.8,22.4z M25.5,17.9C25.5,17.9,25.5,17.9,25.5,17.9c0.2,0.5,0.4,1.1,0.5,1.3
					c0,0,0,0,0,0c0,0,0,0,0,0c-0.3,0-1,0-2,0.2c-1.1,0.3-2,0.7-2.2,0.8c-0.1-0.1-0.5-0.6-1.1-0.9C22.1,18.4,24.2,18,25.5,17.9
					C25.4,17.9,25.4,17.9,25.5,17.9z M19.9,13.2l1.4,0.2c-0.1,0-0.1,0.1-0.2,0.1c-0.1,0.1-0.3,0.1-0.4,0.2c-0.1,0.1-0.3,0.2-0.4,0.3
					c-0.1,0.1-0.2,0.2-0.4,0.3c0.1-0.1,0.2-0.2,0.4-0.3c0.1-0.1,0.3-0.2,0.4-0.2c0.1-0.1,0.3-0.1,0.4-0.2c0.1-0.1,0.3-0.1,0.4-0.1
					c0,0,2,0,2.4,0.8c0.2,0.4,0.6,1.4,1,2.3c-0.1-0.1-0.2-0.2-0.3-0.3c-0.1-0.1-0.2-0.2-0.3-0.3c-0.1-0.1-0.2-0.2-0.4-0.3
					c0.1,0.1,0.2,0.2,0.4,0.3c0.1,0.1,0.2,0.2,0.3,0.3c0.1,0.1,0.2,0.2,0.3,0.3c0.1,0.1,0.2,0.3,0.2,0.4l0,0
					c0.1,0.3,0.2,0.6,0.3,0.8c-1.2,0.2-3.3,0.5-4.8,1.5c-0.4-0.2-1-0.3-1.7-0.3c0-0.3,0-0.6,0.2-0.8C19,18.1,19,18,19,18
					c0.2-0.5,0.4-0.8,0.2-1.5c0-0.2-0.1-0.3-0.2-0.5L19.9,13.2z M19.3,20.3L19.3,20.3c0,0-0.1,0-0.1,0l0-0.1c0-0.1,0-0.1-0.1-0.2
					c0,0,0.1,0,0.1,0c0,0,0.1,0,0.1,0c0,0,0,0,0,0c0,0,0,0,0,0C19.3,20.2,19.3,20.2,19.3,20.3L19.3,20.3z M19.1,20.4
					c0,0-0.1,0.1-0.2,0.1c0,0,0,0-0.1,0l-0.2-0.6c-0.1-0.3-0.5-0.5-0.8-0.4c-0.3,0.1-0.5,0.5-0.4,0.8l0.1,0.2c-0.1,0-0.2,0-0.3,0
					l-0.2-0.7c-0.2-0.4-0.5-0.8-0.9-1c0.4,0.1,0.9,0,1.6-0.1c0.5-0.1,0.8-0.3,1.1-0.4c-0.2,0.6,0,1.1,0.3,1.9L19.1,20.4z M18.8,20.6
					c-0.2,0.1-0.5,0-1,0c-0.1,0-0.1,0-0.2,0l-0.1-0.2c-0.1-0.3,0-0.6,0.3-0.7c0.3-0.1,0.6,0,0.7,0.3L18.8,20.6z M18,16.2
					c0-0.3-0.1-1.3-0.1-1.5c0.4,0,0.9,0.7,1.1,1.3l0,0l0,0c0.1,0.2,0.1,0.4,0.2,0.5c0.1,0.7,0,0.9-0.2,1.4c-0.3,0.3-0.7,0.5-1.4,0.7
					c-1.3,0.3-2,0.2-2.7-0.5c-0.1-0.2-0.3-0.4-0.4-0.7c-0.1-0.2-0.3-1.1,0.4-2.2c0.1-0.2,0.3-0.3,0.4-0.4c0.1,0,0.1,0,0.1-0.1
					c0,0.3,0.1,1.5,0.1,1.7c0,0.3,0.3,0.4,0.5,0.5c0.3,0.1,0.9,0.2,1.4,0C17.9,16.8,18.1,16.6,18,16.2z M18.8,13
					c0,0,0.1-0.2,0.5-0.1c0.4,0.1,0.5,0.2,0.5,0.2l-0.7,2.6c-0.2-0.4-0.4-0.7-0.7-1L18.8,13z M17.8,13c0.1,0,0.5-0.1,0.7,0
					c-0.1,0.2-0.3,0.5-0.5,0.7c-0.2,0.2-0.4,0.4-0.6,0.6l-0.1,0.1c0,0-0.1,0-0.1,0.1c-0.1,0-0.1,0.1-0.2,0.1
					c-0.1,0.1-0.2,0.2-0.4,0.2c-0.2,0.2-0.5,0.3-0.8,0.4c0.3-0.1,0.5-0.2,0.8-0.3c0.1-0.1,0.2-0.1,0.4-0.2c0.1,0,0.1-0.1,0.2-0.1
					c0,0,0.1,0,0.1-0.1l0.1-0.1c0.2-0.2,0.4-0.4,0.6-0.6c0.2-0.2,0.4-0.4,0.5-0.7l0.2,0l-0.4,1.7c-0.1-0.1-0.3-0.2-0.5-0.2l0,0l0,0
					c0,0,0.1,1.3,0.1,1.6c0,0.3-0.1,0.5-0.6,0.7c-0.5,0.2-1.1,0.1-1.3,0c-0.2-0.1-0.4-0.2-0.4-0.4c0-0.2-0.1-1.4-0.1-1.7
					C16.9,14.3,17.7,13.1,17.8,13z M17.8,11.1c0.1-0.3,0.1-0.5,0.1-0.7c0-0.2,0-0.4,0.1-0.8c0.1,0,0.4,0.1,0.6,0.1
					C18.3,10.6,17.9,10.9,17.8,11.1z M17.8,2.8C19,3.5,19,4.2,19,4.7l0,0.1c0,0.6,0,1.8,0,2.1c-1.2-1-1.7-1.2-1.8-1.3
					c0,0,0-0.1,0-0.3c0.1,0,0.1,0.1,0.2,0.1c0.1,0,0.2,0.1,0.2,0.1c0.1,0.1,0.3,0.2,0.4,0.3c0.3,0.2,0.6,0.4,0.8,0.7
					c-0.3-0.2-0.5-0.5-0.8-0.7c-0.1-0.1-0.3-0.2-0.4-0.3c-0.1-0.1-0.1-0.1-0.2-0.2c-0.1,0-0.1-0.1-0.2-0.1c0-0.2,0-0.4,0.1-0.7
					c0-0.1,0.1-0.3,0.1-0.4c0.1-0.4,0.2-0.7,0-1.1c-0.5-0.6-2.2-1.5-3.3-1.9C15.2,1.4,16.7,2.1,17.8,2.8z M17.1,6
					C17,6,16.9,5.9,16.8,5.8c0.1-0.1,0.2-0.1,0.3-0.1c0.1,0,0.5,0.2,1.6,1.1c0,0-0.1,0-0.1,0c-0.2,0-0.3,0-0.5,0.1
					C18.1,6.9,18,7,18,7.2c0,0.9-0.1,1.2-0.2,1.2h-0.1c0,0,0,0,0,0c0,0,0,0-0.1,0c0,0,0,0,0,0c-0.1-0.1-0.1-0.5-0.1-0.9
					c0-0.2,0-0.4,0-0.6C17.5,6.3,17.2,6.2,17.1,6z M15.9,6.2c-0.1-0.1-0.2-0.2-0.5-0.4c-0.7-0.5-1.7-1-2.3-1.2
					c2.3,0.2,3.6,0.9,3.9,1.1C16.9,5.7,16.3,6,15.9,6.2z M9.9,5.3c0-0.1-0.1-0.3-0.1-0.5C9.7,4.3,9.5,3.7,9.7,3.1
					c0-0.1,0.7-0.5,1.7-1.1c1-0.6,1.9-0.9,2.1-0.9c0.6,0,3.2,1.2,3.8,2c0.2,0.3,0.1,0.6,0,1c0,0.1-0.1,0.3-0.1,0.4
					c-0.1,0.6-0.1,0.9-0.1,1c0,0-0.1-0.1-0.2-0.1c0-0.2,0-0.4,0-0.6c0-0.2,0-0.4,0.1-0.6c0.1-0.2,0.1-0.4,0.2-0.6c0-0.1,0-0.2,0-0.3
					c0,0,0-0.1,0-0.1c0,0,0-0.1-0.1-0.1c0,0,0.1,0.1,0.1,0.1c0,0,0,0.1,0,0.1c0,0.1,0,0.2-0.1,0.3c-0.1,0.2-0.1,0.4-0.2,0.5
					c-0.1,0.2-0.1,0.4-0.1,0.6c0,0.2,0,0.3,0,0.5c-0.2-0.1-0.4-0.2-0.7-0.3c-0.7-0.3-1.8-0.6-3.5-0.6v0c0,0,0,0,0,0
					c-0.4,0-1.6,0.9-2.5,1.5c0-0.1,0.1-0.3,0.1-0.4c0-0.2,0-0.4-0.1-0.5c0-0.1-0.1-0.2-0.1-0.2c0-0.1-0.1-0.2-0.1-0.2
					C9.9,4.3,9.8,4.1,9.8,3.9c0,0.2,0.1,0.3,0.1,0.5c0,0.1,0,0.2,0.1,0.3c0,0.1,0.1,0.2,0.1,0.2c0.1,0.2,0.1,0.3,0.1,0.5
					c0,0.2-0.1,0.3-0.1,0.5l0,0C10,6,9.9,6,9.9,6.1c0,0,0,0,0,0C10,5.9,10,5.6,9.9,5.3z M9.8,6.7c-0.1,0.1-0.2,0.1-0.2,0
					c-0.1,0-0.1-0.1-0.1-0.2c0-0.1,0-0.1,0.1-0.1c0,0,0.1-0.1,0.2-0.1l0,0c0,0,0,0,0,0c0.1,0,0.1-0.1,0.2-0.1
					c0.7-0.5,2.3-1.6,2.7-1.6c0,0,0,0,0,0c0.5,0,1.7,0.6,2.7,1.3c0.5,0.3,0.5,0.4,0.5,0.4c0,0,0,0,0,0l0,0c0,0,0,0,0,0
					c-0.1,0-0.1,0-0.2,0c0,0-0.1,0-0.1-0.1c-0.6-0.3-2.3-1.4-2.9-1.3C11.9,4.9,9.9,6.6,9.8,6.7z M9.9,9.3C9.8,9.2,9.8,9.1,9.8,8.8
					c0-0.3-0.1-0.4-0.1-0.6C9.6,8.1,9.5,7.9,9.5,7.7c0-0.3-0.1-0.5,0.1-0.7c0.1-0.1,0.1-0.1,0.2-0.1c0.1,0.4,0.4,1.6,0.5,2.5
					C10.1,9.4,10,9.4,9.9,9.3z M11.4,12.5c-1.2-1-1.1-1.5-1.1-2.3c0-0.2,0-0.3,0-0.5c0-1-0.4-2.7-0.5-2.9C10.1,6.6,12,5,12.6,5
					c0.4,0,1.3,0.4,2.8,1.3c0.1,0,0.1,0.1,0.1,0.1c0.1,0.1,0.2,0,0.3,0c0,0,0.1,0,0.1,0C16,6.3,16,6.3,16,6.2c0,0,0,0,0,0
					c0.2-0.1,0.6-0.3,0.8-0.4C16.8,6,16.9,6,17,6.1c0.2,0.1,0.4,0.3,0.4,0.8c0,0.2,0,0.4,0,0.6c0,0.5,0,0.9,0.1,1c0,0,0.1,0,0.1,0
					c0,0,0.1,0,0.1,0c0,0,0,0,0.1,0h0.1c0.1,0,0.1-0.1,0.2-0.2c0,0,0.1,0,0.1,0.1c0,0.1,0,0.1,0,0.2c0,0.1,0,0.1,0,0.2
					c0,0.1-0.1,0.1-0.1,0.1c0.1,0,0.1-0.1,0.2-0.1c0-0.1,0.1-0.1,0.1-0.2c0,0,0-0.1,0-0.1l0.2-0.1l-0.2,0c0,0,0,0,0,0
					c0,0,0-0.1-0.1-0.1c0,0,0,0,0,0c0,0,0,0,0,0c0.1,0,0.1,0,0.1-0.1c0.1-0.1,0.1-0.2,0.2-0.3c0,0.1-0.1,0.2-0.2,0.2
					c0,0-0.1,0-0.1,0c0,0-0.1,0-0.1,0c0.1-0.3,0.1-0.7,0.1-0.9c0-0.1,0.1-0.2,0.2-0.2c0.1,0,0.2-0.1,0.4-0.1c0.2,0,0.3,0.1,0.4,0.2
					c0.2,0.2,0.1,0.6,0,0.8c-0.2,0.4-0.2,0.6-0.2,0.9c0,0.2,0,0.3-0.1,0.5c0,0.1-0.1,0.2-0.2,0.3c-0.2,0.1-0.6,0-0.6,0l0,0
					c0,0-0.1,0-0.1-0.1c0,0-0.1-0.1-0.1-0.2c0,0.1,0,0.1,0,0.2c0,0.1,0.1,0.1,0.1,0.1c-0.1,0.4-0.1,0.6-0.1,0.8c0,0.3,0,0.6-0.3,1.1
					c-0.3,0.6-0.6,0.9-0.9,1.2c-0.1,0.1-0.2,0.3-0.3,0.4c-0.5,0.6-1,0.8-2.2,0.8c-1.1,0-1.2-0.1-2-0.9
					C11.8,12.9,11.7,12.7,11.4,12.5z M12,13.2c0.8,0.7,0.9,0.8,2,0.8c1.3,0,1.8-0.2,2.3-0.8c0.1-0.2,0.2-0.3,0.3-0.4
					c0.1-0.1,0.2-0.2,0.3-0.3l0.8,0.5c-0.1,0.2-0.9,1.2-2.2,1.8l0,0c0,0-0.1,0-0.2,0.1C14.9,14.9,14.4,15,14,15
					c-0.7,0-1.6-0.1-2.2-0.7c-0.3-0.3-0.4-0.6-0.4-0.7L12,13.2z M10.2,14.1l0.6-0.2c0,0.1,0.1,0.2,0.1,0.3c0.1,0.1,0.1,0.2,0.2,0.4
					c0.2,0.2,0.4,0.4,0.6,0.6c0.1,0.1,0.2,0.1,0.4,0.2c0,0,0.1,0,0.1,0c0,0,0.1,0,0.1,0c0.1,0,0.1,0,0.2,0.1
					c0.3,0.1,0.5,0.1,0.8,0.1c-0.3,0-0.5-0.1-0.8-0.1c-0.1,0-0.1,0-0.2-0.1c0,0-0.1,0-0.1,0c0,0-0.1,0-0.1,0
					c-0.1-0.1-0.2-0.1-0.4-0.2c-0.2-0.2-0.4-0.4-0.6-0.6c-0.1-0.1-0.1-0.2-0.2-0.4c0-0.1-0.1-0.2-0.1-0.3l0.5-0.2
					c0,0.1,0.1,0.4,0.4,0.7c0.6,0.6,1.6,0.7,2.3,0.7c0.4,0,0.8-0.1,1.1-0.1c-0.1,0.1-0.1,0.2-0.2,0.3c-0.2,0.3-0.8,1.3-0.4,2.3
					c0.3,0.8,0.8,1.1,1.1,1.2c0,0,0.1,0,0.1,0.1l0,0c0.2,0.1,0.8,0.4,1,0.9c-0.3,0-1.7,0.2-3.5,0.2c-1.8,0-3.3,0-3.5,0
					c0-0.2,0.1-1.1,0.2-2.3c0-0.5,0.1-1,0.2-1.5C10.2,14.9,10.3,14.3,10.2,14.1z M9.1,14.7c0-0.3,0.2-0.5,0.6-0.6
					c0.4-0.1,0.4,0,0.4,0l0,0c0,0.2-0.1,1.1-0.2,1.9c-0.1,0.5-0.1,1-0.2,1.5c-0.1,1.4-0.2,2.4-0.2,2.4h0c0,0.4-0.1,0.8-0.1,1
					c0,0.1-0.1,0.3-0.3,0.3l-0.4,0c-0.1,0-0.3-0.1-0.3-0.3l0-0.6l0,0l0,0c0,0,0-1.1,0.1-2.4c0.1-0.8,0.2-1.7,0.3-2.4
					C9,15.1,9.1,14.8,9.1,14.7z M7.4,15.1c0.7-0.3,1.2-0.4,1.4-0.3c-0.1,0.1-0.2,0.1-0.3,0.2c-0.1,0.1-0.2,0.2-0.4,0.3
					c-0.1,0.1-0.2,0.2-0.3,0.3c-0.1,0.1-0.2,0.2-0.3,0.4c0.1-0.1,0.2-0.2,0.3-0.3c0.1-0.1,0.2-0.2,0.3-0.3c0.1-0.1,0.2-0.2,0.4-0.3
					c0.1-0.1,0.2-0.2,0.4-0.3L9,14.7c0,0.2-0.1,0.4-0.1,0.7c-0.1,0.7-0.2,1.6-0.3,2.4c-0.1,1.2-0.1,2.2-0.1,2.4
					c-0.1,0.1-0.6,1-0.8,1.5c-0.2,0.3-0.4,0.5-0.6,0.7c0,0-0.1,0.1-0.1,0.1C6.9,22,6.7,21.4,6.6,21c0,0,0,0,0,0
					c-0.1-0.3-0.2-0.5-0.3-0.6l0.2-1l0,0l0,0l0.2-1l-0.3,0.9l0,0l-0.3,1l0,0c0.1,0.1,0.1,0.3,0.2,0.5c-0.2-0.1-0.5-0.3-0.9-0.7
					C5,19.8,4.4,19.1,4,18.6c-0.1-0.1-0.2-0.2-0.2-0.3C4.2,17.7,6.2,15.7,7.4,15.1z M6.9,23.5c0.2,0.4,0.5,1.1,0.5,1.8
					c0,0.1,0,0.2,0,0.4c-0.1-0.1-0.5-0.5-1-1.3c-0.2-0.3-0.4-0.5-0.5-0.6c0.6-0.5,0.8-1,0.9-1.2c0,0,0,0,0.1,0c0,0,0,0.1,0,0.1
					c-0.1,0.1-0.2,0.2-0.2,0.3C6.7,23,6.8,23.2,6.9,23.5z M3.3,18.9c0,0,0-0.1,0.1-0.1c0.2-0.4,0.4-0.4,0.4-0.4
					c0.1,0.1,0.1,0.2,0.2,0.3c0.4,0.5,1,1.2,1.5,1.6c0.5,0.4,0.9,0.7,1,0.7c0.1,0.4,0.3,0.9,0.3,1.4c-1.9-1.2-3.2-2.4-3.6-2.8
					c-0.1,0-0.1-0.1-0.1-0.1C3,19.4,3,19.2,3.3,18.9z M1.8,24.9c-1.3-1.4-0.5-2.8-0.1-3.3c0.4-0.6,0.8-1,1.1-1.5
					C2.9,20,3,19.8,3.1,19.6c0,0,0,0,0.1,0.1c0.4,0.4,1.7,1.6,3.5,2.7c-0.1,0.1-0.3,0.7-0.8,1.2c-0.5-0.4-1-0.5-1-0.5v0
					c-0.2,0-0.4,0-0.6-0.1c-0.1,0-0.2,0-0.3,0c-0.1,0-0.2,0-0.3,0c0.1,0,0.2,0,0.3,0c0.1,0,0.2,0,0.3,0c0.2,0,0.4,0.1,0.6,0.1l0,0
					l0,0c0,0,0.2,0,0.5,0.2c0.3,0.1,0.7,0.4,1,1c0.7,1,1,1.4,1.1,1.4l0,0c0,0.4,0,0.7,0,0.9c0,0.3-0.1,0.6,0,1
					c0.1,0.4,0.2,0.9,0.2,1.3c0,0,0,0,0,0l0,0c0,0.2,0,0.3,0,0.4C7.1,28.9,2.9,26.1,1.8,24.9z M8,30.5c-0.1-0.4,0-0.6,0-0.7
					c0.2,0.1,0.4,0.1,0.6,0.1C8.8,30,9.1,30,9.3,30c0.4,0.1,0.9,0.1,1.3,0.1c0.9,0.1,1.7,0.1,2.6,0c0.9,0,1.7-0.1,2.6-0.1l1.3-0.1
					c0.4,0,0.9-0.1,1.3-0.1c-0.4,0-0.9,0.1-1.3,0.1L15.8,30c-0.9,0-1.7,0.1-2.6,0.1c-0.9,0-1.7,0-2.6-0.1c-0.4,0-0.9-0.1-1.3-0.1
					c-0.2,0-0.4-0.1-0.6-0.1c-0.2,0-0.4-0.1-0.6-0.2c0,0-0.1-0.1-0.2-0.3c0,0,0-0.2-0.1-0.5c0-0.1,0-0.2,0-0.3c0-0.1,0-0.2,0-0.3
					c0-0.1,0-0.2,0-0.3c0-0.1,0-0.2,0-0.3c0,0.1,0,0.2,0,0.3c0,0.1,0,0.2-0.1,0.3c0,0.1,0,0.2-0.1,0.3c0-0.3-0.1-0.7-0.2-1
					c-0.1-0.3-0.1-0.6,0-0.9c0-0.3,0.1-0.6,0-1.1c0-0.3,0.1-0.6,0.1-0.8c0-0.3,0.1-0.6,0.1-0.9c0,0.3,0,0.6-0.1,0.9
					c0,0.2-0.1,0.4-0.1,0.6c-0.1-0.8-0.4-1.4-0.6-1.8c-0.1-0.3-0.2-0.5-0.2-0.6c0-0.1,0.2-0.2,0.3-0.4c0.2-0.2,0.4-0.4,0.6-0.7
					c0.2-0.4,0.6-1.1,0.8-1.3l0,0.4c0,0.2,0.1,0.4,0.3,0.4l0.4,0c0,0,0,0,0,0c0.2,0,0.3-0.1,0.4-0.3c0-0.2,0-0.6,0.1-1
					c0.2,0,1,0,2.2,0c0.4,0,0.9,0,1.4,0c1.9,0,3.5-0.2,3.5-0.2c0,0.1,0.1,0.1,0.1,0.2l0,0.1c-0.3,0.1-0.8,0.4-1.2,0.6
					c0,0-0.1,0.1-0.1,0.1c0,0,0,0,0,0c-0.2,0.2-0.2,0.6-0.1,1c-0.5,0-4.2,0.3-5.2,0.3c-0.4,0-0.6,0.1-0.8,0.2
					c-0.2,0.2-0.1,0.5-0.1,0.7c0,0,0,0.1,0,0.1c0.1,0.4,0.5,3.9,0.6,4.6c0,0.4,0.1,1,0.6,1.5c0.4,0.4,1.2,0.6,2.1,0.6
					c0.2,0,0.5,0,0.8,0c3.2-0.3,4.6-0.8,4.5-1.6c0-0.3,0-0.6-0.1-0.7c0.1,0.1,0.1,0.1,0.2,0.2c0.2,0.2,0.5,0.3,0.9,0.3
					c0.2,0,0.4,0,0.7-0.1c0.3,0.8,0.4,1.3,0.1,1.8c0,0.1-0.1,0.1-0.1,0.2c-0.2,0.3-0.3,0.6-0.3,0.9C17,31,10.9,31.1,8.7,30.9l-0.2,0
					C8.5,30.9,8.1,30.9,8,30.5z M16.2,24.3c0.1,0.4,0.3,0.6,0.5,0.8c0.1,0,0.1,0.1,0.2,0.1c-0.1,0.1,0,0.4,0.1,0.8
					c0.1,0.4,0.3,0.6,0.5,0.8c0.1,0.1,0.2,0.1,0.3,0.1c0,0.1,0,0.2,0.1,0.4c0,0,0.1,0.5,0.1,0.9c0,0.8-1.4,1.2-4.4,1.5
					c-1.3,0.1-2.3-0.1-2.8-0.5c-0.5-0.5-0.6-1.1-0.6-1.4c0-0.7-0.4-3.3-0.5-4.3l6.2-0.5c0.1,0.2,0.3,0.3,0.4,0.3
					C16.1,23.4,16,23.7,16.2,24.3z M9.5,23.4c0-0.1,0-0.2,0-0.3c0,0,0-0.1,0-0.1c0-0.2-0.1-0.4,0-0.6c0.1-0.1,0.3-0.2,0.7-0.2
					c1,0,4.8-0.2,5.3-0.3c0,0.2,0.1,0.3,0.1,0.5c0,0.2,0.1,0.4,0.2,0.5L9.5,23.4z M22,33.4l-8.1,0.2l-5.7-0.2c0-2.1,0.2-2.4,0.3-2.5
					c0.8,0.1,2.3,0.1,4.1,0.1c2.5,0,5.4-0.1,6.8-0.3c0,0.2,0,0.3,0.1,0.5c0.2,0.7,0.8,1.9,1.4,1.9l0,0l0,0c0,0-0.1-1.3-0.1-1.6
					c0-0.3,0.1-0.5,0.6-0.7c0.2-0.1,0.4-0.1,0.7-0.1c0,0.1,0,0.2,0,0.3C22.1,31.7,22.2,32.5,22,33.4z M23.8,29.7
					c0.1,0.2,0.3,0.4,0.4,0.7c0.1,0.2,0.3,1.1-0.4,2.2c-0.2,0.3-0.4,0.4-0.5,0.4c0-0.3-0.1-1.5-0.1-1.7c0-0.3-0.3-0.4-0.5-0.5
					c-0.3-0.1-0.9-0.2-1.4,0c-0.4,0.2-0.6,0.4-0.6,0.8c0,0.3,0.1,1.3,0.1,1.5c-0.6-0.1-1.2-1.1-1.3-1.8c-0.1-0.7,0-0.9,0.2-1.4
					c0.3-0.3,0.7-0.5,1.4-0.7C22.4,28.9,23.1,29,23.8,29.7z M22.6,28.9c-0.4-0.1-0.9,0-1.6,0.1c-0.5,0.1-0.8,0.3-1.1,0.4
					c0.2-0.5,0.1-1-0.2-1.6c0.1,0,0.2,0,0.3-0.1l0.1,0.1c0.1,0.3,0.5,0.5,0.8,0.4c0.3-0.1,0.5-0.5,0.4-0.8l0-0.1
					c0.1,0,0.2-0.1,0.3-0.1l0.3,0.7C21.9,28.4,22.3,28.7,22.6,28.9z M20.1,27.7c0.2-0.1,0.5-0.1,0.8-0.3c0.1,0,0.1-0.1,0.2-0.1
					l0,0.1c0.1,0.3,0,0.6-0.3,0.7c-0.3,0.1-0.6,0-0.7-0.3L20.1,27.7z M22,28.2c-0.1-0.1-0.1-0.2-0.2-0.3l-0.3-0.7
					c0.2-0.1,0.3-0.2,0.4-0.3c0,0.1,0,0.2,0,0.3C22.1,27.5,22.2,27.8,22,28.2z M25.6,24.4c0,0,0.1-0.1,0.1-0.1
					c0-0.1,0.1-0.2,0.1-0.3c0-0.1,0.1-0.2,0.1-0.3c0-0.1,0.1-0.2,0.1-0.3c0,0.1-0.1,0.2-0.1,0.3c0,0.1-0.1,0.2-0.1,0.3
					c0,0.1-0.1,0.2-0.1,0.2c-0.1,0.1-0.1,0.1-0.2,0.2l0,0l0,0c0,0-1,1.1-1.9,1.4c-0.7,0.3-1.1,0.3-1.2,0.3c0-0.2,0.1-0.4,0.1-0.6
					c0-0.2,0.1-0.4,0.1-0.6c-0.1,0.2-0.1,0.4-0.2,0.6c-0.1,0.2-0.1,0.4-0.2,0.6l0,0c0,0-0.2,0.7-1.4,1.1c-1.4,0.5-2.3,0.5-2.7,0.2
					c-0.4-0.3-0.4-0.6-0.4-0.7c0.1,0,0.2,0,0.3,0c0.1,0,0.2,0,0.3,0c0.1,0,0.2,0,0.3-0.1c0.1,0,0.2-0.1,0.3-0.1
					c-0.1,0-0.2,0.1-0.3,0.1c-0.1,0-0.2,0-0.3,0c-0.1,0-0.2,0-0.3,0c-0.1,0-0.2,0-0.3,0c0,0-0.6-0.1-0.8-0.9c-0.2-0.7,0-0.7,0-0.8
					c0.2,0,0.5,0,0.7,0c0.2,0,0.5-0.1,0.7-0.1c-0.2,0-0.5,0.1-0.7,0.1c-0.2,0-0.5,0-0.7,0l0,0l0,0c0,0,0,0,0,0c0,0-0.5,0.1-0.7-0.8
					c-0.2-0.7,0-0.9,0-1c0.3,0.1,0.6,0.1,0.8,0.1c0.3,0,0.6,0,0.8-0.1c-0.3,0.1-0.6,0.1-0.8,0.1c-0.2,0-0.5,0-0.7-0.1l0,0l-0.1,0
					c0,0-0.1,0-0.2-0.1c-0.1-0.1-0.3-0.3-0.3-0.8c-0.1-0.8-0.2-1.3,0-1.5c0,0,0.1-0.1,0.1-0.1c0,0,0.1,0,0.1,0
					c0.3-0.2,0.8-0.5,1.1-0.6l0.1,0.4c-0.3,0-0.5,0-0.5,0l0,0l0,0c0,0,0,0,0,0c0,0,0,0,0,0c0,0,0,0,0,0c0,0,0,0,0-0.1c0,0,0,0,0,0
					c0,0,0,0-0.1,0c0,0,0,0-0.1,0.1c0,0,0,0,0,0c0,0,0,0,0,0.1c0,0,0.1,0,0.1,0v0c0,0,0.6,0,1.2,0.1c0.2,0,0.4,0,0.6,0
					c0.3,0,0.5,0,0.6-0.1c0.2-0.2,0.3-0.3,0.3-0.3l0,0l0,0c0,0,0,0,0,0l0,0c0,0,0.1-0.1,0.1-0.1c0,0,0-0.1,0-0.1c0,0,0,0-0.1,0
					c0,0-0.1,0-0.1,0c0,0-0.1,0-0.1,0c-0.1-0.4-0.2-0.7-0.2-0.9c2-0.1,2.9,1.2,2.9,1.3c0.1,0.1,0.1,0.2,0.2,0.4
					c0.1,0.1,0.1,0.3,0.2,0.4c0.1,0.3,0.2,0.5,0.3,0.8c-0.1-0.3-0.2-0.5-0.3-0.8c0,0,0-0.1,0-0.1c0.3-0.1,0.5-0.1,0.8-0.1
					c0.3,0,0.6,0,0.9,0c0.3,0,0.6,0.1,0.8,0.2c0.3,0.1,0.5,0.2,0.8,0.4c-0.2-0.2-0.5-0.3-0.8-0.4c-0.3-0.1-0.6-0.2-0.8-0.2
					c-0.3,0-0.6-0.1-0.9-0.1c-0.3,0-0.6,0-0.8,0.1c0-0.1-0.1-0.2-0.1-0.2c-0.1-0.1-0.1-0.2-0.2-0.4c0.2-0.1,1.1-0.5,2.2-0.8
					c0.7-0.2,1.3-0.2,1.7-0.2c0.1,0.2,0.9,2.4,1.1,3.1C26.9,23.6,26.3,24.2,25.6,24.4z"/>
				<path class="st0" d="M12,8.7c0,0,0.1,0,0.1,0c0.2,0,0.3,0,0.5,0c-0.1,0-0.1-0.1-0.2-0.1l0,0c0-0.3,0.1-0.7-0.4-0.8
					c-0.5-0.1-0.9,0.1-1.1,0.3c-0.2,0.2,0,0.9,0,1c0,0-0.1,0-0.1,0.1C10.9,9.1,11,9,11.2,9c0.2-0.1,0.3-0.1,0.5-0.2l0.2-0.1
					C11.9,8.7,12,8.7,12,8.7z M11.8,8.3c0-0.1,0-0.1,0.1-0.1c-0.1-0.1-0.1-0.1-0.2-0.1c-0.2,0-0.3,0.1-0.3,0.3
					c0,0.2,0.1,0.3,0.2,0.3c-0.1,0.1-0.3,0.1-0.4,0.2C11.1,8.9,11,9,10.9,9c-0.1-0.2-0.2-0.7,0-0.9c0.2-0.2,0.6-0.4,1.1-0.3
					c0.4,0.1,0.3,0.5,0.3,0.7l0,0c-0.1,0-0.1,0-0.2,0c0,0-0.1,0-0.1,0c0,0,0,0,0,0c0-0.1,0.1-0.1,0.1-0.2c0,0,0,0,0,0
					c0,0-0.1,0-0.1,0C11.8,8.4,11.8,8.4,11.8,8.3z"/>
				<path class="st0" d="M16.4,7.8c-0.3-0.2-0.7-0.4-1.3-0.3c-0.5,0.1-0.5,0.7-0.4,1l0,0c-0.1,0-0.1,0.1-0.1,0.1
					c-0.1,0-0.1,0.1-0.2,0.1c0.1,0,0.1,0,0.2-0.1c0.1,0,0.1,0,0.2-0.1c0.1,0,0.2,0,0.3,0c0.1,0,0.1,0,0.2,0l0.2,0l0.3,0.1
					c0.2,0.1,0.5,0.1,0.7,0.2c0.2,0,0.5,0.1,0.7,0.1c-0.2-0.1-0.3-0.1-0.5-0.2C16.6,8.7,16.7,8,16.4,7.8z M16.5,8.9
					C16.4,8.9,16.4,8.9,16.5,8.9c-0.3-0.1-0.5-0.1-0.7-0.2l-0.1,0c0.2,0,0.3-0.2,0.3-0.4c0,0,0,0,0-0.1c0,0-0.1,0.1-0.1,0.1
					c-0.1,0-0.1-0.1-0.1-0.1c0-0.1,0.1-0.1,0.1-0.1c-0.1-0.1-0.2-0.1-0.3-0.1c-0.2,0-0.4,0.2-0.4,0.4c0,0.1,0.1,0.2,0.2,0.3l-0.1,0
					c-0.1,0-0.1,0-0.2,0c-0.1,0-0.2,0-0.3,0l0,0c0-0.3-0.1-0.8,0.3-0.9c0.6-0.1,1,0,1.2,0.2C16.5,8,16.5,8.6,16.5,8.9z"/>
				<path class="st0" d="M12.5,9.4C12.5,9.4,12.5,9.4,12.5,9.4c-0.1,0.1-0.1,0.2-0.2,0.2c-0.1,0.1-0.1,0.3-0.1,0.4
					c0,0.1,0.1,0.3,0.2,0.4c0.1,0.1,0.2,0.2,0.3,0.2c0.3,0.1,0.5,0,0.7-0.2c-0.2,0.2-0.5,0.2-0.7,0.1c-0.2-0.1-0.4-0.3-0.4-0.5
					c0-0.2,0.1-0.5,0.3-0.6c0,0,0.1,0,0.1-0.1c0,0,0,0,0,0c0.1,0,0.1,0,0.2,0c0.1,0,0.2,0,0.4,0.1c-0.1-0.1-0.2-0.1-0.4-0.1
					c0,0-0.1,0-0.1,0C12.9,9,13,8.8,13,8.6c0-0.3,0-0.5,0-0.8c0,0.3,0,0.5,0,0.8c0,0.2-0.2,0.5-0.3,0.7C12.7,9.3,12.6,9.3,12.5,9.4
					C12.6,9.3,12.6,9.3,12.5,9.4C12.5,9.3,12.5,9.3,12.5,9.4z"/>
				<path class="st0" d="M14.3,7c0,0.1,0.1,0.2,0.2,0.2C14.8,7.1,15.3,7,15.7,7c0.5,0,1,0.2,1.2,0.2c0,0,0.1,0,0-0.1
					c-0.7-0.8-1.7-0.7-1.7-0.7l0.2-0.1c-0.5-0.1-0.8,0-1,0.1c-0.1,0.1-0.2,0.2-0.2,0.4L14.3,7z"/>
				<path class="st0" d="M12.1,7.3c0.1,0,0.1-0.1,0.1-0.2l0-0.1c0-0.1-0.1-0.2-0.2-0.3c-0.2,0-0.5,0-0.8,0.1l0.1,0
					c0,0-0.8,0.1-1.2,0.9c0,0,0,0.1,0,0c0.1-0.1,0.6-0.3,0.9-0.4C11.5,7.3,11.9,7.3,12.1,7.3z"/>
				<path class="st0" d="M14.2,12.8c-0.1,0-0.3,0-0.4,0.1c-0.1,0-0.2,0.1-0.3,0.2c0.1-0.1,0.2-0.1,0.4-0.1
					C14,12.9,14.1,12.8,14.2,12.8c0.1,0.1,0.2,0.1,0.4,0.1c0.1,0,0.1,0,0.2,0c0.1,0,0.1,0,0.2,0.1c-0.1-0.1-0.2-0.1-0.3-0.2
					C14.5,12.8,14.4,12.8,14.2,12.8z"/>
			</g>
		</g>
	</g>
	<g>
		<path class="st11" d="M20.9,29c-0.7,0.2-1.1,0.4-1.4,0.7c-0.2,0.5-0.4,0.8-0.2,1.4c0.2,0.7,0.8,1.7,1.3,1.8c0-0.2-0.1-1.3-0.1-1.5
			c0-0.4,0.2-0.6,0.6-0.8c0.5-0.2,1.1-0.1,1.4,0c0.2,0.1,0.4,0.2,0.5,0.5c0,0.2,0.1,1.4,0.1,1.7c0.1,0,0.3-0.1,0.5-0.4
			c0.7-1.1,0.5-2,0.4-2.2c-0.1-0.3-0.2-0.5-0.4-0.7C22.9,28.9,22.2,28.7,20.9,29z"/>
		<path class="st0" d="M20.7,28c-0.3,0.1-0.6,0-0.7-0.3l-0.1,0C20,28,20.4,28.2,20.7,28c0.3,0,0.5-0.4,0.4-0.7l-0.1,0
			C21.1,27.6,21,27.9,20.7,28z"/>
		<path class="st11" d="M21.6,27.7l-0.2-0.5l-0.3,0.1c0.1,0.3-0.1,0.6-0.4,0.8c-0.3,0.1-0.7-0.1-0.8-0.4l-0.3,0.1
			c0.2,0.6,0.3,1,0.1,1.5c0.3-0.2,0.6-0.3,1.1-0.4c0.7-0.2,1.2-0.2,1.6-0.1C22.1,28.5,21.8,28.2,21.6,27.7z"/>
		<path class="st11" d="M20,27.7c0.1,0.3,0.4,0.4,0.7,0.3c0.3-0.1,0.4-0.4,0.3-0.6L20,27.7z"/>
		<path class="st0" d="M20.7,33.1L20.7,33.1L20.7,33.1c0-0.1-0.1-1.3-0.1-1.6c0-0.3,0.1-0.5,0.6-0.7c0.2-0.1,0.4-0.1,0.7-0.1l0.1,0
			c0.3,0,0.5,0.1,0.6,0.1c0.2,0.1,0.4,0.2,0.4,0.4c0,0.2,0.1,1.7,0.1,1.7l0,0l0,0c0,0,0.3-0.1,0.6-0.5c0.2-0.3,0.8-1.3,0.4-2.3
			c-0.3-0.8-0.8-1.1-1.1-1.2c0,0-0.1,0-0.1-0.1l0,0c-0.2-0.1-0.7-0.4-1-0.8c0,0,0,0,0-0.1c-0.1-0.1-0.1-0.2-0.2-0.3l-0.2-0.5l0,0
			l0,0l0.2,0.5c0.2,0.4,0.5,0.8,0.9,1c-0.4-0.1-0.9,0-1.6,0.1c-0.5,0.1-0.8,0.3-1.1,0.4c0.1-0.4,0.1-0.9-0.1-1.5l-0.1,0
			c0.2,0.7,0.3,1.1,0,1.7c0,0.1-0.1,0.1-0.1,0.2c-0.2,0.3-0.3,0.6-0.3,0.9l0,0.1c0,0.2,0,0.3,0.1,0.5C19.4,31.9,20.1,33,20.7,33.1z
			 M19.6,29.7c0.3-0.3,0.7-0.5,1.4-0.7c1.3-0.3,2-0.2,2.7,0.5c0.1,0.2,0.3,0.4,0.4,0.7c0.1,0.2,0.3,1.1-0.4,2.2
			c-0.2,0.3-0.4,0.4-0.5,0.4c0-0.3-0.1-1.5-0.1-1.7c0-0.3-0.3-0.4-0.5-0.5c-0.3-0.1-0.9-0.2-1.4,0c-0.4,0.2-0.6,0.4-0.6,0.8
			c0,0.3,0.1,1.3,0.1,1.5c-0.6-0.1-1.2-1.1-1.3-1.8C19.2,30.5,19.3,30.2,19.6,29.7z"/>
	</g>
</g>
<g>
	<g>
		<text transform="matrix(1 0 0 1 30.2837 18.6278)" class="st4 st14 st15">PLUMB</text>
	</g>
	<g>
		<text transform="matrix(1 0 0 1 30.5942 29.62)" class="st9 st14 st16 st17">STARS</text>
	</g>
</g>
</svg>
