<svg xmlns="http://www.w3.org/2000/svg" viewBox="0 0 97.41 97.41"><defs><style>.cls-1{isolation:isolate;}.cls-2{fill:#8c9df4;}.cls-3{fill:#9cbcc2;}.cls-4{fill:#dde7e7;}.cls-5{fill:#cad7d8;}.cls-5,.cls-7,.cls-9{mix-blend-mode:multiply;}.cls-6{fill:#f86a6f;}.cls-7{fill:#debfac;}.cls-8{fill:#b9d0d2;}.cls-9{fill:#c6c2c7;}</style></defs><title>Asset 8</title><g class="cls-1"><g id="Layer_2" data-name="Layer 2"><g id="Layer_1-2" data-name="Layer 1"><path class="cls-2" d="M97.41,48.71A48.71,48.71,0,1,1,48.71,0,48.7,48.7,0,0,1,97.41,48.71Z"/><rect class="cls-3" x="48.97" y="29.7" width="6.81" height="8.08"/><path class="cls-3" d="M76.12,43.32v9.46H40.45a9.69,9.69,0,0,0-9.65,9.65H21.34A19.12,19.12,0,0,1,40.45,43.32Z"/><rect class="cls-3" x="60.52" y="41.11" width="16.81" height="14.06"/><path class="cls-4" d="M65.1,48.14A12.73,12.73,0,1,1,52.37,35.41,12.72,12.72,0,0,1,65.1,48.14Z"/><path class="cls-5" d="M60.65,48.14a8.28,8.28,0,1,1-8.28-8.28A8.28,8.28,0,0,1,60.65,48.14Z"/><path class="cls-6" d="M67.57,29.7A3.55,3.55,0,0,1,61,31.48H55.44a3.54,3.54,0,0,1-6.13,0h-5.5a3.56,3.56,0,1,1,0-3.55h5.47a3.58,3.58,0,0,1,3.09-1.79,3.54,3.54,0,0,1,3.07,1.79h5.49a3.55,3.55,0,0,1,6.63,1.77Z"/><path class="cls-7" d="M67.57,29.7A3.55,3.55,0,0,1,61,31.48H55.44a3.54,3.54,0,0,1-6.13,0h-5.5a3.56,3.56,0,0,1-6.63-1.78,3.3,3.3,0,0,1,.25-1.29,2.48,2.48,0,0,0,.36,1.29A2.62,2.62,0,0,0,40,31,2.73,2.73,0,0,0,42.4,29.7h7.33A2.62,2.62,0,0,0,52,31a2.73,2.73,0,0,0,2.36-1.33h7.14A2.64,2.64,0,0,0,63.73,31a2.71,2.71,0,0,0,2.36-1.33,2.68,2.68,0,0,0,.36-1.29,2.73,2.73,0,0,0-.66-1.8A3.58,3.58,0,0,1,67.57,29.7Z"/><rect class="cls-8" x="20.48" y="62.43" width="11.25" height="5.54"/><rect class="cls-8" x="70.19" y="39.75" width="7.14" height="16.78"/><rect class="cls-5" x="71.32" y="39.75" width="0.73" height="16.78"/><rect class="cls-5" x="72.66" y="39.75" width="0.73" height="16.78"/><rect class="cls-5" x="73.99" y="39.75" width="0.73" height="16.78"/><rect class="cls-5" x="75.33" y="39.75" width="0.73" height="16.78"/><path class="cls-5" d="M55.79,31.48v4.38a12.83,12.83,0,0,0-6.81,0V31.48h.34A3.58,3.58,0,0,0,51.1,33h0a3.25,3.25,0,0,0,1.28.25A3.3,3.3,0,0,0,53.68,33h0a3.56,3.56,0,0,0,1.77-1.52Z"/><path class="cls-5" d="M70.2,41.1V55.16H63a12,12,0,0,0,1.23-2.39,12.32,12.32,0,0,0,.88-4.64,12.52,12.52,0,0,0-1-4.82A12.25,12.25,0,0,0,63,41.1h2.86a14.34,14.34,0,0,1,.93,2.21,14.85,14.85,0,0,1,.79,4.82l.93-4.82.43-2.21Z"/><path class="cls-5" d="M40.54,52.77h-.08a9.25,9.25,0,0,0-2.43.32,9.7,9.7,0,0,0-7.22,9.33h.93V68H28.28a7.28,7.28,0,0,1,0-1v-4.6H27.24a3.93,3.93,0,0,1,0-.49A12.6,12.6,0,0,1,37.27,49.6a13,13,0,0,1,2.44-.25A12.5,12.5,0,0,0,40.54,52.77Z"/><path class="cls-9" d="M96.65,57.31A48.71,48.71,0,0,1,49.89,97.39L20.48,68H31.74V62.42h-.93A9.9,9.9,0,0,1,31,60.78c0-.25.1-.51.16-.75a0,0,0,0,0,0,0c.07-.26.15-.52.24-.77a6.52,6.52,0,0,1,.29-.73c.1-.22.21-.44.32-.65a9.76,9.76,0,0,1,3.1-3.41,3,3,0,0,1,.38-.24,10.36,10.36,0,0,1,1.09-.59c.18-.08.37-.16.57-.23h0c.15,0,.3-.11.45-.15l.43-.13h0c.31-.08.62-.15.94-.2l.48-.06.49,0h.56A12.74,12.74,0,0,0,63,55.17h7.19v1.36h7.14V39.75H70.18V41.1H63a12.81,12.81,0,0,0-7.22-5.24h0V31.48h5.15a3.55,3.55,0,0,0,6.62-1.78c0-.13,0-.27,0-.4l0-.19a1.87,1.87,0,0,0-.08-.34s0,0,0,0a3.12,3.12,0,0,0-.15-.43A2.31,2.31,0,0,0,67.1,28a.82.82,0,0,0-.12-.2c0-.09-.12-.18-.18-.27l-.17-.19Z"/><path class="cls-9" d="M49,31.48v4.4a12.55,12.55,0,0,0-4.64,2.41l-5.85-5.85a3.55,3.55,0,0,0,5.33-1Z"/></g></g></g></svg>