<svg xmlns="http://www.w3.org/2000/svg" viewBox="0 0 97.41 97.41"><defs><style>.cls-1{isolation:isolate;}.cls-2{fill:#ff9e55;}.cls-3{fill:#f2f2f2;}.cls-4{fill:#cad7d8;}.cls-4,.cls-7,.cls-9{mix-blend-mode:multiply;}.cls-5{fill:#e3e3e3;}.cls-6{fill:#3dafc8;}.cls-7{fill:#bbd4d6;}.cls-8{fill:#ccc;}.cls-9{fill:#dbd2bf;}</style></defs><title>Asset 6</title><g class="cls-1"><g id="Layer_2" data-name="Layer 2"><g id="Layer_1-2" data-name="Layer 1"><path class="cls-2" d="M97.41,48.71A48.71,48.71,0,1,1,48.71,0,48.7,48.7,0,0,1,97.41,48.71Z"/><path class="cls-3" d="M55.58,73a5.83,5.83,0,0,0,1.63,4l0,0a10.19,10.19,0,0,1,1,1A11.43,11.43,0,0,1,61,85.51H38.12A11.41,11.41,0,0,1,40.91,78a10.9,10.9,0,0,1,1-1l0,0a5.59,5.59,0,0,0,1.66-4,6.05,6.05,0,0,0-2.1-4.58,16.2,16.2,0,0,1-1.53-1,16.66,16.66,0,0,1-7.1-13.68h33.4a16.66,16.66,0,0,1-7.17,13.73c-.44.3-.9.59-1.37.86A6,6,0,0,0,55.58,73Z"/><path class="cls-4" d="M55.58,73a5.83,5.83,0,0,0,1.63,4l0,0a10.19,10.19,0,0,1,1,1A11.38,11.38,0,0,1,61,85.51H55.15a10.75,10.75,0,0,0-.89-6.63c-1-1.82-3.15-3.53-3.15-5.71a7.24,7.24,0,0,1,1.71-5c2.45-3.65,4.69-7.94,3-12.31H33a16.38,16.38,0,0,1-.13-2.11H66.29a16.66,16.66,0,0,1-7.18,13.73c-.44.3-.9.59-1.37.86A6,6,0,0,0,55.58,73Z"/><path class="cls-3" d="M64.42,22.26l-2,27.3H36.51l-1.78-27.3a1.7,1.7,0,0,1,1.7-1.7h26.3A1.69,1.69,0,0,1,64.42,22.26Z"/><path class="cls-5" d="M68.75,51.85a2.27,2.27,0,0,1-.67,1.62,2.31,2.31,0,0,1-1.61.66H32.69a2.29,2.29,0,0,1,0-4.57H66.47A2.28,2.28,0,0,1,68.75,51.85Z"/><path class="cls-6" d="M66.07,31.23c0,8.85-4.51,15.11-10.82,17.43v.9H43.91v-.9c-6.32-2.33-10.82-8.59-10.82-17.43a22.47,22.47,0,0,1,6.55-16.34h0a.65.65,0,0,1,.11-.12l.17-.16a3.15,3.15,0,0,1,4.24,4.65,2.73,2.73,0,0,1-.25.23,16.38,16.38,0,0,0-4.55,11.74c0,7.26,4.11,12.13,10.21,12.13s10.21-4.87,10.21-12.13a16.49,16.49,0,0,0-4.42-11.62,7.55,7.55,0,0,0-.59-.54h0A3.18,3.18,0,0,1,59,14.39c.26.21.5.44.75.68A22.54,22.54,0,0,1,66.07,31.23Z"/><path class="cls-4" d="M59.79,31.23c0,7.26-4.11,12.13-10.21,12.13S39.37,38.49,39.37,31.23a16.93,16.93,0,0,1,3.55-10.67h1.21a17.56,17.56,0,0,0-2.89,9.88c0,6.72,3.27,11.06,8.34,11.06s8.34-4.34,8.34-11.06A17.31,17.31,0,0,0,55,20.56h1.2A17,17,0,0,1,59.79,31.23Z"/><path class="cls-7" d="M44.65,48.83v-.69L44.17,48c-6.47-2.38-10.34-8.63-10.34-16.73a21.71,21.71,0,0,1,6.11-15.6h0l.19-.2.24-.22h0a.08.08,0,0,1,0,0,2.38,2.38,0,0,1,1.51-.54A2.41,2.41,0,0,1,44.34,17a2.46,2.46,0,0,1-.7,1.71l-.19.17a17.08,17.08,0,0,0-4.82,12.31c0,7.7,4.41,12.87,10.95,12.87s11-5.17,11-12.87a17.24,17.24,0,0,0-4.64-12.15c-.16-.16-.35-.34-.58-.53a2.44,2.44,0,0,1,1.92-3.94,2.31,2.31,0,0,1,1.33.4,8.09,8.09,0,0,1,.64.59,21.72,21.72,0,0,1,6.13,15.63c0,8.1-3.86,14.36-10.33,16.73l-.49.18v.69Z"/><rect class="cls-8" x="46.87" y="19.18" width="5.42" height="1.38"/><path class="cls-9" d="M97.26,52.62A48.71,48.71,0,0,1,50,97.39L38.11,85.51H61a11.37,11.37,0,0,0-.2-2.12,9.32,9.32,0,0,0-.39-1.49A11.32,11.32,0,0,0,58.21,78a8.33,8.33,0,0,0-1-1l0,0a5.82,5.82,0,0,1-1.62-4,6,6,0,0,1,2.16-4.62c.46-.27.92-.56,1.36-.86a16.61,16.61,0,0,0,7.17-13.39h.19a2.35,2.35,0,0,0,1.62-.66,2.32,2.32,0,0,0,.67-1.62,2.29,2.29,0,0,0-2.29-2.29H62.4l.52-7a20.29,20.29,0,0,0,3.14-11.31,24.62,24.62,0,0,0-1.64-8.93v0A1.64,1.64,0,0,0,63.87,21a19.91,19.91,0,0,0-4.16-5.95Z"/></g></g></g></svg>