<svg xmlns="http://www.w3.org/2000/svg" viewBox="0 0 97.41 97.41"><defs><style>.cls-1{isolation:isolate;}.cls-2{fill:#8c9df4;}.cls-3{fill:#f86a6f;}.cls-4{fill:#fff;}.cls-5{fill:#d1dddd;}.cls-6{fill:#819094;}.cls-7{fill:#56afc4;}.cls-8{fill:#604a3e;}.cls-9{fill:#916f5d;}.cls-10{fill:#7a5e4f;}.cls-11{fill:#cce312;}.cls-12{fill:#cad7d8;}.cls-12,.cls-13,.cls-14{mix-blend-mode:multiply;}.cls-13{fill:#dec8ae;}.cls-14{fill:#d2d6d7;}</style></defs><title>Asset 7</title><g class="cls-1"><g id="Layer_2" data-name="Layer 2"><g id="Layer_1-2" data-name="Layer 1"><path class="cls-2" d="M97.41,48.71A48.71,48.71,0,1,1,48.71,0,48.7,48.7,0,0,1,97.41,48.71Z"/><path class="cls-3" d="M64.88,39.12V78.47a1.35,1.35,0,0,1-1.36,1.35H35.93a1.36,1.36,0,0,1-1.35-1.35V39.12a1.34,1.34,0,0,1,.51-1.06l7.63-10.77v-4.1H56.79v4.1l7.69,10.86A1.36,1.36,0,0,1,64.88,39.12Z"/><rect class="cls-4" x="41.8" y="17.6" width="15.87" height="5.59"/><rect class="cls-4" x="37.13" y="43.34" width="25.08" height="30.47"/><path class="cls-5" d="M59.4,57.11V70.39H54.24V57.11a.76.76,0,0,0-1.51,0v8.28a5.91,5.91,0,1,1-11.82,0V50.33H40.5V48.45h-.56V45.84h7v2.61h-.59v1.88h-.32V65.39a.75.75,0,0,0,1.5,0V57.11a5.92,5.92,0,1,1,11.83,0Z"/><path class="cls-6" d="M58.63,57.11V70.39H55V57.11a1.53,1.53,0,1,0-3,0v8.28a5.14,5.14,0,1,1-10.28,0V49.56h-.4V47.68h-.57V45.84h5.5v1.84h-.59v1.88h-.33V65.39a1.53,1.53,0,0,0,3.06,0V57.11a5.14,5.14,0,0,1,10.28,0Z"/><path class="cls-7" d="M58.63,57.11V70.39H55V57.11a1.53,1.53,0,1,0-3,0v8.28a5.14,5.14,0,1,1-10.28,0V50.61c1.74-.81,2.45.29,3.61.13V65.39a1.53,1.53,0,0,0,3.06,0V57.11a5.14,5.14,0,0,1,10.28,0Z"/><path class="cls-8" d="M52,60.26v2a1.74,1.74,0,0,0-1.06-.9l-.08,0-.06-.12c-.18-.4-.16-.29,0-.59.06-.13.19-.08.24-.3a.5.5,0,0,0,0-.3c.26-.1.59-.28.78-.15S51.9,60.11,52,60.26Z"/><path class="cls-9" d="M52,62.41v3a6.25,6.25,0,0,1-.07.87c-.63-.11-1.26-.42-1.34-.89.36.12.54.44.73,0s-.43-1.67-.84-2.21l.05,0A3.29,3.29,0,0,1,52,62.41Z"/><path class="cls-9" d="M49.24,66.34l-.08,0h0c-.29-.14-.71-.08-1-.19h0a1.53,1.53,0,0,0,.21-.77v-.89a2.44,2.44,0,0,1,.77.14.83.83,0,0,0,.22.62,1,1,0,0,0,.71.1l.12.17C50.66,66.27,49.8,66.16,49.24,66.34Z"/><path class="cls-8" d="M51.44,67.47c.27-.4-.24-.78-.7-.83s-.83.32-1.27.39a1,1,0,0,0,0-.18.57.57,0,0,0-.32-.48l.08,0c.56-.18,1.42-.07.93-.8l-.12-.17a1.28,1.28,0,0,1,.48,0h0c.08.47.71.78,1.34.89a5.12,5.12,0,0,1-1.07,2.34c.06-.21.07-.41.13-.6S51.3,67.72,51.44,67.47Z"/><path class="cls-10" d="M49.46,67c-.15.47-1.27.16-1.41.74a.42.42,0,0,0,.05.24,5.06,5.06,0,0,0-.53.27,1.3,1.3,0,0,0-.26.17,1.49,1.49,0,0,0-.17-.58,2,2,0,0,0,.48-.88.49.49,0,0,0,0-.27,1.53,1.53,0,0,0,.55-.55h0c.29.11.71,0,1,.19-.42.15-.72.44-.09.64A.65.65,0,0,0,49.46,67Z"/><path class="cls-8" d="M49.5,69.79a5,5,0,0,1-2.33.74c-.2-.09-.42,0-.62-.2s-.49-.57-.41-.73a.18.18,0,0,1,0-.07.69.69,0,0,1-.5-.28c-.19-.36.17-.9.45-1.3a.45.45,0,0,1-.21-.29,1.62,1.62,0,0,1,.41-.8,1.51,1.51,0,0,0,.48.07,1.66,1.66,0,0,0,.77-.2.45.45,0,0,1,0,.26,1.82,1.82,0,0,1-.47.88,1.79,1.79,0,0,1,.16.59.57.57,0,0,0-.15.12l-.08,0-.2.05a.53.53,0,0,0,.08.17,1.49,1.49,0,0,0-.24.69l.18-.07a.8.8,0,0,0,.3-.33,1.1,1.1,0,0,0,.11-.58,3.06,3.06,0,0,1,.93-.27.45.45,0,0,1,.46.29.7.7,0,0,0-.14.27.64.64,0,0,0,.11.57A1.18,1.18,0,0,0,49.5,69.79Z"/><path class="cls-9" d="M51.44,67.47c-.14.25-.38.27-.49.54s-.07.39-.13.6a5.34,5.34,0,0,1-1.32,1.18h0a1.16,1.16,0,0,1-.83-.4c.14-.14.18-.4,0-.79,0,0,0,0,0-.06.22-.31.62-.51.79-.82A2.19,2.19,0,0,0,48.1,68a.42.42,0,0,1-.05-.24c.14-.58,1.26-.27,1.41-.74h0c.44-.07.81-.43,1.27-.39S51.71,67.07,51.44,67.47Z"/><path class="cls-9" d="M52,62.3v.11a3.29,3.29,0,0,0-1.47.73l-.05,0a.83.83,0,0,0-.11-.15,7,7,0,0,0-1.45-1,1.78,1.78,0,0,1,.78-.54.66.66,0,0,0,.59.57.58.58,0,0,0,.19,0V62a2.74,2.74,0,0,0,.62-.18,5.21,5.21,0,0,0-.24-.47l.08,0A1.74,1.74,0,0,1,52,62.3Z"/><path class="cls-8" d="M49.77,63.92c-.08.18-.29.23-.44.31-.33-.21-.67-.76-1-.71v-.94C49.21,62.82,50.11,63.22,49.77,63.92Z"/><path class="cls-10" d="M51.28,65.4c-.19.42-.37.1-.73,0h0a1.28,1.28,0,0,0-.48,0,2,2,0,0,0-.93-.72.61.61,0,0,1,.08-.32.27.27,0,0,1,.13-.1.36.36,0,0,0,.25.07c.33,0,.59-.82.86-1.11C50.85,63.73,51.49,64.85,51.28,65.4Z"/><path class="cls-10" d="M50.39,59.33c-.35,0-.73.24-1-.11a.52.52,0,0,1,.11-.74C49.91,58.63,50.39,59.05,50.39,59.33Z"/><path class="cls-9" d="M51.11,57.93c-.18-.3-.51-.19-.72-.38a.4.4,0,0,1-.13-.45C50.74,57,51.48,57.31,51.11,57.93Z"/><path class="cls-8" d="M50.2,55.86c-.19-.22-.64-.19-.75-.38s0-.31.12-.44C50,55.07,50.46,55.41,50.2,55.86Z"/><path class="cls-8" d="M51.57,54.87a.32.32,0,0,1,.14-.14c.24-.21,1-.38,1.1.08C53,55.52,52.07,55.24,51.57,54.87Z"/><path class="cls-10" d="M44.75,67.88c0-.06.1-.32.1-.43a.59.59,0,0,0-.05-.27A.37.37,0,0,1,45,67c.25-.08.79.38.89.59C46.14,68.23,44.93,68.34,44.75,67.88Z"/><path class="cls-9" d="M45.28,69.22c-.27.19-1.25.19-1.06-.24h0a.63.63,0,0,1,.31-.24A.83.83,0,0,1,45.28,69.22Z"/><path class="cls-8" d="M43.8,66.8c0,.34-.62,0-.74-.38A.46.46,0,0,1,43.8,66.8Z"/><path class="cls-10" d="M44.66,65.59a.54.54,0,0,1-.75-.13c-.19-.31,0-.43.12-.54a.88.88,0,0,1,.26,0C44.53,65,45,65.3,44.66,65.59Z"/><path class="cls-8" d="M43.37,63c-.21.26-.62,0-.64-.28C43.11,62.62,43.58,62.77,43.37,63Z"/><polygon class="cls-11" points="44.85 52.57 43.48 54.34 42.1 52.57 42.68 52.57 42.68 46.61 44.27 46.61 44.27 52.57 44.85 52.57"/><path class="cls-12" d="M64.88,39.12V78.47a1.34,1.34,0,0,1-1.36,1.34h-10V38.64l-2.05-10-.22-5.42h5.57v4.11l7.68,10.86A1.33,1.33,0,0,1,64.88,39.12Z"/><rect class="cls-13" x="52.82" y="17.6" width="4.84" height="5.59"/><path class="cls-14" d="M96.75,56.69A48.72,48.72,0,0,1,52.81,97.24L35,79.48a1.29,1.29,0,0,0,.88.34h27.6a1.29,1.29,0,0,0,.87-.33.28.28,0,0,0,.09-.07,1.63,1.63,0,0,0,.17-.2,1.28,1.28,0,0,0,.23-.75V39.12a1.37,1.37,0,0,0-.41-1L56.78,27.29v-4.1h.88V17.6Z"/></g></g></g></svg>